<svg width="106" height="88" viewBox="0 0 106 88" fill="none" xmlns="http://www.w3.org/2000/svg">
<g filter="url(#filter0_d_300_1817)">
<circle cx="44" cy="44" r="36" fill="url(#paint0_linear_300_1817)"/>
<mask id="path-2-outside-1_300_1817" maskUnits="userSpaceOnUse" x="14.4385" y="27.2578" width="59" height="45" fill="black">
<rect fill="white" x="14.4385" y="27.2578" width="59" height="45"/>
<path d="M58.8571 33.8978C58.0292 33.9057 57.2035 33.9746 56.3869 34.1057C55.5702 34.2368 54.766 34.4369 53.981 34.6911C52.4121 35.2054 50.9177 35.9546 49.5917 36.9356C48.2577 37.9098 47.0796 39.0784 45.9219 40.2583C44.7664 41.4415 43.6132 42.5819 42.356 43.6725C44.894 45.2083 47.7607 46.0933 50.7065 46.4131C53.65 46.742 56.6613 46.4244 59.475 45.5124C62.2897 44.6014 64.9068 43.0859 67.089 41.0935C69.2713 39.1021 71.0695 36.8633 72.1832 34.1294C70.1692 32.2466 67.7713 30.7785 65.1768 29.853C62.5823 28.924 59.7924 28.5623 57.0488 28.7511C55.6753 28.8471 54.3165 29.1059 52.9961 29.4924C51.6779 29.888 50.4016 30.4203 49.1975 31.0859C48.6 31.4239 48.016 31.7855 47.458 32.1901C46.9012 32.5947 46.3579 33.0185 45.836 33.4717C44.789 34.3724 43.804 35.35 42.8293 36.3412C41.8534 37.3312 40.8842 38.3359 39.8654 39.2965C39.356 39.7768 38.8353 40.247 38.2931 40.6934C37.7521 41.1421 37.1941 41.5715 36.6068 41.9625C36.4611 42.062 36.3153 42.1614 36.164 42.2519C36.0138 42.3445 35.8658 42.4406 35.7133 42.5287L35.2513 42.7887C35.0989 42.878 34.9373 42.9503 34.7803 43.0317L34.5431 43.1515C34.4641 43.1899 34.3816 43.2238 34.3014 43.26C34.1388 43.33 33.9795 43.4058 33.8157 43.4724C33.4848 43.599 33.1561 43.7312 32.8172 43.8318C32.4829 43.9482 32.1361 44.0262 31.795 44.1189L31.2743 44.2251L31.0134 44.2771L30.7502 44.3167C30.0499 44.4218 29.3417 44.4704 28.6335 44.4636C27.2182 44.45 25.8074 44.2172 24.4611 43.7843C23.7879 43.5674 23.1316 43.2995 22.4991 42.9842C21.8677 42.6655 21.2589 42.3027 20.6794 41.8993C18.3684 40.2718 16.5364 37.9708 15.4972 35.3387L15.4385 35.1884L15.5684 35.0946C17.51 33.6898 19.8447 32.8795 22.2156 32.6693C24.5898 32.4591 27.0104 32.8569 29.1983 33.7881C30.2916 34.256 31.3263 34.8561 32.2886 35.5523C33.2487 36.2519 34.1263 37.0588 34.9283 37.9313C36.5243 39.6864 37.7939 41.7184 38.7607 43.8736C39.2476 44.9507 39.6553 46.0627 39.9919 47.1952C40.1647 47.7602 40.3082 48.3332 40.4449 48.9073C40.5714 49.4837 40.69 50.0635 40.7792 50.6466C40.9565 51.813 41.0943 52.9827 41.1971 54.1558C41.2559 54.7412 41.2943 55.3289 41.3417 55.9154C41.379 56.5031 41.4242 57.0896 41.4535 57.6773C41.5857 60.0269 41.6602 62.3788 41.6839 64.7317C41.711 67.0836 41.6851 69.4366 41.5947 71.7873C41.6252 70.6119 41.6376 69.4354 41.6376 68.2601C41.6331 67.0847 41.6229 65.9082 41.597 64.7329C41.5495 62.3822 41.4524 60.0326 41.2976 57.6864C41.2626 57.0998 41.2118 56.5144 41.1689 55.9278C41.1147 55.3424 41.0717 54.757 41.0074 54.1727C40.8933 53.0041 40.7442 51.8378 40.5567 50.6817C40.3624 49.5267 40.0913 48.3852 39.7502 47.2652C39.4102 46.1452 39.0002 45.0467 38.5123 43.9833C37.5443 41.8563 36.2769 39.8571 34.6967 38.1404C33.9027 37.2871 33.0375 36.4994 32.0921 35.8202C31.1455 35.1432 30.1312 34.5634 29.0605 34.1125C26.9178 33.2163 24.5605 32.8445 22.2506 33.0626C19.9464 33.2818 17.7551 33.9096 15.8835 35.2715C16.8967 37.8222 18.6825 39.9701 20.9268 41.5444C21.4904 41.9354 22.0812 42.2858 22.6934 42.5932C23.3067 42.8972 23.9437 43.156 24.5966 43.3651C25.9023 43.7821 27.269 44.0047 28.638 44.0149C29.3225 44.0206 30.007 43.972 30.6824 43.8691L30.9355 43.8307L31.1873 43.7798L31.69 43.6759C32.0198 43.5854 32.3541 43.5109 32.6772 43.3967C33.0047 43.2984 33.3221 43.1695 33.6418 43.0475C33.7999 42.9831 33.9547 42.9096 34.1117 42.8407C34.1896 42.8056 34.2687 42.7729 34.3455 42.7344L34.5748 42.618C34.7261 42.5389 34.8831 42.4677 35.0311 42.3807L35.4784 42.1275C35.6263 42.0405 35.7698 41.9467 35.9166 41.8563C36.0635 41.7682 36.2058 41.671 36.347 41.5738C36.9185 41.1918 37.4641 40.7702 37.9938 40.3295C38.5258 39.891 39.0386 39.4253 39.5412 38.9496C40.5488 37.9991 41.5089 36.9933 42.4893 36.0021C43.4686 35.0098 44.4648 34.0255 45.5311 33.1123C46.0619 32.6535 46.6177 32.2206 47.1881 31.8081C47.7585 31.3956 48.3605 31.0238 48.975 30.6791C50.2095 29.9999 51.5175 29.4574 52.8673 29.0551C54.2193 28.6618 55.6109 28.4007 57.016 28.3046C59.824 28.117 62.6715 28.4922 65.3213 29.4461C67.9701 30.3966 70.4155 31.9008 72.4667 33.8266L72.5717 33.9249L72.5175 34.056C72.2261 34.751 71.903 35.4325 71.5427 36.0948C71.1745 36.7525 70.778 37.3933 70.3432 38.0093C69.9027 38.6207 69.4362 39.2129 68.9358 39.7746C68.4309 40.3329 67.9034 40.8708 67.3443 41.3749C65.109 43.3922 62.4388 44.9156 59.5755 45.8243C56.7122 46.7329 53.658 47.0358 50.676 46.6855C47.6941 46.343 44.7935 45.3293 42.2464 43.7482L42.1233 43.6725L42.2329 43.5798C43.4889 42.5107 44.6376 41.3184 45.8067 40.1441C46.9769 38.9744 48.1719 37.8115 49.525 36.8429C50.8714 35.8688 52.3805 35.1251 53.9629 34.6301C54.7547 34.3849 55.5646 34.195 56.3835 34.0741C57.2012 33.9543 58.0303 33.8955 58.8571 33.8978Z"/>
</mask>
<path d="M58.8571 33.8978C58.0292 33.9057 57.2035 33.9746 56.3869 34.1057C55.5702 34.2368 54.766 34.4369 53.981 34.6911C52.4121 35.2054 50.9177 35.9546 49.5917 36.9356C48.2577 37.9098 47.0796 39.0784 45.9219 40.2583C44.7664 41.4415 43.6132 42.5819 42.356 43.6725C44.894 45.2083 47.7607 46.0933 50.7065 46.4131C53.65 46.742 56.6613 46.4244 59.475 45.5124C62.2897 44.6014 64.9068 43.0859 67.089 41.0935C69.2713 39.1021 71.0695 36.8633 72.1832 34.1294C70.1692 32.2466 67.7713 30.7785 65.1768 29.853C62.5823 28.924 59.7924 28.5623 57.0488 28.7511C55.6753 28.8471 54.3165 29.1059 52.9961 29.4924C51.6779 29.888 50.4016 30.4203 49.1975 31.0859C48.6 31.4239 48.016 31.7855 47.458 32.1901C46.9012 32.5947 46.3579 33.0185 45.836 33.4717C44.789 34.3724 43.804 35.35 42.8293 36.3412C41.8534 37.3312 40.8842 38.3359 39.8654 39.2965C39.356 39.7768 38.8353 40.247 38.2931 40.6934C37.7521 41.1421 37.1941 41.5715 36.6068 41.9625C36.4611 42.062 36.3153 42.1614 36.164 42.2519C36.0138 42.3445 35.8658 42.4406 35.7133 42.5287L35.2513 42.7887C35.0989 42.878 34.9373 42.9503 34.7803 43.0317L34.5431 43.1515C34.4641 43.1899 34.3816 43.2238 34.3014 43.26C34.1388 43.33 33.9795 43.4058 33.8157 43.4724C33.4848 43.599 33.1561 43.7312 32.8172 43.8318C32.4829 43.9482 32.1361 44.0262 31.795 44.1189L31.2743 44.2251L31.0134 44.2771L30.7502 44.3167C30.0499 44.4218 29.3417 44.4704 28.6335 44.4636C27.2182 44.45 25.8074 44.2172 24.4611 43.7843C23.7879 43.5674 23.1316 43.2995 22.4991 42.9842C21.8677 42.6655 21.2589 42.3027 20.6794 41.8993C18.3684 40.2718 16.5364 37.9708 15.4972 35.3387L15.4385 35.1884L15.5684 35.0946C17.51 33.6898 19.8447 32.8795 22.2156 32.6693C24.5898 32.4591 27.0104 32.8569 29.1983 33.7881C30.2916 34.256 31.3263 34.8561 32.2886 35.5523C33.2487 36.2519 34.1263 37.0588 34.9283 37.9313C36.5243 39.6864 37.7939 41.7184 38.7607 43.8736C39.2476 44.9507 39.6553 46.0627 39.9919 47.1952C40.1647 47.7602 40.3082 48.3332 40.4449 48.9073C40.5714 49.4837 40.69 50.0635 40.7792 50.6466C40.9565 51.813 41.0943 52.9827 41.1971 54.1558C41.2559 54.7412 41.2943 55.3289 41.3417 55.9154C41.379 56.5031 41.4242 57.0896 41.4535 57.6773C41.5857 60.0269 41.6602 62.3788 41.6839 64.7317C41.711 67.0836 41.6851 69.4366 41.5947 71.7873C41.6252 70.6119 41.6376 69.4354 41.6376 68.2601C41.6331 67.0847 41.6229 65.9082 41.597 64.7329C41.5495 62.3822 41.4524 60.0326 41.2976 57.6864C41.2626 57.0998 41.2118 56.5144 41.1689 55.9278C41.1147 55.3424 41.0717 54.757 41.0074 54.1727C40.8933 53.0041 40.7442 51.8378 40.5567 50.6817C40.3624 49.5267 40.0913 48.3852 39.7502 47.2652C39.4102 46.1452 39.0002 45.0467 38.5123 43.9833C37.5443 41.8563 36.2769 39.8571 34.6967 38.1404C33.9027 37.2871 33.0375 36.4994 32.0921 35.8202C31.1455 35.1432 30.1312 34.5634 29.0605 34.1125C26.9178 33.2163 24.5605 32.8445 22.2506 33.0626C19.9464 33.2818 17.7551 33.9096 15.8835 35.2715C16.8967 37.8222 18.6825 39.9701 20.9268 41.5444C21.4904 41.9354 22.0812 42.2858 22.6934 42.5932C23.3067 42.8972 23.9437 43.156 24.5966 43.3651C25.9023 43.7821 27.269 44.0047 28.638 44.0149C29.3225 44.0206 30.007 43.972 30.6824 43.8691L30.9355 43.8307L31.1873 43.7798L31.69 43.6759C32.0198 43.5854 32.3541 43.5109 32.6772 43.3967C33.0047 43.2984 33.3221 43.1695 33.6418 43.0475C33.7999 42.9831 33.9547 42.9096 34.1117 42.8407C34.1896 42.8056 34.2687 42.7729 34.3455 42.7344L34.5748 42.618C34.7261 42.5389 34.8831 42.4677 35.0311 42.3807L35.4784 42.1275C35.6263 42.0405 35.7698 41.9467 35.9166 41.8563C36.0635 41.7682 36.2058 41.671 36.347 41.5738C36.9185 41.1918 37.4641 40.7702 37.9938 40.3295C38.5258 39.891 39.0386 39.4253 39.5412 38.9496C40.5488 37.9991 41.5089 36.9933 42.4893 36.0021C43.4686 35.0098 44.4648 34.0255 45.5311 33.1123C46.0619 32.6535 46.6177 32.2206 47.1881 31.8081C47.7585 31.3956 48.3605 31.0238 48.975 30.6791C50.2095 29.9999 51.5175 29.4574 52.8673 29.0551C54.2193 28.6618 55.6109 28.4007 57.016 28.3046C59.824 28.117 62.6715 28.4922 65.3213 29.4461C67.9701 30.3966 70.4155 31.9008 72.4667 33.8266L72.5717 33.9249L72.5175 34.056C72.2261 34.751 71.903 35.4325 71.5427 36.0948C71.1745 36.7525 70.778 37.3933 70.3432 38.0093C69.9027 38.6207 69.4362 39.2129 68.9358 39.7746C68.4309 40.3329 67.9034 40.8708 67.3443 41.3749C65.109 43.3922 62.4388 44.9156 59.5755 45.8243C56.7122 46.7329 53.658 47.0358 50.676 46.6855C47.6941 46.343 44.7935 45.3293 42.2464 43.7482L42.1233 43.6725L42.2329 43.5798C43.4889 42.5107 44.6376 41.3184 45.8067 40.1441C46.9769 38.9744 48.1719 37.8115 49.525 36.8429C50.8714 35.8688 52.3805 35.1251 53.9629 34.6301C54.7547 34.3849 55.5646 34.195 56.3835 34.0741C57.2012 33.9543 58.0303 33.8955 58.8571 33.8978Z" fill="white"/>
<path d="M58.8571 33.8978C58.0292 33.9057 57.2035 33.9746 56.3869 34.1057C55.5702 34.2368 54.766 34.4369 53.981 34.6911C52.4121 35.2054 50.9177 35.9546 49.5917 36.9356C48.2577 37.9098 47.0796 39.0784 45.9219 40.2583C44.7664 41.4415 43.6132 42.5819 42.356 43.6725C44.894 45.2083 47.7607 46.0933 50.7065 46.4131C53.65 46.742 56.6613 46.4244 59.475 45.5124C62.2897 44.6014 64.9068 43.0859 67.089 41.0935C69.2713 39.1021 71.0695 36.8633 72.1832 34.1294C70.1692 32.2466 67.7713 30.7785 65.1768 29.853C62.5823 28.924 59.7924 28.5623 57.0488 28.7511C55.6753 28.8471 54.3165 29.1059 52.9961 29.4924C51.6779 29.888 50.4016 30.4203 49.1975 31.0859C48.6 31.4239 48.016 31.7855 47.458 32.1901C46.9012 32.5947 46.3579 33.0185 45.836 33.4717C44.789 34.3724 43.804 35.35 42.8293 36.3412C41.8534 37.3312 40.8842 38.3359 39.8654 39.2965C39.356 39.7768 38.8353 40.247 38.2931 40.6934C37.7521 41.1421 37.1941 41.5715 36.6068 41.9625C36.4611 42.062 36.3153 42.1614 36.164 42.2519C36.0138 42.3445 35.8658 42.4406 35.7133 42.5287L35.2513 42.7887C35.0989 42.878 34.9373 42.9503 34.7803 43.0317L34.5431 43.1515C34.4641 43.1899 34.3816 43.2238 34.3014 43.26C34.1388 43.33 33.9795 43.4058 33.8157 43.4724C33.4848 43.599 33.1561 43.7312 32.8172 43.8318C32.4829 43.9482 32.1361 44.0262 31.795 44.1189L31.2743 44.2251L31.0134 44.2771L30.7502 44.3167C30.0499 44.4218 29.3417 44.4704 28.6335 44.4636C27.2182 44.45 25.8074 44.2172 24.4611 43.7843C23.7879 43.5674 23.1316 43.2995 22.4991 42.9842C21.8677 42.6655 21.2589 42.3027 20.6794 41.8993C18.3684 40.2718 16.5364 37.9708 15.4972 35.3387L15.4385 35.1884L15.5684 35.0946C17.51 33.6898 19.8447 32.8795 22.2156 32.6693C24.5898 32.4591 27.0104 32.8569 29.1983 33.7881C30.2916 34.256 31.3263 34.8561 32.2886 35.5523C33.2487 36.2519 34.1263 37.0588 34.9283 37.9313C36.5243 39.6864 37.7939 41.7184 38.7607 43.8736C39.2476 44.9507 39.6553 46.0627 39.9919 47.1952C40.1647 47.7602 40.3082 48.3332 40.4449 48.9073C40.5714 49.4837 40.69 50.0635 40.7792 50.6466C40.9565 51.813 41.0943 52.9827 41.1971 54.1558C41.2559 54.7412 41.2943 55.3289 41.3417 55.9154C41.379 56.5031 41.4242 57.0896 41.4535 57.6773C41.5857 60.0269 41.6602 62.3788 41.6839 64.7317C41.711 67.0836 41.6851 69.4366 41.5947 71.7873C41.6252 70.6119 41.6376 69.4354 41.6376 68.2601C41.6331 67.0847 41.6229 65.9082 41.597 64.7329C41.5495 62.3822 41.4524 60.0326 41.2976 57.6864C41.2626 57.0998 41.2118 56.5144 41.1689 55.9278C41.1147 55.3424 41.0717 54.757 41.0074 54.1727C40.8933 53.0041 40.7442 51.8378 40.5567 50.6817C40.3624 49.5267 40.0913 48.3852 39.7502 47.2652C39.4102 46.1452 39.0002 45.0467 38.5123 43.9833C37.5443 41.8563 36.2769 39.8571 34.6967 38.1404C33.9027 37.2871 33.0375 36.4994 32.0921 35.8202C31.1455 35.1432 30.1312 34.5634 29.0605 34.1125C26.9178 33.2163 24.5605 32.8445 22.2506 33.0626C19.9464 33.2818 17.7551 33.9096 15.8835 35.2715C16.8967 37.8222 18.6825 39.9701 20.9268 41.5444C21.4904 41.9354 22.0812 42.2858 22.6934 42.5932C23.3067 42.8972 23.9437 43.156 24.5966 43.3651C25.9023 43.7821 27.269 44.0047 28.638 44.0149C29.3225 44.0206 30.007 43.972 30.6824 43.8691L30.9355 43.8307L31.1873 43.7798L31.69 43.6759C32.0198 43.5854 32.3541 43.5109 32.6772 43.3967C33.0047 43.2984 33.3221 43.1695 33.6418 43.0475C33.7999 42.9831 33.9547 42.9096 34.1117 42.8407C34.1896 42.8056 34.2687 42.7729 34.3455 42.7344L34.5748 42.618C34.7261 42.5389 34.8831 42.4677 35.0311 42.3807L35.4784 42.1275C35.6263 42.0405 35.7698 41.9467 35.9166 41.8563C36.0635 41.7682 36.2058 41.671 36.347 41.5738C36.9185 41.1918 37.4641 40.7702 37.9938 40.3295C38.5258 39.891 39.0386 39.4253 39.5412 38.9496C40.5488 37.9991 41.5089 36.9933 42.4893 36.0021C43.4686 35.0098 44.4648 34.0255 45.5311 33.1123C46.0619 32.6535 46.6177 32.2206 47.1881 31.8081C47.7585 31.3956 48.3605 31.0238 48.975 30.6791C50.2095 29.9999 51.5175 29.4574 52.8673 29.0551C54.2193 28.6618 55.6109 28.4007 57.016 28.3046C59.824 28.117 62.6715 28.4922 65.3213 29.4461C67.9701 30.3966 70.4155 31.9008 72.4667 33.8266L72.5717 33.9249L72.5175 34.056C72.2261 34.751 71.903 35.4325 71.5427 36.0948C71.1745 36.7525 70.778 37.3933 70.3432 38.0093C69.9027 38.6207 69.4362 39.2129 68.9358 39.7746C68.4309 40.3329 67.9034 40.8708 67.3443 41.3749C65.109 43.3922 62.4388 44.9156 59.5755 45.8243C56.7122 46.7329 53.658 47.0358 50.676 46.6855C47.6941 46.343 44.7935 45.3293 42.2464 43.7482L42.1233 43.6725L42.2329 43.5798C43.4889 42.5107 44.6376 41.3184 45.8067 40.1441C46.9769 38.9744 48.1719 37.8115 49.525 36.8429C50.8714 35.8688 52.3805 35.1251 53.9629 34.6301C54.7547 34.3849 55.5646 34.195 56.3835 34.0741C57.2012 33.9543 58.0303 33.8955 58.8571 33.8978Z" stroke="white" stroke-width="1.125" mask="url(#path-2-outside-1_300_1817)"/>
</g>
<defs>
<filter id="filter0_d_300_1817" x="-17.1429" y="-14" width="122.286" height="122.286" filterUnits="userSpaceOnUse" color-interpolation-filters="sRGB">
<feFlood flood-opacity="0" result="BackgroundImageFix"/>
<feColorMatrix in="SourceAlpha" type="matrix" values="0 0 0 0 0 0 0 0 0 0 0 0 0 0 0 0 0 0 127 0" result="hardAlpha"/>
<feOffset dy="3.14286"/>
<feGaussianBlur stdDeviation="12.5714"/>
<feComposite in2="hardAlpha" operator="out"/>
<feColorMatrix type="matrix" values="0 0 0 0 0.104167 0 0 0 0 0.066116 0 0 0 0 0.030816 0 0 0 0.12 0"/>
<feBlend mode="normal" in2="BackgroundImageFix" result="effect1_dropShadow_300_1817"/>
<feBlend mode="normal" in="SourceGraphic" in2="effect1_dropShadow_300_1817" result="shape"/>
</filter>
<linearGradient id="paint0_linear_300_1817" x1="8" y1="21.5" x2="82.4306" y2="26.7622" gradientUnits="userSpaceOnUse">
<stop stop-color="#30C917"/>
<stop offset="1" stop-color="#279A13"/>
</linearGradient>
</defs>
</svg>
