<svg width="64" height="64" viewBox="0 0 64 64" fill="none" xmlns="http://www.w3.org/2000/svg">
<g filter="url(#filter0_ii_300_1197)">
<circle cx="32" cy="32" r="32" fill="url(#paint0_linear_300_1197)"/>
</g>
<g clip-path="url(#clip0_300_1197)">
<path d="M48.1286 27.2251H37.3766V23.0437H38.84C39.3317 23.0453 39.7742 22.7455 39.9549 22.2882C40.1356 21.8309 40.0177 21.3096 39.6578 20.9746C38.6208 20.0129 37.0098 18.4508 35.5881 17.0704C34.3977 15.9169 33.3685 14.92 32.8111 14.4027C32.3498 13.9769 31.6376 13.9808 31.181 14.4117L24.3487 20.9746C23.9895 21.3089 23.8713 21.8289 24.0506 22.2857C24.23 22.7424 24.6704 23.0431 25.1611 23.0437H26.6246V28.5816C21.4595 27.7023 16.4132 30.6756 14.6793 35.6198C12.9454 40.5639 15.0294 46.0378 19.6122 48.577C24.1951 51.1163 29.9411 49.9809 33.2137 45.8893C33.5377 46.1779 33.956 46.3381 34.3899 46.3397H34.4998C34.4291 46.531 34.3919 46.7331 34.3899 46.9371V48.1317C34.3899 49.1214 35.1922 49.9237 36.1819 49.9237H48.1286C49.1183 49.9237 49.9206 49.1214 49.9206 48.1317V46.9371C49.9206 45.9474 49.1183 45.1451 48.1286 45.1451H48.0187C48.0894 44.9538 48.1266 44.7517 48.1286 44.5477V43.3531C48.1279 43.1245 48.0833 42.8982 47.9971 42.6864C48.7768 42.4765 49.3198 41.7711 49.3232 40.9637V39.7691C49.3221 39.1554 49.0064 38.5851 48.487 38.2584C48.6418 37.9913 48.7241 37.6884 48.7259 37.3797V36.1851C48.7248 35.5714 48.4091 35.0011 47.8896 34.6744C48.0444 34.4073 48.1268 34.1044 48.1286 33.7957V32.6011C48.1266 32.3971 48.0894 32.195 48.0187 32.0037H48.1286C49.1183 32.0037 49.9206 31.2014 49.9206 30.2117V29.0171C49.9206 28.0274 49.1183 27.2251 48.1286 27.2251ZM26.6246 21.8491L25.1683 21.8431L32.0006 15.2784C32.5465 15.7849 33.6199 16.8255 34.7567 17.9276C36.1819 19.3122 37.7989 20.8796 38.84 21.8491H37.3766C36.7168 21.8491 36.1819 22.3839 36.1819 23.0437V27.2251C35.1922 27.2251 34.3899 28.0274 34.3899 29.0171V30.2117C34.3919 30.4157 34.4291 30.6178 34.4998 30.8091H34.3899C33.6679 30.8093 33.0166 31.2428 32.7377 31.9088C31.4086 30.4588 29.7075 29.401 27.8192 28.8504V23.0437C27.8192 22.3839 27.2844 21.8491 26.6246 21.8491ZM46.9339 35.5877C47.2638 35.5877 47.5312 35.8552 47.5312 36.1851V37.3797C47.5312 37.7096 47.2638 37.9771 46.9339 37.9771H35.5141C35.4213 37.1618 35.2345 36.36 34.9574 35.5877H46.9339ZM24.8326 46.3397C20.8738 46.3397 17.6646 43.1305 17.6646 39.1717C17.6646 35.213 20.8738 32.0037 24.8326 32.0037C28.7913 32.0037 32.0006 35.213 32.0006 39.1717C31.9963 43.1287 28.7896 46.3355 24.8326 46.3397ZM30.3005 32.8591C28.9391 31.6753 27.2296 30.9664 25.4299 30.8395V29.6449C27.5459 29.7754 29.5576 30.6094 31.1452 32.0145L30.3005 32.8591ZM24.2352 30.8395C22.4356 30.9664 20.726 31.6753 19.3646 32.8591L18.5199 32.0145C20.1075 30.6094 22.1192 29.7754 24.2352 29.6449V30.8395ZM18.5199 33.7037C17.3361 35.0652 16.6273 36.7747 16.5004 38.5744H15.3057C15.4362 36.4584 16.2703 34.4467 17.6753 32.8591L18.5199 33.7037ZM16.5004 39.7691C16.6273 41.5687 17.3361 43.2783 18.5199 44.6397L17.6753 45.4844C16.2703 43.8968 15.4362 41.8851 15.3057 39.7691H16.5004ZM19.3676 45.4844C20.7282 46.6676 22.4366 47.3764 24.2352 47.5039V48.6986C22.1192 48.5681 20.1075 47.734 18.5199 46.329L19.3676 45.4844ZM25.4299 47.5039C27.2296 47.377 28.9391 46.6682 30.3005 45.4844L31.1452 46.329C29.5576 47.734 27.5459 48.5681 25.4299 48.6986V47.5039ZM31.1452 44.6397C32.329 43.2783 33.0378 41.5687 33.1648 39.7691H34.3594C34.2289 41.8851 33.3949 43.8968 31.9898 45.4844L31.1452 44.6397ZM34.3594 38.5744H33.1648C33.0378 36.7747 32.329 35.0652 31.1452 33.7037L31.9898 32.8591C33.3949 34.4467 34.2289 36.4584 34.3594 38.5744ZM48.7259 46.9371V48.1317C48.7259 48.4616 48.4585 48.7291 48.1286 48.7291H36.1819C35.852 48.7291 35.5846 48.4616 35.5846 48.1317V46.9371C35.5846 46.6072 35.852 46.3397 36.1819 46.3397H48.1286C48.4585 46.3397 48.7259 46.6072 48.7259 46.9371ZM36.1819 45.1451H34.3899C34.2005 45.1451 34.0226 45.054 33.912 44.9002C34.3391 44.2265 34.6898 43.5072 34.9574 42.7557H46.3366C46.6665 42.7557 46.9339 43.0232 46.9339 43.3531V44.5477C46.9339 44.8776 46.6665 45.1451 46.3366 45.1451H36.1819ZM48.1286 40.9637C48.1286 41.2936 47.8611 41.5611 47.5312 41.5611H35.3074C35.4891 40.7775 35.5821 39.9761 35.5846 39.1717H47.5312C47.8611 39.1717 48.1286 39.4392 48.1286 39.7691V40.9637ZM46.9339 32.6011V33.7957C46.9339 34.1256 46.6665 34.3931 46.3366 34.3931H34.4496C34.2548 33.9959 34.0354 33.6112 33.7926 33.2414V32.6011C33.7926 32.2712 34.06 32.0037 34.3899 32.0037H46.3366C46.6665 32.0037 46.9339 32.2712 46.9339 32.6011ZM48.7259 30.2117C48.7259 30.5416 48.4585 30.8091 48.1286 30.8091H36.1819C35.852 30.8091 35.5846 30.5416 35.5846 30.2117V29.0171C35.5846 28.6872 35.852 28.4197 36.1819 28.4197H48.1286C48.4585 28.4197 48.7259 28.6872 48.7259 29.0171V30.2117Z" fill="white"/>
<mask id="path-3-outside-1_300_1197" maskUnits="userSpaceOnUse" x="18.2002" y="34.8438" width="13" height="10" fill="black">
<rect fill="white" x="18.2002" y="34.8438" width="13" height="10"/>
<path d="M27.4685 36.9217C27.3108 36.9233 27.1536 36.9364 26.9981 36.9615C26.8426 36.9865 26.6894 37.0248 26.5399 37.0734C26.2412 37.1717 25.9566 37.3149 25.7041 37.5024C25.45 37.6886 25.2257 37.9119 25.0052 38.1375C24.7852 38.3636 24.5656 38.5816 24.3262 38.79C24.8095 39.0836 25.3554 39.2527 25.9164 39.3139C26.4769 39.3767 27.0503 39.316 27.5862 39.1417C28.1222 38.9676 28.6206 38.6779 29.0361 38.2971C29.4517 37.9165 29.7941 37.4886 30.0062 36.966C29.6227 36.6061 29.166 36.3255 28.672 36.1486C28.1779 35.9711 27.6466 35.902 27.1241 35.938C26.8626 35.9564 26.6038 36.0059 26.3524 36.0797C26.1013 36.1553 25.8583 36.2571 25.629 36.3843C25.5152 36.4489 25.404 36.518 25.2977 36.5953C25.1917 36.6727 25.0882 36.7537 24.9889 36.8403C24.7895 37.0125 24.6019 37.1993 24.4163 37.3888C24.2304 37.578 24.0459 37.77 23.8519 37.9536C23.7549 38.0454 23.6557 38.1353 23.5525 38.2206C23.4494 38.3064 23.3432 38.3885 23.2313 38.4632C23.2036 38.4822 23.1758 38.5012 23.147 38.5185C23.1184 38.5362 23.0902 38.5546 23.0612 38.5714L22.9732 38.6211C22.9442 38.6382 22.9134 38.652 22.8835 38.6675L22.8383 38.6904C22.8233 38.6978 22.8076 38.7043 22.7923 38.7112C22.7613 38.7246 22.731 38.739 22.6998 38.7518C22.6368 38.776 22.5742 38.8013 22.5097 38.8205C22.446 38.8427 22.38 38.8576 22.315 38.8754L22.2158 38.8957L22.1662 38.9056L22.116 38.9132C21.9827 38.9332 21.8478 38.9425 21.713 38.9412C21.4434 38.9386 21.1748 38.8941 20.9184 38.8114C20.7902 38.7699 20.6652 38.7187 20.5448 38.6585C20.4245 38.5976 20.3086 38.5282 20.1982 38.4511C19.7582 38.14 19.4093 37.7002 19.2114 37.1972L19.2002 37.1684L19.2249 37.1505C19.5947 36.882 20.0393 36.7271 20.4908 36.6869C20.9429 36.6468 21.4039 36.7228 21.8205 36.9008C22.0287 36.9902 22.2257 37.1049 22.409 37.238C22.5918 37.3717 22.759 37.5259 22.9117 37.6927C23.2156 38.0282 23.4574 38.4165 23.6415 38.8285C23.7342 39.0343 23.8119 39.2469 23.876 39.4633C23.9089 39.5713 23.9362 39.6809 23.9622 39.7906C23.9863 39.9008 24.0089 40.0116 24.0259 40.123C24.0596 40.346 24.0859 40.5695 24.1055 40.7938C24.1167 40.9056 24.124 41.018 24.133 41.1301C24.1401 41.2424 24.1487 41.3545 24.1543 41.4668C24.1795 41.9159 24.1937 42.3655 24.1982 42.8152C24.2033 43.2647 24.1984 43.7144 24.1812 44.1637C24.187 43.9391 24.1894 43.7142 24.1894 43.4896C24.1885 43.2649 24.1866 43.0401 24.1816 42.8154C24.1726 42.3661 24.1541 41.917 24.1246 41.4686C24.1179 41.3565 24.1083 41.2446 24.1001 41.1325C24.0898 41.0206 24.0816 40.9087 24.0693 40.797C24.0476 40.5736 24.0192 40.3507 23.9835 40.1297C23.9465 39.909 23.8949 39.6908 23.8299 39.4767C23.7652 39.2627 23.6871 39.0527 23.5942 38.8494C23.4098 38.4429 23.1685 38.0608 22.8676 37.7326C22.7164 37.5696 22.5516 37.419 22.3716 37.2892C22.1913 37.1598 21.9982 37.049 21.7943 36.9628C21.3862 36.7915 20.9373 36.7204 20.4974 36.7621C20.0586 36.804 19.6414 36.924 19.2849 37.1843C19.4779 37.6718 19.818 38.0824 20.2453 38.3833C20.3527 38.458 20.4652 38.525 20.5818 38.5837C20.6986 38.6418 20.8199 38.6913 20.9442 38.7313C21.1928 38.811 21.4531 38.8535 21.7138 38.8555C21.8442 38.8566 21.9745 38.8473 22.1031 38.8276L22.1513 38.8203L22.1993 38.8105L22.295 38.7907C22.3578 38.7734 22.4215 38.7591 22.483 38.7373C22.5454 38.7185 22.6058 38.6939 22.6667 38.6706C22.6968 38.6583 22.7263 38.6442 22.7562 38.631C22.771 38.6243 22.7861 38.6181 22.8007 38.6107L22.8444 38.5885C22.8732 38.5734 22.9031 38.5598 22.9313 38.5431L23.0164 38.4947C23.0446 38.4781 23.0719 38.4602 23.0999 38.4429C23.1279 38.426 23.155 38.4075 23.1818 38.3889C23.2907 38.3159 23.3946 38.2353 23.4955 38.1511C23.5968 38.0673 23.6944 37.9783 23.7901 37.8873C23.982 37.7056 24.1648 37.5134 24.3515 37.324C24.538 37.1343 24.7277 36.9462 24.9308 36.7716C25.0319 36.6839 25.1377 36.6012 25.2463 36.5223C25.355 36.4435 25.4696 36.3724 25.5866 36.3065C25.8217 36.1767 26.0708 36.073 26.3278 35.9961C26.5853 35.921 26.8503 35.8711 27.1179 35.8527C27.6526 35.8168 28.1949 35.8886 28.6995 36.0709C29.2039 36.2525 29.6696 36.54 30.0602 36.9081L30.0802 36.9269L30.0699 36.952C30.0144 37.0848 29.9529 37.2151 29.8842 37.3417C29.8141 37.4674 29.7386 37.5899 29.6558 37.7076C29.5719 37.8245 29.4831 37.9376 29.3878 38.045C29.2917 38.1517 29.1912 38.2545 29.0847 38.3509C28.6591 38.7365 28.1506 39.0276 27.6053 39.2013C27.06 39.375 26.4784 39.4329 25.9106 39.3659C25.3427 39.3005 24.7903 39.1067 24.3053 38.8045L24.2818 38.79L24.3027 38.7723C24.5419 38.568 24.7606 38.3401 24.9833 38.1156C25.2061 37.8921 25.4337 37.6698 25.6914 37.4847C25.9478 37.2985 26.2351 37.1563 26.5365 37.0617C26.6873 37.0148 26.8415 36.9786 26.9974 36.9554C27.1532 36.9325 27.311 36.9213 27.4685 36.9217Z"/>
</mask>
<path d="M27.4685 36.9217C27.3108 36.9233 27.1536 36.9364 26.9981 36.9615C26.8426 36.9865 26.6894 37.0248 26.5399 37.0734C26.2412 37.1717 25.9566 37.3149 25.7041 37.5024C25.45 37.6886 25.2257 37.9119 25.0052 38.1375C24.7852 38.3636 24.5656 38.5816 24.3262 38.79C24.8095 39.0836 25.3554 39.2527 25.9164 39.3139C26.4769 39.3767 27.0503 39.316 27.5862 39.1417C28.1222 38.9676 28.6206 38.6779 29.0361 38.2971C29.4517 37.9165 29.7941 37.4886 30.0062 36.966C29.6227 36.6061 29.166 36.3255 28.672 36.1486C28.1779 35.9711 27.6466 35.902 27.1241 35.938C26.8626 35.9564 26.6038 36.0059 26.3524 36.0797C26.1013 36.1553 25.8583 36.2571 25.629 36.3843C25.5152 36.4489 25.404 36.518 25.2977 36.5953C25.1917 36.6727 25.0882 36.7537 24.9889 36.8403C24.7895 37.0125 24.6019 37.1993 24.4163 37.3888C24.2304 37.578 24.0459 37.77 23.8519 37.9536C23.7549 38.0454 23.6557 38.1353 23.5525 38.2206C23.4494 38.3064 23.3432 38.3885 23.2313 38.4632C23.2036 38.4822 23.1758 38.5012 23.147 38.5185C23.1184 38.5362 23.0902 38.5546 23.0612 38.5714L22.9732 38.6211C22.9442 38.6382 22.9134 38.652 22.8835 38.6675L22.8383 38.6904C22.8233 38.6978 22.8076 38.7043 22.7923 38.7112C22.7613 38.7246 22.731 38.739 22.6998 38.7518C22.6368 38.776 22.5742 38.8013 22.5097 38.8205C22.446 38.8427 22.38 38.8576 22.315 38.8754L22.2158 38.8957L22.1662 38.9056L22.116 38.9132C21.9827 38.9332 21.8478 38.9425 21.713 38.9412C21.4434 38.9386 21.1748 38.8941 20.9184 38.8114C20.7902 38.7699 20.6652 38.7187 20.5448 38.6585C20.4245 38.5976 20.3086 38.5282 20.1982 38.4511C19.7582 38.14 19.4093 37.7002 19.2114 37.1972L19.2002 37.1684L19.2249 37.1505C19.5947 36.882 20.0393 36.7271 20.4908 36.6869C20.9429 36.6468 21.4039 36.7228 21.8205 36.9008C22.0287 36.9902 22.2257 37.1049 22.409 37.238C22.5918 37.3717 22.759 37.5259 22.9117 37.6927C23.2156 38.0282 23.4574 38.4165 23.6415 38.8285C23.7342 39.0343 23.8119 39.2469 23.876 39.4633C23.9089 39.5713 23.9362 39.6809 23.9622 39.7906C23.9863 39.9008 24.0089 40.0116 24.0259 40.123C24.0596 40.346 24.0859 40.5695 24.1055 40.7938C24.1167 40.9056 24.124 41.018 24.133 41.1301C24.1401 41.2424 24.1487 41.3545 24.1543 41.4668C24.1795 41.9159 24.1937 42.3655 24.1982 42.8152C24.2033 43.2647 24.1984 43.7144 24.1812 44.1637C24.187 43.9391 24.1894 43.7142 24.1894 43.4896C24.1885 43.2649 24.1866 43.0401 24.1816 42.8154C24.1726 42.3661 24.1541 41.917 24.1246 41.4686C24.1179 41.3565 24.1083 41.2446 24.1001 41.1325C24.0898 41.0206 24.0816 40.9087 24.0693 40.797C24.0476 40.5736 24.0192 40.3507 23.9835 40.1297C23.9465 39.909 23.8949 39.6908 23.8299 39.4767C23.7652 39.2627 23.6871 39.0527 23.5942 38.8494C23.4098 38.4429 23.1685 38.0608 22.8676 37.7326C22.7164 37.5696 22.5516 37.419 22.3716 37.2892C22.1913 37.1598 21.9982 37.049 21.7943 36.9628C21.3862 36.7915 20.9373 36.7204 20.4974 36.7621C20.0586 36.804 19.6414 36.924 19.2849 37.1843C19.4779 37.6718 19.818 38.0824 20.2453 38.3833C20.3527 38.458 20.4652 38.525 20.5818 38.5837C20.6986 38.6418 20.8199 38.6913 20.9442 38.7313C21.1928 38.811 21.4531 38.8535 21.7138 38.8555C21.8442 38.8566 21.9745 38.8473 22.1031 38.8276L22.1513 38.8203L22.1993 38.8105L22.295 38.7907C22.3578 38.7734 22.4215 38.7591 22.483 38.7373C22.5454 38.7185 22.6058 38.6939 22.6667 38.6706C22.6968 38.6583 22.7263 38.6442 22.7562 38.631C22.771 38.6243 22.7861 38.6181 22.8007 38.6107L22.8444 38.5885C22.8732 38.5734 22.9031 38.5598 22.9313 38.5431L23.0164 38.4947C23.0446 38.4781 23.0719 38.4602 23.0999 38.4429C23.1279 38.426 23.155 38.4075 23.1818 38.3889C23.2907 38.3159 23.3946 38.2353 23.4955 38.1511C23.5968 38.0673 23.6944 37.9783 23.7901 37.8873C23.982 37.7056 24.1648 37.5134 24.3515 37.324C24.538 37.1343 24.7277 36.9462 24.9308 36.7716C25.0319 36.6839 25.1377 36.6012 25.2463 36.5223C25.355 36.4435 25.4696 36.3724 25.5866 36.3065C25.8217 36.1767 26.0708 36.073 26.3278 35.9961C26.5853 35.921 26.8503 35.8711 27.1179 35.8527C27.6526 35.8168 28.1949 35.8886 28.6995 36.0709C29.2039 36.2525 29.6696 36.54 30.0602 36.9081L30.0802 36.9269L30.0699 36.952C30.0144 37.0848 29.9529 37.2151 29.8842 37.3417C29.8141 37.4674 29.7386 37.5899 29.6558 37.7076C29.5719 37.8245 29.4831 37.9376 29.3878 38.045C29.2917 38.1517 29.1912 38.2545 29.0847 38.3509C28.6591 38.7365 28.1506 39.0276 27.6053 39.2013C27.06 39.375 26.4784 39.4329 25.9106 39.3659C25.3427 39.3005 24.7903 39.1067 24.3053 38.8045L24.2818 38.79L24.3027 38.7723C24.5419 38.568 24.7606 38.3401 24.9833 38.1156C25.2061 37.8921 25.4337 37.6698 25.6914 37.4847C25.9478 37.2985 26.2351 37.1563 26.5365 37.0617C26.6873 37.0148 26.8415 36.9786 26.9974 36.9554C27.1532 36.9325 27.311 36.9213 27.4685 36.9217Z" fill="white"/>
<path d="M27.4685 36.9217C27.3108 36.9233 27.1536 36.9364 26.9981 36.9615C26.8426 36.9865 26.6894 37.0248 26.5399 37.0734C26.2412 37.1717 25.9566 37.3149 25.7041 37.5024C25.45 37.6886 25.2257 37.9119 25.0052 38.1375C24.7852 38.3636 24.5656 38.5816 24.3262 38.79C24.8095 39.0836 25.3554 39.2527 25.9164 39.3139C26.4769 39.3767 27.0503 39.316 27.5862 39.1417C28.1222 38.9676 28.6206 38.6779 29.0361 38.2971C29.4517 37.9165 29.7941 37.4886 30.0062 36.966C29.6227 36.6061 29.166 36.3255 28.672 36.1486C28.1779 35.9711 27.6466 35.902 27.1241 35.938C26.8626 35.9564 26.6038 36.0059 26.3524 36.0797C26.1013 36.1553 25.8583 36.2571 25.629 36.3843C25.5152 36.4489 25.404 36.518 25.2977 36.5953C25.1917 36.6727 25.0882 36.7537 24.9889 36.8403C24.7895 37.0125 24.6019 37.1993 24.4163 37.3888C24.2304 37.578 24.0459 37.77 23.8519 37.9536C23.7549 38.0454 23.6557 38.1353 23.5525 38.2206C23.4494 38.3064 23.3432 38.3885 23.2313 38.4632C23.2036 38.4822 23.1758 38.5012 23.147 38.5185C23.1184 38.5362 23.0902 38.5546 23.0612 38.5714L22.9732 38.6211C22.9442 38.6382 22.9134 38.652 22.8835 38.6675L22.8383 38.6904C22.8233 38.6978 22.8076 38.7043 22.7923 38.7112C22.7613 38.7246 22.731 38.739 22.6998 38.7518C22.6368 38.776 22.5742 38.8013 22.5097 38.8205C22.446 38.8427 22.38 38.8576 22.315 38.8754L22.2158 38.8957L22.1662 38.9056L22.116 38.9132C21.9827 38.9332 21.8478 38.9425 21.713 38.9412C21.4434 38.9386 21.1748 38.8941 20.9184 38.8114C20.7902 38.7699 20.6652 38.7187 20.5448 38.6585C20.4245 38.5976 20.3086 38.5282 20.1982 38.4511C19.7582 38.14 19.4093 37.7002 19.2114 37.1972L19.2002 37.1684L19.2249 37.1505C19.5947 36.882 20.0393 36.7271 20.4908 36.6869C20.9429 36.6468 21.4039 36.7228 21.8205 36.9008C22.0287 36.9902 22.2257 37.1049 22.409 37.238C22.5918 37.3717 22.759 37.5259 22.9117 37.6927C23.2156 38.0282 23.4574 38.4165 23.6415 38.8285C23.7342 39.0343 23.8119 39.2469 23.876 39.4633C23.9089 39.5713 23.9362 39.6809 23.9622 39.7906C23.9863 39.9008 24.0089 40.0116 24.0259 40.123C24.0596 40.346 24.0859 40.5695 24.1055 40.7938C24.1167 40.9056 24.124 41.018 24.133 41.1301C24.1401 41.2424 24.1487 41.3545 24.1543 41.4668C24.1795 41.9159 24.1937 42.3655 24.1982 42.8152C24.2033 43.2647 24.1984 43.7144 24.1812 44.1637C24.187 43.9391 24.1894 43.7142 24.1894 43.4896C24.1885 43.2649 24.1866 43.0401 24.1816 42.8154C24.1726 42.3661 24.1541 41.917 24.1246 41.4686C24.1179 41.3565 24.1083 41.2446 24.1001 41.1325C24.0898 41.0206 24.0816 40.9087 24.0693 40.797C24.0476 40.5736 24.0192 40.3507 23.9835 40.1297C23.9465 39.909 23.8949 39.6908 23.8299 39.4767C23.7652 39.2627 23.6871 39.0527 23.5942 38.8494C23.4098 38.4429 23.1685 38.0608 22.8676 37.7326C22.7164 37.5696 22.5516 37.419 22.3716 37.2892C22.1913 37.1598 21.9982 37.049 21.7943 36.9628C21.3862 36.7915 20.9373 36.7204 20.4974 36.7621C20.0586 36.804 19.6414 36.924 19.2849 37.1843C19.4779 37.6718 19.818 38.0824 20.2453 38.3833C20.3527 38.458 20.4652 38.525 20.5818 38.5837C20.6986 38.6418 20.8199 38.6913 20.9442 38.7313C21.1928 38.811 21.4531 38.8535 21.7138 38.8555C21.8442 38.8566 21.9745 38.8473 22.1031 38.8276L22.1513 38.8203L22.1993 38.8105L22.295 38.7907C22.3578 38.7734 22.4215 38.7591 22.483 38.7373C22.5454 38.7185 22.6058 38.6939 22.6667 38.6706C22.6968 38.6583 22.7263 38.6442 22.7562 38.631C22.771 38.6243 22.7861 38.6181 22.8007 38.6107L22.8444 38.5885C22.8732 38.5734 22.9031 38.5598 22.9313 38.5431L23.0164 38.4947C23.0446 38.4781 23.0719 38.4602 23.0999 38.4429C23.1279 38.426 23.155 38.4075 23.1818 38.3889C23.2907 38.3159 23.3946 38.2353 23.4955 38.1511C23.5968 38.0673 23.6944 37.9783 23.7901 37.8873C23.982 37.7056 24.1648 37.5134 24.3515 37.324C24.538 37.1343 24.7277 36.9462 24.9308 36.7716C25.0319 36.6839 25.1377 36.6012 25.2463 36.5223C25.355 36.4435 25.4696 36.3724 25.5866 36.3065C25.8217 36.1767 26.0708 36.073 26.3278 35.9961C26.5853 35.921 26.8503 35.8711 27.1179 35.8527C27.6526 35.8168 28.1949 35.8886 28.6995 36.0709C29.2039 36.2525 29.6696 36.54 30.0602 36.9081L30.0802 36.9269L30.0699 36.952C30.0144 37.0848 29.9529 37.2151 29.8842 37.3417C29.8141 37.4674 29.7386 37.5899 29.6558 37.7076C29.5719 37.8245 29.4831 37.9376 29.3878 38.045C29.2917 38.1517 29.1912 38.2545 29.0847 38.3509C28.6591 38.7365 28.1506 39.0276 27.6053 39.2013C27.06 39.375 26.4784 39.4329 25.9106 39.3659C25.3427 39.3005 24.7903 39.1067 24.3053 38.8045L24.2818 38.79L24.3027 38.7723C24.5419 38.568 24.7606 38.3401 24.9833 38.1156C25.2061 37.8921 25.4337 37.6698 25.6914 37.4847C25.9478 37.2985 26.2351 37.1563 26.5365 37.0617C26.6873 37.0148 26.8415 36.9786 26.9974 36.9554C27.1532 36.9325 27.311 36.9213 27.4685 36.9217Z" stroke="white" stroke-width="0.48" mask="url(#path-3-outside-1_300_1197)"/>
</g>
<defs>
<filter id="filter0_ii_300_1197" x="-8.96" y="0" width="83.2" height="64.64" filterUnits="userSpaceOnUse" color-interpolation-filters="sRGB">
<feFlood flood-opacity="0" result="BackgroundImageFix"/>
<feBlend mode="normal" in="SourceGraphic" in2="BackgroundImageFix" result="shape"/>
<feColorMatrix in="SourceAlpha" type="matrix" values="0 0 0 0 0 0 0 0 0 0 0 0 0 0 0 0 0 0 127 0" result="hardAlpha"/>
<feOffset dx="-8.96"/>
<feGaussianBlur stdDeviation="5.44"/>
<feComposite in2="hardAlpha" operator="arithmetic" k2="-1" k3="1"/>
<feColorMatrix type="matrix" values="0 0 0 0 0.104167 0 0 0 0 0.066116 0 0 0 0 0.030816 0 0 0 0.12 0"/>
<feBlend mode="normal" in2="shape" result="effect1_innerShadow_300_1197"/>
<feColorMatrix in="SourceAlpha" type="matrix" values="0 0 0 0 0 0 0 0 0 0 0 0 0 0 0 0 0 0 127 0" result="hardAlpha"/>
<feMorphology radius="1.28" operator="erode" in="SourceAlpha" result="effect2_innerShadow_300_1197"/>
<feOffset dx="10.24" dy="0.64"/>
<feGaussianBlur stdDeviation="9.92"/>
<feComposite in2="hardAlpha" operator="arithmetic" k2="-1" k3="1"/>
<feColorMatrix type="matrix" values="0 0 0 0 1 0 0 0 0 1 0 0 0 0 1 0 0 0 0.4 0"/>
<feBlend mode="normal" in2="effect1_innerShadow_300_1197" result="effect2_innerShadow_300_1197"/>
</filter>
<linearGradient id="paint0_linear_300_1197" x1="3.7033e-07" y1="12" x2="66.1605" y2="16.6775" gradientUnits="userSpaceOnUse">
<stop stop-color="#30C917"/>
<stop offset="1" stop-color="#279A13"/>
</linearGradient>
<clipPath id="clip0_300_1197">
<rect width="35.84" height="35.84" fill="white" transform="translate(14.0801 14.082)"/>
</clipPath>
</defs>
</svg>
