<svg xmlns="http://www.w3.org/2000/svg" width="64" height="64" fill="none"><g filter="url(#a)"><circle cx="32" cy="32" r="32" fill="url(#b)"/></g><g clip-path="url(#c)"><path fill="#fff" d="M48.129 27.225H37.377v-4.181h1.463a1.195 1.195 0 0 0 .818-2.07c-1.037-.961-2.648-2.523-4.07-3.904-1.19-1.153-2.22-2.15-2.777-2.667a1.195 1.195 0 0 0-1.63.009l-6.832 6.563a1.195 1.195 0 0 0 .812 2.069h1.464v5.538a10.747 10.747 0 1 0 6.589 17.307c.324.289.742.45 1.176.45h.11q-.106.29-.11.598v1.195c0 .99.802 1.792 1.792 1.792h11.947c.99 0 1.792-.803 1.792-1.792v-1.195c0-.99-.803-1.792-1.792-1.792h-.11c.07-.191.108-.393.11-.597v-1.195c-.001-.229-.046-.455-.132-.667a1.79 1.79 0 0 0 1.326-1.722v-1.195a1.79 1.79 0 0 0-.836-1.51c.155-.268.237-.57.239-.88v-1.194a1.79 1.79 0 0 0-.836-1.51c.154-.268.237-.57.239-.88v-1.194a1.8 1.8 0 0 0-.11-.597h.11c.99 0 1.792-.803 1.792-1.792v-1.195c0-.99-.803-1.792-1.792-1.792M26.625 21.85l-1.457-.006 6.833-6.565c.546.507 1.619 1.548 2.756 2.65a319 319 0 0 0 4.083 3.921h-1.463c-.66 0-1.195.535-1.195 1.195v4.181c-.99 0-1.792.802-1.792 1.792v1.195c.002.204.04.406.11.597h-.11c-.722 0-1.373.434-1.652 1.1a10.76 10.76 0 0 0-4.919-3.059v-5.806c0-.66-.535-1.195-1.194-1.195m20.309 13.739c.33 0 .597.267.597.597v1.195c0 .33-.267.597-.597.597h-11.42a10.6 10.6 0 0 0-.557-2.39zM24.833 46.34A7.168 7.168 0 1 1 32 39.172a7.176 7.176 0 0 1-7.168 7.168M30.3 32.86a8.3 8.3 0 0 0-4.871-2.02v-1.195a9.5 9.5 0 0 1 5.715 2.37zm-6.066-2.02c-1.8.126-3.509.835-4.87 2.02l-.845-.846a9.5 9.5 0 0 1 5.715-2.37zm-5.715 2.864a8.3 8.3 0 0 0-2.02 4.87h-1.194a9.5 9.5 0 0 1 2.37-5.715zm-2.02 6.065c.127 1.8.836 3.51 2.02 4.87l-.845.845a9.5 9.5 0 0 1-2.37-5.715zm2.868 5.715a8.3 8.3 0 0 0 4.867 2.02v1.195a9.5 9.5 0 0 1-5.715-2.37zm6.062 2.02a8.3 8.3 0 0 0 4.87-2.02l.845.845a9.5 9.5 0 0 1-5.715 2.37zm5.715-2.864a8.3 8.3 0 0 0 2.02-4.87h1.194a9.5 9.5 0 0 1-2.37 5.714zm3.214-6.066h-1.194a8.3 8.3 0 0 0-2.02-4.87l.845-.845a9.5 9.5 0 0 1 2.37 5.715m14.367 8.363v1.195c0 .33-.267.597-.597.597H36.182a.597.597 0 0 1-.597-.597v-1.195c0-.33.267-.597.597-.597h11.947c.33 0 .597.267.597.597m-12.544-1.792H34.39a.59.59 0 0 1-.478-.245c.427-.673.778-1.393 1.045-2.144h11.38c.33 0 .597.267.597.597v1.195c0 .33-.267.597-.597.597zm11.947-4.181c0 .33-.268.597-.598.597H35.307c.182-.783.275-1.585.278-2.39H47.53c.33 0 .598.268.598.598zM46.934 32.6v1.195c0 .33-.267.597-.597.597H34.45a11 11 0 0 0-.657-1.152v-.64c0-.33.267-.597.597-.597h11.947c.33 0 .597.267.597.597m1.792-2.39c0 .33-.267.598-.597.598H36.182a.597.597 0 0 1-.597-.597v-1.195c0-.33.267-.597.597-.597h11.947c.33 0 .597.267.597.597z"/><mask id="d" width="13" height="10" x="18.2" y="34.844" fill="#000" maskUnits="userSpaceOnUse"><path fill="#fff" d="M18.2 34.844h13v10h-13z"/><path d="M27.469 36.922a3.2 3.2 0 0 0-.93.151 3 3 0 0 0-.835.43c-.254.186-.478.409-.699.635s-.44.444-.679.652a3.9 3.9 0 0 0 1.59.524 3.99 3.99 0 0 0 3.12-1.017c.416-.38.758-.808.97-1.331-.383-.36-.84-.64-1.334-.817a3.8 3.8 0 0 0-1.548-.211 3.65 3.65 0 0 0-1.495.446 4 4 0 0 0-.331.211q-.16.116-.31.245c-.198.172-.386.36-.572.549s-.37.381-.564.565a6 6 0 0 1-.3.267 4 4 0 0 1-.405.298q-.043.027-.086.052l-.088.05q-.044.025-.09.046l-.045.023q-.022.011-.046.021-.045.022-.092.04-.094.039-.19.07c-.064.022-.13.037-.195.054l-.1.02-.049.01-.05.008q-.2.03-.403.028a2.68 2.68 0 0 1-1.515-.49 2.8 2.8 0 0 1-.987-1.254l-.01-.029.024-.017c.37-.269.814-.424 1.266-.464s.913.036 1.33.214q.313.136.588.337.274.203.503.455a4.3 4.3 0 0 1 .73 1.136 5 5 0 0 1 .32.962q.037.165.064.332.05.335.08.67l.027.337q.012.168.021.337a29 29 0 0 1 .027 2.697 26 26 0 0 0 0-1.349q-.012-.674-.056-1.346-.012-.169-.025-.337-.014-.167-.03-.335-.032-.335-.087-.667a5.2 5.2 0 0 0-.389-1.28 4.2 4.2 0 0 0-.726-1.117 3.4 3.4 0 0 0-.496-.444q-.271-.196-.578-.326a2.7 2.7 0 0 0-1.297-.2c-.438.041-.856.161-1.212.421a2.68 2.68 0 0 0 1.66 1.547 2.6 2.6 0 0 0 1.158.097l.048-.008.048-.01.096-.02c.063-.017.127-.03.188-.053q.093-.03.184-.066l.09-.04.044-.02.043-.022q.046-.023.087-.046l.085-.048.084-.052q.042-.026.082-.054.163-.11.314-.238a6 6 0 0 0 .294-.264c.192-.181.375-.374.562-.563.186-.19.376-.378.579-.552q.152-.131.315-.25a3.5 3.5 0 0 1 1.082-.526q.387-.114.79-.143a3.9 3.9 0 0 1 1.582.218c.504.181.97.469 1.36.837l.02.019-.01.025a4 4 0 0 1-.186.39q-.104.188-.228.366-.126.176-.268.337-.144.161-.303.306a4.03 4.03 0 0 1-3.174 1.015 3.9 3.9 0 0 1-1.606-.562l-.023-.014.02-.018c.24-.204.459-.432.681-.656s.45-.446.708-.631a2.94 2.94 0 0 1 1.306-.53q.235-.035.471-.033"/></mask><path fill="#fff" d="M27.469 36.922a3.2 3.2 0 0 0-.93.151 3 3 0 0 0-.835.43c-.254.186-.478.409-.699.635s-.44.444-.679.652a3.9 3.9 0 0 0 1.59.524 3.99 3.99 0 0 0 3.12-1.017c.416-.38.758-.808.97-1.331-.383-.36-.84-.64-1.334-.817a3.8 3.8 0 0 0-1.548-.211 3.65 3.65 0 0 0-1.495.446 4 4 0 0 0-.331.211q-.16.116-.31.245c-.198.172-.386.36-.572.549s-.37.381-.564.565a6 6 0 0 1-.3.267 4 4 0 0 1-.405.298q-.043.027-.086.052l-.088.05q-.044.025-.09.046l-.045.023q-.022.011-.046.021-.045.022-.092.04-.094.039-.19.07c-.064.022-.13.037-.195.054l-.1.02-.049.01-.05.008q-.2.03-.403.028a2.68 2.68 0 0 1-1.515-.49 2.8 2.8 0 0 1-.987-1.254l-.01-.029.024-.017c.37-.269.814-.424 1.266-.464s.913.036 1.33.214q.313.136.588.337.274.203.503.455a4.3 4.3 0 0 1 .73 1.136 5 5 0 0 1 .32.962q.037.165.064.332.05.335.08.67l.027.337q.012.168.021.337a29 29 0 0 1 .027 2.697 26 26 0 0 0 0-1.349q-.012-.674-.056-1.346-.012-.169-.025-.337-.014-.167-.03-.335-.032-.335-.087-.667a5.2 5.2 0 0 0-.389-1.28 4.2 4.2 0 0 0-.726-1.117 3.4 3.4 0 0 0-.496-.444q-.271-.196-.578-.326a2.7 2.7 0 0 0-1.297-.2c-.438.041-.856.161-1.212.421a2.68 2.68 0 0 0 1.66 1.547 2.6 2.6 0 0 0 1.158.097l.048-.008.048-.01.096-.02c.063-.017.127-.03.188-.053q.093-.03.184-.066l.09-.04.044-.02.043-.022q.046-.023.087-.046l.085-.048.084-.052q.042-.026.082-.054.163-.11.314-.238a6 6 0 0 0 .294-.264c.192-.181.375-.374.562-.563.186-.19.376-.378.579-.552q.152-.131.315-.25a3.5 3.5 0 0 1 1.082-.526q.387-.114.79-.143a3.9 3.9 0 0 1 1.582.218c.504.181.97.469 1.36.837l.02.019-.01.025a4 4 0 0 1-.186.39q-.104.188-.228.366-.126.176-.268.337-.144.161-.303.306a4.03 4.03 0 0 1-3.174 1.015 3.9 3.9 0 0 1-1.606-.562l-.023-.014.02-.018c.24-.204.459-.432.681-.656s.45-.446.708-.631a2.94 2.94 0 0 1 1.306-.53q.235-.035.471-.033"/><path stroke="#fff" stroke-width=".48" d="M27.469 36.922a3.2 3.2 0 0 0-.93.151 3 3 0 0 0-.835.43c-.254.186-.478.409-.699.635s-.44.444-.679.652a3.9 3.9 0 0 0 1.59.524 3.99 3.99 0 0 0 3.12-1.017c.416-.38.758-.808.97-1.331-.383-.36-.84-.64-1.334-.817a3.8 3.8 0 0 0-1.548-.211 3.65 3.65 0 0 0-1.495.446 4 4 0 0 0-.331.211q-.16.116-.31.245c-.198.172-.386.36-.572.549s-.37.381-.564.565a6 6 0 0 1-.3.267 4 4 0 0 1-.405.298q-.043.027-.086.052l-.088.05q-.044.025-.09.046l-.045.023q-.022.011-.046.021-.045.022-.092.04-.094.039-.19.07c-.064.022-.13.037-.195.054l-.1.02-.049.01-.05.008q-.2.03-.403.028a2.68 2.68 0 0 1-1.515-.49 2.8 2.8 0 0 1-.987-1.254l-.01-.029.024-.017c.37-.269.814-.424 1.266-.464s.913.036 1.33.214q.313.136.588.337.274.203.503.455a4.3 4.3 0 0 1 .73 1.136 5 5 0 0 1 .32.962q.037.165.064.332.05.335.08.67l.027.337q.012.168.021.337a29 29 0 0 1 .027 2.697 26 26 0 0 0 0-1.349q-.012-.674-.056-1.346-.012-.169-.025-.337-.014-.167-.03-.335-.032-.335-.087-.667a5.2 5.2 0 0 0-.389-1.28 4.2 4.2 0 0 0-.726-1.117 3.4 3.4 0 0 0-.496-.444q-.271-.196-.578-.326a2.7 2.7 0 0 0-1.297-.2c-.438.041-.856.161-1.212.421a2.68 2.68 0 0 0 1.66 1.547 2.6 2.6 0 0 0 1.158.097l.048-.008.048-.01.096-.02c.063-.017.127-.03.188-.053q.093-.03.184-.066l.09-.04.044-.02.043-.022q.046-.023.087-.046l.085-.048.084-.052q.042-.026.082-.054.163-.11.314-.238a6 6 0 0 0 .294-.264c.192-.181.375-.374.562-.563.186-.19.376-.378.579-.552q.152-.131.315-.25a3.5 3.5 0 0 1 1.082-.526q.387-.114.79-.143a3.9 3.9 0 0 1 1.582.218c.504.181.97.469 1.36.837l.02.019-.01.025a4 4 0 0 1-.186.39q-.104.188-.228.366-.126.176-.268.337-.144.161-.303.306a4.03 4.03 0 0 1-3.174 1.015 3.9 3.9 0 0 1-1.606-.562l-.023-.014.02-.018c.24-.204.459-.432.681-.656s.45-.446.708-.631a2.94 2.94 0 0 1 1.306-.53q.235-.035.471-.033Z" mask="url(#d)"/></g><defs><linearGradient id="b" x1="0" x2="66.16" y1="12" y2="16.677" gradientUnits="userSpaceOnUse"><stop stop-color="#30C917"/><stop offset="1" stop-color="#279A13"/></linearGradient><clipPath id="c"><path fill="#fff" d="M14.08 14.082h35.84v35.84H14.08z"/></clipPath><filter id="a" width="83.2" height="64.64" x="-8.96" y="0" color-interpolation-filters="sRGB" filterUnits="userSpaceOnUse"><feFlood flood-opacity="0" result="BackgroundImageFix"/><feBlend in="SourceGraphic" in2="BackgroundImageFix" result="shape"/><feColorMatrix in="SourceAlpha" result="hardAlpha" values="0 0 0 0 0 0 0 0 0 0 0 0 0 0 0 0 0 0 127 0"/><feOffset dx="-8.96"/><feGaussianBlur stdDeviation="5.44"/><feComposite in2="hardAlpha" k2="-1" k3="1" operator="arithmetic"/><feColorMatrix values="0 0 0 0 0.104167 0 0 0 0 0.066116 0 0 0 0 0.030816 0 0 0 0.12 0"/><feBlend in2="shape" result="effect1_innerShadow_300_1197"/><feColorMatrix in="SourceAlpha" result="hardAlpha" values="0 0 0 0 0 0 0 0 0 0 0 0 0 0 0 0 0 0 127 0"/><feMorphology in="SourceAlpha" radius="1.28" result="effect2_innerShadow_300_1197"/><feOffset dx="10.24" dy=".64"/><feGaussianBlur stdDeviation="9.92"/><feComposite in2="hardAlpha" k2="-1" k3="1" operator="arithmetic"/><feColorMatrix values="0 0 0 0 1 0 0 0 0 1 0 0 0 0 1 0 0 0 0.4 0"/><feBlend in2="effect1_innerShadow_300_1197" result="effect2_innerShadow_300_1197"/></filter></defs></svg>