<svg xmlns="http://www.w3.org/2000/svg" width="83" height="17" fill="none"><path fill="#BFBDB8" d="M.863.883h6.021c1.147 0 2.008.292 2.645.778.7.584 1.083 1.428 1.083 2.466 0 1.2-.478 1.946-1.434 2.4v.065c1.275.421 2.007 1.59 2.007 2.984 0 1.33-.51 2.368-1.338 3.017-.7.519-1.593.746-2.803.746H.864zM6.28 5.748c.637 0 1.115-.356 1.115-1.102 0-.714-.478-1.07-1.147-1.07h-2.07v2.14h2.102zm.287 4.834c.733 0 1.274-.455 1.274-1.266 0-.875-.573-1.265-1.274-1.265H4.208v2.563h2.358zm5.16-9.7h3.155v12.49h-3.154zm3.792 8.045c0-2.822 1.784-4.703 4.556-4.703 2.771 0 4.524 1.914 4.524 4.703 0 2.822-1.753 4.704-4.524 4.704s-4.556-1.882-4.556-4.704m5.926 0c0-1.557-.478-2.53-1.434-2.53s-1.402.973-1.402 2.53.446 2.563 1.402 2.563c.956-.033 1.434-1.006 1.434-2.563m3.504 0c0-2.822 1.784-4.703 4.556-4.703 2.771 0 4.492 1.881 4.492 4.703s-1.752 4.704-4.524 4.704c-2.74 0-4.524-1.882-4.524-4.704m5.926 0c0-1.557-.478-2.53-1.434-2.53s-1.402.973-1.402 2.53.446 2.563 1.402 2.563c.956-.033 1.434-1.006 1.434-2.563m3.759-4.476h2.93v1.33h.065c.573-1.038 1.37-1.59 2.644-1.59 1.115 0 1.943.552 2.357 1.525h.064c.701-1.168 1.625-1.525 2.708-1.525 2.039 0 2.9 1.525 2.9 3.568v5.58h-3.06V8.31c0-.908-.286-1.492-1.05-1.492-.765 0-1.148.713-1.148 1.687v4.833h-3.058V8.31c0-.908-.287-1.492-1.051-1.492-.765 0-1.147.713-1.147 1.687v4.833h-3.154zm17.522 7.72h-.032v1.168h-2.93V.883h3.058v4.476h.063c.574-.778 1.37-1.2 2.485-1.2 2.198 0 3.473 2.011 3.473 4.703 0 3.017-1.37 4.769-3.664 4.769-.956 0-1.943-.454-2.453-1.46m2.963-3.341c0-1.427-.51-2.368-1.434-2.368-.956 0-1.529.94-1.529 2.368s.605 2.368 1.53 2.368c.923 0 1.433-.908 1.433-2.368m3.504.065c0-2.79 1.816-4.704 4.429-4.704 1.306 0 2.293.422 3.058 1.168 1.02 1.006 1.465 2.563 1.434 4.38H61.68c.127 1.102.637 1.686 1.56 1.686.542 0 1.02-.26 1.211-.844h2.963c-.51 2.044-2.07 3.05-4.269 3.05-2.708-.033-4.524-1.914-4.524-4.736m3.059-.94h2.803c-.064-1.071-.637-1.623-1.37-1.623-.86-.032-1.338.584-1.433 1.622m9.334-1.98h.064c.637-1.232 1.465-1.719 2.517-1.719.254 0 .414.033.51.098v2.724h-.064c-1.816-.324-2.868.552-2.868 2.563v3.73h-3.09v-8.92h2.931zm3.409 7.396h2.963c.127.39.51.746 1.242.746.988 0 1.338-.616 1.338-1.557v-.649h-.064c-.477.584-1.146 1.006-2.102 1.006-1.88 0-3.536-1.427-3.536-4.217 0-2.562 1.338-4.541 3.377-4.541 1.178 0 1.88.487 2.357 1.233h.064v-.974h2.93v7.72c0 1.428-.477 2.53-1.21 3.18-.764.68-1.848.972-3.09.972-2.358.033-3.982-.94-4.27-2.919m5.67-4.8c0-1.103-.51-2.012-1.401-2.012-.86 0-1.402.779-1.402 2.011 0 1.2.542 2.044 1.402 2.044s1.402-.876 1.402-2.044"/></svg>