<svg width="104" height="27" viewBox="0 0 104 27" fill="none" xmlns="http://www.w3.org/2000/svg">
<path d="M19.3697 18.1998L15.5409 19.8325V19.6674C14.7765 19.8464 13.9973 19.9576 13.2127 19.9995C9.60077 19.9698 6.75229 18.0996 6.70516 15.901V15.0865C7.88528 16.7749 10.3039 17.9196 13.2127 17.8695C14.167 17.9004 15.1204 17.7884 16.0405 17.5374L16.3779 16.7229C15.3516 17.0411 14.2831 17.2087 13.2071 17.2201C9.59512 17.2201 6.74664 15.3648 6.69951 13.1217V12.4649C7.87962 14.0308 10.2983 15.1625 13.2071 15.0865C14.4682 15.151 15.7271 14.9242 16.8832 14.4241L17.0509 13.6096C15.8662 14.1926 14.5515 14.4727 13.2278 14.4241C9.61397 14.4686 6.76549 12.6151 6.72024 10.3238V9.66511C7.90036 11.2589 10.319 12.4036 13.2278 12.4482C14.797 12.4058 16.336 12.0144 17.7296 11.3034L17.8974 10.3238C16.7342 11.168 15.0338 11.7264 13.2278 11.8081C9.61397 11.7338 6.76549 9.86364 6.72024 7.54072C6.75229 5.32171 9.61586 3.4682 13.2278 3.43666C15.3713 3.4682 17.3752 4.20664 18.5553 5.41077L18.6778 5.60743H19.5205L19.398 5.41077C18.2197 3.83 15.8482 2.78914 13.2278 2.78914C9.2162 2.7743 6.03027 4.92837 6.03027 7.52217V16.0568C6.16789 18.5875 9.27653 20.6526 13.1939 20.6526C15.786 20.6618 18.1293 19.6525 19.3697 18.1998Z" fill="#BFBDB8"/>
<path d="M17.8064 23.9621L19.1543 18.3255L15.2803 19.9842L17.6387 10.2213H13.1143L14.2925 5.41406H28.763L27.5754 10.2213H22.8624L21.8501 12.8745L27.072 10.7185L17.8064 23.9621ZM20.1648 17.1808L19.4918 20.4963L25.0492 12.2232L20.5022 14.2122L22.5231 9.57379H27.0701L27.9128 6.09313H14.7751L13.9324 9.57008H18.4813L16.2908 18.8376L20.1648 17.1808Z" fill="#BFBDB8"/>
<path d="M38.357 8.63544V8.65029C38.3754 8.87931 38.3408 9.10946 38.2559 9.32346C38.171 9.53747 38.038 9.72978 37.8668 9.88596C37.5313 10.1865 37.0713 10.3368 36.4737 10.3368C36.2043 10.3465 35.9359 10.3006 35.6856 10.2022C35.4353 10.1038 35.2087 9.95502 35.0202 9.76536C34.833 9.56618 34.6878 9.33244 34.593 9.07766C34.4982 8.82288 34.4557 8.55213 34.4679 8.28107V7.30886C34.4455 6.76471 34.6373 6.23305 35.0033 5.82457C35.1868 5.63615 35.4085 5.48777 35.654 5.38901C35.8995 5.29025 36.1633 5.24332 36.4284 5.25126C36.9456 5.2239 37.4557 5.37918 37.8668 5.68913C38.043 5.84212 38.1805 6.03352 38.2682 6.24805C38.3559 6.46259 38.3915 6.69433 38.372 6.9248V6.93964H37.3936C37.4151 6.68627 37.3353 6.43465 37.1712 6.23831C36.9709 6.07223 36.7121 5.99086 36.4511 6.01196C36.3109 6.00801 36.1721 6.04017 36.0484 6.10525C35.9247 6.17034 35.8205 6.26609 35.746 6.38303C35.5638 6.65829 35.4729 6.98243 35.4859 7.31071V8.30519C35.4757 8.63314 35.5663 8.95648 35.746 9.23287C35.917 9.43643 36.163 9.56499 36.4302 9.59037C36.6973 9.61576 36.9638 9.53591 37.1712 9.36831C37.3396 9.17179 37.4223 8.91769 37.4012 8.66142H38.3645V8.64657L38.357 8.63544ZM43.9012 8.24211C43.9174 8.80095 43.708 9.34334 43.3187 9.75052C43.1226 9.94617 42.8872 10.0994 42.6275 10.2003C42.3678 10.3013 42.0896 10.3478 41.8106 10.3368C41.5317 10.3464 41.2539 10.2993 40.9944 10.1984C40.7349 10.0975 40.4993 9.94507 40.3024 9.75052C39.9132 9.34334 39.7037 8.80095 39.7199 8.24211V7.35339C39.7061 6.79549 39.9152 6.25452 40.3024 5.84683C40.4971 5.64826 40.7319 5.49201 40.9916 5.38816C41.2514 5.2843 41.5304 5.23514 41.8106 5.24384C42.0911 5.23242 42.3709 5.28033 42.6311 5.38435C42.8913 5.48837 43.1257 5.64607 43.3187 5.84683C43.5143 6.04602 43.6667 6.28232 43.7665 6.54133C43.8663 6.80033 43.9115 7.07663 43.8993 7.35339L43.9163 8.24211H43.9012ZM42.8889 7.33854C42.9057 6.9985 42.8032 6.66311 42.5986 6.3886C42.5026 6.26837 42.3792 6.17212 42.2384 6.10764C42.0975 6.04317 41.9432 6.01229 41.788 6.01753C41.6341 6.00903 41.4806 6.03852 41.3413 6.10333C41.2021 6.16814 41.0815 6.26621 40.9905 6.3886C40.791 6.66555 40.689 6.99919 40.7002 7.33854V8.22726C40.6842 8.57182 40.7865 8.91165 40.9905 9.19205C41.0837 9.31205 41.2047 9.40835 41.3435 9.4729C41.4822 9.53746 41.6346 9.56839 41.788 9.56312C41.9437 9.57214 42.0993 9.54296 42.2408 9.47819C42.3823 9.41343 42.5052 9.3151 42.5986 9.19205C42.8055 8.91304 42.9081 8.57219 42.8889 8.22726V7.33854ZM46.5028 10.2626H45.4923V5.31991H46.5028V10.2626ZM52.3072 10.2626H51.2967L49.2739 6.93222H49.2589V10.2626H48.2484V5.31991H49.2589L51.2798 8.65956H51.2967V5.31991H52.3072V10.2626ZM57.3745 6.08803H55.9361V10.2626H54.9257V6.08803H53.5156V5.31991H57.3745V6.08803ZM61.5388 8.09182H59.6725V9.50932H61.8914V10.2626H58.6771V5.31991H61.8914V6.08803H59.6876V7.3237H61.5558V8.09182H61.5388ZM64.3421 9.50932H66.593V10.2626H63.3316V5.31991H64.3421V9.50932ZM70.8798 8.09182H69.0116V9.50932H71.2323V10.2626H68.0163V5.31991H71.2323V6.08803H69.0305V7.3237H70.8987V8.09182H70.8798ZM76.5353 9.59838C76.3463 9.82649 76.1054 10.0076 75.8321 10.1272C75.4566 10.2915 75.0477 10.369 74.6369 10.3535C74.3625 10.368 74.0881 10.3258 73.8312 10.2297C73.5743 10.1335 73.3407 9.98558 73.1454 9.79529C72.9501 9.605 72.7974 9.3766 72.6972 9.12476C72.5969 8.87293 72.5513 8.60324 72.5633 8.33302V7.29401C72.5509 7.0252 72.5947 6.75675 72.692 6.50528C72.7893 6.2538 72.9379 6.02464 73.1288 5.83199C73.3154 5.64336 73.5397 5.49498 73.7877 5.39628C74.0356 5.29758 74.3017 5.25073 74.5691 5.25868C75.1799 5.25868 75.6549 5.40897 75.9773 5.69655C76.1397 5.8393 76.2668 6.01658 76.3491 6.21494C76.4314 6.4133 76.4668 6.62751 76.4524 6.84131V6.85615H75.5098C75.5154 6.74326 75.498 6.6304 75.4585 6.52427C75.419 6.41814 75.3582 6.3209 75.2798 6.23831C75.1884 6.1586 75.0819 6.09754 74.9664 6.05869C74.8508 6.01983 74.7286 6.00395 74.6068 6.01196C74.4625 6.00912 74.3195 6.03892 74.1887 6.09907C74.058 6.15923 73.943 6.24812 73.8527 6.35891C73.6617 6.62171 73.5648 6.93958 73.5775 7.26247V8.30333C73.5603 8.6337 73.6632 8.9593 73.8678 9.22174C73.9608 9.33611 74.08 9.42718 74.2157 9.48748C74.3513 9.54779 74.4996 9.57562 74.6483 9.56869C74.8396 9.5732 75.0304 9.54815 75.2138 9.49448C75.3339 9.45815 75.4437 9.39461 75.5343 9.30894V8.34415H74.571V7.65581H76.5447V9.59838H76.5353ZM79.1387 8.28849V10.2626H78.1283V5.31991H79.8739C80.3554 5.29524 80.8311 5.43338 81.2218 5.71139C81.382 5.84037 81.5094 6.00423 81.5942 6.19002C81.6789 6.37582 81.7186 6.57845 81.7101 6.78194C81.7138 7.01588 81.6426 7.24505 81.5065 7.43688C81.3481 7.63643 81.1422 7.79447 80.907 7.89701C81.168 7.96065 81.3965 8.11564 81.5498 8.33302C81.6857 8.56117 81.7549 8.82187 81.7497 9.0863V9.45737C81.7486 9.6054 81.7689 9.75283 81.81 9.89523C81.8364 10.0234 81.9078 10.1384 82.0117 10.2199V10.296H80.9711C80.8647 10.1988 80.7977 10.067 80.7826 9.92492C80.7533 9.76572 80.7381 9.60431 80.7373 9.44253V9.1067C80.7497 9.00262 80.7384 8.89715 80.7043 8.79787C80.6703 8.69859 80.6142 8.60799 80.5403 8.53257C80.4664 8.45716 80.3764 8.39882 80.2768 8.36174C80.1772 8.32467 80.0705 8.30979 79.9644 8.31818H79.1368V8.28849H79.1387ZM79.1387 7.53521H79.8589C80.084 7.55028 80.3071 7.48435 80.4866 7.34968C80.5599 7.28309 80.617 7.20119 80.6539 7.11001C80.6908 7.01882 80.7064 6.92067 80.6996 6.82275C80.7032 6.72268 80.6862 6.62293 80.6496 6.52951C80.613 6.43608 80.5575 6.35091 80.4866 6.27913C80.4031 6.20775 80.3057 6.1537 80.2005 6.12022C80.0952 6.08675 79.9841 6.07454 79.8739 6.08432H79.1387V7.5315V7.53521ZM85.9838 9.20504H84.3606L84.0232 10.2756H82.9675L84.6641 5.3329H85.6897L87.375 10.2756H86.3174L85.9838 9.20504ZM84.6057 8.42208H85.7368L85.1844 6.67432H85.1694L84.6057 8.42208ZM89.6127 8.4666V10.2607H88.6022V5.31991H90.5213C91.0148 5.29474 91.5002 5.45004 91.8843 5.75592C92.0476 5.8987 92.1763 6.0756 92.2611 6.27367C92.3459 6.47174 92.3846 6.68597 92.3745 6.90068C92.381 7.11521 92.3407 7.32862 92.2561 7.52645C92.1715 7.72429 92.0447 7.90191 91.8843 8.04729C91.5002 8.35318 91.0148 8.50847 90.5213 8.4833H89.6033L89.6127 8.4666ZM89.6127 7.71333H90.5213C90.6385 7.72016 90.7558 7.70363 90.8662 7.66473C90.9767 7.62583 91.0781 7.56537 91.1642 7.48697C91.3061 7.32975 91.3828 7.12579 91.3791 6.91552C91.3878 6.69898 91.3123 6.48732 91.168 6.32366C91.0825 6.2435 90.9805 6.18231 90.869 6.14422C90.7574 6.10614 90.6389 6.09204 90.5213 6.10287H89.6033L89.6127 7.71333ZM97.9074 10.2607H96.897V8.21984H94.8421V10.2607H93.8317V5.31991H94.8421V7.43688H96.8951V5.31991H97.9055L97.9074 10.2607Z" fill="#BFBDB8"/>
<path d="M36.3057 18.3396H35.678V15.0853H34.5469V14.5583H37.4406V15.0853H36.3095L36.3057 18.3396ZM40.5172 18.3396H39.8894V16.577C39.9048 16.4001 39.8553 16.2237 39.7499 16.0797C39.696 16.022 39.6295 15.9771 39.5553 15.9485C39.4812 15.9199 39.4014 15.9083 39.322 15.9146C39.2165 15.906 39.1104 15.9218 39.0122 15.9608C38.914 15.9998 38.8264 16.0609 38.7564 16.1391C38.6111 16.3691 38.545 16.6391 38.5679 16.9091V18.3247H37.9553V14.3023H38.5679V15.3264C38.5679 15.4916 38.5528 15.6586 38.5378 15.8534H38.583C38.6652 15.7154 38.7882 15.6054 38.9355 15.538C39.0967 15.4574 39.2751 15.4161 39.4558 15.4174C40.1609 15.4174 40.5134 15.7625 40.5134 16.4712L40.5172 18.3396ZM42.638 18.3841C42.4437 18.3955 42.2491 18.3665 42.0669 18.2991C41.8847 18.2317 41.7189 18.1272 41.5804 17.9926C41.4481 17.848 41.3466 17.6788 41.2818 17.4949C41.217 17.311 41.1904 17.1162 41.2034 16.9221C41.183 16.5256 41.3081 16.1351 41.5559 15.8218C41.6774 15.6855 41.8288 15.5782 41.9986 15.5078C42.1684 15.4374 42.3522 15.4058 42.5362 15.4155C42.7029 15.4076 42.8694 15.4342 43.0249 15.4937C43.1805 15.5531 43.3216 15.6441 43.4392 15.7606C43.5584 15.8887 43.65 16.0392 43.7083 16.2031C43.7667 16.3671 43.7906 16.541 43.7785 16.7143V17.0464H41.833C41.8334 17.2781 41.9184 17.502 42.0725 17.6772C42.1526 17.7553 42.2486 17.8159 42.3542 17.8549C42.4598 17.8939 42.5726 17.9105 42.6851 17.9035C42.8447 17.9051 43.004 17.8896 43.1602 17.8572C43.324 17.8206 43.4828 17.7652 43.6334 17.692V18.1986C43.4885 18.2693 43.3343 18.3199 43.1753 18.3488C42.9981 18.3802 42.8179 18.392 42.638 18.3841ZM42.5305 15.8812C42.4426 15.8781 42.355 15.8929 42.2732 15.9249C42.1914 15.9568 42.1173 16.0051 42.0555 16.0667C41.9244 16.2186 41.8487 16.4094 41.8406 16.6085H43.1602C43.1726 16.4136 43.1122 16.221 42.9905 16.0667C42.9334 16.0054 42.8633 15.9571 42.7851 15.9253C42.7069 15.8936 42.6226 15.8792 42.5381 15.8831L42.5305 15.8812ZM47.3226 15.9276H46.6176V18.3396H45.9898V15.9276H45.5166V15.6419L45.9898 15.4563V15.2708C45.9672 14.9977 46.0553 14.7269 46.2349 14.5175C46.3349 14.4311 46.4515 14.3653 46.5778 14.3239C46.704 14.2825 46.8374 14.2663 46.9701 14.2763C47.189 14.2751 47.4064 14.3108 47.6129 14.3821L47.4527 14.8589C47.3091 14.8119 47.1591 14.7863 47.0078 14.7828C46.951 14.7789 46.8939 14.7877 46.841 14.8086C46.7881 14.8295 46.7407 14.8619 46.7024 14.9034C46.6349 15.0154 46.6028 15.1445 46.61 15.2745V15.46H47.3151L47.3302 15.9276H47.3226ZM49.8789 18.3396L49.7884 17.9685H49.7564C49.665 18.1048 49.538 18.2143 49.3888 18.2858C49.2221 18.3658 49.0389 18.4071 48.8534 18.4064C48.5647 18.4243 48.28 18.3326 48.0578 18.1503C47.8693 17.9833 47.7977 17.7124 47.7977 17.3655V15.4767H48.4255V17.2393C48.4127 17.4156 48.4612 17.591 48.5631 17.7366C48.6171 17.7942 48.6836 17.8391 48.7577 17.868C48.8318 17.8969 48.9115 17.9091 48.991 17.9035C49.0967 17.9119 49.2029 17.8958 49.3011 17.8565C49.3993 17.8172 49.4868 17.7558 49.5566 17.6772C49.7022 17.448 49.7684 17.1784 49.7451 16.9091V15.4767H50.3728V18.3396H49.8789ZM52.3296 17.8887C52.4859 17.885 52.6407 17.8594 52.7896 17.8126V18.2653C52.7071 18.3026 52.6194 18.3276 52.5295 18.3396C52.4179 18.3581 52.3051 18.3687 52.192 18.3711C51.6089 18.3711 51.3179 18.0693 51.3192 17.4657V15.9294H50.9327V15.6586L51.3607 15.4322L51.5756 14.8292H51.9526V15.4619H52.7783V15.9294H51.9526V17.4657C51.9466 17.5253 51.953 17.5856 51.9715 17.6427C51.9899 17.6998 52.0201 17.7526 52.0601 17.7978C52.097 17.8316 52.1408 17.8571 52.1886 17.8728C52.2364 17.8885 52.2871 17.8939 52.3372 17.8887H52.3296ZM55.4081 18.3396L55.3157 17.9685H55.2856C55.1935 18.1042 55.0667 18.2137 54.918 18.2858C54.7505 18.3656 54.5668 18.4068 54.3807 18.4064C54.092 18.4243 53.8073 18.3326 53.5851 18.1503C53.3979 17.932 53.3045 17.6505 53.325 17.3655V15.4767H53.9528V17.2393C53.94 17.4156 53.9885 17.591 54.0904 17.7366C54.1444 17.7942 54.2109 17.8391 54.285 17.868C54.3591 17.8969 54.4388 17.9091 54.5183 17.9035C54.624 17.9121 54.7302 17.896 54.8285 17.8567C54.9267 17.8174 55.0142 17.7559 55.0839 17.6772C55.2295 17.448 55.2957 17.1784 55.2724 16.9091V15.4767H55.9001V18.3396H55.4081ZM58.2622 15.4155C58.3654 15.4158 58.4683 15.4257 58.5695 15.4452L58.5073 16.0166C58.4165 15.9994 58.3245 15.9895 58.2321 15.987C58.1206 15.9819 58.0094 16.0008 57.9062 16.0425C57.8029 16.0841 57.7102 16.1475 57.6345 16.2282C57.4788 16.3966 57.3962 16.6184 57.4045 16.846V18.3303H56.7937V15.4767H57.282L57.3592 15.974H57.3894C57.4825 15.8124 57.6113 15.6735 57.7664 15.5676C57.9125 15.4691 58.0852 15.4161 58.2622 15.4155ZM60.2681 18.3841C60.074 18.3954 59.8798 18.3663 59.6979 18.2989C59.516 18.2314 59.3506 18.1271 59.2124 17.9926C59.08 17.848 58.9785 17.6788 58.9137 17.4949C58.849 17.311 58.8223 17.1162 58.8353 16.9221C58.815 16.5256 58.9401 16.1351 59.1879 15.8218C59.3094 15.6851 59.461 15.5774 59.6312 15.507C59.8014 15.4366 59.9857 15.4053 60.17 15.4155C60.337 15.4077 60.5037 15.4343 60.6596 15.4938C60.8154 15.5532 60.9569 15.6441 61.0749 15.7606C61.1915 15.8899 61.2805 16.0409 61.3365 16.2048C61.3926 16.3686 61.4145 16.5419 61.401 16.7143V17.0464H59.4574C59.4548 17.2775 59.5364 17.502 59.6874 17.679C59.7674 17.7574 59.8634 17.8181 59.969 17.8571C60.0747 17.8961 60.1875 17.9126 60.3001 17.9054C60.4591 17.9071 60.6178 17.8915 60.7733 17.859C60.9377 17.8228 61.0972 17.7673 61.2483 17.6939V18.1986C61.1029 18.2696 60.9481 18.3202 60.7884 18.3488C60.6166 18.3783 60.4423 18.3901 60.2681 18.3841ZM60.17 15.8831C60.0824 15.8801 59.9951 15.895 59.9137 15.927C59.8322 15.9589 59.7584 16.0071 59.6968 16.0686C59.5658 16.2205 59.4901 16.4112 59.4819 16.6104H60.8016C60.8145 16.4157 60.7548 16.2231 60.6338 16.0686C60.5737 16.0078 60.5015 15.96 60.4216 15.928C60.3418 15.8961 60.2562 15.8808 60.17 15.8831ZM66.0725 16.8998C66.0947 17.299 65.9634 17.6917 65.7049 18C65.5736 18.1308 65.4157 18.2326 65.2415 18.2988C65.0673 18.365 64.8809 18.3941 64.6944 18.3841C64.4417 18.3875 64.1929 18.3234 63.9743 18.1986C63.7632 18.0769 63.5968 17.8924 63.4992 17.6716C63.3848 17.4262 63.3275 17.1587 63.3314 16.8887C63.3084 16.4923 63.4437 16.1028 63.7085 15.8033C63.8406 15.6719 63.9994 15.5695 64.1745 15.5027C64.3496 15.4359 64.537 15.4062 64.7246 15.4155C64.9106 15.4076 65.0961 15.4398 65.2681 15.51C65.44 15.5802 65.5943 15.6867 65.72 15.8218C65.9735 16.1234 66.0997 16.5093 66.0725 16.8998ZM63.9592 16.8998C63.9592 17.5622 64.2043 17.8943 64.7133 17.8943C65.2223 17.8943 65.4485 17.5566 65.4485 16.8998C65.4485 16.243 65.2034 15.9202 64.7133 15.9202C64.6048 15.9129 64.4962 15.9325 64.3974 15.9773C64.2985 16.022 64.2127 16.0904 64.1477 16.1762C64.0094 16.392 63.9434 16.6451 63.9592 16.8998ZM68.2461 15.935H67.541V18.347H66.9133V15.935H66.4401V15.6419L66.9133 15.4563V15.2708C66.8906 14.9977 66.9787 14.7269 67.1583 14.5175C67.2584 14.4311 67.375 14.3653 67.5012 14.3239C67.6275 14.2825 67.7609 14.2663 67.8935 14.2763C68.1124 14.2751 68.3298 14.3108 68.5364 14.3821L68.3686 14.8589C68.225 14.8119 68.075 14.7863 67.9237 14.7828C67.8669 14.7789 67.8098 14.7877 67.7569 14.8086C67.704 14.8295 67.6566 14.8619 67.6183 14.9034C67.5489 15.0146 67.5166 15.1444 67.5259 15.2745V15.46H68.231V15.9276L68.2461 15.935ZM72.5951 18.347H71.9674V16.5844C71.9761 16.4105 71.9335 16.2378 71.8448 16.0871C71.797 16.0301 71.7359 15.9852 71.6666 15.9565C71.5973 15.9277 71.522 15.9159 71.4471 15.922C71.3478 15.9128 71.2479 15.9286 71.1565 15.9679C71.0652 16.0071 70.9855 16.0686 70.9249 16.1465C70.7956 16.3822 70.7374 16.6493 70.7571 16.9165V18.347H70.1444V15.4767H70.6346L70.7269 15.8478H70.7571C70.8393 15.7098 70.9623 15.5998 71.1096 15.5324C71.2671 15.458 71.4403 15.4217 71.6149 15.4266C72.0579 15.4266 72.3689 15.5769 72.5028 15.8775H72.548C72.6392 15.7378 72.766 15.6239 72.9156 15.5472C73.0828 15.4665 73.2667 15.4252 73.4529 15.4266C73.5914 15.4161 73.7307 15.4333 73.8623 15.4773C73.9939 15.5213 74.115 15.5912 74.2183 15.6827C74.3942 15.9055 74.4813 16.184 74.4633 16.4656V18.3396H73.8507V16.577C73.8594 16.4031 73.8168 16.2304 73.7281 16.0797C73.6792 16.0239 73.6179 15.98 73.5489 15.9513C73.4799 15.9227 73.4051 15.9101 73.3304 15.9146C73.2299 15.9041 73.1284 15.9192 73.0356 15.9586C72.9428 15.9979 72.8619 16.0601 72.8006 16.1391C72.6777 16.3442 72.6193 16.5805 72.6328 16.8182V18.3396L72.5951 18.347ZM77.8623 16.8998C77.8818 17.3002 77.7472 17.6931 77.4853 18C77.3551 18.1296 77.1987 18.2307 77.0263 18.2969C76.8538 18.363 76.6691 18.3927 76.4842 18.3841C76.2316 18.3872 75.9828 18.3231 75.7641 18.1986C75.553 18.0769 75.3866 17.8924 75.289 17.6716C75.1746 17.4262 75.1173 17.1587 75.1213 16.8887C75.0956 16.4936 75.2275 16.1042 75.4889 15.8033C75.6221 15.6707 75.7824 15.5676 75.9592 15.5007C76.136 15.4339 76.3253 15.4048 76.5144 15.4155C76.7012 15.4072 76.8875 15.4395 77.0602 15.5101C77.2328 15.5806 77.3876 15.6877 77.5135 15.8237C77.7589 16.1287 77.8829 16.5113 77.8623 16.8998ZM75.749 16.8998C75.749 17.5622 75.9941 17.8943 76.5031 17.8943C77.0121 17.8943 77.2383 17.5622 77.2383 16.8998C77.2383 16.2374 76.9932 15.9202 76.5031 15.9202C76.3946 15.9129 76.286 15.9325 76.1872 15.9773C76.0884 16.022 76.0025 16.0904 75.9375 16.1762C75.7992 16.392 75.7332 16.6451 75.749 16.8998ZM81.1387 18.3451H80.5109V16.5825C80.5269 16.4059 80.4781 16.2295 80.3733 16.0853C80.3189 16.0278 80.252 15.983 80.1776 15.9544C80.1032 15.9259 80.0232 15.9141 79.9435 15.9202C79.8378 15.9096 79.7311 15.9245 79.6325 15.9636C79.534 16.0027 79.4466 16.0649 79.378 16.1447C79.2395 16.3775 79.174 16.6453 79.1895 16.9146V18.3451H78.5787V15.4767H79.0669L79.1593 15.8478H79.1895C79.2817 15.7128 79.4085 15.604 79.5571 15.5324C79.7254 15.4567 79.9093 15.4205 80.0943 15.4266C80.7975 15.4266 81.1349 15.7736 81.1349 16.4805L81.1387 18.3451ZM83.2671 18.3915C83.073 18.4031 82.8786 18.3743 82.6967 18.3068C82.5148 18.2393 82.3494 18.1348 82.2114 18C82.0788 17.8556 81.9771 17.6864 81.9123 17.5025C81.8475 17.3186 81.821 17.1237 81.8343 16.9295C81.814 16.533 81.9391 16.1425 82.1869 15.8293C82.3079 15.6915 82.4593 15.5826 82.6295 15.5109C82.7996 15.4392 82.9841 15.4066 83.169 15.4155C83.3357 15.4075 83.5023 15.434 83.6578 15.4935C83.8134 15.553 83.9545 15.644 84.072 15.7606C84.1893 15.8896 84.2788 16.0405 84.3351 16.2044C84.3915 16.3683 84.4136 16.5417 84.4 16.7143V17.0464H82.4546C82.4529 17.2774 82.5343 17.5015 82.6845 17.679C82.7647 17.7572 82.8607 17.8178 82.9663 17.8568C83.0719 17.8958 83.1846 17.9124 83.2972 17.9054C83.4568 17.9072 83.6161 17.8916 83.7723 17.859C83.9359 17.8199 84.095 17.7645 84.2473 17.6939V18.1986C84.1018 18.2693 83.947 18.3199 83.7874 18.3488C83.6156 18.3783 83.4413 18.3901 83.2671 18.3841V18.3915ZM83.1445 15.8886C83.0566 15.8855 82.969 15.9004 82.8872 15.9323C82.8054 15.9642 82.7313 16.0125 82.6695 16.0742C82.5391 16.2265 82.4636 16.417 82.4546 16.6159H83.7742C83.7871 16.4213 83.7274 16.2286 83.6064 16.0742C83.5489 16.0103 83.4775 15.9599 83.3976 15.9269C83.3176 15.8938 83.2311 15.8788 83.1445 15.8831V15.8886ZM84.5527 15.4823H85.2276L85.8233 17.1095C85.9111 17.3181 85.9743 17.536 86.0119 17.7588H86.0269C86.0481 17.6409 86.079 17.5249 86.1193 17.4119C86.1646 17.2764 86.3795 16.6271 86.7923 15.4823H87.4653L86.2268 18.7218C85.9968 19.3099 85.6292 19.6123 85.0957 19.6123C84.9611 19.6125 84.8269 19.597 84.696 19.566V19.0836C84.8024 19.1029 84.9102 19.1135 85.0184 19.1151C85.3087 19.1151 85.5236 18.9481 85.6461 18.6012L85.7536 18.3303L84.5527 15.4823Z" fill="#BFBDB8"/>
</svg>
