<svg xmlns="http://www.w3.org/2000/svg" width="95" height="18" fill="none"><g fill="#BFBCB8" clip-path="url(#a)"><path d="M26.693 12.283c-1.749 0-2.832-1.506-2.832-3.591 0-2.064.912-3.602 2.821-3.602 1.256 0 2.082.774 2.232 1.796h2.918c-.15-1.27-.74-2.384-1.77-3.127-.837-.62-1.996-1.001-3.369-1.001-3.52 0-5.804 2.56-5.804 5.934 0 3.395 2.36 5.883 5.826 5.883 1.662 0 2.875-.444 3.776-1.29.805-.744 1.341-1.776 1.416-2.9H28.99c-.129 1.104-.987 1.898-2.296 1.898M37.294 5.988c-2.703 0-4.517 1.858-4.517 4.304s1.813 4.303 4.517 4.303c2.725 0 4.506-1.857 4.506-4.303s-1.78-4.304-4.506-4.304m-.01 6.76c-1.17 0-1.782-.98-1.782-2.456s.612-2.477 1.781-2.477 1.803 1.001 1.803 2.477c-.01 1.476-.633 2.456-1.803 2.456M45.618 5.125a1.376 1.376 0 0 0 0-2 1.51 1.51 0 0 0-2.08 0 1.376 1.376 0 0 0 0 2 1.51 1.51 0 0 0 2.08 0M42.24 8.034h1.126v6.305h2.682V6.207H42.24zM52.647 5.969c-1.17 0-1.985.474-2.607 1.352h-.054V6.206H47.4v8.122h2.693v-4.49c0-1 .59-1.712 1.48-1.712.88 0 1.32.588 1.32 1.445v4.757h2.694V9.044c0-1.806-1.095-3.075-2.94-3.075M61.894 2.984h-5.032v11.342h4.85c1.48 0 2.671-.36 3.594-1.032 1.32-.97 2.05-2.57 2.05-4.572 0-3.467-2.2-5.738-5.462-5.738m-.397 8.99h-1.716V5.336h1.748c1.835 0 2.876 1.332 2.876 3.396-.011 2.074-.998 3.24-2.908 3.24M75.327 7.043c-.73-.63-1.684-1.012-2.886-1.012-2.575 0-4.335 1.858-4.335 4.283 0 2.456 1.717 4.314 4.507 4.314 1.073 0 1.93-.268 2.64-.743.74-.495 1.233-1.187 1.415-1.92H74.05c-.236.506-.697.805-1.405.805-1.105 0-1.727-.68-1.9-1.775h6.073c.011-1.661-.482-3.065-1.49-3.952m-4.57 2.404c.182-.97.708-1.589 1.727-1.589.869 0 1.502.62 1.599 1.59zM82.118 9.25c-1.073-.186-2.028-.269-2.028-.836 0-.506.515-.743 1.17-.743.74 0 1.255.227 1.352.95h2.478c-.129-1.6-1.416-2.601-3.809-2.601-1.995 0-3.648.887-3.648 2.6 0 1.91 1.567 2.281 3.037 2.518 1.126.186 2.145.269 2.145 1.002 0 .526-.514.804-1.32.804-.89 0-1.448-.392-1.555-1.207h-2.543c.086 1.796 1.631 2.89 4.11 2.89 2.21 0 3.84-.919 3.84-2.694.011-2.074-1.737-2.446-3.229-2.683M91.679 9.26l2.972-3.056h-3.1L89.04 8.95V2.984h-2.65v11.353h2.65v-2.498l.815-.825 2.028 3.323h3.111zM9.065 9.448c.45 0 .816-.352.816-.785s-.365-.784-.816-.784-.815.351-.815.784.365.785.815.785M15.566 9.448c.45 0 .816-.352.816-.785s-.365-.784-.816-.784-.815.351-.815.784.365.785.815.785M15.566 15.71c.45 0 .816-.352.816-.785s-.365-.784-.816-.784-.815.35-.815.784c0 .433.365.784.815.784"/><path d="M17.96 2.253C17.872 1.107 16.918.179 15.727.096a2.5 2.5 0 0 0-1.932.702 1.97 1.97 0 0 1-1.384.578h-.193c-.536 0-1.04-.217-1.416-.589A2.44 2.44 0 0 0 9.076.096a2.5 2.5 0 0 0-1.728.691c-.375.372-.88.589-1.416.589H5.75c-.526 0-1.03-.196-1.395-.558a4 4 0 0 0-.226-.206C3.219-.1 1.877-.079.998.674A2.284 2.284 0 0 0 .879 4.09l.032.03c.386.352.59.847.59 1.353v.175c0 .516-.225 1.001-.612 1.363A2.26 2.26 0 0 0 .17 8.672c0 .65.28 1.239.72 1.662.386.36.61.846.61 1.362v.237c0 .506-.224.98-.6 1.332a2.27 2.27 0 0 0-.73 1.764c.054 1.218 1.084 2.199 2.34 2.24.729.02 1.383-.258 1.845-.722a1.98 1.98 0 0 1 1.384-.589h.204c.525 0 1.019.217 1.384.589.483.485 1.18.763 1.942.712 1.19-.083 2.156-1.012 2.242-2.168.097-1.372-1.02-2.507-2.425-2.507-.665 0-1.276.258-1.716.68-.376.362-.88.579-1.406.579H5.74c-.526 0-1.04-.197-1.416-.568l-.022-.02a1.87 1.87 0 0 1-.611-1.363v-.206c0-.516.225-1.001.611-1.363.45-.423.719-1.011.719-1.661S4.741 7.423 4.301 7a1.87 1.87 0 0 1-.611-1.362v-.186c0-.516.225-1 .6-1.362l.022-.02.021-.021c.376-.362.88-.578 1.417-.578h.193c.536 0 1.04.216 1.416.588.44.433 1.051.691 1.727.691a2.5 2.5 0 0 0 1.728-.691c.375-.372.88-.588 1.416-.588h.172c.536 0 1.04.216 1.416.588.44.433 1.051.691 1.727.691 1.395.01 2.51-1.124 2.414-2.497"/></g><defs><clipPath id="a"><path fill="#fff" d="M.168.09h94.826v17.24H.168z"/></clipPath></defs></svg>