<svg xmlns="http://www.w3.org/2000/svg" width="104" height="27" fill="none"><path fill="#BFBDB8" d="m19.37 18.2-3.83 1.633v-.166a13.3 13.3 0 0 1-2.327.332c-3.612-.03-6.46-1.9-6.508-4.098v-.815c1.18 1.689 3.599 2.834 6.508 2.783a9.6 9.6 0 0 0 2.828-.332l.337-.814a11.1 11.1 0 0 1-3.17.497c-3.613 0-6.461-1.855-6.508-4.098v-.657c1.18 1.566 3.598 2.698 6.507 2.621a8.2 8.2 0 0 0 3.676-.662l.168-.814a8 8 0 0 1-3.823.814c-3.614.045-6.463-1.809-6.508-4.1v-.659c1.18 1.594 3.599 2.739 6.508 2.783a10.5 10.5 0 0 0 4.502-1.145l.167-.98c-1.163.845-2.863 1.403-4.67 1.485-3.613-.074-6.462-1.944-6.507-4.267.032-2.22 2.896-4.073 6.508-4.104 2.143.031 4.147.77 5.327 1.974l.123.196h.842l-.122-.196c-1.178-1.581-3.55-2.622-6.17-2.622C9.216 2.774 6.03 4.93 6.03 7.522v8.535c.138 2.53 3.247 4.596 7.164 4.596 2.592.009 4.935-1 6.176-2.453"/><path fill="#BFBDB8" d="m17.806 23.962 1.348-5.636-3.874 1.658 2.359-9.763h-4.525l1.178-4.807h14.471l-1.188 4.807h-4.713l-1.012 2.653 5.222-2.155zm2.359-6.781-.673 3.315 5.557-8.273-4.547 1.99 2.021-4.64h4.547l.843-3.48H14.775l-.843 3.477h4.55l-2.191 9.268zM38.357 8.635v.015a1.5 1.5 0 0 1-.49 1.236c-.336.3-.796.45-1.393.45a1.96 1.96 0 0 1-1.454-.57 2.05 2.05 0 0 1-.552-1.485V7.31a2.1 2.1 0 0 1 .535-1.484 1.9 1.9 0 0 1 1.425-.574 2.2 2.2 0 0 1 1.439.438 1.462 1.462 0 0 1 .505 1.236v.015h-.978a.97.97 0 0 0-.223-.702c-.2-.166-.459-.247-.72-.226a.82.82 0 0 0-.705.371c-.182.275-.273.6-.26.928v.994c-.01.328.08.651.26.928a1.025 1.025 0 0 0 1.425.135.96.96 0 0 0 .23-.707h.963v-.014zm5.544-.393a2.1 2.1 0 0 1-.582 1.509 2.033 2.033 0 0 1-1.508.586 2.06 2.06 0 0 1-1.509-.586 2.1 2.1 0 0 1-.582-1.509v-.889a2.1 2.1 0 0 1 .582-1.506 2 2 0 0 1 1.509-.603 2 2 0 0 1 1.508.603 2.04 2.04 0 0 1 .58 1.506l.017.89zM42.89 7.34a1.47 1.47 0 0 0-.29-.95.99.99 0 0 0-.811-.371.94.94 0 0 0-.797.37c-.2.278-.302.611-.29.95v.89a1.52 1.52 0 0 0 .29.964.96.96 0 0 0 .797.371.96.96 0 0 0 .81-.371c.208-.279.31-.62.29-.965zm3.614 2.924h-1.01V5.32h1.01zm5.804 0h-1.01l-2.023-3.33h-.015v3.33h-1.01V5.32h1.01l2.02 3.34h.018V5.32h1.01zm5.067-4.175h-1.438v4.175h-1.01V6.088h-1.41V5.32h3.858zm4.165 2.004h-1.867v1.417h2.22v.754h-3.215V5.32h3.214v.768h-2.203v1.236h1.868v.768zm2.803 1.417h2.251v.754h-3.261V5.32h1.01zm6.538-1.417h-1.868v1.417h2.22v.754h-3.216V5.32h3.216v.768h-2.201v1.236h1.868v.768zm5.655 1.506c-.189.228-.43.41-.703.53a2.7 2.7 0 0 1-1.195.226 2 2 0 0 1-1.492-.559 1.94 1.94 0 0 1-.582-1.462V7.294a1.94 1.94 0 0 1 .566-1.462 1.93 1.93 0 0 1 1.44-.573c.61 0 1.086.15 1.408.438a1.41 1.41 0 0 1 .475 1.144v.015h-.942a.83.83 0 0 0-.23-.618.93.93 0 0 0-.673-.226.96.96 0 0 0-.754.347 1.44 1.44 0 0 0-.275.903v1.041c-.018.33.085.656.29.919a.94.94 0 0 0 .78.347q.289.007.566-.075c.12-.036.23-.1.32-.185v-.965h-.963v-.688h1.974v1.942zm2.604-1.31v1.975h-1.01V5.32h1.745c.481-.025.957.113 1.348.391a1.296 1.296 0 0 1 .488 1.07c.004.235-.067.464-.203.656-.159.2-.365.357-.6.46.261.064.49.219.643.436.136.228.205.489.2.753v.371q-.002.223.06.438a.56.56 0 0 0 .202.325v.076h-1.04a.6.6 0 0 1-.19-.371 3 3 0 0 1-.045-.482v-.336a.7.7 0 0 0-.197-.574.72.72 0 0 0-.576-.215h-.827v-.03zm0-.753h.72a.94.94 0 0 0 .628-.185.66.66 0 0 0 .213-.527.73.73 0 0 0-.213-.544.83.83 0 0 0-.613-.195h-.735v1.4509999999999998m6.845 1.67H84.36l-.338 1.07h-1.055l1.696-4.942h1.026l1.685 4.943h-1.058zm-1.378-.783h1.13l-.552-1.748h-.015zm5.007.045v1.794h-1.01V5.32h1.918c.494-.025.98.13 1.363.436a1.44 1.44 0 0 1 .49 1.145 1.48 1.48 0 0 1-.49 1.146c-.384.306-.87.461-1.363.436h-.918zm0-.754h.908a.88.88 0 0 0 .643-.226.83.83 0 0 0 .215-.571.84.84 0 0 0-.211-.592.83.83 0 0 0-.647-.221h-.918zm8.294 2.548h-1.01V8.22h-2.055v2.04h-1.01V5.32h1.01v2.117h2.053V5.32h1.01zM36.306 18.34h-.628v-3.255h-1.131v-.527h2.894v.527h-1.132zm4.211 0h-.628v-1.763a.73.73 0 0 0-.14-.497.52.52 0 0 0-.427-.165.69.69 0 0 0-.566.224c-.145.23-.211.5-.188.77v1.416h-.613v-4.023h.613v1.024c0 .166-.015.333-.03.527h.045a.8.8 0 0 1 .352-.315c.162-.08.34-.122.52-.12.706 0 1.058.345 1.058 1.053zm2.121.044a1.4 1.4 0 0 1-1.058-.391 1.45 1.45 0 0 1-.377-1.07c-.02-.397.105-.788.353-1.101a1.22 1.22 0 0 1 .98-.406 1.2 1.2 0 0 1 .903.345 1.28 1.28 0 0 1 .34.953v.332h-1.946c0 .232.085.456.24.631a.8.8 0 0 0 .612.227q.24.002.475-.047a2.2 2.2 0 0 0 .473-.165v.507q-.219.105-.458.15a2.5 2.5 0 0 1-.537.035m-.107-2.503a.64.64 0 0 0-.475.186.9.9 0 0 0-.215.541h1.32a.8.8 0 0 0-.17-.541.58.58 0 0 0-.453-.184zm4.792.047h-.705v2.412h-.628v-2.412h-.473v-.286l.473-.186v-.185a1.03 1.03 0 0 1 .245-.754 1 1 0 0 1 .735-.24q.33-.002.643.105l-.16.477a1.6 1.6 0 0 0-.445-.076.38.38 0 0 0-.306.12.65.65 0 0 0-.092.371v.186h.705l.015.468zm2.556 2.412-.09-.372h-.033a.9.9 0 0 1-.367.318c-.167.08-.35.121-.536.12a1.14 1.14 0 0 1-.795-.256c-.189-.167-.26-.438-.26-.784v-1.89h.627v1.763a.77.77 0 0 0 .138.498.53.53 0 0 0 .428.167.69.69 0 0 0 .566-.227c.145-.229.211-.499.188-.768v-1.432h.628v2.863zm2.45-.451q.237-.007.46-.076v.452a1 1 0 0 1-.26.075q-.167.027-.337.031-.875 0-.873-.905v-1.537h-.386v-.27l.428-.227.215-.603h.377v.633h.825v.467h-.825v1.537a.43.43 0 0 0 .107.332.35.35 0 0 0 .277.09zm3.08.45-.093-.37h-.03a.94.94 0 0 1-.368.317c-.167.08-.351.12-.537.12a1.14 1.14 0 0 1-.796-.256c-.187-.218-.28-.5-.26-.784v-1.89h.628v1.763a.77.77 0 0 0 .137.498.53.53 0 0 0 .428.167.69.69 0 0 0 .566-.227c.145-.229.212-.499.188-.768v-1.432h.628v2.863zm2.853-2.923q.155 0 .307.03l-.062.57a2 2 0 0 0-.275-.029.78.78 0 0 0-.597.241.86.86 0 0 0-.23.618v1.484h-.611v-2.853h.488l.077.497h.03c.093-.162.222-.3.377-.406a.9.9 0 0 1 .496-.152m2.006 2.968a1.4 1.4 0 0 1-1.056-.391 1.45 1.45 0 0 1-.377-1.07c-.02-.397.105-.788.353-1.101a1.21 1.21 0 0 1 .982-.406 1.21 1.21 0 0 1 .905.345 1.28 1.28 0 0 1 .326.953v.332h-1.944a.96.96 0 0 0 .23.633.8.8 0 0 0 .613.226q.24.002.473-.046.248-.055.475-.165v.505q-.219.106-.46.15-.258.045-.52.035m-.098-2.5a.64.64 0 0 0-.473.185.9.9 0 0 0-.215.541h1.32a.8.8 0 0 0-.168-.541.63.63 0 0 0-.464-.186m5.903 1.016c.022.399-.11.792-.368 1.1a1.32 1.32 0 0 1-1.01.384 1.4 1.4 0 0 1-.72-.185 1.14 1.14 0 0 1-.476-.527 1.8 1.8 0 0 1-.168-.783 1.5 1.5 0 0 1 .377-1.086 1.34 1.34 0 0 1 1.017-.388 1.3 1.3 0 0 1 .995.407c.254.301.38.687.353 1.078m-2.114 0c0 .662.245.994.754.994.51 0 .736-.337.736-.994s-.246-.98-.736-.98a.66.66 0 0 0-.565.256 1.2 1.2 0 0 0-.189.724m4.287-.965h-.705v2.412h-.628v-2.412h-.473v-.293l.473-.186v-.185a1.03 1.03 0 0 1 .245-.754 1 1 0 0 1 .736-.24c.218-.002.436.034.642.105l-.167.477a1.6 1.6 0 0 0-.445-.076.38.38 0 0 0-.306.12.6.6 0 0 0-.092.371v.186h.705v.468zm4.35 2.412h-.629v-1.763a.9.9 0 0 0-.122-.497.47.47 0 0 0-.398-.165.6.6 0 0 0-.522.224c-.13.236-.188.503-.168.77v1.431h-.613v-2.87h.49l.093.37h.03a.8.8 0 0 1 .353-.315c.157-.074.33-.11.505-.105.443 0 .754.15.888.45h.045a.96.96 0 0 1 .368-.33c.167-.08.35-.122.537-.12a1.04 1.04 0 0 1 .765.256c.176.223.263.501.245.783v1.874h-.612v-1.763a.9.9 0 0 0-.123-.497.49.49 0 0 0-.398-.165.6.6 0 0 0-.53.224 1.2 1.2 0 0 0-.167.68v1.52zm5.266-1.447c.02.4-.115.793-.377 1.1a1.32 1.32 0 0 1-1 .384 1.4 1.4 0 0 1-.72-.185 1.14 1.14 0 0 1-.476-.527 1.8 1.8 0 0 1-.168-.783 1.5 1.5 0 0 1 .368-1.086 1.34 1.34 0 0 1 1.025-.388 1.3 1.3 0 0 1 1 .409c.245.305.369.687.348 1.076m-2.113 0c0 .662.245.994.754.994.51 0 .735-.332.735-.994 0-.663-.245-.98-.735-.98a.66.66 0 0 0-.566.256 1.2 1.2 0 0 0-.188.724m5.39 1.445h-.628v-1.762a.73.73 0 0 0-.138-.498.53.53 0 0 0-.43-.165.66.66 0 0 0-.565.225c-.138.233-.204.5-.189.77v1.43h-.61v-2.868h.488l.092.37h.03a.94.94 0 0 1 .368-.315c.168-.075.352-.111.537-.105.704 0 1.04.347 1.04 1.053zm2.128.047A1.4 1.4 0 0 1 82.211 18a1.45 1.45 0 0 1-.377-1.07c-.02-.397.105-.788.353-1.1a1.22 1.22 0 0 1 .982-.415 1.2 1.2 0 0 1 .903.346 1.28 1.28 0 0 1 .328.953v.332h-1.945a.97.97 0 0 0 .23.633.8.8 0 0 0 .612.226q.241.003.475-.046.246-.06.475-.165v.505q-.219.105-.46.15-.258.045-.52.035zm-.123-2.503a.65.65 0 0 0-.475.185.9.9 0 0 0-.214.542h1.32a.8.8 0 0 0-.169-.542.58.58 0 0 0-.462-.19zm1.409-.407h.675l.595 1.628q.132.313.189.649h.015q.032-.177.092-.347c.046-.136.26-.785.673-1.93h.673l-1.238 3.24c-.23.588-.598.89-1.131.89q-.204 0-.4-.046v-.482q.16.029.322.031c.29 0 .506-.167.628-.514l.108-.27z"/></svg>