<svg xmlns="http://www.w3.org/2000/svg" width="64" height="64" fill="none"><g filter="url(#a)"><circle cx="32" cy="32" r="32" fill="url(#b)"/></g><g fill="#fff" clip-path="url(#c)"><path d="M38.985 47.677h1.974a.56.56 0 0 0 .56-.56v-12.88a.56.56 0 0 0-.56-.56h-.939a13.5 13.5 0 0 0-1.207-1.92 23.1 23.1 0 0 0 5.32-9.152l2.426.694a1.12 1.12 0 0 0 1.382-1.382l-1.753-6.136a1.12 1.12 0 0 0-1.698-.624l-5.279 3.519a1.12 1.12 0 0 0 .12 1.933l2.105 1.053c-.728 2.806-3.261 5.665-6.075 6.888a13.4 13.4 0 0 0-3.278-1.543 1.667 1.667 0 0 0-.377-2.622l1.22-2.194.028-.059a2.52 2.52 0 0 0-.235-2.27 1.55 1.55 0 0 0-1.28-.745h-6.72a1.55 1.55 0 0 0-1.28.743 2.52 2.52 0 0 0-.235 2.27l.029.06 1.22 2.191a1.667 1.667 0 0 0-.377 2.622 13.44 13.44 0 0 0-6.488 21.234H15.2v1.12h33.6v-1.12H38.566c.146-.182.282-.37.418-.56m1.414-1.12h-1.12v-11.76h1.12zm2.23-25.093a.56.56 0 0 0-.3-.608l-2.497-1.248 5.278-3.52 1.753 6.134-2.95-.844a.56.56 0 0 0-.69.378c-1.55 5.152-4.399 9.235-8.02 11.498l-2.46 1.537a.1.1 0 0 1-.112.004.14.14 0 0 1-.072-.126V30.82a.14.14 0 0 1 .089-.134l2.448-.835c3.6-1.226 6.837-4.833 7.532-8.388m-6.15 17.253v7.84h-1.12v-7.84zm-2.24-.56a6.15 6.15 0 0 1-.56 2.556v-.316a.56.56 0 0 0-.56-.56h-2.24a.56.56 0 0 0-.56.56v3.491a6.16 6.16 0 1 1 1.12-10.89v1.67a1.26 1.26 0 0 0 .647 1.106 1.22 1.22 0 0 0 1.251-.033l.31-.194c.387.816.589 1.707.592 2.61m-1.68 2.8v5.6h-1.12v-5.6zm-8.19-20.474a.48.48 0 0 1 .35-.246h6.72a.48.48 0 0 1 .35.246 1.4 1.4 0 0 1 .14 1.194l-1.38 2.48h-4.94l-1.38-2.48a1.4 1.4 0 0 1 .14-1.194m.91 5.914a.56.56 0 0 1 0-1.12h5.6a.56.56 0 0 1 0 1.12zm-9.52 13.44a12.313 12.313 0 0 1 18.248-10.796l-1.72.587a1.26 1.26 0 0 0-.848 1.193v.88a7.28 7.28 0 1 0-1.12 13.383v2.033a.56.56 0 0 0 .56.56h2.24a.56.56 0 0 0 .56-.56v-4.318q.305-.368.56-.77v5.088a.56.56 0 0 0 .56.56h2.24a.56.56 0 0 0 .56-.56v-8.96a.56.56 0 0 0-.56-.56h-1.703a7.3 7.3 0 0 0-.725-2.652l1.187-.742c.78-.491 1.517-1.05 2.202-1.667q.404.55.746 1.141h-.027a.56.56 0 0 0-.56.56v12.674a12 12 0 0 1-1.078 1.326H19.079a12.25 12.25 0 0 1-3.32-8.4"/><path d="M28.079 35.356a1.12 1.12 0 0 1 1.12 1.12h1.12a2.24 2.24 0 0 0-1.68-2.16v-.64h-1.12v.64a2.235 2.235 0 0 0 .56 4.4 1.12 1.12 0 1 1-1.12 1.12h-1.12a2.24 2.24 0 0 0 1.68 2.16v.64h1.12v-.64a2.236 2.236 0 0 0-.56-4.4 1.12 1.12 0 1 1 0-2.24M42.64 29.758a.56.56 0 0 0-.56.56v16.8a.56.56 0 0 0 .56.56h2.24a.56.56 0 0 0 .56-.56v-16.8a.56.56 0 0 0-.56-.56zm1.68 16.8H43.2v-15.68h1.12zM48.799 26.398h-2.24a.56.56 0 0 0-.56.56v20.16a.56.56 0 0 0 .56.56h2.24a.56.56 0 0 0 .56-.56v-20.16a.56.56 0 0 0-.56-.56m-.56 20.16h-1.12v-19.04h1.12z"/></g><g filter="url(#d)"><circle cx="32" cy="32" r="32" fill="url(#e)"/></g><g clip-path="url(#f)"><path fill="#fff" d="M38.985 47.677h1.975a.56.56 0 0 0 .56-.56v-12.88a.56.56 0 0 0-.56-.56h-.939a13.5 13.5 0 0 0-1.207-1.92 23.1 23.1 0 0 0 5.32-9.152l2.426.694a1.12 1.12 0 0 0 1.381-1.382l-1.752-6.136a1.12 1.12 0 0 0-1.698-.624l-5.279 3.519a1.12 1.12 0 0 0 .12 1.933l2.105 1.053c-.728 2.806-3.261 5.665-6.075 6.888a13.4 13.4 0 0 0-3.279-1.543 1.666 1.666 0 0 0-.376-2.622l1.22-2.194.028-.059a2.52 2.52 0 0 0-.235-2.27 1.55 1.55 0 0 0-1.28-.745h-6.72a1.55 1.55 0 0 0-1.28.743 2.52 2.52 0 0 0-.235 2.27l.029.06 1.22 2.191a1.667 1.667 0 0 0-.377 2.622 13.44 13.44 0 0 0-6.488 21.234H15.2v1.12h33.6v-1.12H38.567c.146-.182.282-.37.418-.56m1.415-1.12h-1.12v-11.76h1.12zm2.23-25.093a.56.56 0 0 0-.3-.608l-2.497-1.248 5.278-3.52 1.753 6.134-2.95-.844a.56.56 0 0 0-.69.378c-1.55 5.152-4.399 9.235-8.02 11.498l-2.46 1.537a.1.1 0 0 1-.112.004.14.14 0 0 1-.072-.126V30.82a.14.14 0 0 1 .088-.134l2.449-.835c3.6-1.226 6.837-4.833 7.532-8.388m-6.15 17.253v7.84h-1.12v-7.84zm-2.24-.56a6.15 6.15 0 0 1-.56 2.556v-.316a.56.56 0 0 0-.56-.56h-2.24a.56.56 0 0 0-.56.56v3.491a6.16 6.16 0 1 1 1.12-10.89v1.67a1.26 1.26 0 0 0 .647 1.106 1.22 1.22 0 0 0 1.251-.033l.31-.194c.387.816.589 1.707.592 2.61m-1.68 2.8v5.6h-1.12v-5.6zm-8.19-20.474a.48.48 0 0 1 .35-.246h6.72a.48.48 0 0 1 .35.246 1.4 1.4 0 0 1 .14 1.194l-1.38 2.48h-4.94l-1.38-2.48a1.4 1.4 0 0 1 .14-1.194m.91 5.914a.56.56 0 0 1 0-1.12h5.6a.56.56 0 0 1 0 1.12zm-9.52 13.44a12.313 12.313 0 0 1 18.248-10.796l-1.72.587a1.26 1.26 0 0 0-.848 1.193v.88a7.28 7.28 0 1 0-1.12 13.383v2.033a.56.56 0 0 0 .56.56h2.24a.56.56 0 0 0 .56-.56v-4.318q.305-.368.56-.77v5.088a.56.56 0 0 0 .56.56h2.24a.56.56 0 0 0 .56-.56v-8.96a.56.56 0 0 0-.56-.56h-1.703a7.3 7.3 0 0 0-.725-2.652l1.186-.742c.781-.491 1.518-1.05 2.203-1.667q.405.55.746 1.141h-.027a.56.56 0 0 0-.56.56v12.674a12 12 0 0 1-1.078 1.326H19.08a12.25 12.25 0 0 1-3.32-8.4"/><mask id="g" width="11" height="9" x="22.04" y="34.836" fill="#000" maskUnits="userSpaceOnUse"><path fill="#fff" d="M22.04 34.836h11v9h-11z"/><path d="M30.336 36.748a2.9 2.9 0 0 0-.82.128 2.6 2.6 0 0 0-.737.363 5 5 0 0 0-.617.538 10 10 0 0 1-.6.552c.427.248.91.392 1.404.443.495.053 1 .002 1.473-.145a3.5 3.5 0 0 0 1.28-.715c.367-.322.669-.684.856-1.126a3.43 3.43 0 0 0-3.224-.75q-.334.096-.639.257-.15.082-.292.179a4 4 0 0 0-.272.207 8 8 0 0 0-.506.464c-.163.16-.326.323-.497.478a5 5 0 0 1-.265.226q-.135.11-.283.205-.037.026-.075.047l-.075.045-.078.042-.079.04-.04.019-.04.017-.082.035q-.082.031-.168.058c-.056.019-.114.031-.172.046l-.087.017-.044.009-.044.006a2.454 2.454 0 0 1-1.692-.39 2.4 2.4 0 0 1-.871-1.062l-.01-.024.022-.015a2.3 2.3 0 0 1 1.117-.393 2.54 2.54 0 0 1 1.692.467q.243.171.444.384c.268.284.481.613.644.962a4 4 0 0 1 .283.814q.033.14.056.28.045.285.07.568.014.142.024.285l.02.285a24 24 0 0 1 .023 2.282 21 21 0 0 0 0-1.141q-.012-.57-.05-1.14-.01-.142-.022-.284-.012-.143-.027-.284a9 9 0 0 0-.075-.565 4.3 4.3 0 0 0-.344-1.083 3.6 3.6 0 0 0-.641-.945 3 3 0 0 0-.438-.375 2.48 2.48 0 0 0-1.654-.446c-.387.035-.755.137-1.07.357.171.413.471.76.848 1.015q.143.095.297.17a2.34 2.34 0 0 0 1.343.206l.042-.006.042-.009.085-.016c.055-.015.111-.027.166-.046q.082-.025.162-.056.039-.015.079-.034.02-.007.039-.017l.039-.019q.038-.017.076-.038l.075-.04.074-.045q.037-.022.072-.045.144-.093.277-.202.134-.106.26-.223c.17-.154.33-.316.495-.477s.332-.32.511-.467a4 4 0 0 1 .279-.21 3 3 0 0 1 .3-.184 3.4 3.4 0 0 1 1.351-.383 3.501 3.501 0 0 1 2.596.893l.018.015-.01.022a4 4 0 0 1-.163.33q-.092.16-.201.309a3.5 3.5 0 0 1-.504.544 3.6 3.6 0 0 1-1.306.72 3.7 3.7 0 0 1-1.495.14 3.5 3.5 0 0 1-1.416-.476l-.021-.012.018-.015c.211-.173.404-.366.6-.556.197-.189.398-.377.625-.534a2.6 2.6 0 0 1 .746-.357 2.8 2.8 0 0 1 .823-.119"/></mask><path fill="#fff" d="M30.336 36.748a2.9 2.9 0 0 0-.82.128 2.6 2.6 0 0 0-.737.363 5 5 0 0 0-.617.538 10 10 0 0 1-.6.552c.427.248.91.392 1.404.443.495.053 1 .002 1.473-.145a3.5 3.5 0 0 0 1.28-.715c.367-.322.669-.684.856-1.126a3.43 3.43 0 0 0-3.224-.75q-.334.096-.639.257-.15.082-.292.179a4 4 0 0 0-.272.207 8 8 0 0 0-.506.464c-.163.16-.326.323-.497.478a5 5 0 0 1-.265.226q-.135.11-.283.205-.037.026-.075.047l-.075.045-.078.042-.079.04-.04.019-.04.017-.082.035q-.082.031-.168.058c-.056.019-.114.031-.172.046l-.087.017-.044.009-.044.006a2.454 2.454 0 0 1-1.692-.39 2.4 2.4 0 0 1-.871-1.062l-.01-.024.022-.015a2.3 2.3 0 0 1 1.117-.393 2.54 2.54 0 0 1 1.692.467q.243.171.444.384c.268.284.481.613.644.962a4 4 0 0 1 .283.814q.033.14.056.28.045.285.07.568.014.142.024.285l.02.285a24 24 0 0 1 .023 2.282 21 21 0 0 0 0-1.141q-.012-.57-.05-1.14-.01-.142-.022-.284-.012-.143-.027-.284a9 9 0 0 0-.075-.565 4.3 4.3 0 0 0-.344-1.083 3.6 3.6 0 0 0-.641-.945 3 3 0 0 0-.438-.375 2.48 2.48 0 0 0-1.654-.446c-.387.035-.755.137-1.07.357.171.413.471.76.848 1.015q.143.095.297.17a2.34 2.34 0 0 0 1.343.206l.042-.006.042-.009.085-.016c.055-.015.111-.027.166-.046q.082-.025.162-.056.039-.015.079-.034.02-.007.039-.017l.039-.019q.038-.017.076-.038l.075-.04.074-.045q.037-.022.072-.045.144-.093.277-.202.134-.106.26-.223c.17-.154.33-.316.495-.477s.332-.32.511-.467a4 4 0 0 1 .279-.21 3 3 0 0 1 .3-.184 3.4 3.4 0 0 1 1.351-.383 3.501 3.501 0 0 1 2.596.893l.018.015-.01.022a4 4 0 0 1-.163.33q-.092.16-.201.309a3.5 3.5 0 0 1-.504.544 3.6 3.6 0 0 1-1.306.72 3.7 3.7 0 0 1-1.495.14 3.5 3.5 0 0 1-1.416-.476l-.021-.012.018-.015c.211-.173.404-.366.6-.556.197-.189.398-.377.625-.534a2.6 2.6 0 0 1 .746-.357 2.8 2.8 0 0 1 .823-.119"/><path stroke="#fff" stroke-width=".48" d="M30.336 36.748a2.9 2.9 0 0 0-.82.128 2.6 2.6 0 0 0-.737.363 5 5 0 0 0-.617.538 10 10 0 0 1-.6.552c.427.248.91.392 1.404.443.495.053 1 .002 1.473-.145a3.5 3.5 0 0 0 1.28-.715c.367-.322.669-.684.856-1.126a3.43 3.43 0 0 0-3.224-.75q-.334.096-.639.257-.15.082-.292.179a4 4 0 0 0-.272.207 8 8 0 0 0-.506.464c-.163.16-.326.323-.497.478a5 5 0 0 1-.265.226q-.135.11-.283.205-.037.026-.075.047l-.075.045-.078.042-.079.04-.04.019-.04.017-.082.035q-.082.031-.168.058c-.056.019-.114.031-.172.046l-.087.017-.044.009-.044.006a2.454 2.454 0 0 1-1.692-.39 2.4 2.4 0 0 1-.871-1.062l-.01-.024.022-.015a2.3 2.3 0 0 1 1.117-.393 2.54 2.54 0 0 1 1.692.467q.243.171.444.384c.268.284.481.613.644.962a4 4 0 0 1 .283.814q.033.14.056.28.045.285.07.568.014.142.024.285l.02.285a24 24 0 0 1 .023 2.282 21 21 0 0 0 0-1.141q-.012-.57-.05-1.14-.01-.142-.022-.284-.012-.143-.027-.284a9 9 0 0 0-.075-.565 4.3 4.3 0 0 0-.344-1.083 3.6 3.6 0 0 0-.641-.945 3 3 0 0 0-.438-.375 2.48 2.48 0 0 0-1.654-.446c-.387.035-.755.137-1.07.357.171.413.471.76.848 1.015q.143.095.297.17a2.34 2.34 0 0 0 1.343.206l.042-.006.042-.009.085-.016c.055-.015.111-.027.166-.046q.082-.025.162-.056.039-.015.079-.034.02-.007.039-.017l.039-.019q.038-.017.076-.038l.075-.04.074-.045q.037-.022.072-.045.144-.093.277-.202.134-.106.26-.223c.17-.154.33-.316.495-.477s.332-.32.511-.467a4 4 0 0 1 .279-.21 3 3 0 0 1 .3-.184 3.4 3.4 0 0 1 1.351-.383 3.501 3.501 0 0 1 2.596.893l.018.015-.01.022a4 4 0 0 1-.163.33q-.092.16-.201.309a3.5 3.5 0 0 1-.504.544 3.6 3.6 0 0 1-1.306.72 3.7 3.7 0 0 1-1.495.14 3.5 3.5 0 0 1-1.416-.476l-.021-.012.018-.015c.211-.173.404-.366.6-.556.197-.189.398-.377.625-.534a2.6 2.6 0 0 1 .746-.357 2.8 2.8 0 0 1 .823-.119Z" mask="url(#g)"/><path fill="#fff" d="M42.64 29.758a.56.56 0 0 0-.56.56v16.8a.56.56 0 0 0 .56.56h2.24a.56.56 0 0 0 .56-.56v-16.8a.56.56 0 0 0-.56-.56zm1.68 16.8H43.2v-15.68h1.12zM48.8 26.398h-2.24a.56.56 0 0 0-.56.56v20.16a.56.56 0 0 0 .56.56h2.24a.56.56 0 0 0 .56-.56v-20.16a.56.56 0 0 0-.56-.56m-.56 20.16h-1.12v-19.04h1.12z"/></g><defs><linearGradient id="b" x1="0" x2="66.16" y1="12" y2="16.677" gradientUnits="userSpaceOnUse"><stop stop-color="#30C917"/><stop offset="1" stop-color="#279A13"/></linearGradient><linearGradient id="e" x1="0" x2="66.16" y1="12" y2="16.677" gradientUnits="userSpaceOnUse"><stop stop-color="#30C917"/><stop offset="1" stop-color="#279A13"/></linearGradient><clipPath id="c"><path fill="#fff" d="M14.08 14.078h35.84v35.84H14.08z"/></clipPath><clipPath id="f"><path fill="#fff" d="M14.08 14.078h35.84v35.84H14.08z"/></clipPath><filter id="a" width="94" height="65" x="-14" y="0" color-interpolation-filters="sRGB" filterUnits="userSpaceOnUse"><feFlood flood-opacity="0" result="BackgroundImageFix"/><feBlend in="SourceGraphic" in2="BackgroundImageFix" result="shape"/><feColorMatrix in="SourceAlpha" result="hardAlpha" values="0 0 0 0 0 0 0 0 0 0 0 0 0 0 0 0 0 0 127 0"/><feOffset dx="-14"/><feGaussianBlur stdDeviation="8.5"/><feComposite in2="hardAlpha" k2="-1" k3="1" operator="arithmetic"/><feColorMatrix values="0 0 0 0 0.104167 0 0 0 0 0.066116 0 0 0 0 0.030816 0 0 0 0.12 0"/><feBlend in2="shape" result="effect1_innerShadow_300_1176"/><feColorMatrix in="SourceAlpha" result="hardAlpha" values="0 0 0 0 0 0 0 0 0 0 0 0 0 0 0 0 0 0 127 0"/><feMorphology in="SourceAlpha" radius="2" result="effect2_innerShadow_300_1176"/><feOffset dx="16" dy="1"/><feGaussianBlur stdDeviation="15.5"/><feComposite in2="hardAlpha" k2="-1" k3="1" operator="arithmetic"/><feColorMatrix values="0 0 0 0 1 0 0 0 0 1 0 0 0 0 1 0 0 0 0.4 0"/><feBlend in2="effect1_innerShadow_300_1176" result="effect2_innerShadow_300_1176"/></filter><filter id="d" width="83.2" height="64.64" x="-8.96" y="0" color-interpolation-filters="sRGB" filterUnits="userSpaceOnUse"><feFlood flood-opacity="0" result="BackgroundImageFix"/><feBlend in="SourceGraphic" in2="BackgroundImageFix" result="shape"/><feColorMatrix in="SourceAlpha" result="hardAlpha" values="0 0 0 0 0 0 0 0 0 0 0 0 0 0 0 0 0 0 127 0"/><feOffset dx="-8.96"/><feGaussianBlur stdDeviation="5.44"/><feComposite in2="hardAlpha" k2="-1" k3="1" operator="arithmetic"/><feColorMatrix values="0 0 0 0 0.104167 0 0 0 0 0.066116 0 0 0 0 0.030816 0 0 0 0.12 0"/><feBlend in2="shape" result="effect1_innerShadow_300_1176"/><feColorMatrix in="SourceAlpha" result="hardAlpha" values="0 0 0 0 0 0 0 0 0 0 0 0 0 0 0 0 0 0 127 0"/><feMorphology in="SourceAlpha" radius="1.28" result="effect2_innerShadow_300_1176"/><feOffset dx="10.24" dy=".64"/><feGaussianBlur stdDeviation="9.92"/><feComposite in2="hardAlpha" k2="-1" k3="1" operator="arithmetic"/><feColorMatrix values="0 0 0 0 1 0 0 0 0 1 0 0 0 0 1 0 0 0 0.4 0"/><feBlend in2="effect1_innerShadow_300_1176" result="effect2_innerShadow_300_1176"/></filter></defs></svg>