<svg width="64" height="64" viewBox="0 0 64 64" fill="none" xmlns="http://www.w3.org/2000/svg">
<g filter="url(#filter0_ii_300_1176)">
<circle cx="32" cy="32" r="32" fill="url(#paint0_linear_300_1176)"/>
</g>
<g clip-path="url(#clip0_300_1176)">
<path d="M38.9845 47.677H40.959C41.1075 47.677 41.25 47.618 41.355 47.513C41.46 47.408 41.519 47.2655 41.519 47.117V34.237C41.519 34.0885 41.46 33.946 41.355 33.841C41.25 33.736 41.1075 33.677 40.959 33.677H40.0205C39.6726 33.0044 39.2687 32.3622 38.8131 31.7573C41.2708 29.1594 43.0919 26.0265 44.1331 22.6052L46.559 23.2991C46.7506 23.353 46.9531 23.3549 47.1457 23.3046C47.3383 23.2543 47.514 23.1536 47.6547 23.0128C47.7954 22.872 47.8961 22.6963 47.9463 22.5037C47.9966 22.3111 47.9946 22.1086 47.9405 21.917L46.1877 15.7811C46.1393 15.6116 46.0515 15.4559 45.9316 15.3267C45.8116 15.1975 45.6629 15.0984 45.4974 15.0376C45.3319 14.9767 45.1544 14.9558 44.9793 14.9765C44.8043 14.9972 44.6365 15.0589 44.4898 15.1567L39.2113 18.6757C39.048 18.7845 38.9162 18.9343 38.8291 19.1101C38.7419 19.2859 38.7025 19.4814 38.7147 19.6772C38.7269 19.873 38.7903 20.0622 38.8986 20.2258C39.0068 20.3894 39.1562 20.5217 39.3317 20.6094L41.4361 21.6616C40.7081 24.4678 38.1747 27.3266 35.3607 28.5496C34.3431 27.8889 33.2402 27.3699 32.0825 27.0068C32.2618 26.8239 32.3965 26.602 32.4762 26.3585C32.5559 26.115 32.5784 25.8564 32.542 25.6027C32.5055 25.3491 32.4111 25.1073 32.266 24.8961C32.121 24.6849 31.9292 24.51 31.7056 24.3849L32.9253 22.1908C32.9359 22.1718 32.9454 22.1522 32.9538 22.132C33.0962 21.7618 33.1492 21.3631 33.1084 20.9685C33.0676 20.574 32.9343 20.1946 32.7192 19.8612C32.5846 19.6404 32.397 19.4567 32.1735 19.3268C31.9499 19.1968 31.6975 19.1247 31.439 19.117H24.719C24.4607 19.1245 24.2084 19.1964 23.9848 19.326C23.7613 19.4557 23.5736 19.6391 23.4389 19.8596C23.2238 20.1929 23.0904 20.5723 23.0496 20.9669C23.0089 21.3615 23.0618 21.7601 23.2042 22.1304C23.2126 22.1505 23.2221 22.1701 23.2328 22.1892L24.4525 24.381C24.2288 24.5061 24.037 24.6811 23.8919 24.8924C23.7468 25.1036 23.6524 25.3455 23.616 25.5992C23.5796 25.8529 23.6022 26.1116 23.682 26.3551C23.7618 26.5987 23.8967 26.8205 24.0761 27.0035C21.9874 27.6549 20.0893 28.8064 18.5467 30.358C17.0041 31.9096 15.8636 33.8143 15.2243 35.9068C14.5849 37.9992 14.4661 40.2161 14.8782 42.3649C15.2902 44.5137 16.2206 46.5294 17.5885 48.237H15.199V49.357H48.799V48.237H38.5656C38.7117 48.055 38.8484 47.8663 38.9845 47.677ZM40.399 46.557H39.279V34.797H40.399V46.557ZM42.6284 21.464C42.6518 21.3438 42.6353 21.2193 42.5813 21.1095C42.5273 20.9997 42.4388 20.9106 42.3293 20.8558L39.8323 19.6076L45.1103 16.0885L46.8631 22.2216L43.9125 21.3783C43.7709 21.3379 43.6192 21.3549 43.4901 21.4255C43.361 21.4962 43.2649 21.6148 43.2225 21.7557C41.6725 26.9077 38.8243 30.9907 35.2039 33.2542L32.7433 34.7914C32.7268 34.8025 32.7076 34.8087 32.6877 34.8093C32.6679 34.8099 32.6483 34.8049 32.6313 34.7948C32.6086 34.7827 32.5898 34.7644 32.577 34.7422C32.5642 34.7199 32.558 34.6944 32.559 34.6688V30.821C32.5583 30.7923 32.5664 30.764 32.5822 30.74C32.598 30.7159 32.6208 30.6973 32.6475 30.6866L35.0958 29.8522C38.6955 28.6258 41.9334 25.0194 42.6284 21.464ZM36.479 38.717V46.557H35.359V38.717H36.479ZM34.239 38.157C34.2378 39.0393 34.0468 39.9109 33.679 40.7128V40.397C33.679 40.2485 33.62 40.106 33.515 40.001C33.41 39.896 33.2675 39.837 33.119 39.837H30.879C30.7305 39.837 30.5881 39.896 30.483 40.001C30.378 40.106 30.319 40.2485 30.319 40.397V43.888C29.3353 44.2742 28.2689 44.4008 27.2221 44.2557C26.1754 44.1106 25.1836 43.6986 24.342 43.0594C23.5005 42.4202 22.8376 41.5753 22.417 40.6058C21.9964 39.6364 21.8322 38.575 21.9403 37.5238C22.0485 36.4726 22.4252 35.4669 23.0343 34.6034C23.6434 33.7398 24.4645 33.0475 25.4185 32.593C26.3725 32.1384 27.4274 31.937 28.4818 32.008C29.5362 32.0789 30.5545 32.42 31.439 32.9983V34.6688C31.4384 34.894 31.498 35.1153 31.6117 35.3097C31.7255 35.504 31.8892 35.6644 32.0858 35.7742C32.2779 35.8823 32.4958 35.9364 32.7162 35.9305C32.9366 35.9247 33.1513 35.8593 33.3374 35.7412L33.6477 35.5468C34.0338 36.363 34.2357 37.2541 34.239 38.157ZM32.559 40.957V46.557H31.439V40.957H32.559ZM24.3696 20.4828C24.4051 20.4178 24.4551 20.3618 24.5157 20.3192C24.5762 20.2766 24.6458 20.2485 24.719 20.237H31.439C31.5122 20.2485 31.5818 20.2766 31.6424 20.3192C31.703 20.3618 31.7529 20.4178 31.7885 20.4828C31.8991 20.6589 31.9691 20.8574 31.9934 21.0639C32.0177 21.2705 31.9957 21.4798 31.929 21.6768L30.5497 24.157H25.6083L24.229 21.6768C24.1623 21.4798 24.1403 21.2705 24.1646 21.0639C24.1889 20.8574 24.259 20.6589 24.3696 20.4828ZM25.279 26.397C25.1305 26.397 24.9881 26.338 24.883 26.233C24.778 26.128 24.719 25.9855 24.719 25.837C24.719 25.6885 24.778 25.546 24.883 25.441C24.9881 25.336 25.1305 25.277 25.279 25.277H30.879C31.0275 25.277 31.17 25.336 31.275 25.441C31.38 25.546 31.439 25.6885 31.439 25.837C31.439 25.9855 31.38 26.128 31.275 26.233C31.17 26.338 31.0275 26.397 30.879 26.397H25.279ZM15.759 39.837C15.7578 37.6966 16.3146 35.5929 17.3744 33.7333C18.4342 31.8738 19.9604 30.3226 21.8026 29.2327C23.6447 28.1429 25.7391 27.552 27.8792 27.5185C30.0193 27.4849 32.1312 28.0098 34.0066 29.0413L32.2869 29.6276C32.0386 29.7131 31.8233 29.8741 31.6712 30.0881C31.5192 30.3022 31.438 30.5584 31.439 30.821V31.7002C30.375 31.1464 29.1907 30.864 27.9912 30.8783C26.7918 30.8926 25.6145 31.203 24.564 31.7819C23.5134 32.3609 22.6222 33.1904 21.9696 34.1969C21.317 35.2033 20.9232 36.3554 20.8231 37.5507C20.7231 38.746 20.92 39.9476 21.3963 41.0484C21.8725 42.1493 22.6135 43.1155 23.5532 43.861C24.4929 44.6065 25.6022 45.1082 26.7826 45.3216C27.963 45.5351 29.1778 45.4535 30.319 45.0842V47.117C30.319 47.2655 30.378 47.408 30.483 47.513C30.5881 47.618 30.7305 47.677 30.879 47.677H33.119C33.2675 47.677 33.41 47.618 33.515 47.513C33.62 47.408 33.679 47.2655 33.679 47.117V42.7988C33.8824 42.5545 34.0694 42.2971 34.239 42.0283V47.117C34.239 47.2655 34.298 47.408 34.403 47.513C34.5081 47.618 34.6505 47.677 34.799 47.677H37.039C37.1875 47.677 37.33 47.618 37.435 47.513C37.54 47.408 37.599 47.2655 37.599 47.117V38.157C37.599 38.0085 37.54 37.866 37.435 37.761C37.33 37.656 37.1875 37.597 37.039 37.597H35.3355C35.2648 36.675 35.019 35.7749 34.6114 34.9448L35.7975 34.2034C36.5782 33.7118 37.3151 33.1538 38 32.5357C38.2694 32.9022 38.5184 33.2832 38.7459 33.677H38.719C38.5705 33.677 38.4281 33.736 38.323 33.841C38.218 33.946 38.159 34.0885 38.159 34.237V46.9115C37.8306 47.3776 37.4704 47.8205 37.081 48.237H19.0787C16.9424 45.9622 15.755 42.9577 15.759 39.837Z" fill="white"/>
<path d="M28.0789 35.3558C28.3759 35.3558 28.6608 35.4738 28.8708 35.6838C29.0809 35.8939 29.1989 36.1787 29.1989 36.4758H30.3189C30.317 35.9806 30.1511 35.5 29.8472 35.1091C29.5432 34.7182 29.1183 34.4391 28.6389 34.3153V33.6758H27.5189V34.3153C26.9916 34.451 26.5319 34.7745 26.2262 35.2251C25.9205 35.6757 25.7897 36.2223 25.8584 36.7625C25.9272 37.3026 26.1907 37.7991 26.5995 38.1587C27.0083 38.5184 27.5344 38.7165 28.0789 38.7158C28.3004 38.7158 28.5169 38.7815 28.7011 38.9045C28.8853 39.0276 29.0288 39.2025 29.1136 39.4072C29.1984 39.6118 29.2206 39.837 29.1773 40.0543C29.1341 40.2715 29.0275 40.4711 28.8708 40.6277C28.7142 40.7844 28.5146 40.891 28.2974 40.9343C28.0801 40.9775 27.8549 40.9553 27.6503 40.8705C27.4456 40.7858 27.2707 40.6422 27.1476 40.458C27.0246 40.2738 26.9589 40.0573 26.9589 39.8358H25.8389C25.8407 40.3309 26.0066 40.8115 26.3106 41.2024C26.6145 41.5933 27.0394 41.8725 27.5189 41.9963V42.6358H28.6389V41.9963C29.1662 41.8605 29.6258 41.537 29.9315 41.0865C30.2373 40.6359 30.368 40.0892 30.2993 39.5491C30.2305 39.0089 29.967 38.5125 29.5582 38.1528C29.1494 37.7932 28.6234 37.5951 28.0789 37.5958C27.7818 37.5958 27.4969 37.4778 27.2869 37.2677C27.0769 37.0577 26.9589 36.7728 26.9589 36.4758C26.9589 36.1787 27.0769 35.8939 27.2869 35.6838C27.4969 35.4738 27.7818 35.3558 28.0789 35.3558Z" fill="white"/>
<path d="M42.6391 29.7578C42.4906 29.7578 42.3481 29.8168 42.2431 29.9218C42.1381 30.0269 42.0791 30.1693 42.0791 30.3178V47.1178C42.0791 47.2663 42.1381 47.4088 42.2431 47.5138C42.3481 47.6188 42.4906 47.6778 42.6391 47.6778H44.8791C45.0276 47.6778 45.1701 47.6188 45.2751 47.5138C45.3801 47.4088 45.4391 47.2663 45.4391 47.1178V30.3178C45.4391 30.1693 45.3801 30.0269 45.2751 29.9218C45.1701 29.8168 45.0276 29.7578 44.8791 29.7578H42.6391ZM44.3191 46.5578H43.1991V30.8778H44.3191V46.5578Z" fill="white"/>
<path d="M48.799 26.3984H46.559C46.4105 26.3984 46.2681 26.4574 46.163 26.5625C46.058 26.6675 45.999 26.8099 45.999 26.9584V47.1184C45.999 47.267 46.058 47.4094 46.163 47.5144C46.2681 47.6194 46.4105 47.6784 46.559 47.6784H48.799C48.9475 47.6784 49.09 47.6194 49.195 47.5144C49.3 47.4094 49.359 47.267 49.359 47.1184V26.9584C49.359 26.8099 49.3 26.6675 49.195 26.5625C49.09 26.4574 48.9475 26.3984 48.799 26.3984ZM48.239 46.5584H47.119V27.5184H48.239V46.5584Z" fill="white"/>
</g>
<g filter="url(#filter1_ii_300_1176)">
<circle cx="32" cy="32" r="32" fill="url(#paint1_linear_300_1176)"/>
</g>
<g clip-path="url(#clip1_300_1176)">
<path d="M38.9854 47.677H40.96C41.1085 47.677 41.2509 47.618 41.356 47.513C41.461 47.408 41.52 47.2655 41.52 47.117V34.237C41.52 34.0885 41.461 33.946 41.356 33.841C41.2509 33.736 41.1085 33.677 40.96 33.677H40.0214C39.6736 33.0044 39.2697 32.3622 38.8141 31.7573C41.2717 29.1594 43.0929 26.0265 44.1341 22.6052L46.56 23.2991C46.7516 23.353 46.9541 23.3549 47.1467 23.3046C47.3393 23.2543 47.515 23.1536 47.6557 23.0128C47.7964 22.872 47.8971 22.6963 47.9473 22.5037C47.9975 22.3111 47.9955 22.1086 47.9415 21.917L46.1887 15.7811C46.1403 15.6116 46.0525 15.4559 45.9326 15.3267C45.8126 15.1975 45.6638 15.0984 45.4984 15.0376C45.3329 14.9767 45.1554 14.9558 44.9803 14.9765C44.8052 14.9972 44.6375 15.0589 44.4908 15.1567L39.2122 18.6757C39.049 18.7845 38.9172 18.9343 38.8301 19.1101C38.7429 19.2859 38.7035 19.4814 38.7156 19.6772C38.7278 19.873 38.7912 20.0622 38.8995 20.2258C39.0078 20.3894 39.1572 20.5217 39.3326 20.6094L41.4371 21.6616C40.7091 24.4678 38.1757 27.3266 35.3617 28.5496C34.3441 27.8889 33.2412 27.3699 32.0834 27.0068C32.2628 26.8239 32.3975 26.602 32.4772 26.3585C32.5569 26.115 32.5794 25.8564 32.5429 25.6027C32.5065 25.3491 32.4121 25.1073 32.267 24.8961C32.122 24.6849 31.9302 24.51 31.7066 24.3849L32.9262 22.1908C32.9369 22.1718 32.9464 22.1522 32.9548 22.132C33.0972 21.7618 33.1501 21.3631 33.1094 20.9685C33.0686 20.574 32.9352 20.1946 32.7202 19.8612C32.5856 19.6404 32.398 19.4567 32.1745 19.3268C31.9509 19.1968 31.6985 19.1247 31.44 19.117H24.72C24.4617 19.1245 24.2093 19.1964 23.9858 19.326C23.7623 19.4557 23.5746 19.6391 23.4398 19.8596C23.2248 20.1929 23.0914 20.5723 23.0506 20.9669C23.0099 21.3615 23.0628 21.7601 23.2052 22.1304C23.2136 22.1505 23.2231 22.1701 23.2338 22.1892L24.4534 24.381C24.2298 24.5061 24.0379 24.6811 23.8929 24.8924C23.7478 25.1036 23.6534 25.3455 23.617 25.5992C23.5806 25.8529 23.6032 26.1116 23.683 26.3551C23.7628 26.5987 23.8976 26.8205 24.0771 27.0035C21.9884 27.6549 20.0903 28.8064 18.5477 30.358C17.0051 31.9096 15.8646 33.8143 15.2252 35.9068C14.5859 37.9992 14.4671 40.2161 14.8791 42.3649C15.2912 44.5137 16.2216 46.5294 17.5895 48.237H15.2V49.357H48.8V48.237H38.5666C38.7127 48.055 38.8494 47.8663 38.9854 47.677ZM40.4 46.557H39.28V34.797H40.4V46.557ZM42.6294 21.464C42.6528 21.3438 42.6363 21.2193 42.5823 21.1095C42.5283 20.9997 42.4398 20.9106 42.3303 20.8558L39.8333 19.6076L45.1113 16.0885L46.8641 22.2216L43.9134 21.3783C43.7719 21.3379 43.6202 21.3549 43.4911 21.4255C43.362 21.4962 43.2658 21.6148 43.2235 21.7557C41.6734 26.9077 38.8253 30.9907 35.2049 33.2542L32.7442 34.7914C32.7278 34.8025 32.7085 34.8087 32.6887 34.8093C32.6689 34.8099 32.6493 34.8049 32.6322 34.7948C32.6096 34.7827 32.5908 34.7644 32.578 34.7422C32.5652 34.7199 32.559 34.6944 32.56 34.6688V30.821C32.5593 30.7923 32.5674 30.764 32.5832 30.74C32.599 30.7159 32.6218 30.6973 32.6485 30.6866L35.0968 29.8522C38.6965 28.6258 41.9344 25.0194 42.6294 21.464ZM36.48 38.717V46.557H35.36V38.717H36.48ZM34.24 38.157C34.2388 39.0392 34.0478 39.9109 33.68 40.7128V40.397C33.68 40.2485 33.621 40.106 33.516 40.001C33.411 39.896 33.2685 39.837 33.12 39.837H30.88C30.7315 39.837 30.589 39.896 30.484 40.001C30.379 40.106 30.32 40.2485 30.32 40.397V43.888C29.3363 44.2742 28.2698 44.4008 27.2231 44.2557C26.1763 44.1106 25.1845 43.6986 24.343 43.0594C23.5015 42.4202 22.8386 41.5753 22.4179 40.6058C21.9973 39.6364 21.8332 38.575 21.9413 37.5238C22.0494 36.4726 22.4262 35.4669 23.0353 34.6034C23.6444 33.7398 24.4655 33.0475 25.4195 32.593C26.3735 32.1384 27.4284 31.937 28.4828 32.008C29.5371 32.0789 30.5555 32.42 31.44 32.9983V34.6688C31.4393 34.894 31.499 35.1153 31.6127 35.3097C31.7264 35.504 31.8901 35.6644 32.0868 35.7742C32.2789 35.8823 32.4968 35.9364 32.7172 35.9305C32.9375 35.9247 33.1522 35.8593 33.3384 35.7412L33.6486 35.5468C34.0348 36.363 34.2367 37.2541 34.24 38.157ZM32.56 40.957V46.557H31.44V40.957H32.56ZM24.3706 20.4828C24.4061 20.4178 24.456 20.3618 24.5166 20.3192C24.5772 20.2766 24.6468 20.2485 24.72 20.237H31.44C31.5132 20.2485 31.5828 20.2766 31.6434 20.3192C31.7039 20.3618 31.7539 20.4178 31.7894 20.4828C31.9001 20.6589 31.9701 20.8574 31.9944 21.0639C32.0187 21.2705 31.9967 21.4798 31.93 21.6768L30.5507 24.157H25.6093L24.23 21.6768C24.1633 21.4798 24.1413 21.2705 24.1656 21.0639C24.1899 20.8574 24.2599 20.6589 24.3706 20.4828ZM25.28 26.397C25.1315 26.397 24.989 26.338 24.884 26.233C24.779 26.128 24.72 25.9855 24.72 25.837C24.72 25.6885 24.779 25.546 24.884 25.441C24.989 25.336 25.1315 25.277 25.28 25.277H30.88C31.0285 25.277 31.171 25.336 31.276 25.441C31.381 25.546 31.44 25.6885 31.44 25.837C31.44 25.9855 31.381 26.128 31.276 26.233C31.171 26.338 31.0285 26.397 30.88 26.397H25.28ZM15.76 39.837C15.7588 37.6966 16.3156 35.5929 17.3754 33.7333C18.4352 31.8738 19.9614 30.3226 21.8035 29.2327C23.6457 28.1429 25.7401 27.552 27.8802 27.5185C30.0203 27.4849 32.1322 28.0098 34.0076 29.0413L32.2878 29.6276C32.0396 29.7131 31.8243 29.8741 31.6722 30.0881C31.5201 30.3022 31.4389 30.5584 31.44 30.821V31.7002C30.376 31.1464 29.1916 30.864 27.9922 30.8783C26.7928 30.8926 25.6155 31.203 24.565 31.7819C23.5144 32.3609 22.6232 33.1904 21.9706 34.1969C21.318 35.2033 20.9241 36.3554 20.8241 37.5507C20.7241 38.746 20.921 39.9475 21.3972 41.0484C21.8735 42.1493 22.6145 43.1155 23.5542 43.861C24.4939 44.6065 25.6032 45.1082 26.7836 45.3216C27.9639 45.5351 29.1787 45.4535 30.32 45.0842V47.117C30.32 47.2655 30.379 47.408 30.484 47.513C30.589 47.618 30.7315 47.677 30.88 47.677H33.12C33.2685 47.677 33.411 47.618 33.516 47.513C33.621 47.408 33.68 47.2655 33.68 47.117V42.7988C33.8833 42.5545 34.0704 42.2971 34.24 42.0283V47.117C34.24 47.2655 34.299 47.408 34.404 47.513C34.509 47.618 34.6515 47.677 34.8 47.677H37.04C37.1885 47.677 37.331 47.618 37.436 47.513C37.541 47.408 37.6 47.2655 37.6 47.117V38.157C37.6 38.0085 37.541 37.866 37.436 37.761C37.331 37.656 37.1885 37.597 37.04 37.597H35.3365C35.2657 36.675 35.02 35.7749 34.6124 34.9448L35.7985 34.2034C36.5792 33.7118 37.316 33.1538 38.001 32.5357C38.2703 32.9022 38.5194 33.2832 38.7469 33.677H38.72C38.5715 33.677 38.429 33.736 38.324 33.841C38.219 33.946 38.16 34.0885 38.16 34.237V46.9115C37.8316 47.3776 37.4714 47.8205 37.082 48.237H19.0797C16.9433 45.9622 15.7559 42.9577 15.76 39.837Z" fill="white"/>
<mask id="path-8-outside-1_300_1176" maskUnits="userSpaceOnUse" x="22.04" y="34.8359" width="11" height="9" fill="black">
<rect fill="white" x="22.04" y="34.8359" width="11" height="9"/>
<path d="M30.3356 36.7481C30.1965 36.7494 30.0577 36.7605 29.9205 36.7817C29.7833 36.8029 29.6482 36.8353 29.5163 36.8764C29.2527 36.9596 29.0016 37.0807 28.7787 37.2394C28.5546 37.397 28.3567 37.5859 28.1621 37.7768C27.968 37.9681 27.7742 38.1526 27.5629 38.3289C27.9894 38.5773 28.4711 38.7205 28.9661 38.7722C29.4607 38.8254 29.9666 38.774 30.4394 38.6265C30.9124 38.4792 31.3521 38.2341 31.7188 37.9118C32.0855 37.5898 32.3876 37.2277 32.5748 36.7856C32.2364 36.481 31.8334 36.2436 31.3975 36.0939C30.9615 35.9437 30.4927 35.8852 30.0317 35.9157C29.801 35.9312 29.5726 35.9731 29.3508 36.0356C29.1293 36.0996 28.9148 36.1857 28.7125 36.2933C28.6121 36.348 28.514 36.4065 28.4202 36.4719C28.3267 36.5373 28.2354 36.6059 28.1477 36.6792C27.9718 36.8249 27.8063 36.983 27.6425 37.1433C27.4785 37.3034 27.3156 37.4659 27.1445 37.6212C27.0589 37.6989 26.9714 37.7749 26.8803 37.8471C26.7894 37.9197 26.6956 37.9892 26.5969 38.0524C26.5724 38.0685 26.5479 38.0846 26.5225 38.0992C26.4973 38.1142 26.4724 38.1297 26.4468 38.144L26.3692 38.186C26.3435 38.2004 26.3164 38.2121 26.29 38.2253L26.2502 38.2447C26.2369 38.2509 26.223 38.2564 26.2095 38.2622C26.1822 38.2736 26.1555 38.2858 26.1279 38.2966C26.0723 38.3171 26.0171 38.3384 25.9602 38.3547C25.904 38.3735 25.8457 38.3862 25.7884 38.4011L25.7009 38.4183L25.6571 38.4267L25.6128 38.4331C25.4952 38.4501 25.3762 38.458 25.2572 38.4569C25.0194 38.4547 24.7823 38.417 24.5561 38.347C24.443 38.3119 24.3327 38.2686 24.2264 38.2176C24.1203 38.1661 24.018 38.1074 23.9207 38.0422C23.5324 37.779 23.2245 37.4068 23.0499 36.9811L23.04 36.9568L23.0619 36.9416C23.3881 36.7145 23.7804 36.5834 24.1788 36.5494C24.5777 36.5154 24.9844 36.5797 25.3521 36.7304C25.5358 36.806 25.7096 36.9031 25.8713 37.0157C26.0327 37.1288 26.1801 37.2593 26.3149 37.4004C26.5831 37.6843 26.7964 38.0129 26.9588 38.3615C27.0406 38.5357 27.1092 38.7155 27.1657 38.8987C27.1948 38.9901 27.2189 39.0827 27.2418 39.1756C27.2631 39.2688 27.283 39.3626 27.298 39.4569C27.3278 39.6455 27.3509 39.8347 27.3682 40.0244C27.3781 40.1191 27.3845 40.2141 27.3925 40.309C27.3988 40.404 27.4064 40.4989 27.4113 40.5939C27.4335 40.9739 27.446 41.3543 27.45 41.7348C27.4546 42.1152 27.4502 42.4958 27.435 42.8759C27.4402 42.6858 27.4422 42.4956 27.4422 42.3055C27.4415 42.1154 27.4398 41.9251 27.4354 41.735C27.4274 41.3548 27.4111 40.9749 27.3851 40.5954C27.3792 40.5005 27.3707 40.4059 27.3635 40.311C27.3544 40.2163 27.3472 40.1216 27.3363 40.0271C27.3172 39.8381 27.2921 39.6495 27.2606 39.4625C27.228 39.2757 27.1824 39.0911 27.1251 38.91C27.068 38.7289 26.9991 38.5512 26.9171 38.3792C26.7544 38.0352 26.5415 37.7119 26.276 37.4342C26.1425 37.2962 25.9972 37.1688 25.8383 37.059C25.6793 36.9495 25.5088 36.8557 25.3289 36.7828C24.9689 36.6379 24.5728 36.5777 24.1847 36.613C23.7975 36.6485 23.4293 36.75 23.1148 36.9703C23.2851 37.3828 23.5851 37.7302 23.9622 37.9848C24.0569 38.048 24.1562 38.1047 24.2591 38.1544C24.3621 38.2036 24.4692 38.2454 24.5789 38.2792C24.7983 38.3467 25.0279 38.3827 25.2579 38.3843C25.3729 38.3852 25.488 38.3774 25.6015 38.3607L25.644 38.3545L25.6863 38.3463L25.7707 38.3295C25.8262 38.3149 25.8823 38.3028 25.9366 38.2843C25.9917 38.2684 26.045 38.2476 26.0987 38.2279C26.1253 38.2174 26.1513 38.2056 26.1777 38.1944C26.1908 38.1888 26.204 38.1834 26.2169 38.1772L26.2555 38.1584C26.2809 38.1456 26.3073 38.1341 26.3322 38.12L26.4073 38.0791C26.4322 38.065 26.4563 38.0498 26.4809 38.0352C26.5056 38.021 26.5295 38.0052 26.5533 37.9895C26.6493 37.9277 26.741 37.8596 26.83 37.7883C26.9194 37.7174 27.0055 37.6421 27.09 37.5651C27.2593 37.4114 27.4206 37.2487 27.5853 37.0884C27.7499 36.9279 27.9173 36.7687 28.0964 36.6211C28.1856 36.5468 28.279 36.4768 28.3749 36.4101C28.4707 36.3434 28.5719 36.2833 28.6751 36.2275C28.8826 36.1177 29.1023 36.0299 29.3291 35.9649C29.5563 35.9013 29.7901 35.859 30.0262 35.8435C30.4981 35.8132 30.9765 35.8739 31.4218 36.0281C31.8668 36.1818 32.2777 36.4251 32.6224 36.7366L32.64 36.7525L32.6309 36.7737C32.582 36.8861 32.5277 36.9963 32.4671 37.1034C32.4053 37.2098 32.3387 37.3134 32.2656 37.413C32.1916 37.5119 32.1132 37.6077 32.0291 37.6985C31.9443 37.7888 31.8556 37.8758 31.7617 37.9574C31.3861 38.2836 30.9374 38.53 30.4563 38.677C29.9752 38.8239 29.462 38.8729 28.9609 38.8162C28.4599 38.7608 27.9725 38.5969 27.5445 38.3412L27.5238 38.3289L27.5423 38.314C27.7533 38.141 27.9463 37.9482 28.1428 37.7583C28.3394 37.5691 28.5402 37.381 28.7675 37.2244C28.9938 37.0669 29.2473 36.9466 29.5132 36.8665C29.6463 36.8269 29.7824 36.7962 29.92 36.7766C30.0574 36.7572 30.1967 36.7477 30.3356 36.7481Z"/>
</mask>
<path d="M30.3356 36.7481C30.1965 36.7494 30.0577 36.7605 29.9205 36.7817C29.7833 36.8029 29.6482 36.8353 29.5163 36.8764C29.2527 36.9596 29.0016 37.0807 28.7787 37.2394C28.5546 37.397 28.3567 37.5859 28.1621 37.7768C27.968 37.9681 27.7742 38.1526 27.5629 38.3289C27.9894 38.5773 28.4711 38.7205 28.9661 38.7722C29.4607 38.8254 29.9666 38.774 30.4394 38.6265C30.9124 38.4792 31.3521 38.2341 31.7188 37.9118C32.0855 37.5898 32.3876 37.2277 32.5748 36.7856C32.2364 36.481 31.8334 36.2436 31.3975 36.0939C30.9615 35.9437 30.4927 35.8852 30.0317 35.9157C29.801 35.9312 29.5726 35.9731 29.3508 36.0356C29.1293 36.0996 28.9148 36.1857 28.7125 36.2933C28.6121 36.348 28.514 36.4065 28.4202 36.4719C28.3267 36.5373 28.2354 36.6059 28.1477 36.6792C27.9718 36.8249 27.8063 36.983 27.6425 37.1433C27.4785 37.3034 27.3156 37.4659 27.1445 37.6212C27.0589 37.6989 26.9714 37.7749 26.8803 37.8471C26.7894 37.9197 26.6956 37.9892 26.5969 38.0524C26.5724 38.0685 26.5479 38.0846 26.5225 38.0992C26.4973 38.1142 26.4724 38.1297 26.4468 38.144L26.3692 38.186C26.3435 38.2004 26.3164 38.2121 26.29 38.2253L26.2502 38.2447C26.2369 38.2509 26.223 38.2564 26.2095 38.2622C26.1822 38.2736 26.1555 38.2858 26.1279 38.2966C26.0723 38.3171 26.0171 38.3384 25.9602 38.3547C25.904 38.3735 25.8457 38.3862 25.7884 38.4011L25.7009 38.4183L25.6571 38.4267L25.6128 38.4331C25.4952 38.4501 25.3762 38.458 25.2572 38.4569C25.0194 38.4547 24.7823 38.417 24.5561 38.347C24.443 38.3119 24.3327 38.2686 24.2264 38.2176C24.1203 38.1661 24.018 38.1074 23.9207 38.0422C23.5324 37.779 23.2245 37.4068 23.0499 36.9811L23.04 36.9568L23.0619 36.9416C23.3881 36.7145 23.7804 36.5834 24.1788 36.5494C24.5777 36.5154 24.9844 36.5797 25.3521 36.7304C25.5358 36.806 25.7096 36.9031 25.8713 37.0157C26.0327 37.1288 26.1801 37.2593 26.3149 37.4004C26.5831 37.6843 26.7964 38.0129 26.9588 38.3615C27.0406 38.5357 27.1092 38.7155 27.1657 38.8987C27.1948 38.9901 27.2189 39.0827 27.2418 39.1756C27.2631 39.2688 27.283 39.3626 27.298 39.4569C27.3278 39.6455 27.3509 39.8347 27.3682 40.0244C27.3781 40.1191 27.3845 40.2141 27.3925 40.309C27.3988 40.404 27.4064 40.4989 27.4113 40.5939C27.4335 40.9739 27.446 41.3543 27.45 41.7348C27.4546 42.1152 27.4502 42.4958 27.435 42.8759C27.4402 42.6858 27.4422 42.4956 27.4422 42.3055C27.4415 42.1154 27.4398 41.9251 27.4354 41.735C27.4274 41.3548 27.4111 40.9749 27.3851 40.5954C27.3792 40.5005 27.3707 40.4059 27.3635 40.311C27.3544 40.2163 27.3472 40.1216 27.3363 40.0271C27.3172 39.8381 27.2921 39.6495 27.2606 39.4625C27.228 39.2757 27.1824 39.0911 27.1251 38.91C27.068 38.7289 26.9991 38.5512 26.9171 38.3792C26.7544 38.0352 26.5415 37.7119 26.276 37.4342C26.1425 37.2962 25.9972 37.1688 25.8383 37.059C25.6793 36.9495 25.5088 36.8557 25.3289 36.7828C24.9689 36.6379 24.5728 36.5777 24.1847 36.613C23.7975 36.6485 23.4293 36.75 23.1148 36.9703C23.2851 37.3828 23.5851 37.7302 23.9622 37.9848C24.0569 38.048 24.1562 38.1047 24.2591 38.1544C24.3621 38.2036 24.4692 38.2454 24.5789 38.2792C24.7983 38.3467 25.0279 38.3827 25.2579 38.3843C25.3729 38.3852 25.488 38.3774 25.6015 38.3607L25.644 38.3545L25.6863 38.3463L25.7707 38.3295C25.8262 38.3149 25.8823 38.3028 25.9366 38.2843C25.9917 38.2684 26.045 38.2476 26.0987 38.2279C26.1253 38.2174 26.1513 38.2056 26.1777 38.1944C26.1908 38.1888 26.204 38.1834 26.2169 38.1772L26.2555 38.1584C26.2809 38.1456 26.3073 38.1341 26.3322 38.12L26.4073 38.0791C26.4322 38.065 26.4563 38.0498 26.4809 38.0352C26.5056 38.021 26.5295 38.0052 26.5533 37.9895C26.6493 37.9277 26.741 37.8596 26.83 37.7883C26.9194 37.7174 27.0055 37.6421 27.09 37.5651C27.2593 37.4114 27.4206 37.2487 27.5853 37.0884C27.7499 36.9279 27.9173 36.7687 28.0964 36.6211C28.1856 36.5468 28.279 36.4768 28.3749 36.4101C28.4707 36.3434 28.5719 36.2833 28.6751 36.2275C28.8826 36.1177 29.1023 36.0299 29.3291 35.9649C29.5563 35.9013 29.7901 35.859 30.0262 35.8435C30.4981 35.8132 30.9765 35.8739 31.4218 36.0281C31.8668 36.1818 32.2777 36.4251 32.6224 36.7366L32.64 36.7525L32.6309 36.7737C32.582 36.8861 32.5277 36.9963 32.4671 37.1034C32.4053 37.2098 32.3387 37.3134 32.2656 37.413C32.1916 37.5119 32.1132 37.6077 32.0291 37.6985C31.9443 37.7888 31.8556 37.8758 31.7617 37.9574C31.3861 38.2836 30.9374 38.53 30.4563 38.677C29.9752 38.8239 29.462 38.8729 28.9609 38.8162C28.4599 38.7608 27.9725 38.5969 27.5445 38.3412L27.5238 38.3289L27.5423 38.314C27.7533 38.141 27.9463 37.9482 28.1428 37.7583C28.3394 37.5691 28.5402 37.381 28.7675 37.2244C28.9938 37.0669 29.2473 36.9466 29.5132 36.8665C29.6463 36.8269 29.7824 36.7962 29.92 36.7766C30.0574 36.7572 30.1967 36.7477 30.3356 36.7481Z" fill="white"/>
<path d="M30.3356 36.7481C30.1965 36.7494 30.0577 36.7605 29.9205 36.7817C29.7833 36.8029 29.6482 36.8353 29.5163 36.8764C29.2527 36.9596 29.0016 37.0807 28.7787 37.2394C28.5546 37.397 28.3567 37.5859 28.1621 37.7768C27.968 37.9681 27.7742 38.1526 27.5629 38.3289C27.9894 38.5773 28.4711 38.7205 28.9661 38.7722C29.4607 38.8254 29.9666 38.774 30.4394 38.6265C30.9124 38.4792 31.3521 38.2341 31.7188 37.9118C32.0855 37.5898 32.3876 37.2277 32.5748 36.7856C32.2364 36.481 31.8334 36.2436 31.3975 36.0939C30.9615 35.9437 30.4927 35.8852 30.0317 35.9157C29.801 35.9312 29.5726 35.9731 29.3508 36.0356C29.1293 36.0996 28.9148 36.1857 28.7125 36.2933C28.6121 36.348 28.514 36.4065 28.4202 36.4719C28.3267 36.5373 28.2354 36.6059 28.1477 36.6792C27.9718 36.8249 27.8063 36.983 27.6425 37.1433C27.4785 37.3034 27.3156 37.4659 27.1445 37.6212C27.0589 37.6989 26.9714 37.7749 26.8803 37.8471C26.7894 37.9197 26.6956 37.9892 26.5969 38.0524C26.5724 38.0685 26.5479 38.0846 26.5225 38.0992C26.4973 38.1142 26.4724 38.1297 26.4468 38.144L26.3692 38.186C26.3435 38.2004 26.3164 38.2121 26.29 38.2253L26.2502 38.2447C26.2369 38.2509 26.223 38.2564 26.2095 38.2622C26.1822 38.2736 26.1555 38.2858 26.1279 38.2966C26.0723 38.3171 26.0171 38.3384 25.9602 38.3547C25.904 38.3735 25.8457 38.3862 25.7884 38.4011L25.7009 38.4183L25.6571 38.4267L25.6128 38.4331C25.4952 38.4501 25.3762 38.458 25.2572 38.4569C25.0194 38.4547 24.7823 38.417 24.5561 38.347C24.443 38.3119 24.3327 38.2686 24.2264 38.2176C24.1203 38.1661 24.018 38.1074 23.9207 38.0422C23.5324 37.779 23.2245 37.4068 23.0499 36.9811L23.04 36.9568L23.0619 36.9416C23.3881 36.7145 23.7804 36.5834 24.1788 36.5494C24.5777 36.5154 24.9844 36.5797 25.3521 36.7304C25.5358 36.806 25.7096 36.9031 25.8713 37.0157C26.0327 37.1288 26.1801 37.2593 26.3149 37.4004C26.5831 37.6843 26.7964 38.0129 26.9588 38.3615C27.0406 38.5357 27.1092 38.7155 27.1657 38.8987C27.1948 38.9901 27.2189 39.0827 27.2418 39.1756C27.2631 39.2688 27.283 39.3626 27.298 39.4569C27.3278 39.6455 27.3509 39.8347 27.3682 40.0244C27.3781 40.1191 27.3845 40.2141 27.3925 40.309C27.3988 40.404 27.4064 40.4989 27.4113 40.5939C27.4335 40.9739 27.446 41.3543 27.45 41.7348C27.4546 42.1152 27.4502 42.4958 27.435 42.8759C27.4402 42.6858 27.4422 42.4956 27.4422 42.3055C27.4415 42.1154 27.4398 41.9251 27.4354 41.735C27.4274 41.3548 27.4111 40.9749 27.3851 40.5954C27.3792 40.5005 27.3707 40.4059 27.3635 40.311C27.3544 40.2163 27.3472 40.1216 27.3363 40.0271C27.3172 39.8381 27.2921 39.6495 27.2606 39.4625C27.228 39.2757 27.1824 39.0911 27.1251 38.91C27.068 38.7289 26.9991 38.5512 26.9171 38.3792C26.7544 38.0352 26.5415 37.7119 26.276 37.4342C26.1425 37.2962 25.9972 37.1688 25.8383 37.059C25.6793 36.9495 25.5088 36.8557 25.3289 36.7828C24.9689 36.6379 24.5728 36.5777 24.1847 36.613C23.7975 36.6485 23.4293 36.75 23.1148 36.9703C23.2851 37.3828 23.5851 37.7302 23.9622 37.9848C24.0569 38.048 24.1562 38.1047 24.2591 38.1544C24.3621 38.2036 24.4692 38.2454 24.5789 38.2792C24.7983 38.3467 25.0279 38.3827 25.2579 38.3843C25.3729 38.3852 25.488 38.3774 25.6015 38.3607L25.644 38.3545L25.6863 38.3463L25.7707 38.3295C25.8262 38.3149 25.8823 38.3028 25.9366 38.2843C25.9917 38.2684 26.045 38.2476 26.0987 38.2279C26.1253 38.2174 26.1513 38.2056 26.1777 38.1944C26.1908 38.1888 26.204 38.1834 26.2169 38.1772L26.2555 38.1584C26.2809 38.1456 26.3073 38.1341 26.3322 38.12L26.4073 38.0791C26.4322 38.065 26.4563 38.0498 26.4809 38.0352C26.5056 38.021 26.5295 38.0052 26.5533 37.9895C26.6493 37.9277 26.741 37.8596 26.83 37.7883C26.9194 37.7174 27.0055 37.6421 27.09 37.5651C27.2593 37.4114 27.4206 37.2487 27.5853 37.0884C27.7499 36.9279 27.9173 36.7687 28.0964 36.6211C28.1856 36.5468 28.279 36.4768 28.3749 36.4101C28.4707 36.3434 28.5719 36.2833 28.6751 36.2275C28.8826 36.1177 29.1023 36.0299 29.3291 35.9649C29.5563 35.9013 29.7901 35.859 30.0262 35.8435C30.4981 35.8132 30.9765 35.8739 31.4218 36.0281C31.8668 36.1818 32.2777 36.4251 32.6224 36.7366L32.64 36.7525L32.6309 36.7737C32.582 36.8861 32.5277 36.9963 32.4671 37.1034C32.4053 37.2098 32.3387 37.3134 32.2656 37.413C32.1916 37.5119 32.1132 37.6077 32.0291 37.6985C31.9443 37.7888 31.8556 37.8758 31.7617 37.9574C31.3861 38.2836 30.9374 38.53 30.4563 38.677C29.9752 38.8239 29.462 38.8729 28.9609 38.8162C28.4599 38.7608 27.9725 38.5969 27.5445 38.3412L27.5238 38.3289L27.5423 38.314C27.7533 38.141 27.9463 37.9482 28.1428 37.7583C28.3394 37.5691 28.5402 37.381 28.7675 37.2244C28.9938 37.0669 29.2473 36.9466 29.5132 36.8665C29.6463 36.8269 29.7824 36.7962 29.92 36.7766C30.0574 36.7572 30.1967 36.7477 30.3356 36.7481Z" stroke="white" stroke-width="0.48" mask="url(#path-8-outside-1_300_1176)"/>
<path d="M42.6401 29.7578C42.4916 29.7578 42.3491 29.8168 42.2441 29.9218C42.1391 30.0269 42.0801 30.1693 42.0801 30.3178V47.1178C42.0801 47.2663 42.1391 47.4088 42.2441 47.5138C42.3491 47.6188 42.4916 47.6778 42.6401 47.6778H44.8801C45.0286 47.6778 45.171 47.6188 45.2761 47.5138C45.3811 47.4088 45.4401 47.2663 45.4401 47.1178V30.3178C45.4401 30.1693 45.3811 30.0269 45.2761 29.9218C45.171 29.8168 45.0286 29.7578 44.8801 29.7578H42.6401ZM44.3201 46.5578H43.2001V30.8778H44.3201V46.5578Z" fill="white"/>
<path d="M48.8 26.3984H46.56C46.4115 26.3984 46.269 26.4574 46.164 26.5625C46.059 26.6675 46 26.8099 46 26.9584V47.1184C46 47.267 46.059 47.4094 46.164 47.5144C46.269 47.6194 46.4115 47.6784 46.56 47.6784H48.8C48.9485 47.6784 49.091 47.6194 49.196 47.5144C49.301 47.4094 49.36 47.267 49.36 47.1184V26.9584C49.36 26.8099 49.301 26.6675 49.196 26.5625C49.091 26.4574 48.9485 26.3984 48.8 26.3984ZM48.24 46.5584H47.12V27.5184H48.24V46.5584Z" fill="white"/>
</g>
<defs>
<filter id="filter0_ii_300_1176" x="-14" y="0" width="94" height="65" filterUnits="userSpaceOnUse" color-interpolation-filters="sRGB">
<feFlood flood-opacity="0" result="BackgroundImageFix"/>
<feBlend mode="normal" in="SourceGraphic" in2="BackgroundImageFix" result="shape"/>
<feColorMatrix in="SourceAlpha" type="matrix" values="0 0 0 0 0 0 0 0 0 0 0 0 0 0 0 0 0 0 127 0" result="hardAlpha"/>
<feOffset dx="-14"/>
<feGaussianBlur stdDeviation="8.5"/>
<feComposite in2="hardAlpha" operator="arithmetic" k2="-1" k3="1"/>
<feColorMatrix type="matrix" values="0 0 0 0 0.104167 0 0 0 0 0.066116 0 0 0 0 0.030816 0 0 0 0.12 0"/>
<feBlend mode="normal" in2="shape" result="effect1_innerShadow_300_1176"/>
<feColorMatrix in="SourceAlpha" type="matrix" values="0 0 0 0 0 0 0 0 0 0 0 0 0 0 0 0 0 0 127 0" result="hardAlpha"/>
<feMorphology radius="2" operator="erode" in="SourceAlpha" result="effect2_innerShadow_300_1176"/>
<feOffset dx="16" dy="1"/>
<feGaussianBlur stdDeviation="15.5"/>
<feComposite in2="hardAlpha" operator="arithmetic" k2="-1" k3="1"/>
<feColorMatrix type="matrix" values="0 0 0 0 1 0 0 0 0 1 0 0 0 0 1 0 0 0 0.4 0"/>
<feBlend mode="normal" in2="effect1_innerShadow_300_1176" result="effect2_innerShadow_300_1176"/>
</filter>
<filter id="filter1_ii_300_1176" x="-8.96" y="0" width="83.2" height="64.64" filterUnits="userSpaceOnUse" color-interpolation-filters="sRGB">
<feFlood flood-opacity="0" result="BackgroundImageFix"/>
<feBlend mode="normal" in="SourceGraphic" in2="BackgroundImageFix" result="shape"/>
<feColorMatrix in="SourceAlpha" type="matrix" values="0 0 0 0 0 0 0 0 0 0 0 0 0 0 0 0 0 0 127 0" result="hardAlpha"/>
<feOffset dx="-8.96"/>
<feGaussianBlur stdDeviation="5.44"/>
<feComposite in2="hardAlpha" operator="arithmetic" k2="-1" k3="1"/>
<feColorMatrix type="matrix" values="0 0 0 0 0.104167 0 0 0 0 0.066116 0 0 0 0 0.030816 0 0 0 0.12 0"/>
<feBlend mode="normal" in2="shape" result="effect1_innerShadow_300_1176"/>
<feColorMatrix in="SourceAlpha" type="matrix" values="0 0 0 0 0 0 0 0 0 0 0 0 0 0 0 0 0 0 127 0" result="hardAlpha"/>
<feMorphology radius="1.28" operator="erode" in="SourceAlpha" result="effect2_innerShadow_300_1176"/>
<feOffset dx="10.24" dy="0.64"/>
<feGaussianBlur stdDeviation="9.92"/>
<feComposite in2="hardAlpha" operator="arithmetic" k2="-1" k3="1"/>
<feColorMatrix type="matrix" values="0 0 0 0 1 0 0 0 0 1 0 0 0 0 1 0 0 0 0.4 0"/>
<feBlend mode="normal" in2="effect1_innerShadow_300_1176" result="effect2_innerShadow_300_1176"/>
</filter>
<linearGradient id="paint0_linear_300_1176" x1="3.7033e-07" y1="12" x2="66.1605" y2="16.6775" gradientUnits="userSpaceOnUse">
<stop stop-color="#30C917"/>
<stop offset="1" stop-color="#279A13"/>
</linearGradient>
<linearGradient id="paint1_linear_300_1176" x1="3.7033e-07" y1="12" x2="66.1605" y2="16.6775" gradientUnits="userSpaceOnUse">
<stop stop-color="#30C917"/>
<stop offset="1" stop-color="#279A13"/>
</linearGradient>
<clipPath id="clip0_300_1176">
<rect width="35.84" height="35.84" fill="white" transform="translate(14.0791 14.0781)"/>
</clipPath>
<clipPath id="clip1_300_1176">
<rect width="35.84" height="35.84" fill="white" transform="translate(14.0801 14.0781)"/>
</clipPath>
</defs>
</svg>
