<svg xmlns="http://www.w3.org/2000/svg" width="64" height="64" fill="none"><g filter="url(#a)"><circle cx="32" cy="32" r="32" fill="url(#b)"/></g><g clip-path="url(#c)"><path fill="#fff" d="M32 14.078c-9.867 0-17.92 8.054-17.92 17.92s8.054 17.92 17.92 17.92 17.92-8.053 17.92-17.92-8.053-17.92-17.92-17.92m0 33.74c-8.723 0-15.82-7.097-15.82-15.82s7.097-15.82 15.82-15.82 15.82 7.097 15.82 15.82-7.097 15.82-15.82 15.82"/><path fill="#fff" d="M32 18.277c-7.534 0-13.72 6.185-13.72 13.72s6.185 13.72 13.72 13.72 13.72-6.184 13.72-13.72c0-7.534-6.184-13.72-13.72-13.72m0 25.34c-6.407 0-11.62-5.212-11.62-11.62s5.213-11.62 11.62-11.62c6.408 0 11.62 5.213 11.62 11.62 0 6.408-5.212 11.62-11.62 11.62"/><mask id="d" width="19" height="15" x="22.68" y="25.879" fill="#000" maskUnits="userSpaceOnUse"><path fill="#fff" d="M22.68 25.879h19v15h-19z"/><path d="M36.812 28.62q-.376.004-.747.064-.37.063-.728.181c-.475.159-.927.39-1.328.693-.403.301-.76.662-1.11 1.026-.35.366-.698.718-1.078 1.054a6.1 6.1 0 0 0 2.525.846c.89.102 1.802.004 2.653-.278a6.3 6.3 0 0 0 2.302-1.364c.66-.615 1.204-1.306 1.541-2.15a5.964 5.964 0 0 0-4.577-1.66 5.7 5.7 0 0 0-2.375.72q-.271.155-.526.341a7 7 0 0 0-.49.396c-.317.278-.615.58-.91.886-.295.305-.588.616-.896.912a10 10 0 0 1-.476.431 6 6 0 0 1-.51.392q-.066.047-.134.09-.067.043-.136.085l-.14.08c-.046.028-.095.05-.142.075l-.072.037-.073.034q-.074.033-.147.066c-.1.039-.2.08-.302.11-.101.036-.206.06-.31.09l-.157.032-.079.016-.08.012a4 4 0 0 1-.64.046 4.2 4.2 0 0 1-2.405-.792 4.5 4.5 0 0 1-1.567-2.026l-.018-.046.039-.03a4 4 0 0 1 2.01-.748 4.34 4.34 0 0 1 2.112.345c.331.145.644.33.935.545.29.216.556.465.798.735.483.542.867 1.169 1.16 1.834q.22.5.372 1.026.077.262.137.529.059.265.101.537.08.54.126 1.083c.018.18.03.362.044.543.011.182.025.363.034.544a48 48 0 0 1 .043 4.357 43 43 0 0 0 0-2.178 49 49 0 0 0-.09-2.176q-.017-.27-.04-.543c-.015-.18-.028-.361-.048-.542q-.052-.54-.136-1.078a8.5 8.5 0 0 0-.619-2.068 6.9 6.9 0 0 0-1.154-1.804 5.4 5.4 0 0 0-.787-.716 4.7 4.7 0 0 0-.917-.527 4.23 4.23 0 0 0-2.06-.325c-.697.068-1.36.262-1.926.682a4.32 4.32 0 0 0 2.636 2.5 4 4 0 0 0 1.222.2q.311.003.618-.045l.077-.012.076-.016.152-.032c.1-.028.2-.05.299-.086.099-.03.195-.07.291-.108q.072-.03.142-.064.036-.015.071-.032l.07-.036c.045-.025.093-.047.137-.074l.136-.078.132-.084q.067-.041.13-.087.258-.178.499-.384.24-.204.468-.426c.304-.293.595-.604.891-.91s.598-.61.92-.892a7 7 0 0 1 .501-.403 6 6 0 0 1 .54-.349 5.835 5.835 0 0 1 2.432-.733c.85-.058 1.711.058 2.513.353.8.293 1.54.758 2.16 1.352l.033.03-.017.041a7 7 0 0 1-.294.63 7 7 0 0 1-.363.59 7 7 0 0 1-.426.546 6.385 6.385 0 0 1-2.831 1.868c-.866.28-1.79.374-2.692.266a6.1 6.1 0 0 1-2.55-.907l-.037-.024.034-.028c.38-.33.727-.699 1.08-1.061.355-.361.716-.72 1.125-1.02.407-.3.864-.53 1.342-.683a4.8 4.8 0 0 1 1.48-.226"/></mask><path fill="#fff" d="M36.812 28.62q-.376.004-.747.064-.37.063-.728.181c-.475.159-.927.39-1.328.693-.403.301-.76.662-1.11 1.026-.35.366-.698.718-1.078 1.054a6.1 6.1 0 0 0 2.525.846c.89.102 1.802.004 2.653-.278a6.3 6.3 0 0 0 2.302-1.364c.66-.615 1.204-1.306 1.541-2.15a5.964 5.964 0 0 0-4.577-1.66 5.7 5.7 0 0 0-2.375.72q-.271.155-.526.341a7 7 0 0 0-.49.396c-.317.278-.615.58-.91.886-.295.305-.588.616-.896.912a10 10 0 0 1-.476.431 6 6 0 0 1-.51.392q-.066.047-.134.09-.067.043-.136.085l-.14.08c-.046.028-.095.05-.142.075l-.072.037-.073.034q-.074.033-.147.066c-.1.039-.2.08-.302.11-.101.036-.206.06-.31.09l-.157.032-.079.016-.08.012a4 4 0 0 1-.64.046 4.2 4.2 0 0 1-2.405-.792 4.5 4.5 0 0 1-1.567-2.026l-.018-.046.039-.03a4 4 0 0 1 2.01-.748 4.34 4.34 0 0 1 2.112.345c.331.145.644.33.935.545.29.216.556.465.798.735.483.542.867 1.169 1.16 1.834q.22.5.372 1.026.077.262.137.529.059.265.101.537.08.54.126 1.083c.018.18.03.362.044.543.011.182.025.363.034.544a48 48 0 0 1 .043 4.357 43 43 0 0 0 0-2.178 49 49 0 0 0-.09-2.176q-.017-.27-.04-.543c-.015-.18-.028-.361-.048-.542q-.052-.54-.136-1.078a8.5 8.5 0 0 0-.619-2.068 6.9 6.9 0 0 0-1.154-1.804 5.4 5.4 0 0 0-.787-.716 4.7 4.7 0 0 0-.917-.527 4.23 4.23 0 0 0-2.06-.325c-.697.068-1.36.262-1.926.682a4.32 4.32 0 0 0 2.636 2.5 4 4 0 0 0 1.222.2q.311.003.618-.045l.077-.012.076-.016.152-.032c.1-.028.2-.05.299-.086.099-.03.195-.07.291-.108q.072-.03.142-.064.036-.015.071-.032l.07-.036c.045-.025.093-.047.137-.074l.136-.078.132-.084q.067-.041.13-.087.258-.178.499-.384.24-.204.468-.426c.304-.293.595-.604.891-.91s.598-.61.92-.892a7 7 0 0 1 .501-.403 6 6 0 0 1 .54-.349 5.835 5.835 0 0 1 2.432-.733c.85-.058 1.711.058 2.513.353.8.293 1.54.758 2.16 1.352l.033.03-.017.041a7 7 0 0 1-.294.63 7 7 0 0 1-.363.59 7 7 0 0 1-.426.546 6.385 6.385 0 0 1-2.831 1.868c-.866.28-1.79.374-2.692.266a6.1 6.1 0 0 1-2.55-.907l-.037-.024.034-.028c.38-.33.727-.699 1.08-1.061.355-.361.716-.72 1.125-1.02.407-.3.864-.53 1.342-.683a4.8 4.8 0 0 1 1.48-.226"/><path stroke="#fff" stroke-width=".48" d="M36.812 28.62q-.376.004-.747.064-.37.063-.728.181c-.475.159-.927.39-1.328.693-.403.301-.76.662-1.11 1.026-.35.366-.698.718-1.078 1.054a6.1 6.1 0 0 0 2.525.846c.89.102 1.802.004 2.653-.278a6.3 6.3 0 0 0 2.302-1.364c.66-.615 1.204-1.306 1.541-2.15a5.964 5.964 0 0 0-4.577-1.66 5.7 5.7 0 0 0-2.375.72q-.271.155-.526.341a7 7 0 0 0-.49.396c-.317.278-.615.58-.91.886-.295.305-.588.616-.896.912a10 10 0 0 1-.476.431 6 6 0 0 1-.51.392q-.066.047-.134.09-.067.043-.136.085l-.14.08c-.046.028-.095.05-.142.075l-.072.037-.073.034q-.074.033-.147.066c-.1.039-.2.08-.302.11-.101.036-.206.06-.31.09l-.157.032-.079.016-.08.012a4 4 0 0 1-.64.046 4.2 4.2 0 0 1-2.405-.792 4.5 4.5 0 0 1-1.567-2.026l-.018-.046.039-.03a4 4 0 0 1 2.01-.748 4.34 4.34 0 0 1 2.112.345c.331.145.644.33.935.545.29.216.556.465.798.735.483.542.867 1.169 1.16 1.834q.22.5.372 1.026.077.262.137.529.059.265.101.537.08.54.126 1.083c.018.18.03.362.044.543.011.182.025.363.034.544a48 48 0 0 1 .043 4.357 43 43 0 0 0 0-2.178 49 49 0 0 0-.09-2.176q-.017-.27-.04-.543c-.015-.18-.028-.361-.048-.542q-.052-.54-.136-1.078a8.5 8.5 0 0 0-.619-2.068 6.9 6.9 0 0 0-1.154-1.804 5.4 5.4 0 0 0-.787-.716 4.7 4.7 0 0 0-.917-.527 4.23 4.23 0 0 0-2.06-.325c-.697.068-1.36.262-1.926.682a4.32 4.32 0 0 0 2.636 2.5 4 4 0 0 0 1.222.2q.311.003.618-.045l.077-.012.076-.016.152-.032c.1-.028.2-.05.299-.086.099-.03.195-.07.291-.108q.072-.03.142-.064.036-.015.071-.032l.07-.036c.045-.025.093-.047.137-.074l.136-.078.132-.084q.067-.041.13-.087.258-.178.499-.384.24-.204.468-.426c.304-.293.595-.604.891-.91s.598-.61.92-.892a7 7 0 0 1 .501-.403 6 6 0 0 1 .54-.349 5.835 5.835 0 0 1 2.432-.733c.85-.058 1.711.058 2.513.353.8.293 1.54.758 2.16 1.352l.033.03-.017.041a7 7 0 0 1-.294.63 7 7 0 0 1-.363.59 7 7 0 0 1-.426.546 6.385 6.385 0 0 1-2.831 1.868c-.866.28-1.79.374-2.692.266a6.1 6.1 0 0 1-2.55-.907l-.037-.024.034-.028c.38-.33.727-.699 1.08-1.061.355-.361.716-.72 1.125-1.02.407-.3.864-.53 1.342-.683a4.8 4.8 0 0 1 1.48-.226Z" mask="url(#d)"/></g><defs><linearGradient id="b" x1="0" x2="66.16" y1="12" y2="16.677" gradientUnits="userSpaceOnUse"><stop stop-color="#30C917"/><stop offset="1" stop-color="#279A13"/></linearGradient><clipPath id="c"><path fill="#fff" d="M14.08 14.078h35.84v35.84H14.08z"/></clipPath><filter id="a" width="83.2" height="64.64" x="-8.96" y="0" color-interpolation-filters="sRGB" filterUnits="userSpaceOnUse"><feFlood flood-opacity="0" result="BackgroundImageFix"/><feBlend in="SourceGraphic" in2="BackgroundImageFix" result="shape"/><feColorMatrix in="SourceAlpha" result="hardAlpha" values="0 0 0 0 0 0 0 0 0 0 0 0 0 0 0 0 0 0 127 0"/><feOffset dx="-8.96"/><feGaussianBlur stdDeviation="5.44"/><feComposite in2="hardAlpha" k2="-1" k3="1" operator="arithmetic"/><feColorMatrix values="0 0 0 0 0.104167 0 0 0 0 0.066116 0 0 0 0 0.030816 0 0 0 0.12 0"/><feBlend in2="shape" result="effect1_innerShadow_300_1218"/><feColorMatrix in="SourceAlpha" result="hardAlpha" values="0 0 0 0 0 0 0 0 0 0 0 0 0 0 0 0 0 0 127 0"/><feMorphology in="SourceAlpha" radius="1.28" result="effect2_innerShadow_300_1218"/><feOffset dx="10.24" dy=".64"/><feGaussianBlur stdDeviation="9.92"/><feComposite in2="hardAlpha" k2="-1" k3="1" operator="arithmetic"/><feColorMatrix values="0 0 0 0 1 0 0 0 0 1 0 0 0 0 1 0 0 0 0.4 0"/><feBlend in2="effect1_innerShadow_300_1218" result="effect2_innerShadow_300_1218"/></filter></defs></svg>