<svg width="64" height="64" viewBox="0 0 64 64" fill="none" xmlns="http://www.w3.org/2000/svg">
<g filter="url(#filter0_ii_300_1218)">
<circle cx="32" cy="32" r="32" fill="url(#paint0_linear_300_1218)"/>
</g>
<g clip-path="url(#clip0_300_1218)">
<path d="M32.0001 14.0781C22.1329 14.0781 14.0801 22.1316 14.0801 31.9981C14.0801 41.8653 22.1336 49.9181 32.0001 49.9181C41.8672 49.9181 49.9201 41.8646 49.9201 31.9981C49.9201 22.131 41.8666 14.0781 32.0001 14.0781ZM32.0001 47.8181C23.2769 47.8181 16.1801 40.7213 16.1801 31.9981C16.1801 23.2749 23.2769 16.1781 32.0001 16.1781C40.7233 16.1781 47.8201 23.2749 47.8201 31.9981C47.8201 40.7213 40.7233 47.8181 32.0001 47.8181Z" fill="white"/>
<path d="M32.0003 18.2773C24.4656 18.2773 18.2803 24.4621 18.2803 31.9973C18.2803 39.532 24.465 45.7173 32.0003 45.7173C39.5349 45.7173 45.7203 39.5326 45.7203 31.9973C45.7203 24.4627 39.5356 18.2773 32.0003 18.2773ZM32.0003 43.6173C25.593 43.6173 20.3803 38.4047 20.3803 31.9973C20.3803 25.59 25.593 20.3773 32.0003 20.3773C38.4076 20.3773 43.6203 25.59 43.6203 31.9973C43.6203 38.4047 38.4076 43.6173 32.0003 43.6173Z" fill="white"/>
<mask id="path-4-outside-1_300_1218" maskUnits="userSpaceOnUse" x="22.6797" y="25.8789" width="19" height="15" fill="black">
<rect fill="white" x="22.6797" y="25.8789" width="19" height="15"/>
<path d="M36.8117 28.6203C36.5613 28.6227 36.3116 28.644 36.0646 28.6845C35.8176 28.725 35.5743 28.7867 35.3369 28.8652C34.8624 29.024 34.4104 29.2554 34.0094 29.5582C33.6059 29.859 33.2496 30.2198 32.8994 30.5841C32.5499 30.9495 32.2011 31.3015 31.8209 31.6383C32.5885 32.1125 33.4556 32.3857 34.3465 32.4845C35.2368 32.586 36.1476 32.488 36.9986 32.2064C37.8499 31.9251 38.6414 31.4572 39.3014 30.842C39.9615 30.2272 40.5053 29.5359 40.8422 28.6918C40.2331 28.1105 39.5078 27.6572 38.7231 27.3714C37.9384 27.0846 37.0946 26.9729 36.2648 27.0312C35.8493 27.0609 35.4384 27.1408 35.039 27.2601C34.6403 27.3822 34.2543 27.5466 33.8901 27.7521C33.7094 27.8564 33.5328 27.9681 33.364 28.093C33.1956 28.2179 33.0313 28.3488 32.8735 28.4887C32.5568 28.7668 32.2589 29.0687 31.9641 29.3747C31.6689 29.6804 31.3758 29.9906 31.0676 30.2872C30.9136 30.4355 30.7561 30.5806 30.5921 30.7185C30.4285 30.857 30.2597 30.9896 30.0821 31.1103C30.038 31.141 29.9939 31.1717 29.9481 31.1997C29.9027 31.2283 29.8579 31.2579 29.8118 31.2851L29.6721 31.3654C29.626 31.393 29.5771 31.4153 29.5296 31.4404L29.4579 31.4774C29.434 31.4893 29.4091 31.4997 29.3848 31.5109C29.3356 31.5325 29.2874 31.5559 29.2379 31.5765C29.1378 31.6156 29.0384 31.6564 28.9359 31.6875C28.8348 31.7234 28.7299 31.7475 28.6267 31.7761L28.4692 31.8089L28.3903 31.825L28.3107 31.8372C28.0989 31.8696 27.8847 31.8846 27.6705 31.8825C27.2425 31.8783 26.8158 31.8065 26.4086 31.6728C26.205 31.6058 26.0065 31.5231 25.8152 31.4258C25.6242 31.3274 25.4401 31.2154 25.2648 31.0908C24.5659 30.5883 24.0117 29.8779 23.6975 29.0652L23.6797 29.0188L23.719 28.9898C24.3062 28.5561 25.0124 28.3059 25.7294 28.241C26.4475 28.1761 27.1796 28.2989 27.8413 28.5864C28.172 28.7309 28.485 28.9162 28.776 29.1311C29.0664 29.3471 29.3318 29.5963 29.5744 29.8657C30.0571 30.4076 30.4411 31.035 30.7335 31.7004C30.8808 32.0329 31.0041 32.3763 31.1059 32.7259C31.1582 32.9004 31.2016 33.0773 31.2429 33.2546C31.2812 33.4325 31.317 33.6115 31.344 33.7916C31.3976 34.1517 31.4393 34.5129 31.4704 34.8751C31.4882 35.0558 31.4998 35.2373 31.5141 35.4184C31.5254 35.5998 31.5391 35.7809 31.548 35.9624C31.5879 36.6878 31.6105 37.414 31.6177 38.1405C31.6258 38.8666 31.618 39.5931 31.5907 40.3189C31.5999 39.956 31.6036 39.5928 31.6036 39.2299C31.6023 38.867 31.5992 38.5037 31.5913 38.1408C31.577 37.415 31.5476 36.6896 31.5008 35.9652C31.4902 35.7841 31.4749 35.6033 31.4619 35.4222C31.4455 35.2415 31.4325 35.0607 31.413 34.8803C31.3785 34.5195 31.3334 34.1594 31.2767 33.8024C31.218 33.4458 31.136 33.0934 31.0328 32.7476C30.93 32.4018 30.806 32.0626 30.6584 31.7342C30.3656 31.0775 29.9823 30.4602 29.5044 29.9302C29.2642 29.6668 29.0025 29.4235 28.7166 29.2138C28.4303 29.0048 28.1235 28.8258 27.7997 28.6866C27.1516 28.4099 26.4386 28.2951 25.74 28.3624C25.0431 28.4301 24.3804 28.6239 23.8143 29.0444C24.1207 29.832 24.6608 30.4951 25.3396 30.9812C25.5101 31.102 25.6888 31.2101 25.8739 31.305C26.0594 31.3989 26.2521 31.4788 26.4496 31.5434C26.8445 31.6721 27.2579 31.7409 27.6719 31.744C27.8789 31.7458 28.0859 31.7307 28.2902 31.699L28.3668 31.6871L28.4429 31.6714L28.595 31.6393C28.6947 31.6114 28.7958 31.5884 28.8935 31.5531C28.9926 31.5228 29.0886 31.483 29.1853 31.4453C29.2331 31.4254 29.2799 31.4027 29.3274 31.3815C29.351 31.3706 29.3749 31.3605 29.3981 31.3487L29.4675 31.3127C29.5133 31.2883 29.5607 31.2663 29.6055 31.2394L29.7408 31.1613C29.7855 31.1344 29.8289 31.1054 29.8733 31.0775C29.9177 31.0503 29.9608 31.0203 30.0035 30.9903C30.1763 30.8723 30.3413 30.7422 30.5016 30.6061C30.6625 30.4707 30.8176 30.327 30.9696 30.18C31.2743 29.8866 31.5647 29.576 31.8612 29.27C32.1574 28.9636 32.4587 28.6597 32.7812 28.3778C32.9418 28.2361 33.1099 28.1024 33.2824 27.9751C33.4549 27.8477 33.637 27.7329 33.8228 27.6265C34.1962 27.4168 34.5918 27.2493 35.0001 27.1251C35.409 27.0036 35.8299 26.923 36.2548 26.8934C37.1041 26.8354 37.9654 26.9513 38.7668 27.2458C39.5679 27.5393 40.3075 28.0037 40.9279 28.5983L40.9597 28.6287L40.9433 28.6691C40.8552 28.8837 40.7574 29.0941 40.6485 29.2986C40.5371 29.5017 40.4172 29.6996 40.2857 29.8897C40.1524 30.0785 40.0113 30.2614 39.86 30.4348C39.7073 30.6072 39.5478 30.7733 39.3787 30.9289C38.7026 31.5517 37.895 32.0221 37.029 32.3027C36.163 32.5832 35.2392 32.6767 34.3373 32.5686C33.4354 32.4628 32.5581 32.1498 31.7878 31.6617L31.7505 31.6383L31.7837 31.6097C32.1636 31.2796 32.511 30.9114 32.8646 30.5489C33.2185 30.1877 33.5799 29.8287 33.9892 29.5296C34.3964 29.2288 34.8528 28.9992 35.3314 28.8464C35.5709 28.7707 35.8159 28.7121 36.0635 28.6747C36.3109 28.6377 36.5616 28.6196 36.8117 28.6203Z"/>
</mask>
<path d="M36.8117 28.6203C36.5613 28.6227 36.3116 28.644 36.0646 28.6845C35.8176 28.725 35.5743 28.7867 35.3369 28.8652C34.8624 29.024 34.4104 29.2554 34.0094 29.5582C33.6059 29.859 33.2496 30.2198 32.8994 30.5841C32.5499 30.9495 32.2011 31.3015 31.8209 31.6383C32.5885 32.1125 33.4556 32.3857 34.3465 32.4845C35.2368 32.586 36.1476 32.488 36.9986 32.2064C37.8499 31.9251 38.6414 31.4572 39.3014 30.842C39.9615 30.2272 40.5053 29.5359 40.8422 28.6918C40.2331 28.1105 39.5078 27.6572 38.7231 27.3714C37.9384 27.0846 37.0946 26.9729 36.2648 27.0312C35.8493 27.0609 35.4384 27.1408 35.039 27.2601C34.6403 27.3822 34.2543 27.5466 33.8901 27.7521C33.7094 27.8564 33.5328 27.9681 33.364 28.093C33.1956 28.2179 33.0313 28.3488 32.8735 28.4887C32.5568 28.7668 32.2589 29.0687 31.9641 29.3747C31.6689 29.6804 31.3758 29.9906 31.0676 30.2872C30.9136 30.4355 30.7561 30.5806 30.5921 30.7185C30.4285 30.857 30.2597 30.9896 30.0821 31.1103C30.038 31.141 29.9939 31.1717 29.9481 31.1997C29.9027 31.2283 29.8579 31.2579 29.8118 31.2851L29.6721 31.3654C29.626 31.393 29.5771 31.4153 29.5296 31.4404L29.4579 31.4774C29.434 31.4893 29.4091 31.4997 29.3848 31.5109C29.3356 31.5325 29.2874 31.5559 29.2379 31.5765C29.1378 31.6156 29.0384 31.6564 28.9359 31.6875C28.8348 31.7234 28.7299 31.7475 28.6267 31.7761L28.4692 31.8089L28.3903 31.825L28.3107 31.8372C28.0989 31.8696 27.8847 31.8846 27.6705 31.8825C27.2425 31.8783 26.8158 31.8065 26.4086 31.6728C26.205 31.6058 26.0065 31.5231 25.8152 31.4258C25.6242 31.3274 25.4401 31.2154 25.2648 31.0908C24.5659 30.5883 24.0117 29.8779 23.6975 29.0652L23.6797 29.0188L23.719 28.9898C24.3062 28.5561 25.0124 28.3059 25.7294 28.241C26.4475 28.1761 27.1796 28.2989 27.8413 28.5864C28.172 28.7309 28.485 28.9162 28.776 29.1311C29.0664 29.3471 29.3318 29.5963 29.5744 29.8657C30.0571 30.4076 30.4411 31.035 30.7335 31.7004C30.8808 32.0329 31.0041 32.3763 31.1059 32.7259C31.1582 32.9004 31.2016 33.0773 31.2429 33.2546C31.2812 33.4325 31.317 33.6115 31.344 33.7916C31.3976 34.1517 31.4393 34.5129 31.4704 34.8751C31.4882 35.0558 31.4998 35.2373 31.5141 35.4184C31.5254 35.5998 31.5391 35.7809 31.548 35.9624C31.5879 36.6878 31.6105 37.414 31.6177 38.1405C31.6258 38.8666 31.618 39.5931 31.5907 40.3189C31.5999 39.956 31.6036 39.5928 31.6036 39.2299C31.6023 38.867 31.5992 38.5037 31.5913 38.1408C31.577 37.415 31.5476 36.6896 31.5008 35.9652C31.4902 35.7841 31.4749 35.6033 31.4619 35.4222C31.4455 35.2415 31.4325 35.0607 31.413 34.8803C31.3785 34.5195 31.3334 34.1594 31.2767 33.8024C31.218 33.4458 31.136 33.0934 31.0328 32.7476C30.93 32.4018 30.806 32.0626 30.6584 31.7342C30.3656 31.0775 29.9823 30.4602 29.5044 29.9302C29.2642 29.6668 29.0025 29.4235 28.7166 29.2138C28.4303 29.0048 28.1235 28.8258 27.7997 28.6866C27.1516 28.4099 26.4386 28.2951 25.74 28.3624C25.0431 28.4301 24.3804 28.6239 23.8143 29.0444C24.1207 29.832 24.6608 30.4951 25.3396 30.9812C25.5101 31.102 25.6888 31.2101 25.8739 31.305C26.0594 31.3989 26.2521 31.4788 26.4496 31.5434C26.8445 31.6721 27.2579 31.7409 27.6719 31.744C27.8789 31.7458 28.0859 31.7307 28.2902 31.699L28.3668 31.6871L28.4429 31.6714L28.595 31.6393C28.6947 31.6114 28.7958 31.5884 28.8935 31.5531C28.9926 31.5228 29.0886 31.483 29.1853 31.4453C29.2331 31.4254 29.2799 31.4027 29.3274 31.3815C29.351 31.3706 29.3749 31.3605 29.3981 31.3487L29.4675 31.3127C29.5133 31.2883 29.5607 31.2663 29.6055 31.2394L29.7408 31.1613C29.7855 31.1344 29.8289 31.1054 29.8733 31.0775C29.9177 31.0503 29.9608 31.0203 30.0035 30.9903C30.1763 30.8723 30.3413 30.7422 30.5016 30.6061C30.6625 30.4707 30.8176 30.327 30.9696 30.18C31.2743 29.8866 31.5647 29.576 31.8612 29.27C32.1574 28.9636 32.4587 28.6597 32.7812 28.3778C32.9418 28.2361 33.1099 28.1024 33.2824 27.9751C33.4549 27.8477 33.637 27.7329 33.8228 27.6265C34.1962 27.4168 34.5918 27.2493 35.0001 27.1251C35.409 27.0036 35.8299 26.923 36.2548 26.8934C37.1041 26.8354 37.9654 26.9513 38.7668 27.2458C39.5679 27.5393 40.3075 28.0037 40.9279 28.5983L40.9597 28.6287L40.9433 28.6691C40.8552 28.8837 40.7574 29.0941 40.6485 29.2986C40.5371 29.5017 40.4172 29.6996 40.2857 29.8897C40.1524 30.0785 40.0113 30.2614 39.86 30.4348C39.7073 30.6072 39.5478 30.7733 39.3787 30.9289C38.7026 31.5517 37.895 32.0221 37.029 32.3027C36.163 32.5832 35.2392 32.6767 34.3373 32.5686C33.4354 32.4628 32.5581 32.1498 31.7878 31.6617L31.7505 31.6383L31.7837 31.6097C32.1636 31.2796 32.511 30.9114 32.8646 30.5489C33.2185 30.1877 33.5799 29.8287 33.9892 29.5296C34.3964 29.2288 34.8528 28.9992 35.3314 28.8464C35.5709 28.7707 35.8159 28.7121 36.0635 28.6747C36.3109 28.6377 36.5616 28.6196 36.8117 28.6203Z" fill="white"/>
<path d="M36.8117 28.6203C36.5613 28.6227 36.3116 28.644 36.0646 28.6845C35.8176 28.725 35.5743 28.7867 35.3369 28.8652C34.8624 29.024 34.4104 29.2554 34.0094 29.5582C33.6059 29.859 33.2496 30.2198 32.8994 30.5841C32.5499 30.9495 32.2011 31.3015 31.8209 31.6383C32.5885 32.1125 33.4556 32.3857 34.3465 32.4845C35.2368 32.586 36.1476 32.488 36.9986 32.2064C37.8499 31.9251 38.6414 31.4572 39.3014 30.842C39.9615 30.2272 40.5053 29.5359 40.8422 28.6918C40.2331 28.1105 39.5078 27.6572 38.7231 27.3714C37.9384 27.0846 37.0946 26.9729 36.2648 27.0312C35.8493 27.0609 35.4384 27.1408 35.039 27.2601C34.6403 27.3822 34.2543 27.5466 33.8901 27.7521C33.7094 27.8564 33.5328 27.9681 33.364 28.093C33.1956 28.2179 33.0313 28.3488 32.8735 28.4887C32.5568 28.7668 32.2589 29.0687 31.9641 29.3747C31.6689 29.6804 31.3758 29.9906 31.0676 30.2872C30.9136 30.4355 30.7561 30.5806 30.5921 30.7185C30.4285 30.857 30.2597 30.9896 30.0821 31.1103C30.038 31.141 29.9939 31.1717 29.9481 31.1997C29.9027 31.2283 29.8579 31.2579 29.8118 31.2851L29.6721 31.3654C29.626 31.393 29.5771 31.4153 29.5296 31.4404L29.4579 31.4774C29.434 31.4893 29.4091 31.4997 29.3848 31.5109C29.3356 31.5325 29.2874 31.5559 29.2379 31.5765C29.1378 31.6156 29.0384 31.6564 28.9359 31.6875C28.8348 31.7234 28.7299 31.7475 28.6267 31.7761L28.4692 31.8089L28.3903 31.825L28.3107 31.8372C28.0989 31.8696 27.8847 31.8846 27.6705 31.8825C27.2425 31.8783 26.8158 31.8065 26.4086 31.6728C26.205 31.6058 26.0065 31.5231 25.8152 31.4258C25.6242 31.3274 25.4401 31.2154 25.2648 31.0908C24.5659 30.5883 24.0117 29.8779 23.6975 29.0652L23.6797 29.0188L23.719 28.9898C24.3062 28.5561 25.0124 28.3059 25.7294 28.241C26.4475 28.1761 27.1796 28.2989 27.8413 28.5864C28.172 28.7309 28.485 28.9162 28.776 29.1311C29.0664 29.3471 29.3318 29.5963 29.5744 29.8657C30.0571 30.4076 30.4411 31.035 30.7335 31.7004C30.8808 32.0329 31.0041 32.3763 31.1059 32.7259C31.1582 32.9004 31.2016 33.0773 31.2429 33.2546C31.2812 33.4325 31.317 33.6115 31.344 33.7916C31.3976 34.1517 31.4393 34.5129 31.4704 34.8751C31.4882 35.0558 31.4998 35.2373 31.5141 35.4184C31.5254 35.5998 31.5391 35.7809 31.548 35.9624C31.5879 36.6878 31.6105 37.414 31.6177 38.1405C31.6258 38.8666 31.618 39.5931 31.5907 40.3189C31.5999 39.956 31.6036 39.5928 31.6036 39.2299C31.6023 38.867 31.5992 38.5037 31.5913 38.1408C31.577 37.415 31.5476 36.6896 31.5008 35.9652C31.4902 35.7841 31.4749 35.6033 31.4619 35.4222C31.4455 35.2415 31.4325 35.0607 31.413 34.8803C31.3785 34.5195 31.3334 34.1594 31.2767 33.8024C31.218 33.4458 31.136 33.0934 31.0328 32.7476C30.93 32.4018 30.806 32.0626 30.6584 31.7342C30.3656 31.0775 29.9823 30.4602 29.5044 29.9302C29.2642 29.6668 29.0025 29.4235 28.7166 29.2138C28.4303 29.0048 28.1235 28.8258 27.7997 28.6866C27.1516 28.4099 26.4386 28.2951 25.74 28.3624C25.0431 28.4301 24.3804 28.6239 23.8143 29.0444C24.1207 29.832 24.6608 30.4951 25.3396 30.9812C25.5101 31.102 25.6888 31.2101 25.8739 31.305C26.0594 31.3989 26.2521 31.4788 26.4496 31.5434C26.8445 31.6721 27.2579 31.7409 27.6719 31.744C27.8789 31.7458 28.0859 31.7307 28.2902 31.699L28.3668 31.6871L28.4429 31.6714L28.595 31.6393C28.6947 31.6114 28.7958 31.5884 28.8935 31.5531C28.9926 31.5228 29.0886 31.483 29.1853 31.4453C29.2331 31.4254 29.2799 31.4027 29.3274 31.3815C29.351 31.3706 29.3749 31.3605 29.3981 31.3487L29.4675 31.3127C29.5133 31.2883 29.5607 31.2663 29.6055 31.2394L29.7408 31.1613C29.7855 31.1344 29.8289 31.1054 29.8733 31.0775C29.9177 31.0503 29.9608 31.0203 30.0035 30.9903C30.1763 30.8723 30.3413 30.7422 30.5016 30.6061C30.6625 30.4707 30.8176 30.327 30.9696 30.18C31.2743 29.8866 31.5647 29.576 31.8612 29.27C32.1574 28.9636 32.4587 28.6597 32.7812 28.3778C32.9418 28.2361 33.1099 28.1024 33.2824 27.9751C33.4549 27.8477 33.637 27.7329 33.8228 27.6265C34.1962 27.4168 34.5918 27.2493 35.0001 27.1251C35.409 27.0036 35.8299 26.923 36.2548 26.8934C37.1041 26.8354 37.9654 26.9513 38.7668 27.2458C39.5679 27.5393 40.3075 28.0037 40.9279 28.5983L40.9597 28.6287L40.9433 28.6691C40.8552 28.8837 40.7574 29.0941 40.6485 29.2986C40.5371 29.5017 40.4172 29.6996 40.2857 29.8897C40.1524 30.0785 40.0113 30.2614 39.86 30.4348C39.7073 30.6072 39.5478 30.7733 39.3787 30.9289C38.7026 31.5517 37.895 32.0221 37.029 32.3027C36.163 32.5832 35.2392 32.6767 34.3373 32.5686C33.4354 32.4628 32.5581 32.1498 31.7878 31.6617L31.7505 31.6383L31.7837 31.6097C32.1636 31.2796 32.511 30.9114 32.8646 30.5489C33.2185 30.1877 33.5799 29.8287 33.9892 29.5296C34.3964 29.2288 34.8528 28.9992 35.3314 28.8464C35.5709 28.7707 35.8159 28.7121 36.0635 28.6747C36.3109 28.6377 36.5616 28.6196 36.8117 28.6203Z" stroke="white" stroke-width="0.48" mask="url(#path-4-outside-1_300_1218)"/>
</g>
<defs>
<filter id="filter0_ii_300_1218" x="-8.96" y="0" width="83.2" height="64.64" filterUnits="userSpaceOnUse" color-interpolation-filters="sRGB">
<feFlood flood-opacity="0" result="BackgroundImageFix"/>
<feBlend mode="normal" in="SourceGraphic" in2="BackgroundImageFix" result="shape"/>
<feColorMatrix in="SourceAlpha" type="matrix" values="0 0 0 0 0 0 0 0 0 0 0 0 0 0 0 0 0 0 127 0" result="hardAlpha"/>
<feOffset dx="-8.96"/>
<feGaussianBlur stdDeviation="5.44"/>
<feComposite in2="hardAlpha" operator="arithmetic" k2="-1" k3="1"/>
<feColorMatrix type="matrix" values="0 0 0 0 0.104167 0 0 0 0 0.066116 0 0 0 0 0.030816 0 0 0 0.12 0"/>
<feBlend mode="normal" in2="shape" result="effect1_innerShadow_300_1218"/>
<feColorMatrix in="SourceAlpha" type="matrix" values="0 0 0 0 0 0 0 0 0 0 0 0 0 0 0 0 0 0 127 0" result="hardAlpha"/>
<feMorphology radius="1.28" operator="erode" in="SourceAlpha" result="effect2_innerShadow_300_1218"/>
<feOffset dx="10.24" dy="0.64"/>
<feGaussianBlur stdDeviation="9.92"/>
<feComposite in2="hardAlpha" operator="arithmetic" k2="-1" k3="1"/>
<feColorMatrix type="matrix" values="0 0 0 0 1 0 0 0 0 1 0 0 0 0 1 0 0 0 0.4 0"/>
<feBlend mode="normal" in2="effect1_innerShadow_300_1218" result="effect2_innerShadow_300_1218"/>
</filter>
<linearGradient id="paint0_linear_300_1218" x1="3.7033e-07" y1="12" x2="66.1605" y2="16.6775" gradientUnits="userSpaceOnUse">
<stop stop-color="#30C917"/>
<stop offset="1" stop-color="#279A13"/>
</linearGradient>
<clipPath id="clip0_300_1218">
<rect width="35.84" height="35.84" fill="white" transform="translate(14.0801 14.0781)"/>
</clipPath>
</defs>
</svg>
