<svg width="72" height="69" viewBox="0 0 72 69" fill="none" xmlns="http://www.w3.org/2000/svg">
<g filter="url(#filter0_d_300_1606)">
<circle cx="33.999" cy="33" r="22" fill="url(#paint0_linear_300_1606)"/>
<mask id="path-2-outside-1_300_1606" maskUnits="userSpaceOnUse" x="15.5459" y="22.3789" width="37" height="28" fill="black">
<rect fill="white" x="15.5459" y="22.3789" width="37" height="28"/>
<path d="M43.0795 26.8255C42.5736 26.8304 42.069 26.8725 41.5699 26.9526C41.0709 27.0327 40.5794 27.155 40.0997 27.3104C39.1409 27.6246 38.2277 28.0825 37.4173 28.682C36.6021 29.2774 35.8822 29.9915 35.1747 30.7125C34.4685 31.4356 33.7638 32.1325 32.9955 32.799C34.5465 33.7376 36.2984 34.2783 38.0986 34.4738C39.8974 34.6748 41.7376 34.4807 43.4571 33.9233C45.1772 33.3667 46.7765 32.4405 48.1101 31.2229C49.4437 30.006 50.5426 28.6378 51.2232 26.9671C49.9925 25.8165 48.5271 24.9194 46.9415 24.3537C45.356 23.786 43.651 23.565 41.9744 23.6803C41.135 23.739 40.3047 23.8972 39.4978 24.1334C38.6922 24.3751 37.9122 24.7004 37.1764 25.1072C36.8113 25.3137 36.4544 25.5347 36.1134 25.782C35.7731 26.0292 35.4411 26.2882 35.1222 26.5652C34.4823 27.1156 33.8804 27.713 33.2847 28.3187C32.6883 28.9237 32.0961 29.5377 31.4735 30.1248C31.1622 30.4183 30.844 30.7056 30.5126 30.9784C30.182 31.2526 29.841 31.5151 29.4821 31.754C29.393 31.8148 29.304 31.8756 29.2115 31.9308C29.1197 31.9875 29.0293 32.0462 28.9361 32.1L28.6538 32.2589C28.5606 32.3134 28.4619 32.3576 28.3659 32.4074L28.221 32.4806C28.1726 32.5041 28.1223 32.5248 28.0733 32.5469C27.9739 32.5897 27.8765 32.636 27.7764 32.6767C27.5742 32.7541 27.3733 32.8349 27.1662 32.8964C26.9619 32.9675 26.75 33.0151 26.5416 33.0718L26.2234 33.1367L26.0639 33.1685L25.9031 33.1926C25.4751 33.2569 25.0423 33.2866 24.6095 33.2824C23.7446 33.2741 22.8825 33.1319 22.0597 32.8673C21.6483 32.7347 21.2473 32.5711 20.8607 32.3784C20.4749 32.1836 20.1028 31.9619 19.7487 31.7153C18.3364 30.7208 17.2168 29.3146 16.5818 27.7061L16.5459 27.6143L16.6253 27.5569C17.8118 26.6985 19.2386 26.2033 20.6875 26.0748C22.1384 25.9463 23.6176 26.1895 24.9547 26.7586C25.6228 27.0445 26.2551 27.4112 26.8432 27.8367C27.4299 28.2642 27.9663 28.7573 28.4563 29.2905C29.4317 30.3631 30.2075 31.6048 30.7984 32.9219C31.0959 33.5801 31.3451 34.2597 31.5508 34.9517C31.6564 35.2971 31.7441 35.6472 31.8276 35.9981C31.9049 36.3503 31.9774 36.7046 32.0319 37.061C32.1403 37.7737 32.2245 38.4885 32.2873 39.2054C32.3232 39.5632 32.3467 39.9223 32.3756 40.2808C32.3984 40.6399 32.426 40.9984 32.444 41.3575C32.5247 42.7934 32.5703 44.2306 32.5848 45.6685C32.6014 47.1058 32.5855 48.5437 32.5303 49.9803C32.5489 49.262 32.5565 48.543 32.5565 47.8247C32.5537 47.1065 32.5475 46.3875 32.5316 45.6692C32.5027 44.2327 32.4433 42.7968 32.3487 41.363C32.3273 41.0046 32.2963 40.6468 32.27 40.2884C32.2369 39.9306 32.2107 39.5729 32.1713 39.2158C32.1016 38.5017 32.0105 37.7889 31.8959 37.0824C31.7772 36.3765 31.6115 35.679 31.4031 34.9945C31.1953 34.3101 30.9447 33.6388 30.6465 32.9889C30.055 31.6891 29.2805 30.4673 28.3148 29.4182C27.8296 28.8968 27.3008 28.4154 26.7231 28.0003C26.1447 27.5866 25.5248 27.2323 24.8704 26.9568C23.561 26.4091 22.1204 26.1819 20.7089 26.3152C19.3007 26.4491 17.9616 26.8328 16.8179 27.665C17.437 29.2238 18.5283 30.5364 19.8999 31.4985C20.2443 31.7374 20.6053 31.9515 20.9794 32.1394C21.3543 32.3252 21.7436 32.4833 22.1425 32.6111C22.9405 32.866 23.7757 33.002 24.6123 33.0082C25.0306 33.0117 25.4489 32.982 25.8617 32.9191L26.0163 32.8957L26.1702 32.8646L26.4774 32.801C26.6789 32.7458 26.8832 32.7002 27.0807 32.6305C27.2808 32.5704 27.4748 32.4916 27.6701 32.417C27.7668 32.3777 27.8613 32.3328 27.9573 32.2907C28.0049 32.2692 28.0532 32.2492 28.1002 32.2257L28.2403 32.1546C28.3328 32.1063 28.4287 32.0627 28.5192 32.0096L28.7925 31.8549C28.8829 31.8017 28.9706 31.7444 29.0603 31.6891C29.1501 31.6352 29.237 31.5758 29.3233 31.5164C29.6726 31.283 30.006 31.0254 30.3297 30.756C30.6548 30.4881 30.9682 30.2035 31.2754 29.9127C31.8911 29.3319 32.4778 28.7172 33.0769 28.1115C33.6754 27.5051 34.2842 26.9036 34.9358 26.3455C35.2602 26.0651 35.5998 25.8006 35.9484 25.5485C36.297 25.2964 36.6649 25.0692 37.0404 24.8586C37.7949 24.4435 38.5942 24.112 39.4191 23.8661C40.2453 23.6258 41.0957 23.4662 41.9544 23.4075C43.6704 23.2929 45.4105 23.5222 47.0299 24.1051C48.6485 24.6859 50.143 25.6052 51.3965 26.782L51.4607 26.8421L51.4275 26.9222C51.2494 27.347 51.052 27.7634 50.8318 28.1682C50.6068 28.5701 50.3645 28.9617 50.0988 29.3381C49.8296 29.7118 49.5445 30.0737 49.2387 30.4169C48.9302 30.7581 48.6078 31.0869 48.2661 31.3949C46.9001 32.6277 45.2683 33.5587 43.5185 34.114C41.7687 34.6692 39.9022 34.8543 38.08 34.6402C36.2577 34.431 34.4851 33.8115 32.9285 32.8452L32.8533 32.799L32.9203 32.7423C33.6878 32.089 34.3898 31.3603 35.1042 30.6428C35.8194 29.9279 36.5497 29.2173 37.3766 28.6254C38.1994 28.03 39.1216 27.5756 40.0886 27.2731C40.5725 27.1232 41.0674 27.0072 41.5678 26.9333C42.0676 26.8601 42.5742 26.8242 43.0795 26.8255Z"/>
</mask>
<path d="M43.0795 26.8255C42.5736 26.8304 42.069 26.8725 41.5699 26.9526C41.0709 27.0327 40.5794 27.155 40.0997 27.3104C39.1409 27.6246 38.2277 28.0825 37.4173 28.682C36.6021 29.2774 35.8822 29.9915 35.1747 30.7125C34.4685 31.4356 33.7638 32.1325 32.9955 32.799C34.5465 33.7376 36.2984 34.2783 38.0986 34.4738C39.8974 34.6748 41.7376 34.4807 43.4571 33.9233C45.1772 33.3667 46.7765 32.4405 48.1101 31.2229C49.4437 30.006 50.5426 28.6378 51.2232 26.9671C49.9925 25.8165 48.5271 24.9194 46.9415 24.3537C45.356 23.786 43.651 23.565 41.9744 23.6803C41.135 23.739 40.3047 23.8972 39.4978 24.1334C38.6922 24.3751 37.9122 24.7004 37.1764 25.1072C36.8113 25.3137 36.4544 25.5347 36.1134 25.782C35.7731 26.0292 35.4411 26.2882 35.1222 26.5652C34.4823 27.1156 33.8804 27.713 33.2847 28.3187C32.6883 28.9237 32.0961 29.5377 31.4735 30.1248C31.1622 30.4183 30.844 30.7056 30.5126 30.9784C30.182 31.2526 29.841 31.5151 29.4821 31.754C29.393 31.8148 29.304 31.8756 29.2115 31.9308C29.1197 31.9875 29.0293 32.0462 28.9361 32.1L28.6538 32.2589C28.5606 32.3134 28.4619 32.3576 28.3659 32.4074L28.221 32.4806C28.1726 32.5041 28.1223 32.5248 28.0733 32.5469C27.9739 32.5897 27.8765 32.636 27.7764 32.6767C27.5742 32.7541 27.3733 32.8349 27.1662 32.8964C26.9619 32.9675 26.75 33.0151 26.5416 33.0718L26.2234 33.1367L26.0639 33.1685L25.9031 33.1926C25.4751 33.2569 25.0423 33.2866 24.6095 33.2824C23.7446 33.2741 22.8825 33.1319 22.0597 32.8673C21.6483 32.7347 21.2473 32.5711 20.8607 32.3784C20.4749 32.1836 20.1028 31.9619 19.7487 31.7153C18.3364 30.7208 17.2168 29.3146 16.5818 27.7061L16.5459 27.6143L16.6253 27.5569C17.8118 26.6985 19.2386 26.2033 20.6875 26.0748C22.1384 25.9463 23.6176 26.1895 24.9547 26.7586C25.6228 27.0445 26.2551 27.4112 26.8432 27.8367C27.4299 28.2642 27.9663 28.7573 28.4563 29.2905C29.4317 30.3631 30.2075 31.6048 30.7984 32.9219C31.0959 33.5801 31.3451 34.2597 31.5508 34.9517C31.6564 35.2971 31.7441 35.6472 31.8276 35.9981C31.9049 36.3503 31.9774 36.7046 32.0319 37.061C32.1403 37.7737 32.2245 38.4885 32.2873 39.2054C32.3232 39.5632 32.3467 39.9223 32.3756 40.2808C32.3984 40.6399 32.426 40.9984 32.444 41.3575C32.5247 42.7934 32.5703 44.2306 32.5848 45.6685C32.6014 47.1058 32.5855 48.5437 32.5303 49.9803C32.5489 49.262 32.5565 48.543 32.5565 47.8247C32.5537 47.1065 32.5475 46.3875 32.5316 45.6692C32.5027 44.2327 32.4433 42.7968 32.3487 41.363C32.3273 41.0046 32.2963 40.6468 32.27 40.2884C32.2369 39.9306 32.2107 39.5729 32.1713 39.2158C32.1016 38.5017 32.0105 37.7889 31.8959 37.0824C31.7772 36.3765 31.6115 35.679 31.4031 34.9945C31.1953 34.3101 30.9447 33.6388 30.6465 32.9889C30.055 31.6891 29.2805 30.4673 28.3148 29.4182C27.8296 28.8968 27.3008 28.4154 26.7231 28.0003C26.1447 27.5866 25.5248 27.2323 24.8704 26.9568C23.561 26.4091 22.1204 26.1819 20.7089 26.3152C19.3007 26.4491 17.9616 26.8328 16.8179 27.665C17.437 29.2238 18.5283 30.5364 19.8999 31.4985C20.2443 31.7374 20.6053 31.9515 20.9794 32.1394C21.3543 32.3252 21.7436 32.4833 22.1425 32.6111C22.9405 32.866 23.7757 33.002 24.6123 33.0082C25.0306 33.0117 25.4489 32.982 25.8617 32.9191L26.0163 32.8957L26.1702 32.8646L26.4774 32.801C26.6789 32.7458 26.8832 32.7002 27.0807 32.6305C27.2808 32.5704 27.4748 32.4916 27.6701 32.417C27.7668 32.3777 27.8613 32.3328 27.9573 32.2907C28.0049 32.2692 28.0532 32.2492 28.1002 32.2257L28.2403 32.1546C28.3328 32.1063 28.4287 32.0627 28.5192 32.0096L28.7925 31.8549C28.8829 31.8017 28.9706 31.7444 29.0603 31.6891C29.1501 31.6352 29.237 31.5758 29.3233 31.5164C29.6726 31.283 30.006 31.0254 30.3297 30.756C30.6548 30.4881 30.9682 30.2035 31.2754 29.9127C31.8911 29.3319 32.4778 28.7172 33.0769 28.1115C33.6754 27.5051 34.2842 26.9036 34.9358 26.3455C35.2602 26.0651 35.5998 25.8006 35.9484 25.5485C36.297 25.2964 36.6649 25.0692 37.0404 24.8586C37.7949 24.4435 38.5942 24.112 39.4191 23.8661C40.2453 23.6258 41.0957 23.4662 41.9544 23.4075C43.6704 23.2929 45.4105 23.5222 47.0299 24.1051C48.6485 24.6859 50.143 25.6052 51.3965 26.782L51.4607 26.8421L51.4275 26.9222C51.2494 27.347 51.052 27.7634 50.8318 28.1682C50.6068 28.5701 50.3645 28.9617 50.0988 29.3381C49.8296 29.7118 49.5445 30.0737 49.2387 30.4169C48.9302 30.7581 48.6078 31.0869 48.2661 31.3949C46.9001 32.6277 45.2683 33.5587 43.5185 34.114C41.7687 34.6692 39.9022 34.8543 38.08 34.6402C36.2577 34.431 34.4851 33.8115 32.9285 32.8452L32.8533 32.799L32.9203 32.7423C33.6878 32.089 34.3898 31.3603 35.1042 30.6428C35.8194 29.9279 36.5497 29.2173 37.3766 28.6254C38.1994 28.03 39.1216 27.5756 40.0886 27.2731C40.5725 27.1232 41.0674 27.0072 41.5678 26.9333C42.0676 26.8601 42.5742 26.8242 43.0795 26.8255Z" fill="white"/>
<path d="M43.0795 26.8255C42.5736 26.8304 42.069 26.8725 41.5699 26.9526C41.0709 27.0327 40.5794 27.155 40.0997 27.3104C39.1409 27.6246 38.2277 28.0825 37.4173 28.682C36.6021 29.2774 35.8822 29.9915 35.1747 30.7125C34.4685 31.4356 33.7638 32.1325 32.9955 32.799C34.5465 33.7376 36.2984 34.2783 38.0986 34.4738C39.8974 34.6748 41.7376 34.4807 43.4571 33.9233C45.1772 33.3667 46.7765 32.4405 48.1101 31.2229C49.4437 30.006 50.5426 28.6378 51.2232 26.9671C49.9925 25.8165 48.5271 24.9194 46.9415 24.3537C45.356 23.786 43.651 23.565 41.9744 23.6803C41.135 23.739 40.3047 23.8972 39.4978 24.1334C38.6922 24.3751 37.9122 24.7004 37.1764 25.1072C36.8113 25.3137 36.4544 25.5347 36.1134 25.782C35.7731 26.0292 35.4411 26.2882 35.1222 26.5652C34.4823 27.1156 33.8804 27.713 33.2847 28.3187C32.6883 28.9237 32.0961 29.5377 31.4735 30.1248C31.1622 30.4183 30.844 30.7056 30.5126 30.9784C30.182 31.2526 29.841 31.5151 29.4821 31.754C29.393 31.8148 29.304 31.8756 29.2115 31.9308C29.1197 31.9875 29.0293 32.0462 28.9361 32.1L28.6538 32.2589C28.5606 32.3134 28.4619 32.3576 28.3659 32.4074L28.221 32.4806C28.1726 32.5041 28.1223 32.5248 28.0733 32.5469C27.9739 32.5897 27.8765 32.636 27.7764 32.6767C27.5742 32.7541 27.3733 32.8349 27.1662 32.8964C26.9619 32.9675 26.75 33.0151 26.5416 33.0718L26.2234 33.1367L26.0639 33.1685L25.9031 33.1926C25.4751 33.2569 25.0423 33.2866 24.6095 33.2824C23.7446 33.2741 22.8825 33.1319 22.0597 32.8673C21.6483 32.7347 21.2473 32.5711 20.8607 32.3784C20.4749 32.1836 20.1028 31.9619 19.7487 31.7153C18.3364 30.7208 17.2168 29.3146 16.5818 27.7061L16.5459 27.6143L16.6253 27.5569C17.8118 26.6985 19.2386 26.2033 20.6875 26.0748C22.1384 25.9463 23.6176 26.1895 24.9547 26.7586C25.6228 27.0445 26.2551 27.4112 26.8432 27.8367C27.4299 28.2642 27.9663 28.7573 28.4563 29.2905C29.4317 30.3631 30.2075 31.6048 30.7984 32.9219C31.0959 33.5801 31.3451 34.2597 31.5508 34.9517C31.6564 35.2971 31.7441 35.6472 31.8276 35.9981C31.9049 36.3503 31.9774 36.7046 32.0319 37.061C32.1403 37.7737 32.2245 38.4885 32.2873 39.2054C32.3232 39.5632 32.3467 39.9223 32.3756 40.2808C32.3984 40.6399 32.426 40.9984 32.444 41.3575C32.5247 42.7934 32.5703 44.2306 32.5848 45.6685C32.6014 47.1058 32.5855 48.5437 32.5303 49.9803C32.5489 49.262 32.5565 48.543 32.5565 47.8247C32.5537 47.1065 32.5475 46.3875 32.5316 45.6692C32.5027 44.2327 32.4433 42.7968 32.3487 41.363C32.3273 41.0046 32.2963 40.6468 32.27 40.2884C32.2369 39.9306 32.2107 39.5729 32.1713 39.2158C32.1016 38.5017 32.0105 37.7889 31.8959 37.0824C31.7772 36.3765 31.6115 35.679 31.4031 34.9945C31.1953 34.3101 30.9447 33.6388 30.6465 32.9889C30.055 31.6891 29.2805 30.4673 28.3148 29.4182C27.8296 28.8968 27.3008 28.4154 26.7231 28.0003C26.1447 27.5866 25.5248 27.2323 24.8704 26.9568C23.561 26.4091 22.1204 26.1819 20.7089 26.3152C19.3007 26.4491 17.9616 26.8328 16.8179 27.665C17.437 29.2238 18.5283 30.5364 19.8999 31.4985C20.2443 31.7374 20.6053 31.9515 20.9794 32.1394C21.3543 32.3252 21.7436 32.4833 22.1425 32.6111C22.9405 32.866 23.7757 33.002 24.6123 33.0082C25.0306 33.0117 25.4489 32.982 25.8617 32.9191L26.0163 32.8957L26.1702 32.8646L26.4774 32.801C26.6789 32.7458 26.8832 32.7002 27.0807 32.6305C27.2808 32.5704 27.4748 32.4916 27.6701 32.417C27.7668 32.3777 27.8613 32.3328 27.9573 32.2907C28.0049 32.2692 28.0532 32.2492 28.1002 32.2257L28.2403 32.1546C28.3328 32.1063 28.4287 32.0627 28.5192 32.0096L28.7925 31.8549C28.8829 31.8017 28.9706 31.7444 29.0603 31.6891C29.1501 31.6352 29.237 31.5758 29.3233 31.5164C29.6726 31.283 30.006 31.0254 30.3297 30.756C30.6548 30.4881 30.9682 30.2035 31.2754 29.9127C31.8911 29.3319 32.4778 28.7172 33.0769 28.1115C33.6754 27.5051 34.2842 26.9036 34.9358 26.3455C35.2602 26.0651 35.5998 25.8006 35.9484 25.5485C36.297 25.2964 36.6649 25.0692 37.0404 24.8586C37.7949 24.4435 38.5942 24.112 39.4191 23.8661C40.2453 23.6258 41.0957 23.4662 41.9544 23.4075C43.6704 23.2929 45.4105 23.5222 47.0299 24.1051C48.6485 24.6859 50.143 25.6052 51.3965 26.782L51.4607 26.8421L51.4275 26.9222C51.2494 27.347 51.052 27.7634 50.8318 28.1682C50.6068 28.5701 50.3645 28.9617 50.0988 29.3381C49.8296 29.7118 49.5445 30.0737 49.2387 30.4169C48.9302 30.7581 48.6078 31.0869 48.2661 31.3949C46.9001 32.6277 45.2683 33.5587 43.5185 34.114C41.7687 34.6692 39.9022 34.8543 38.08 34.6402C36.2577 34.431 34.4851 33.8115 32.9285 32.8452L32.8533 32.799L32.9203 32.7423C33.6878 32.089 34.3898 31.3603 35.1042 30.6428C35.8194 29.9279 36.5497 29.2173 37.3766 28.6254C38.1994 28.03 39.1216 27.5756 40.0886 27.2731C40.5725 27.1232 41.0674 27.0072 41.5678 26.9333C42.0676 26.8601 42.5742 26.8242 43.0795 26.8255Z" stroke="white" stroke-width="0.517625" mask="url(#path-2-outside-1_300_1606)"/>
</g>
<g filter="url(#filter1_d_300_1606)">
<circle cx="47.999" cy="43" r="12" fill="url(#paint1_linear_300_1606)"/>
<mask id="path-4-outside-2_300_1606" maskUnits="userSpaceOnUse" x="37.4785" y="36.7539" width="21" height="16" fill="black">
<rect fill="white" x="37.4785" y="36.7539" width="21" height="16"/>
<path d="M52.9514 39.6339C52.6754 39.6365 52.4002 39.6595 52.128 39.7032C51.8558 39.7469 51.5877 39.8136 51.326 39.8983C50.8031 40.0698 50.3049 40.3195 49.8629 40.6465C49.4183 40.9712 49.0256 41.3608 48.6397 41.7541C48.2545 42.1485 47.8701 42.5286 47.451 42.8921C48.297 43.4041 49.2526 43.6991 50.2345 43.8057C51.2157 43.9153 52.2195 43.8094 53.1573 43.5054C54.0956 43.2018 54.968 42.6966 55.6954 42.0325C56.4228 41.3687 57.0222 40.6224 57.3934 39.7111C56.7221 39.0835 55.9228 38.5942 55.0579 38.2856C54.1931 37.976 53.2631 37.8554 52.3486 37.9183C51.8908 37.9503 51.4378 38.0366 50.9977 38.1654C50.5583 38.2973 50.1329 38.4747 49.7315 38.6966C49.5323 38.8093 49.3377 38.9298 49.1517 39.0647C48.9661 39.1995 48.785 39.3408 48.611 39.4919C48.262 39.7921 47.9337 40.118 47.6088 40.4484C47.2835 40.7784 46.9604 41.1133 46.6208 41.4335C46.451 41.5936 46.2775 41.7503 46.0967 41.8991C45.9164 42.0487 45.7304 42.1918 45.5346 42.3221C45.486 42.3553 45.4375 42.3885 45.387 42.4186C45.3369 42.4495 45.2876 42.4815 45.2368 42.5109L45.0828 42.5975C45.032 42.6273 44.9781 42.6514 44.9258 42.6785L44.8467 42.7185C44.8204 42.7313 44.7929 42.7426 44.7662 42.7546C44.7119 42.778 44.6589 42.8032 44.6043 42.8254C44.4939 42.8676 44.3844 42.9117 44.2714 42.9452C44.16 42.984 44.0444 43.01 43.9307 43.0409L43.7571 43.0763L43.6702 43.0937L43.5824 43.1069C43.349 43.1419 43.1129 43.1581 42.8769 43.1558C42.4051 43.1513 41.9348 43.0737 41.486 42.9294C41.2616 42.8571 41.0429 42.7678 40.8321 42.6627C40.6216 42.5565 40.4187 42.4355 40.2255 42.3011C39.4552 41.7586 38.8445 40.9916 38.4981 40.1142L38.4785 40.0641L38.5218 40.0328C39.169 39.5646 39.9473 39.2945 40.7376 39.2244C41.529 39.1543 42.3358 39.2869 43.0651 39.5974C43.4296 39.7533 43.7744 39.9533 44.0952 40.1854C44.4153 40.4186 44.7078 40.6876 44.9751 40.9784C45.5071 41.5634 45.9303 42.2408 46.2526 42.9592C46.4149 43.3182 46.5508 43.6889 46.663 44.0664C46.7206 44.2547 46.7684 44.4457 46.814 44.6371C46.8561 44.8292 46.8957 45.0225 46.9254 45.2168C46.9845 45.6056 47.0305 45.9955 47.0647 46.3866C47.0843 46.5817 47.0971 46.7776 47.1129 46.9731C47.1253 47.169 47.1404 47.3645 47.1502 47.5604C47.1942 48.3436 47.2191 49.1276 47.227 49.9119C47.236 50.6958 47.2274 51.4802 47.1973 52.2637C47.2074 51.8719 47.2116 51.4798 47.2116 51.088C47.2101 50.6962 47.2067 50.304 47.198 49.9123C47.1822 49.1287 47.1498 48.3455 47.0982 47.5634C47.0866 47.3679 47.0696 47.1728 47.0553 46.9773C47.0372 46.7821 47.0229 46.587 47.0015 46.3922C46.9634 46.0027 46.9138 45.6139 46.8513 45.2285C46.7865 44.8435 46.6961 44.463 46.5824 44.0897C46.4691 43.7164 46.3324 43.3502 46.1698 42.9957C45.8471 42.2867 45.4247 41.6203 44.8979 41.0481C44.6333 40.7637 44.3449 40.5011 44.0297 40.2747C43.7142 40.049 43.3761 39.8558 43.0192 39.7055C42.3049 39.4067 41.5192 39.2828 40.7492 39.3555C39.9812 39.4286 39.2507 39.6379 38.6269 40.0918C38.9646 40.942 39.5598 41.658 40.308 42.1828C40.4958 42.3131 40.6927 42.4299 40.8968 42.5324C41.1013 42.6337 41.3136 42.72 41.5312 42.7897C41.9665 42.9287 42.422 43.0029 42.8784 43.0063C43.1065 43.0082 43.3347 42.992 43.5598 42.9577L43.6442 42.9449L43.7281 42.9279L43.8957 42.8933C44.0056 42.8631 44.1171 42.8383 44.2247 42.8002C44.3339 42.7674 44.4397 42.7245 44.5463 42.6838C44.599 42.6623 44.6506 42.6378 44.7029 42.6149C44.7289 42.6032 44.7552 42.5923 44.7808 42.5794L44.8573 42.5406C44.9077 42.5143 44.9601 42.4905 45.0094 42.4615L45.1585 42.3772C45.2078 42.3481 45.2556 42.3169 45.3046 42.2867C45.3535 42.2574 45.4009 42.225 45.448 42.1926C45.6385 42.0652 45.8204 41.9247 45.997 41.7778C46.1743 41.6316 46.3452 41.4764 46.5128 41.3178C46.8486 41.001 47.1686 40.6657 47.4955 40.3353C47.8219 40.0046 48.154 39.6765 48.5094 39.3721C48.6863 39.2191 48.8716 39.0748 49.0617 38.9373C49.2519 38.7998 49.4525 38.6759 49.6573 38.561C50.0689 38.3346 50.5049 38.1538 50.9548 38.0197C51.4055 37.8886 51.8693 37.8015 52.3377 37.7695C53.2737 37.707 54.2229 37.8321 55.1061 38.15C55.989 38.4668 56.8042 38.9682 57.4879 39.6102L57.5229 39.6429L57.5049 39.6866C57.4077 39.9183 57.3 40.1455 57.1799 40.3662C57.0572 40.5855 56.925 40.7991 56.7801 41.0044C56.6332 41.2082 56.4778 41.4056 56.311 41.5928C56.1427 41.7789 55.9668 41.9582 55.7805 42.1263C55.0354 42.7987 54.1453 43.3065 53.1909 43.6094C52.2364 43.9123 51.2183 44.0132 50.2244 43.8965C49.2304 43.7823 48.2635 43.4444 47.4145 42.9174L47.3735 42.8921L47.41 42.8612C47.8287 42.5049 48.2116 42.1074 48.6012 41.716C48.9913 41.3261 49.3897 40.9385 49.8407 40.6156C50.2895 40.2909 50.7925 40.043 51.32 39.878C51.5839 39.7963 51.8539 39.733 52.1269 39.6927C52.3994 39.6527 52.6758 39.6331 52.9514 39.6339Z"/>
</mask>
<path d="M52.9514 39.6339C52.6754 39.6365 52.4002 39.6595 52.128 39.7032C51.8558 39.7469 51.5877 39.8136 51.326 39.8983C50.8031 40.0698 50.3049 40.3195 49.8629 40.6465C49.4183 40.9712 49.0256 41.3608 48.6397 41.7541C48.2545 42.1485 47.8701 42.5286 47.451 42.8921C48.297 43.4041 49.2526 43.6991 50.2345 43.8057C51.2157 43.9153 52.2195 43.8094 53.1573 43.5054C54.0956 43.2018 54.968 42.6966 55.6954 42.0325C56.4228 41.3687 57.0222 40.6224 57.3934 39.7111C56.7221 39.0835 55.9228 38.5942 55.0579 38.2856C54.1931 37.976 53.2631 37.8554 52.3486 37.9183C51.8908 37.9503 51.4378 38.0366 50.9977 38.1654C50.5583 38.2973 50.1329 38.4747 49.7315 38.6966C49.5323 38.8093 49.3377 38.9298 49.1517 39.0647C48.9661 39.1995 48.785 39.3408 48.611 39.4919C48.262 39.7921 47.9337 40.118 47.6088 40.4484C47.2835 40.7784 46.9604 41.1133 46.6208 41.4335C46.451 41.5936 46.2775 41.7503 46.0967 41.8991C45.9164 42.0487 45.7304 42.1918 45.5346 42.3221C45.486 42.3553 45.4375 42.3885 45.387 42.4186C45.3369 42.4495 45.2876 42.4815 45.2368 42.5109L45.0828 42.5975C45.032 42.6273 44.9781 42.6514 44.9258 42.6785L44.8467 42.7185C44.8204 42.7313 44.7929 42.7426 44.7662 42.7546C44.7119 42.778 44.6589 42.8032 44.6043 42.8254C44.4939 42.8676 44.3844 42.9117 44.2714 42.9452C44.16 42.984 44.0444 43.01 43.9307 43.0409L43.7571 43.0763L43.6702 43.0937L43.5824 43.1069C43.349 43.1419 43.1129 43.1581 42.8769 43.1558C42.4051 43.1513 41.9348 43.0737 41.486 42.9294C41.2616 42.8571 41.0429 42.7678 40.8321 42.6627C40.6216 42.5565 40.4187 42.4355 40.2255 42.3011C39.4552 41.7586 38.8445 40.9916 38.4981 40.1142L38.4785 40.0641L38.5218 40.0328C39.169 39.5646 39.9473 39.2945 40.7376 39.2244C41.529 39.1543 42.3358 39.2869 43.0651 39.5974C43.4296 39.7533 43.7744 39.9533 44.0952 40.1854C44.4153 40.4186 44.7078 40.6876 44.9751 40.9784C45.5071 41.5634 45.9303 42.2408 46.2526 42.9592C46.4149 43.3182 46.5508 43.6889 46.663 44.0664C46.7206 44.2547 46.7684 44.4457 46.814 44.6371C46.8561 44.8292 46.8957 45.0225 46.9254 45.2168C46.9845 45.6056 47.0305 45.9955 47.0647 46.3866C47.0843 46.5817 47.0971 46.7776 47.1129 46.9731C47.1253 47.169 47.1404 47.3645 47.1502 47.5604C47.1942 48.3436 47.2191 49.1276 47.227 49.9119C47.236 50.6958 47.2274 51.4802 47.1973 52.2637C47.2074 51.8719 47.2116 51.4798 47.2116 51.088C47.2101 50.6962 47.2067 50.304 47.198 49.9123C47.1822 49.1287 47.1498 48.3455 47.0982 47.5634C47.0866 47.3679 47.0696 47.1728 47.0553 46.9773C47.0372 46.7821 47.0229 46.587 47.0015 46.3922C46.9634 46.0027 46.9138 45.6139 46.8513 45.2285C46.7865 44.8435 46.6961 44.463 46.5824 44.0897C46.4691 43.7164 46.3324 43.3502 46.1698 42.9957C45.8471 42.2867 45.4247 41.6203 44.8979 41.0481C44.6333 40.7637 44.3449 40.5011 44.0297 40.2747C43.7142 40.049 43.3761 39.8558 43.0192 39.7055C42.3049 39.4067 41.5192 39.2828 40.7492 39.3555C39.9812 39.4286 39.2507 39.6379 38.6269 40.0918C38.9646 40.942 39.5598 41.658 40.308 42.1828C40.4958 42.3131 40.6927 42.4299 40.8968 42.5324C41.1013 42.6337 41.3136 42.72 41.5312 42.7897C41.9665 42.9287 42.422 43.0029 42.8784 43.0063C43.1065 43.0082 43.3347 42.992 43.5598 42.9577L43.6442 42.9449L43.7281 42.9279L43.8957 42.8933C44.0056 42.8631 44.1171 42.8383 44.2247 42.8002C44.3339 42.7674 44.4397 42.7245 44.5463 42.6838C44.599 42.6623 44.6506 42.6378 44.7029 42.6149C44.7289 42.6032 44.7552 42.5923 44.7808 42.5794L44.8573 42.5406C44.9077 42.5143 44.9601 42.4905 45.0094 42.4615L45.1585 42.3772C45.2078 42.3481 45.2556 42.3169 45.3046 42.2867C45.3535 42.2574 45.4009 42.225 45.448 42.1926C45.6385 42.0652 45.8204 41.9247 45.997 41.7778C46.1743 41.6316 46.3452 41.4764 46.5128 41.3178C46.8486 41.001 47.1686 40.6657 47.4955 40.3353C47.8219 40.0046 48.154 39.6765 48.5094 39.3721C48.6863 39.2191 48.8716 39.0748 49.0617 38.9373C49.2519 38.7998 49.4525 38.6759 49.6573 38.561C50.0689 38.3346 50.5049 38.1538 50.9548 38.0197C51.4055 37.8886 51.8693 37.8015 52.3377 37.7695C53.2737 37.707 54.2229 37.8321 55.1061 38.15C55.989 38.4668 56.8042 38.9682 57.4879 39.6102L57.5229 39.6429L57.5049 39.6866C57.4077 39.9183 57.3 40.1455 57.1799 40.3662C57.0572 40.5855 56.925 40.7991 56.7801 41.0044C56.6332 41.2082 56.4778 41.4056 56.311 41.5928C56.1427 41.7789 55.9668 41.9582 55.7805 42.1263C55.0354 42.7987 54.1453 43.3065 53.1909 43.6094C52.2364 43.9123 51.2183 44.0132 50.2244 43.8965C49.2304 43.7823 48.2635 43.4444 47.4145 42.9174L47.3735 42.8921L47.41 42.8612C47.8287 42.5049 48.2116 42.1074 48.6012 41.716C48.9913 41.3261 49.3897 40.9385 49.8407 40.6156C50.2895 40.2909 50.7925 40.043 51.32 39.878C51.5839 39.7963 51.8539 39.733 52.1269 39.6927C52.3994 39.6527 52.6758 39.6331 52.9514 39.6339Z" fill="white"/>
<path d="M52.9514 39.6339C52.6754 39.6365 52.4002 39.6595 52.128 39.7032C51.8558 39.7469 51.5877 39.8136 51.326 39.8983C50.8031 40.0698 50.3049 40.3195 49.8629 40.6465C49.4183 40.9712 49.0256 41.3608 48.6397 41.7541C48.2545 42.1485 47.8701 42.5286 47.451 42.8921C48.297 43.4041 49.2526 43.6991 50.2345 43.8057C51.2157 43.9153 52.2195 43.8094 53.1573 43.5054C54.0956 43.2018 54.968 42.6966 55.6954 42.0325C56.4228 41.3687 57.0222 40.6224 57.3934 39.7111C56.7221 39.0835 55.9228 38.5942 55.0579 38.2856C54.1931 37.976 53.2631 37.8554 52.3486 37.9183C51.8908 37.9503 51.4378 38.0366 50.9977 38.1654C50.5583 38.2973 50.1329 38.4747 49.7315 38.6966C49.5323 38.8093 49.3377 38.9298 49.1517 39.0647C48.9661 39.1995 48.785 39.3408 48.611 39.4919C48.262 39.7921 47.9337 40.118 47.6088 40.4484C47.2835 40.7784 46.9604 41.1133 46.6208 41.4335C46.451 41.5936 46.2775 41.7503 46.0967 41.8991C45.9164 42.0487 45.7304 42.1918 45.5346 42.3221C45.486 42.3553 45.4375 42.3885 45.387 42.4186C45.3369 42.4495 45.2876 42.4815 45.2368 42.5109L45.0828 42.5975C45.032 42.6273 44.9781 42.6514 44.9258 42.6785L44.8467 42.7185C44.8204 42.7313 44.7929 42.7426 44.7662 42.7546C44.7119 42.778 44.6589 42.8032 44.6043 42.8254C44.4939 42.8676 44.3844 42.9117 44.2714 42.9452C44.16 42.984 44.0444 43.01 43.9307 43.0409L43.7571 43.0763L43.6702 43.0937L43.5824 43.1069C43.349 43.1419 43.1129 43.1581 42.8769 43.1558C42.4051 43.1513 41.9348 43.0737 41.486 42.9294C41.2616 42.8571 41.0429 42.7678 40.8321 42.6627C40.6216 42.5565 40.4187 42.4355 40.2255 42.3011C39.4552 41.7586 38.8445 40.9916 38.4981 40.1142L38.4785 40.0641L38.5218 40.0328C39.169 39.5646 39.9473 39.2945 40.7376 39.2244C41.529 39.1543 42.3358 39.2869 43.0651 39.5974C43.4296 39.7533 43.7744 39.9533 44.0952 40.1854C44.4153 40.4186 44.7078 40.6876 44.9751 40.9784C45.5071 41.5634 45.9303 42.2408 46.2526 42.9592C46.4149 43.3182 46.5508 43.6889 46.663 44.0664C46.7206 44.2547 46.7684 44.4457 46.814 44.6371C46.8561 44.8292 46.8957 45.0225 46.9254 45.2168C46.9845 45.6056 47.0305 45.9955 47.0647 46.3866C47.0843 46.5817 47.0971 46.7776 47.1129 46.9731C47.1253 47.169 47.1404 47.3645 47.1502 47.5604C47.1942 48.3436 47.2191 49.1276 47.227 49.9119C47.236 50.6958 47.2274 51.4802 47.1973 52.2637C47.2074 51.8719 47.2116 51.4798 47.2116 51.088C47.2101 50.6962 47.2067 50.304 47.198 49.9123C47.1822 49.1287 47.1498 48.3455 47.0982 47.5634C47.0866 47.3679 47.0696 47.1728 47.0553 46.9773C47.0372 46.7821 47.0229 46.587 47.0015 46.3922C46.9634 46.0027 46.9138 45.6139 46.8513 45.2285C46.7865 44.8435 46.6961 44.463 46.5824 44.0897C46.4691 43.7164 46.3324 43.3502 46.1698 42.9957C45.8471 42.2867 45.4247 41.6203 44.8979 41.0481C44.6333 40.7637 44.3449 40.5011 44.0297 40.2747C43.7142 40.049 43.3761 39.8558 43.0192 39.7055C42.3049 39.4067 41.5192 39.2828 40.7492 39.3555C39.9812 39.4286 39.2507 39.6379 38.6269 40.0918C38.9646 40.942 39.5598 41.658 40.308 42.1828C40.4958 42.3131 40.6927 42.4299 40.8968 42.5324C41.1013 42.6337 41.3136 42.72 41.5312 42.7897C41.9665 42.9287 42.422 43.0029 42.8784 43.0063C43.1065 43.0082 43.3347 42.992 43.5598 42.9577L43.6442 42.9449L43.7281 42.9279L43.8957 42.8933C44.0056 42.8631 44.1171 42.8383 44.2247 42.8002C44.3339 42.7674 44.4397 42.7245 44.5463 42.6838C44.599 42.6623 44.6506 42.6378 44.7029 42.6149C44.7289 42.6032 44.7552 42.5923 44.7808 42.5794L44.8573 42.5406C44.9077 42.5143 44.9601 42.4905 45.0094 42.4615L45.1585 42.3772C45.2078 42.3481 45.2556 42.3169 45.3046 42.2867C45.3535 42.2574 45.4009 42.225 45.448 42.1926C45.6385 42.0652 45.8204 41.9247 45.997 41.7778C46.1743 41.6316 46.3452 41.4764 46.5128 41.3178C46.8486 41.001 47.1686 40.6657 47.4955 40.3353C47.8219 40.0046 48.154 39.6765 48.5094 39.3721C48.6863 39.2191 48.8716 39.0748 49.0617 38.9373C49.2519 38.7998 49.4525 38.6759 49.6573 38.561C50.0689 38.3346 50.5049 38.1538 50.9548 38.0197C51.4055 37.8886 51.8693 37.8015 52.3377 37.7695C53.2737 37.707 54.2229 37.8321 55.1061 38.15C55.989 38.4668 56.8042 38.9682 57.4879 39.6102L57.5229 39.6429L57.5049 39.6866C57.4077 39.9183 57.3 40.1455 57.1799 40.3662C57.0572 40.5855 56.925 40.7991 56.7801 41.0044C56.6332 41.2082 56.4778 41.4056 56.311 41.5928C56.1427 41.7789 55.9668 41.9582 55.7805 42.1263C55.0354 42.7987 54.1453 43.3065 53.1909 43.6094C52.2364 43.9123 51.2183 44.0132 50.2244 43.8965C49.2304 43.7823 48.2635 43.4444 47.4145 42.9174L47.3735 42.8921L47.41 42.8612C47.8287 42.5049 48.2116 42.1074 48.6012 41.716C48.9913 41.3261 49.3897 40.9385 49.8407 40.6156C50.2895 40.2909 50.7925 40.043 51.32 39.878C51.5839 39.7963 51.8539 39.733 52.1269 39.6927C52.3994 39.6527 52.6758 39.6331 52.9514 39.6339Z" stroke="white" stroke-width="0.517625" mask="url(#path-4-outside-2_300_1606)"/>
</g>
<defs>
<filter id="filter0_d_300_1606" x="0.430511" y="0.877552" width="67.137" height="67.137" filterUnits="userSpaceOnUse" color-interpolation-filters="sRGB">
<feFlood flood-opacity="0" result="BackgroundImageFix"/>
<feColorMatrix in="SourceAlpha" type="matrix" values="0 0 0 0 0 0 0 0 0 0 0 0 0 0 0 0 0 0 127 0" result="hardAlpha"/>
<feOffset dy="1.44606"/>
<feGaussianBlur stdDeviation="5.78426"/>
<feComposite in2="hardAlpha" operator="out"/>
<feColorMatrix type="matrix" values="0 0 0 0 0.104167 0 0 0 0 0.066116 0 0 0 0 0.030816 0 0 0 0.12 0"/>
<feBlend mode="normal" in2="BackgroundImageFix" result="effect1_dropShadow_300_1606"/>
<feBlend mode="normal" in="SourceGraphic" in2="effect1_dropShadow_300_1606" result="shape"/>
</filter>
<filter id="filter1_d_300_1606" x="24.4305" y="20.8776" width="47.137" height="47.137" filterUnits="userSpaceOnUse" color-interpolation-filters="sRGB">
<feFlood flood-opacity="0" result="BackgroundImageFix"/>
<feColorMatrix in="SourceAlpha" type="matrix" values="0 0 0 0 0 0 0 0 0 0 0 0 0 0 0 0 0 0 127 0" result="hardAlpha"/>
<feOffset dy="1.44606"/>
<feGaussianBlur stdDeviation="5.78426"/>
<feComposite in2="hardAlpha" operator="out"/>
<feColorMatrix type="matrix" values="0 0 0 0 0.104167 0 0 0 0 0.066116 0 0 0 0 0.030816 0 0 0 0.12 0"/>
<feBlend mode="normal" in2="BackgroundImageFix" result="effect1_dropShadow_300_1606"/>
<feBlend mode="normal" in="SourceGraphic" in2="effect1_dropShadow_300_1606" result="shape"/>
</filter>
<linearGradient id="paint0_linear_300_1606" x1="11.999" y1="19.25" x2="57.4844" y2="22.4658" gradientUnits="userSpaceOnUse">
<stop stop-color="#30C917"/>
<stop offset="1" stop-color="#279A13"/>
</linearGradient>
<linearGradient id="paint1_linear_300_1606" x1="35.999" y1="35.5" x2="60.8092" y2="37.2541" gradientUnits="userSpaceOnUse">
<stop stop-color="#30C917"/>
<stop offset="1" stop-color="#279A13"/>
</linearGradient>
</defs>
</svg>
