<svg xmlns="http://www.w3.org/2000/svg" width="921" height="979" fill="none"><g filter="url(#a)"><circle cx="536" cy="443" r="331" fill="#F8FFF6" fill-opacity=".12"/></g><g filter="url(#b)"><circle cx="536" cy="443" r="136" fill="url(#c)" fill-opacity=".64"/></g><g filter="url(#d)"><circle cx="543" cy="444" r="88" fill="url(#e)"/><mask id="f" width="145" height="109" x="470.173" y="403.527" fill="#000" maskUnits="userSpaceOnUse"><path fill="#fff" d="M470.173 403.527h145v109h-145z"/><path d="M579.307 419.314a40.6 40.6 0 0 0-6.038.508c-1.996.321-3.962.81-5.881 1.431-3.835 1.257-7.488 3.089-10.729 5.487-3.261 2.381-6.141 5.238-8.971 8.122-2.825 2.892-5.644 5.68-8.717 8.346 6.204 3.754 13.212 5.917 20.413 6.699 7.195.804 14.556.028 21.434-2.202a51 51 0 0 0 18.612-10.802c5.334-4.867 9.73-10.34 12.452-17.023a49.5 49.5 0 0 0-17.127-10.453c-6.342-2.271-13.161-3.155-19.868-2.694-3.357.235-6.679.867-9.907 1.812a47.2 47.2 0 0 0-9.285 3.896c-1.461.826-2.888 1.71-4.252 2.699a59 59 0 0 0-3.965 3.132c-2.559 2.202-4.967 4.592-7.35 7.015-2.385 2.42-4.754 4.876-7.245 7.224a77 77 0 0 1-3.843 3.414c-1.323 1.097-2.687 2.147-4.122 3.103-.357.243-.713.486-1.083.707-.367.227-.729.461-1.101.677l-1.13.635c-.372.219-.767.395-1.151.594l-.58.293c-.193.094-.395.177-.591.265-.397.172-.787.357-1.187.52-.809.309-1.612.632-2.441.878-.817.285-1.665.475-2.498.702l-1.273.26-.638.127-.643.096a33 33 0 0 1-5.175.359 34.46 34.46 0 0 1-14.995-3.616 37 37 0 0 1-4.448-2.652c-5.649-3.978-10.127-9.603-12.668-16.037l-.143-.367.317-.229c4.747-3.434 10.454-5.415 16.249-5.929 5.804-.514 11.721.459 17.069 2.735 2.673 1.144 5.202 2.611 7.554 4.312 2.347 1.71 4.492 3.683 6.453 5.816 3.901 4.29 7.004 9.257 9.368 14.525a64 64 0 0 1 3.009 8.12c.423 1.381.774 2.782 1.108 4.185a68 68 0 0 1 .817 4.252c.433 2.851.77 5.71 1.021 8.577.144 1.432.238 2.868.354 4.302.091 1.436.201 2.87.273 4.307.323 5.743.505 11.492.563 17.244.067 5.749.003 11.501-.218 17.247.075-2.873.105-5.749.105-8.622a477 477 0 0 0-.099-8.622 378 378 0 0 0-.732-17.225c-.085-1.434-.21-2.865-.315-4.299-.132-1.431-.237-2.862-.394-4.29a136 136 0 0 0-1.102-8.534 67 67 0 0 0-1.971-8.351 63.5 63.5 0 0 0-3.027-8.023c-2.366-5.199-5.464-10.086-9.326-14.282-1.941-2.086-4.056-4.012-6.367-5.672-2.314-1.655-4.793-3.072-7.411-4.174-5.238-2.191-11-3.1-16.646-2.567-5.633.536-10.989 2.071-15.564 5.4 2.476 6.235 6.842 11.485 12.328 15.334a35.6 35.6 0 0 0 4.318 2.563 33.336 33.336 0 0 0 14.531 3.476 31.4 31.4 0 0 0 4.998-.357l.618-.094.616-.124 1.229-.254c.806-.221 1.623-.403 2.413-.682.801-.241 1.576-.556 2.358-.854.386-.158.765-.337 1.148-.506.191-.085.384-.165.572-.259l.56-.285c.37-.193.754-.367 1.116-.58l1.093-.619c.362-.213.713-.442 1.072-.663.359-.215.706-.453 1.052-.691 1.397-.933 2.73-1.964 4.025-3.041a74 74 0 0 0 3.783-3.373c2.463-2.324 4.81-4.782 7.206-7.205 2.394-2.426 4.829-4.832 7.436-7.064a59 59 0 0 1 4.05-3.188c1.394-1.008 2.866-1.917 4.368-2.76a48.5 48.5 0 0 1 9.515-3.97c3.305-.961 6.706-1.599 10.141-1.834 6.864-.459 13.824.458 20.302 2.79a50.6 50.6 0 0 1 17.466 10.708l.257.24-.133.321a55 55 0 0 1-2.382 4.983 53 53 0 0 1-2.933 4.68 53 53 0 0 1-3.44 4.315 54 54 0 0 1-3.89 3.912 51.8 51.8 0 0 1-18.991 10.877c-6.999 2.221-14.465 2.961-21.754 2.105a50.1 50.1 0 0 1-20.606-7.18l-.3-.185.267-.227c3.071-2.613 5.879-5.528 8.736-8.398 2.861-2.859 5.782-5.702 9.09-8.07 3.291-2.381 6.98-4.199 10.848-5.409a39.5 39.5 0 0 1 5.917-1.359 41 41 0 0 1 6.046-.431"/></mask><path fill="#fff" d="M579.307 419.314a40.6 40.6 0 0 0-6.038.508c-1.996.321-3.962.81-5.881 1.431-3.835 1.257-7.488 3.089-10.729 5.487-3.261 2.381-6.141 5.238-8.971 8.122-2.825 2.892-5.644 5.68-8.717 8.346 6.204 3.754 13.212 5.917 20.413 6.699 7.195.804 14.556.028 21.434-2.202a51 51 0 0 0 18.612-10.802c5.334-4.867 9.73-10.34 12.452-17.023a49.5 49.5 0 0 0-17.127-10.453c-6.342-2.271-13.161-3.155-19.868-2.694-3.357.235-6.679.867-9.907 1.812a47.2 47.2 0 0 0-9.285 3.896c-1.461.826-2.888 1.71-4.252 2.699a59 59 0 0 0-3.965 3.132c-2.559 2.202-4.967 4.592-7.35 7.015-2.385 2.42-4.754 4.876-7.245 7.224a77 77 0 0 1-3.843 3.414c-1.323 1.097-2.687 2.147-4.122 3.103-.357.243-.713.486-1.083.707-.367.227-.729.461-1.101.677l-1.13.635c-.372.219-.767.395-1.151.594l-.58.293c-.193.094-.395.177-.591.265-.397.172-.787.357-1.187.52-.809.309-1.612.632-2.441.878-.817.285-1.665.475-2.498.702l-1.273.26-.638.127-.643.096a33 33 0 0 1-5.175.359 34.46 34.46 0 0 1-14.995-3.616 37 37 0 0 1-4.448-2.652c-5.649-3.978-10.127-9.603-12.668-16.037l-.143-.367.317-.229c4.747-3.434 10.454-5.415 16.249-5.929 5.804-.514 11.721.459 17.069 2.735 2.673 1.144 5.202 2.611 7.554 4.312 2.347 1.71 4.492 3.683 6.453 5.816 3.901 4.29 7.004 9.257 9.368 14.525a64 64 0 0 1 3.009 8.12c.423 1.381.774 2.782 1.108 4.185a68 68 0 0 1 .817 4.252c.433 2.851.77 5.71 1.021 8.577.144 1.432.238 2.868.354 4.302.091 1.436.201 2.87.273 4.307.323 5.743.505 11.492.563 17.244.067 5.749.003 11.501-.218 17.247.075-2.873.105-5.749.105-8.622a477 477 0 0 0-.099-8.622 378 378 0 0 0-.732-17.225c-.085-1.434-.21-2.865-.315-4.299-.132-1.431-.237-2.862-.394-4.29a136 136 0 0 0-1.102-8.534 67 67 0 0 0-1.971-8.351 63.5 63.5 0 0 0-3.027-8.023c-2.366-5.199-5.464-10.086-9.326-14.282-1.941-2.086-4.056-4.012-6.367-5.672-2.314-1.655-4.793-3.072-7.411-4.174-5.238-2.191-11-3.1-16.646-2.567-5.633.536-10.989 2.071-15.564 5.4 2.476 6.235 6.842 11.485 12.328 15.334a35.6 35.6 0 0 0 4.318 2.563 33.336 33.336 0 0 0 14.531 3.476 31.4 31.4 0 0 0 4.998-.357l.618-.094.616-.124 1.229-.254c.806-.221 1.623-.403 2.413-.682.801-.241 1.576-.556 2.358-.854.386-.158.765-.337 1.148-.506.191-.085.384-.165.572-.259l.56-.285c.37-.193.754-.367 1.116-.58l1.093-.619c.362-.213.713-.442 1.072-.663.359-.215.706-.453 1.052-.691 1.397-.933 2.73-1.964 4.025-3.041a74 74 0 0 0 3.783-3.373c2.463-2.324 4.81-4.782 7.206-7.205 2.394-2.426 4.829-4.832 7.436-7.064a59 59 0 0 1 4.05-3.188c1.394-1.008 2.866-1.917 4.368-2.76a48.5 48.5 0 0 1 9.515-3.97c3.305-.961 6.706-1.599 10.141-1.834 6.864-.459 13.824.458 20.302 2.79a50.6 50.6 0 0 1 17.466 10.708l.257.24-.133.321a55 55 0 0 1-2.382 4.983 53 53 0 0 1-2.933 4.68 53 53 0 0 1-3.44 4.315 54 54 0 0 1-3.89 3.912 51.8 51.8 0 0 1-18.991 10.877c-6.999 2.221-14.465 2.961-21.754 2.105a50.1 50.1 0 0 1-20.606-7.18l-.3-.185.267-.227c3.071-2.613 5.879-5.528 8.736-8.398 2.861-2.859 5.782-5.702 9.09-8.07 3.291-2.381 6.98-4.199 10.848-5.409a39.5 39.5 0 0 1 5.917-1.359 41 41 0 0 1 6.046-.431"/><path stroke="#fff" stroke-width="3.352" d="M579.307 419.314a40.6 40.6 0 0 0-6.038.508c-1.996.321-3.962.81-5.881 1.431-3.835 1.257-7.488 3.089-10.729 5.487-3.261 2.381-6.141 5.238-8.971 8.122-2.825 2.892-5.644 5.68-8.717 8.346 6.204 3.754 13.212 5.917 20.413 6.699 7.195.804 14.556.028 21.434-2.202a51 51 0 0 0 18.612-10.802c5.334-4.867 9.73-10.34 12.452-17.023a49.5 49.5 0 0 0-17.127-10.453c-6.342-2.271-13.161-3.155-19.868-2.694-3.357.235-6.679.867-9.907 1.812a47.2 47.2 0 0 0-9.285 3.896c-1.461.826-2.888 1.71-4.252 2.699a59 59 0 0 0-3.965 3.132c-2.559 2.202-4.967 4.592-7.35 7.015-2.385 2.42-4.754 4.876-7.245 7.224a77 77 0 0 1-3.843 3.414c-1.323 1.097-2.687 2.147-4.122 3.103-.357.243-.713.486-1.083.707-.367.227-.729.461-1.101.677l-1.13.635c-.372.219-.767.395-1.151.594l-.58.293c-.193.094-.395.177-.591.265-.397.172-.787.357-1.187.52-.809.309-1.612.632-2.441.878-.817.285-1.665.475-2.498.702l-1.273.26-.638.127-.643.096a33 33 0 0 1-5.175.359 34.46 34.46 0 0 1-14.995-3.616 37 37 0 0 1-4.448-2.652c-5.649-3.978-10.127-9.603-12.668-16.037l-.143-.367.317-.229c4.747-3.434 10.454-5.415 16.249-5.929 5.804-.514 11.721.459 17.069 2.735 2.673 1.144 5.202 2.611 7.554 4.312 2.347 1.71 4.492 3.683 6.453 5.816 3.901 4.29 7.004 9.257 9.368 14.525a64 64 0 0 1 3.009 8.12c.423 1.381.774 2.782 1.108 4.185a68 68 0 0 1 .817 4.252c.433 2.851.77 5.71 1.021 8.577.144 1.432.238 2.868.354 4.302.091 1.436.201 2.87.273 4.307.323 5.743.505 11.492.563 17.244.067 5.749.003 11.501-.218 17.247.075-2.873.105-5.749.105-8.622a477 477 0 0 0-.099-8.622 378 378 0 0 0-.732-17.225c-.085-1.434-.21-2.865-.315-4.299-.132-1.431-.237-2.862-.394-4.29a136 136 0 0 0-1.102-8.534 67 67 0 0 0-1.971-8.351 63.5 63.5 0 0 0-3.027-8.023c-2.366-5.199-5.464-10.086-9.326-14.282-1.941-2.086-4.056-4.012-6.367-5.672-2.314-1.655-4.793-3.072-7.411-4.174-5.238-2.191-11-3.1-16.646-2.567-5.633.536-10.989 2.071-15.564 5.4 2.476 6.235 6.842 11.485 12.328 15.334a35.6 35.6 0 0 0 4.318 2.563 33.336 33.336 0 0 0 14.531 3.476 31.4 31.4 0 0 0 4.998-.357l.618-.094.616-.124 1.229-.254c.806-.221 1.623-.403 2.413-.682.801-.241 1.576-.556 2.358-.854.386-.158.765-.337 1.148-.506.191-.085.384-.165.572-.259l.56-.285c.37-.193.754-.367 1.116-.58l1.093-.619c.362-.213.713-.442 1.072-.663.359-.215.706-.453 1.052-.691 1.397-.933 2.73-1.964 4.025-3.041a74 74 0 0 0 3.783-3.373c2.463-2.324 4.81-4.782 7.206-7.205 2.394-2.426 4.829-4.832 7.436-7.064a59 59 0 0 1 4.05-3.188c1.394-1.008 2.866-1.917 4.368-2.76a48.5 48.5 0 0 1 9.515-3.97c3.305-.961 6.706-1.599 10.141-1.834 6.864-.459 13.824.458 20.302 2.79a50.6 50.6 0 0 1 17.466 10.708l.257.24-.133.321a55 55 0 0 1-2.382 4.983 53 53 0 0 1-2.933 4.68 53 53 0 0 1-3.44 4.315 54 54 0 0 1-3.89 3.912 51.8 51.8 0 0 1-18.991 10.877c-6.999 2.221-14.465 2.961-21.754 2.105a50.1 50.1 0 0 1-20.606-7.18l-.3-.185.267-.227c3.071-2.613 5.879-5.528 8.736-8.398 2.861-2.859 5.782-5.702 9.09-8.07 3.291-2.381 6.98-4.199 10.848-5.409a39.5 39.5 0 0 1 5.917-1.359 41 41 0 0 1 6.046-.431Z" mask="url(#f)"/></g><g filter="url(#g)"><circle cx="543" cy="247" r="55" fill="#fff" fill-opacity=".64" shape-rendering="crispEdges"/></g><g filter="url(#h)"><circle cx="543" cy="247" r="46" fill="#fff"/></g><path fill="#378900" d="m569.731 229.055-19.554-11.83a1.544 1.544 0 0 0-2.343 1.321v5.546l-1.801.297c-6.526 1.079-12.803 3.994-18.185 7.784-4.69 3.303-9.214 7.429-12.433 12.207a.99.99 0 0 0 1.44 1.363c-.001.001.031-.025.079-.058 3.813-2.627 8-4.756 12.405-6.194 5.32-1.735 11.003-2.542 16.577-1.801.642.093 1.282.196 1.918.323v5.545a1.544 1.544 0 0 0 2.344 1.321l19.553-11.829c1.502-.908 1.502-3.087 0-3.995"/><path fill="#FF4755" d="m516.27 264.943 19.553 11.83c1.029.622 2.344-.119 2.344-1.321v-5.546l1.801-.297c6.526-1.079 12.803-3.993 18.185-7.784 4.689-3.303 9.214-7.429 12.433-12.207a.99.99 0 0 0-1.44-1.363c.001-.001-.031.025-.079.058-3.813 2.627-8 4.756-12.405 6.194-5.32 1.735-11.003 2.542-16.578 1.801a37 37 0 0 1-1.918-.323v-5.545a1.544 1.544 0 0 0-2.343-1.321l-19.553 11.829c-1.502.908-1.502 3.087 0 3.995"/><g filter="url(#i)"><circle cx="729" cy="362" r="55" fill="#fff" fill-opacity=".64" shape-rendering="crispEdges"/></g><g filter="url(#j)"><circle cx="729" cy="362" r="46" fill="#fff"/></g><g clip-path="url(#k)"><path fill="#C4D3D6" d="m743.727 382.809 1.282.226a4.12 4.12 0 0 0 2.895-.562l4.945-3.088a8.24 8.24 0 0 0 3.746-5.553l1.742-9.879a1.223 1.223 0 0 0-.993-1.417l-19.479-3.435a1.224 1.224 0 0 0-1.418.992l-1.742 9.879a8.23 8.23 0 0 0 1.622 6.5l3.59 4.592a4.12 4.12 0 0 0 2.528 1.519zM748.927 353.318l-2.737-.482-1.322 7.499 5.472.965 1.323-7.499z"/><path fill="#F4AC03" d="m751.554 338.424-2.737-.483-2.627 14.897 2.737.483 2.736.482 2.627-14.897z"/><path fill="#5DBCD9" d="m758.522 336.83.27-1.531a1.224 1.224 0 0 0-.992-1.418l-10.562-1.862a1.224 1.224 0 0 0-1.418.992l-.27 1.531-.269 1.532c-.118.665.326 1.3.992 1.417l10.562 1.863c.665.117 1.3-.327 1.417-.993z"/><path fill="#378900" d="M740.502 366.769a.92.92 0 0 0-1.224-.432l-5.62 2.686c-1.624.616-2.911 1.621-3.833 2.54v-16.02a.918.918 0 1 0-1.835 0v14.185c-.922-.919-2.208-1.924-3.833-2.54l-5.62-2.686a.918.918 0 0 0-.791 1.656l5.595 2.674a1 1 0 0 0 .11.051c2.487.919 4.088 3.035 4.539 3.694v6.945a.918.918 0 1 0 1.835 0v-5.11c.452-.658 2.053-2.775 4.539-3.694q.058-.023.111-.05l5.595-2.674a.92.92 0 0 0 .432-1.225"/><path fill="#915431" d="M748.727 392h8.858c.825 0 1.424-.803 1.169-1.587a5.14 5.14 0 0 0-6.652-3.241 9.04 9.04 0 0 0-9.089-4.112 5.75 5.75 0 0 0-10.586-1.989 4.76 4.76 0 0 0-3.52-1.551 4.76 4.76 0 0 0-3.52 1.551 5.751 5.751 0 0 0-10.586 1.989 9.043 9.043 0 0 0-9.089 4.112 5.14 5.14 0 0 0-6.652 3.241c-.254.784.344 1.587 1.169 1.587z"/><path fill="#915431" d="M712.88 386.863a.734.734 0 1 1-1.468 0 .734.734 0 0 1 1.468 0"/><g filter="url(#l)"><circle cx="717" cy="365" r="5" fill="url(#m)"/><mask id="n" width="10" height="8" x="712.032" y="361.812" fill="#000" maskUnits="userSpaceOnUse"><path fill="#fff" d="M712.032 361.812h10v8h-10z"/><path d="M719.063 363.596a2.3 2.3 0 0 0-.678.11 2.1 2.1 0 0 0-.609.312 4 4 0 0 0-.51.461c-.16.165-.321.323-.495.474a2.8 2.8 0 0 0 1.16.381 2.9 2.9 0 0 0 2.275-.739c.303-.276.553-.587.707-.967a2.8 2.8 0 0 0-.973-.594 2.8 2.8 0 0 0-1.129-.153 2.62 2.62 0 0 0-1.557.656 7 7 0 0 0-.417.398q-.202.209-.412.411a5 5 0 0 1-.219.194 3 3 0 0 1-.234.176q-.03.021-.061.04l-.063.039-.064.036q-.032.017-.065.033l-.033.017-.034.015-.067.03q-.069.027-.139.05t-.142.039l-.072.015-.037.007-.036.006a1.93 1.93 0 0 1-1.146-.185 2.04 2.04 0 0 1-.973-1.062l-.008-.021.018-.013a1.86 1.86 0 0 1 .923-.337c.33-.029.666.026.97.156q.228.099.43.245.2.147.366.33c.222.244.398.526.532.825q.102.225.171.462a4 4 0 0 1 .11.479q.036.243.058.487.01.122.02.245.008.122.015.245.028.49.032.979.007.49-.012.98.006-.244.006-.49 0-.244-.006-.49-.01-.489-.041-.978-.008-.123-.018-.244-.01-.123-.023-.244a7 7 0 0 0-.062-.485 4 4 0 0 0-.284-.93 3.1 3.1 0 0 0-.53-.812 2.4 2.4 0 0 0-.362-.322 2 2 0 0 0-.421-.237 2 2 0 0 0-.946-.146c-.32.03-.624.117-.884.307a1.96 1.96 0 0 0 1.21 1.124 1.9 1.9 0 0 0 .845.07l.036-.006.035-.007.069-.014c.046-.013.093-.023.137-.039a2 2 0 0 0 .134-.048l.066-.029.032-.015.032-.016q.032-.016.063-.033l.063-.035.06-.038q.032-.019.06-.039.119-.08.229-.173a4 4 0 0 0 .215-.192c.14-.132.273-.271.409-.409q.202-.209.423-.401a3 3 0 0 1 .478-.338 2.7 2.7 0 0 1 1.117-.33 2.84 2.84 0 0 1 2.146.767l.014.014-.007.018a3 3 0 0 1-.302.549 3 3 0 0 1-.417.467 2.957 2.957 0 0 1-2.315.738 2.8 2.8 0 0 1-1.17-.408l-.018-.011.016-.012c.174-.149.334-.315.496-.478a4.3 4.3 0 0 1 .516-.458c.187-.135.397-.239.617-.307a2.2 2.2 0 0 1 .68-.102"/></mask><path fill="#fff" d="M719.063 363.596a2.3 2.3 0 0 0-.678.11 2.1 2.1 0 0 0-.609.312 4 4 0 0 0-.51.461c-.16.165-.321.323-.495.474a2.8 2.8 0 0 0 1.16.381 2.9 2.9 0 0 0 2.275-.739c.303-.276.553-.587.707-.967a2.8 2.8 0 0 0-.973-.594 2.8 2.8 0 0 0-1.129-.153 2.62 2.62 0 0 0-1.557.656 7 7 0 0 0-.417.398q-.202.209-.412.411a5 5 0 0 1-.219.194 3 3 0 0 1-.234.176q-.03.021-.061.04l-.063.039-.064.036q-.032.017-.065.033l-.033.017-.034.015-.067.03q-.069.027-.139.05t-.142.039l-.072.015-.037.007-.036.006a1.93 1.93 0 0 1-1.146-.185 2.04 2.04 0 0 1-.973-1.062l-.008-.021.018-.013a1.86 1.86 0 0 1 .923-.337c.33-.029.666.026.97.156q.228.099.43.245.2.147.366.33c.222.244.398.526.532.825q.102.225.171.462a4 4 0 0 1 .11.479q.036.243.058.487.01.122.02.245.008.122.015.245.028.49.032.979.007.49-.012.98.006-.244.006-.49 0-.244-.006-.49-.01-.489-.041-.978-.008-.123-.018-.244-.01-.123-.023-.244a7 7 0 0 0-.062-.485 4 4 0 0 0-.284-.93 3.1 3.1 0 0 0-.53-.812 2.4 2.4 0 0 0-.362-.322 2 2 0 0 0-.421-.237 2 2 0 0 0-.946-.146c-.32.03-.624.117-.884.307a1.96 1.96 0 0 0 1.21 1.124 1.9 1.9 0 0 0 .845.07l.036-.006.035-.007.069-.014c.046-.013.093-.023.137-.039a2 2 0 0 0 .134-.048l.066-.029.032-.015.032-.016q.032-.016.063-.033l.063-.035.06-.038q.032-.019.06-.039.119-.08.229-.173a4 4 0 0 0 .215-.192c.14-.132.273-.271.409-.409q.202-.209.423-.401a3 3 0 0 1 .478-.338 2.7 2.7 0 0 1 1.117-.33 2.84 2.84 0 0 1 2.146.767l.014.014-.007.018a3 3 0 0 1-.302.549 3 3 0 0 1-.417.467 2.957 2.957 0 0 1-2.315.738 2.8 2.8 0 0 1-1.17-.408l-.018-.011.016-.012c.174-.149.334-.315.496-.478a4.3 4.3 0 0 1 .516-.458c.187-.135.397-.239.617-.307a2.2 2.2 0 0 1 .68-.102"/><path stroke="#fff" stroke-width=".17" d="M719.063 363.596a2.3 2.3 0 0 0-.678.11 2.1 2.1 0 0 0-.609.312 4 4 0 0 0-.51.461c-.16.165-.321.323-.495.474a2.8 2.8 0 0 0 1.16.381 2.9 2.9 0 0 0 2.275-.739c.303-.276.553-.587.707-.967a2.8 2.8 0 0 0-.973-.594 2.8 2.8 0 0 0-1.129-.153 2.62 2.62 0 0 0-1.557.656 7 7 0 0 0-.417.398q-.202.209-.412.411a5 5 0 0 1-.219.194 3 3 0 0 1-.234.176q-.03.021-.061.04l-.063.039-.064.036q-.032.017-.065.033l-.033.017-.034.015-.067.03q-.069.027-.139.05t-.142.039l-.072.015-.037.007-.036.006a1.93 1.93 0 0 1-1.146-.185 2.04 2.04 0 0 1-.973-1.062l-.008-.021.018-.013a1.86 1.86 0 0 1 .923-.337c.33-.029.666.026.97.156q.228.099.43.245.2.147.366.33c.222.244.398.526.532.825q.102.225.171.462a4 4 0 0 1 .11.479q.036.243.058.487.01.122.02.245.008.122.015.245.028.49.032.979.007.49-.012.98.006-.244.006-.49 0-.244-.006-.49-.01-.489-.041-.978-.008-.123-.018-.244-.01-.123-.023-.244a7 7 0 0 0-.062-.485 4 4 0 0 0-.284-.93 3.1 3.1 0 0 0-.53-.812 2.4 2.4 0 0 0-.362-.322 2 2 0 0 0-.421-.237 2 2 0 0 0-.946-.146c-.32.03-.624.117-.884.307a1.96 1.96 0 0 0 1.21 1.124 1.9 1.9 0 0 0 .845.07l.036-.006.035-.007.069-.014c.046-.013.093-.023.137-.039a2 2 0 0 0 .134-.048l.066-.029.032-.015.032-.016q.032-.016.063-.033l.063-.035.06-.038q.032-.019.06-.039.119-.08.229-.173a4 4 0 0 0 .215-.192c.14-.132.273-.271.409-.409q.202-.209.423-.401a3 3 0 0 1 .478-.338 2.7 2.7 0 0 1 1.117-.33 2.84 2.84 0 0 1 2.146.767l.014.014-.007.018a3 3 0 0 1-.302.549 3 3 0 0 1-.417.467 2.957 2.957 0 0 1-2.315.738 2.8 2.8 0 0 1-1.17-.408l-.018-.011.016-.012c.174-.149.334-.315.496-.478a4.3 4.3 0 0 1 .516-.458c.187-.135.397-.239.617-.307a2.2 2.2 0 0 1 .68-.102Z" mask="url(#n)"/></g><g filter="url(#o)"><circle cx="742" cy="365" r="5" fill="url(#p)"/><mask id="q" width="10" height="8" x="737.032" y="361.812" fill="#000" maskUnits="userSpaceOnUse"><path fill="#fff" d="M737.032 361.812h10v8h-10z"/><path d="M744.063 363.596a2.3 2.3 0 0 0-.678.11 2.1 2.1 0 0 0-.609.312 4 4 0 0 0-.51.461c-.16.165-.321.323-.495.474a2.8 2.8 0 0 0 1.16.381 2.9 2.9 0 0 0 2.275-.739c.303-.276.553-.587.707-.967a2.8 2.8 0 0 0-.973-.594 2.8 2.8 0 0 0-1.129-.153 2.62 2.62 0 0 0-1.557.656 7 7 0 0 0-.417.398q-.202.209-.412.411a5 5 0 0 1-.219.194 3 3 0 0 1-.234.176q-.03.021-.061.04l-.063.039-.064.036q-.032.017-.065.033l-.033.017-.034.015-.067.03q-.069.027-.139.05t-.142.039l-.072.015-.037.007-.036.006a1.93 1.93 0 0 1-1.146-.185 2.04 2.04 0 0 1-.973-1.062l-.008-.021.018-.013a1.86 1.86 0 0 1 .923-.337c.33-.029.666.026.97.156q.228.099.43.245.2.147.366.33c.222.244.398.526.532.825q.102.225.171.462a4 4 0 0 1 .11.479q.036.243.058.487.01.122.02.245.008.122.015.245.028.49.032.979.007.49-.012.98.006-.244.006-.49 0-.244-.006-.49-.01-.489-.041-.978-.008-.123-.018-.244-.01-.123-.023-.244a7 7 0 0 0-.062-.485 4 4 0 0 0-.284-.93 3.1 3.1 0 0 0-.53-.812 2.4 2.4 0 0 0-.362-.322 2 2 0 0 0-.421-.237 2 2 0 0 0-.946-.146c-.32.03-.624.117-.884.307a1.96 1.96 0 0 0 1.21 1.124 1.9 1.9 0 0 0 .845.07l.036-.006.035-.007.069-.014c.046-.013.093-.023.137-.039a2 2 0 0 0 .134-.048l.066-.029.032-.015.032-.016q.032-.016.063-.033l.063-.035.06-.038q.032-.019.06-.039.119-.08.229-.173a4 4 0 0 0 .215-.192c.14-.132.273-.271.409-.409q.202-.209.423-.401a3 3 0 0 1 .478-.338 2.7 2.7 0 0 1 1.117-.33 2.84 2.84 0 0 1 2.146.767l.014.014-.007.018a3 3 0 0 1-.302.549 3 3 0 0 1-.417.467 2.957 2.957 0 0 1-2.315.738 2.8 2.8 0 0 1-1.17-.408l-.018-.011.016-.012c.174-.149.334-.315.496-.478a4.3 4.3 0 0 1 .516-.458c.187-.135.397-.239.617-.307a2.2 2.2 0 0 1 .68-.102"/></mask><path fill="#fff" d="M744.063 363.596a2.3 2.3 0 0 0-.678.11 2.1 2.1 0 0 0-.609.312 4 4 0 0 0-.51.461c-.16.165-.321.323-.495.474a2.8 2.8 0 0 0 1.16.381 2.9 2.9 0 0 0 2.275-.739c.303-.276.553-.587.707-.967a2.8 2.8 0 0 0-.973-.594 2.8 2.8 0 0 0-1.129-.153 2.62 2.62 0 0 0-1.557.656 7 7 0 0 0-.417.398q-.202.209-.412.411a5 5 0 0 1-.219.194 3 3 0 0 1-.234.176q-.03.021-.061.04l-.063.039-.064.036q-.032.017-.065.033l-.033.017-.034.015-.067.03q-.069.027-.139.05t-.142.039l-.072.015-.037.007-.036.006a1.93 1.93 0 0 1-1.146-.185 2.04 2.04 0 0 1-.973-1.062l-.008-.021.018-.013a1.86 1.86 0 0 1 .923-.337c.33-.029.666.026.97.156q.228.099.43.245.2.147.366.33c.222.244.398.526.532.825q.102.225.171.462a4 4 0 0 1 .11.479q.036.243.058.487.01.122.02.245.008.122.015.245.028.49.032.979.007.49-.012.98.006-.244.006-.49 0-.244-.006-.49-.01-.489-.041-.978-.008-.123-.018-.244-.01-.123-.023-.244a7 7 0 0 0-.062-.485 4 4 0 0 0-.284-.93 3.1 3.1 0 0 0-.53-.812 2.4 2.4 0 0 0-.362-.322 2 2 0 0 0-.421-.237 2 2 0 0 0-.946-.146c-.32.03-.624.117-.884.307a1.96 1.96 0 0 0 1.21 1.124 1.9 1.9 0 0 0 .845.07l.036-.006.035-.007.069-.014c.046-.013.093-.023.137-.039a2 2 0 0 0 .134-.048l.066-.029.032-.015.032-.016q.032-.016.063-.033l.063-.035.06-.038q.032-.019.06-.039.119-.08.229-.173a4 4 0 0 0 .215-.192c.14-.132.273-.271.409-.409q.202-.209.423-.401a3 3 0 0 1 .478-.338 2.7 2.7 0 0 1 1.117-.33 2.84 2.84 0 0 1 2.146.767l.014.014-.007.018a3 3 0 0 1-.302.549 3 3 0 0 1-.417.467 2.957 2.957 0 0 1-2.315.738 2.8 2.8 0 0 1-1.17-.408l-.018-.011.016-.012c.174-.149.334-.315.496-.478a4.3 4.3 0 0 1 .516-.458c.187-.135.397-.239.617-.307a2.2 2.2 0 0 1 .68-.102"/><path stroke="#fff" stroke-width=".17" d="M744.063 363.596a2.3 2.3 0 0 0-.678.11 2.1 2.1 0 0 0-.609.312 4 4 0 0 0-.51.461c-.16.165-.321.323-.495.474a2.8 2.8 0 0 0 1.16.381 2.9 2.9 0 0 0 2.275-.739c.303-.276.553-.587.707-.967a2.8 2.8 0 0 0-.973-.594 2.8 2.8 0 0 0-1.129-.153 2.62 2.62 0 0 0-1.557.656 7 7 0 0 0-.417.398q-.202.209-.412.411a5 5 0 0 1-.219.194 3 3 0 0 1-.234.176q-.03.021-.061.04l-.063.039-.064.036q-.032.017-.065.033l-.033.017-.034.015-.067.03q-.069.027-.139.05t-.142.039l-.072.015-.037.007-.036.006a1.93 1.93 0 0 1-1.146-.185 2.04 2.04 0 0 1-.973-1.062l-.008-.021.018-.013a1.86 1.86 0 0 1 .923-.337c.33-.029.666.026.97.156q.228.099.43.245.2.147.366.33c.222.244.398.526.532.825q.102.225.171.462a4 4 0 0 1 .11.479q.036.243.058.487.01.122.02.245.008.122.015.245.028.49.032.979.007.49-.012.98.006-.244.006-.49 0-.244-.006-.49-.01-.489-.041-.978-.008-.123-.018-.244-.01-.123-.023-.244a7 7 0 0 0-.062-.485 4 4 0 0 0-.284-.93 3.1 3.1 0 0 0-.53-.812 2.4 2.4 0 0 0-.362-.322 2 2 0 0 0-.421-.237 2 2 0 0 0-.946-.146c-.32.03-.624.117-.884.307a1.96 1.96 0 0 0 1.21 1.124 1.9 1.9 0 0 0 .845.07l.036-.006.035-.007.069-.014c.046-.013.093-.023.137-.039a2 2 0 0 0 .134-.048l.066-.029.032-.015.032-.016q.032-.016.063-.033l.063-.035.06-.038q.032-.019.06-.039.119-.08.229-.173a4 4 0 0 0 .215-.192c.14-.132.273-.271.409-.409q.202-.209.423-.401a3 3 0 0 1 .478-.338 2.7 2.7 0 0 1 1.117-.33 2.84 2.84 0 0 1 2.146.767l.014.014-.007.018a3 3 0 0 1-.302.549 3 3 0 0 1-.417.467 2.957 2.957 0 0 1-2.315.738 2.8 2.8 0 0 1-1.17-.408l-.018-.011.016-.012c.174-.149.334-.315.496-.478a4.3 4.3 0 0 1 .516-.458c.187-.135.397-.239.617-.307a2.2 2.2 0 0 1 .68-.102Z" mask="url(#q)"/></g><g filter="url(#r)"><circle cx="729" cy="353" r="6" fill="url(#s)"/><mask id="t" width="11" height="9" x="723.239" y="349.375" fill="#000" maskUnits="userSpaceOnUse"><path fill="#fff" d="M723.239 349.375h11v9h-11z"/><path d="M731.476 351.315a2.7 2.7 0 0 0-.813.132 2.6 2.6 0 0 0-.732.374 5 5 0 0 0-.611.554c-.193.197-.385.387-.594.569.423.256.9.404 1.391.457a3.5 3.5 0 0 0 2.731-.887c.363-.332.663-.705.849-1.16a3.4 3.4 0 0 0-1.168-.713 3.4 3.4 0 0 0-1.355-.184 3.16 3.16 0 0 0-1.868.787c-.175.15-.339.313-.502.478s-.324.333-.494.493q-.126.12-.262.233a3.4 3.4 0 0 1-.354.259q-.038.024-.076.046l-.077.044q-.038.022-.078.04l-.04.02q-.02.01-.04.018l-.081.036q-.082.033-.166.06c-.056.019-.114.032-.171.048l-.086.017-.044.009-.044.006a2.346 2.346 0 0 1-1.678-.402 2.45 2.45 0 0 1-.864-1.094l-.01-.025.022-.016a2.23 2.23 0 0 1 1.108-.404c.395-.035.799.032 1.164.187q.273.119.515.294c.16.116.306.251.44.396.266.293.477.631.638.991a4.5 4.5 0 0 1 .337 1.128q.043.292.069.585.014.147.024.294.011.146.019.293a26 26 0 0 1 .024 2.352 23 23 0 0 0 0-1.176 26 26 0 0 0-.05-1.174q-.01-.147-.021-.293l-.027-.293a9 9 0 0 0-.075-.582 4.7 4.7 0 0 0-.341-1.116 3.7 3.7 0 0 0-.636-.974 2.669 2.669 0 0 0-.939-.671 2.36 2.36 0 0 0-1.135-.175c-.384.036-.75.141-1.062.368.169.425.467.783.841 1.045a2.3 2.3 0 0 0 .612.304 2.3 2.3 0 0 0 1.014.084l.042-.007.042-.008.084-.017c.055-.015.111-.028.164-.047.055-.016.108-.038.161-.058l.117-.052.039-.02q.038-.019.076-.039l.074-.042.073-.046a3.225 3.225 0 0 0 .346-.254q.134-.11.258-.23c.168-.158.328-.326.492-.491.163-.166.329-.33.507-.482q.133-.115.276-.217.143-.103.298-.188a3.2 3.2 0 0 1 1.34-.396c.468-.031.942.031 1.384.19.442.158.849.409 1.191.73l.017.017-.009.021q-.072.175-.162.34a3.3 3.3 0 0 1-.435.613 3.51 3.51 0 0 1-3.043 1.152 3.4 3.4 0 0 1-1.405-.489l-.02-.013.018-.015c.209-.179.401-.377.596-.573a5 5 0 0 1 .619-.55 2.6 2.6 0 0 1 1.143-.462q.206-.03.413-.029"/></mask><path fill="#fff" d="M731.476 351.315a2.7 2.7 0 0 0-.813.132 2.6 2.6 0 0 0-.732.374 5 5 0 0 0-.611.554c-.193.197-.385.387-.594.569.423.256.9.404 1.391.457a3.5 3.5 0 0 0 2.731-.887c.363-.332.663-.705.849-1.16a3.4 3.4 0 0 0-1.168-.713 3.4 3.4 0 0 0-1.355-.184 3.16 3.16 0 0 0-1.868.787c-.175.15-.339.313-.502.478s-.324.333-.494.493q-.126.12-.262.233a3.4 3.4 0 0 1-.354.259q-.038.024-.076.046l-.077.044q-.038.022-.078.04l-.04.02q-.02.01-.04.018l-.081.036q-.082.033-.166.06c-.056.019-.114.032-.171.048l-.086.017-.044.009-.044.006a2.346 2.346 0 0 1-1.678-.402 2.45 2.45 0 0 1-.864-1.094l-.01-.025.022-.016a2.23 2.23 0 0 1 1.108-.404c.395-.035.799.032 1.164.187q.273.119.515.294c.16.116.306.251.44.396.266.293.477.631.638.991a4.5 4.5 0 0 1 .337 1.128q.043.292.069.585.014.147.024.294.011.146.019.293a26 26 0 0 1 .024 2.352 23 23 0 0 0 0-1.176 26 26 0 0 0-.05-1.174q-.01-.147-.021-.293l-.027-.293a9 9 0 0 0-.075-.582 4.7 4.7 0 0 0-.341-1.116 3.7 3.7 0 0 0-.636-.974 2.669 2.669 0 0 0-.939-.671 2.36 2.36 0 0 0-1.135-.175c-.384.036-.75.141-1.062.368.169.425.467.783.841 1.045a2.3 2.3 0 0 0 .612.304 2.3 2.3 0 0 0 1.014.084l.042-.007.042-.008.084-.017c.055-.015.111-.028.164-.047.055-.016.108-.038.161-.058l.117-.052.039-.02q.038-.019.076-.039l.074-.042.073-.046a3.225 3.225 0 0 0 .346-.254q.134-.11.258-.23c.168-.158.328-.326.492-.491.163-.166.329-.33.507-.482q.133-.115.276-.217.143-.103.298-.188a3.2 3.2 0 0 1 1.34-.396c.468-.031.942.031 1.384.19.442.158.849.409 1.191.73l.017.017-.009.021q-.072.175-.162.34a3.3 3.3 0 0 1-.435.613 3.51 3.51 0 0 1-3.043 1.152 3.4 3.4 0 0 1-1.405-.489l-.02-.013.018-.015c.209-.179.401-.377.596-.573a5 5 0 0 1 .619-.55 2.6 2.6 0 0 1 1.143-.462q.206-.03.413-.029"/><path stroke="#fff" stroke-width=".205" d="M731.476 351.315a2.7 2.7 0 0 0-.813.132 2.6 2.6 0 0 0-.732.374 5 5 0 0 0-.611.554c-.193.197-.385.387-.594.569.423.256.9.404 1.391.457a3.5 3.5 0 0 0 2.731-.887c.363-.332.663-.705.849-1.16a3.4 3.4 0 0 0-1.168-.713 3.4 3.4 0 0 0-1.355-.184 3.16 3.16 0 0 0-1.868.787c-.175.15-.339.313-.502.478s-.324.333-.494.493q-.126.12-.262.233a3.4 3.4 0 0 1-.354.259q-.038.024-.076.046l-.077.044q-.038.022-.078.04l-.04.02q-.02.01-.04.018l-.081.036q-.082.033-.166.06c-.056.019-.114.032-.171.048l-.086.017-.044.009-.044.006a2.346 2.346 0 0 1-1.678-.402 2.45 2.45 0 0 1-.864-1.094l-.01-.025.022-.016a2.23 2.23 0 0 1 1.108-.404c.395-.035.799.032 1.164.187q.273.119.515.294c.16.116.306.251.44.396.266.293.477.631.638.991a4.5 4.5 0 0 1 .337 1.128q.043.292.069.585.014.147.024.294.011.146.019.293a26 26 0 0 1 .024 2.352 23 23 0 0 0 0-1.176 26 26 0 0 0-.05-1.174q-.01-.147-.021-.293l-.027-.293a9 9 0 0 0-.075-.582 4.7 4.7 0 0 0-.341-1.116 3.7 3.7 0 0 0-.636-.974 2.669 2.669 0 0 0-.939-.671 2.36 2.36 0 0 0-1.135-.175c-.384.036-.75.141-1.062.368.169.425.467.783.841 1.045a2.3 2.3 0 0 0 .612.304 2.3 2.3 0 0 0 1.014.084l.042-.007.042-.008.084-.017c.055-.015.111-.028.164-.047.055-.016.108-.038.161-.058l.117-.052.039-.02q.038-.019.076-.039l.074-.042.073-.046a3.225 3.225 0 0 0 .346-.254q.134-.11.258-.23c.168-.158.328-.326.492-.491.163-.166.329-.33.507-.482q.133-.115.276-.217.143-.103.298-.188a3.2 3.2 0 0 1 1.34-.396c.468-.031.942.031 1.384.19.442.158.849.409 1.191.73l.017.017-.009.021q-.072.175-.162.34a3.3 3.3 0 0 1-.435.613 3.51 3.51 0 0 1-3.043 1.152 3.4 3.4 0 0 1-1.405-.489l-.02-.013.018-.015c.209-.179.401-.377.596-.573a5 5 0 0 1 .619-.55 2.6 2.6 0 0 1 1.143-.462q.206-.03.413-.029Z" mask="url(#t)"/></g></g><g filter="url(#u)"><circle cx="729" cy="544" r="55" fill="#fff" fill-opacity=".64" shape-rendering="crispEdges"/></g><g filter="url(#v)"><circle cx="729" cy="544" r="46" fill="#fff"/></g><g clip-path="url(#w)"><path fill="url(#x)" d="m748.568 531.598-.898-8.936a.51.51 0 0 0-.636-.442l-8.707 2.265a.51.51 0 0 0-.162.911l2.671 1.788s-1.289 12.246-27.539 15.311v.567c5.782.032 22.98.306 32.461-12.421l2.011 1.426a.51.51 0 0 0 .799-.469"/><path fill="#FAE15A" d="M714 567.438h-12.188a.937.937 0 0 0-.937.937v3.75c0 .518.42.937.937.937H714a.937.937 0 0 0 .938-.937v-3.75a.937.937 0 0 0-.938-.937"/><path fill="#F5C115" d="M714.469 569.312h-11.25a.47.47 0 0 0-.469.469v2.813c0 .259.21.468.469.468h11.25a.47.47 0 0 0 .469-.468v-2.813a.47.47 0 0 0-.469-.469"/><path fill="#EFA400" d="M704.625 570.25h1.406v2.812h-1.406zM709.781 570.25h1.407v2.812h-1.407z"/><path fill="#FAE15A" d="M714 561.812h-12.188a.94.94 0 0 0-.937.938v3.75c0 .518.42.938.937.938H714c.518 0 .938-.42.938-.938v-3.75a.94.94 0 0 0-.938-.938"/><path fill="#F5C115" d="M714.469 563.688h-11.25a.47.47 0 0 0-.469.468v2.813c0 .259.21.469.469.469h11.25c.259 0 .469-.21.469-.469v-2.813a.47.47 0 0 0-.469-.468"/><path fill="#EFA400" d="M704.625 564.625h1.406v2.813h-1.406zM709.781 564.625h1.407v2.813h-1.407z"/><path fill="#FAE15A" d="M728.062 567.438h-12.187a.936.936 0 0 0-.937.937v3.75c0 .518.419.937.937.937h12.187a.937.937 0 0 0 .938-.937v-3.75a.937.937 0 0 0-.938-.937"/><path fill="#F5C115" d="M728.531 569.312h-11.25a.47.47 0 0 0-.469.469v2.813c0 .259.21.468.469.468h11.25a.47.47 0 0 0 .469-.468v-2.813a.47.47 0 0 0-.469-.469"/><path fill="#EFA400" d="M718.688 570.25h1.406v2.812h-1.406zM723.844 570.25h1.406v2.812h-1.406z"/><path fill="#FAE15A" d="M728.062 561.812h-12.187a.937.937 0 0 0-.937.938v3.75c0 .518.419.938.937.938h12.187c.518 0 .938-.42.938-.938v-3.75a.94.94 0 0 0-.938-.938"/><path fill="#F5C115" d="M728.531 563.688h-11.25a.47.47 0 0 0-.469.468v2.813c0 .259.21.469.469.469h11.25c.259 0 .469-.21.469-.469v-2.813a.47.47 0 0 0-.469-.468"/><path fill="#EFA400" d="M718.688 564.625h1.406v2.813h-1.406zM723.844 564.625h1.406v2.813h-1.406z"/><path fill="#FAE15A" d="M728.062 556.188h-12.187a.936.936 0 0 0-.937.937v3.75c0 .518.419.937.937.937h12.187a.937.937 0 0 0 .938-.937v-3.75a.937.937 0 0 0-.938-.937"/><path fill="#F5C115" d="M728.531 558.062h-11.25a.47.47 0 0 0-.469.469v2.813c0 .259.21.468.469.468h11.25a.47.47 0 0 0 .469-.468v-2.813a.47.47 0 0 0-.469-.469"/><path fill="#EFA400" d="M718.688 559h1.406v2.812h-1.406zM723.844 559h1.406v2.812h-1.406z"/><path fill="#FAE15A" d="M742.125 567.438h-12.187a.937.937 0 0 0-.938.937v3.75c0 .518.42.937.938.937h12.187a.936.936 0 0 0 .937-.937v-3.75a.936.936 0 0 0-.937-.937"/><path fill="#F5C115" d="M742.594 569.312h-11.25a.47.47 0 0 0-.469.469v2.813c0 .259.21.468.469.468h11.25a.467.467 0 0 0 .468-.468v-2.813a.47.47 0 0 0-.468-.469"/><path fill="#EFA400" d="M732.75 570.25h1.406v2.812h-1.406zM737.906 570.25h1.406v2.812h-1.406z"/><path fill="#FAE15A" d="M742.125 561.812h-12.187a.94.94 0 0 0-.938.938v3.75c0 .518.42.938.938.938h12.187c.518 0 .937-.42.937-.938v-3.75a.937.937 0 0 0-.937-.938"/><path fill="#F5C115" d="M742.594 563.688h-11.25a.47.47 0 0 0-.469.468v2.813c0 .259.21.469.469.469h11.25c.259 0 .468-.21.468-.469v-2.813a.467.467 0 0 0-.468-.468"/><path fill="#EFA400" d="M732.75 564.625h1.406v2.813h-1.406zM737.906 564.625h1.406v2.813h-1.406z"/><path fill="#FAE15A" d="M742.125 556.188h-12.187a.937.937 0 0 0-.938.937v3.75c0 .518.42.937.938.937h12.187a.936.936 0 0 0 .937-.937v-3.75a.936.936 0 0 0-.937-.937"/><path fill="#F5C115" d="M742.594 558.062h-11.25a.47.47 0 0 0-.469.469v2.813c0 .259.21.468.469.468h11.25a.467.467 0 0 0 .468-.468v-2.813a.47.47 0 0 0-.468-.469"/><path fill="#EFA400" d="M732.75 559h1.406v2.812h-1.406zM737.906 559h1.406v2.812h-1.406z"/><path fill="#FAE15A" d="M742.125 550.562h-12.187a.94.94 0 0 0-.938.938v3.75c0 .518.42.938.938.938h12.187c.518 0 .937-.42.937-.938v-3.75a.937.937 0 0 0-.937-.938"/><path fill="#F5C115" d="M742.594 552.438h-11.25a.47.47 0 0 0-.469.468v2.813c0 .259.21.469.469.469h11.25c.259 0 .468-.21.468-.469v-2.813a.467.467 0 0 0-.468-.468"/><path fill="#EFA400" d="M732.75 553.375h1.406v2.813h-1.406zM737.906 553.375h1.406v2.813h-1.406z"/><path fill="#FAE15A" d="M756.188 567.438H744a.937.937 0 0 0-.938.937v3.75c0 .518.42.937.938.937h12.188a.937.937 0 0 0 .937-.937v-3.75a.937.937 0 0 0-.937-.937"/><path fill="#F5C115" d="M756.656 569.312h-11.25a.47.47 0 0 0-.468.469v2.813c0 .259.209.468.468.468h11.25a.47.47 0 0 0 .469-.468v-2.813a.47.47 0 0 0-.469-.469"/><path fill="#EFA400" d="M746.812 570.25h1.407v2.812h-1.407zM751.969 570.25h1.406v2.812h-1.406z"/><path fill="#FAE15A" d="M756.188 561.812H744a.94.94 0 0 0-.938.938v3.75c0 .518.42.938.938.938h12.188c.517 0 .937-.42.937-.938v-3.75a.94.94 0 0 0-.937-.938"/><path fill="#F5C115" d="M756.656 563.688h-11.25a.467.467 0 0 0-.468.468v2.813c0 .259.209.469.468.469h11.25c.259 0 .469-.21.469-.469v-2.813a.47.47 0 0 0-.469-.468"/><path fill="#EFA400" d="M746.812 564.625h1.407v2.813h-1.407zM751.969 564.625h1.406v2.813h-1.406z"/><path fill="#FAE15A" d="M756.188 556.188H744a.937.937 0 0 0-.938.937v3.75c0 .518.42.937.938.937h12.188a.937.937 0 0 0 .937-.937v-3.75a.937.937 0 0 0-.937-.937"/><path fill="#F5C115" d="M756.656 558.062h-11.25a.47.47 0 0 0-.468.469v2.813c0 .259.209.468.468.468h11.25a.47.47 0 0 0 .469-.468v-2.813a.47.47 0 0 0-.469-.469"/><path fill="#EFA400" d="M746.812 559h1.407v2.812h-1.407zM751.969 559h1.406v2.812h-1.406z"/><path fill="#FAE15A" d="M756.188 550.562H744a.94.94 0 0 0-.938.938v3.75c0 .518.42.938.938.938h12.188c.517 0 .937-.42.937-.938v-3.75a.94.94 0 0 0-.937-.938"/><path fill="#F5C115" d="M756.656 552.438h-11.25a.467.467 0 0 0-.468.468v2.813c0 .259.209.469.468.469h11.25c.259 0 .469-.21.469-.469v-2.813a.47.47 0 0 0-.469-.468"/><path fill="#EFA400" d="M746.812 553.375h1.407v2.813h-1.407zM751.969 553.375h1.406v2.813h-1.406z"/><path fill="#FAE15A" d="M756.188 544.938H744a.937.937 0 0 0-.938.937v3.75c0 .518.42.937.938.937h12.188a.937.937 0 0 0 .937-.937v-3.75a.937.937 0 0 0-.937-.937"/><path fill="#F5C115" d="M756.656 546.812h-11.25a.47.47 0 0 0-.468.469v2.813c0 .259.209.468.468.468h11.25a.47.47 0 0 0 .469-.468v-2.813a.47.47 0 0 0-.469-.469"/><path fill="#EFA400" d="M746.812 547.75h1.407v2.812h-1.407zM751.969 547.75h1.406v2.812h-1.406z"/><path fill="#FAE15A" d="M756.188 539.312H744a.94.94 0 0 0-.938.938V544c0 .518.42.938.938.938h12.188c.517 0 .937-.42.937-.938v-3.75a.94.94 0 0 0-.937-.938"/><path fill="#F5C115" d="M756.656 541.188h-11.25a.467.467 0 0 0-.468.468v2.813c0 .259.209.469.468.469h11.25c.259 0 .469-.21.469-.469v-2.813a.47.47 0 0 0-.469-.468"/><path fill="#EFA400" d="M746.812 542.125h1.407v2.813h-1.407zM751.969 542.125h1.406v2.813h-1.406z"/><g filter="url(#y)"><circle cx="712" cy="541" r="12" fill="url(#z)"/><mask id="A" width="21" height="16" x="701.479" y="534.754" fill="#000" maskUnits="userSpaceOnUse"><path fill="#fff" d="M701.479 534.754h21v16h-21z"/><path d="M716.951 537.634a6 6 0 0 0-.823.069q-.409.067-.802.195a5.2 5.2 0 0 0-1.463.749c-.445.324-.837.714-1.223 1.107-.386.394-.77.775-1.189 1.138.846.512 1.802.807 2.784.914a7 7 0 0 0 2.922-.301 6.9 6.9 0 0 0 2.538-1.473c.728-.663 1.327-1.41 1.698-2.321a6.75 6.75 0 0 0-2.335-1.425 6.7 6.7 0 0 0-2.709-.368 6.5 6.5 0 0 0-1.351.247c-.44.132-.865.31-1.266.532q-.3.167-.58.368a8 8 0 0 0-.541.427c-.349.3-.677.626-1.002.956-.326.33-.649.665-.988.985q-.255.242-.524.466-.27.226-.562.423-.073.05-.148.097-.074.047-.15.092l-.154.087c-.051.029-.105.053-.157.081l-.079.039-.081.037q-.08.036-.162.07c-.11.043-.22.087-.333.12-.111.039-.227.065-.34.096l-.174.035-.087.018-.088.013a4.5 4.5 0 0 1-.705.049 4.7 4.7 0 0 1-2.651-.855 4.9 4.9 0 0 1-1.728-2.187l-.019-.05.043-.031a4.46 4.46 0 0 1 2.216-.809 4.9 4.9 0 0 1 2.327.373c.365.156.709.356 1.03.588.32.234.613.503.88.793a7.5 7.5 0 0 1 1.278 1.981q.243.54.41 1.107a8.721 8.721 0 0 1 .262 1.151q.089.584.14 1.17c.019.195.032.391.048.586.012.196.027.392.037.587a51 51 0 0 1 .047 4.704 46 46 0 0 0 .001-2.352 51 51 0 0 0-.1-2.349q-.018-.292-.043-.586c-.018-.195-.032-.39-.054-.585a18 18 0 0 0-.15-1.163 9 9 0 0 0-.681-2.233 7.4 7.4 0 0 0-1.272-1.948 6 6 0 0 0-.868-.773 5.3 5.3 0 0 0-1.011-.57 4.8 4.8 0 0 0-2.27-.35c-.768.074-1.498.283-2.122.737.338.85.933 1.566 1.681 2.091q.282.195.589.349a4.5 4.5 0 0 0 1.981.474q.344.003.682-.048l.084-.013.084-.017.168-.035c.11-.03.221-.055.329-.093.109-.033.215-.076.321-.116q.08-.034.157-.069l.078-.036.076-.038c.051-.027.103-.05.152-.079l.149-.085q.074-.044.147-.09.073-.045.143-.094.285-.193.549-.415c.177-.146.348-.302.516-.46.336-.317.656-.652.982-.983a17 17 0 0 1 1.014-.963q.267-.229.553-.435.287-.204.595-.376a6.55 6.55 0 0 1 2.681-.791 6.8 6.8 0 0 1 2.768.38 6.9 6.9 0 0 1 2.382 1.46l.035.033-.018.044a8 8 0 0 1-.325.679 7 7 0 0 1-.4.638 7 7 0 0 1-.469.589 7.049 7.049 0 0 1-3.12 2.016 7.1 7.1 0 0 1-2.967.287 6.8 6.8 0 0 1-2.809-.979l-.042-.025.037-.031c.419-.356.802-.754 1.191-1.145.39-.39.789-.778 1.24-1.1a5.2 5.2 0 0 1 1.479-.738 5.3 5.3 0 0 1 1.631-.244"/></mask><path fill="#fff" d="M716.951 537.634a6 6 0 0 0-.823.069q-.409.067-.802.195a5.2 5.2 0 0 0-1.463.749c-.445.324-.837.714-1.223 1.107-.386.394-.77.775-1.189 1.138.846.512 1.802.807 2.784.914a7 7 0 0 0 2.922-.301 6.9 6.9 0 0 0 2.538-1.473c.728-.663 1.327-1.41 1.698-2.321a6.75 6.75 0 0 0-2.335-1.425 6.7 6.7 0 0 0-2.709-.368 6.5 6.5 0 0 0-1.351.247c-.44.132-.865.31-1.266.532q-.3.167-.58.368a8 8 0 0 0-.541.427c-.349.3-.677.626-1.002.956-.326.33-.649.665-.988.985q-.255.242-.524.466-.27.226-.562.423-.073.05-.148.097-.074.047-.15.092l-.154.087c-.051.029-.105.053-.157.081l-.079.039-.081.037q-.08.036-.162.07c-.11.043-.22.087-.333.12-.111.039-.227.065-.34.096l-.174.035-.087.018-.088.013a4.5 4.5 0 0 1-.705.049 4.7 4.7 0 0 1-2.651-.855 4.9 4.9 0 0 1-1.728-2.187l-.019-.05.043-.031a4.46 4.46 0 0 1 2.216-.809 4.9 4.9 0 0 1 2.327.373c.365.156.709.356 1.03.588.32.234.613.503.88.793a7.5 7.5 0 0 1 1.278 1.981q.243.54.41 1.107a8.721 8.721 0 0 1 .262 1.151q.089.584.14 1.17c.019.195.032.391.048.586.012.196.027.392.037.587a51 51 0 0 1 .047 4.704 46 46 0 0 0 .001-2.352 51 51 0 0 0-.1-2.349q-.018-.292-.043-.586c-.018-.195-.032-.39-.054-.585a18 18 0 0 0-.15-1.163 9 9 0 0 0-.681-2.233 7.4 7.4 0 0 0-1.272-1.948 6 6 0 0 0-.868-.773 5.3 5.3 0 0 0-1.011-.57 4.8 4.8 0 0 0-2.27-.35c-.768.074-1.498.283-2.122.737.338.85.933 1.566 1.681 2.091q.282.195.589.349a4.5 4.5 0 0 0 1.981.474q.344.003.682-.048l.084-.013.084-.017.168-.035c.11-.03.221-.055.329-.093.109-.033.215-.076.321-.116q.08-.034.157-.069l.078-.036.076-.038c.051-.027.103-.05.152-.079l.149-.085q.074-.044.147-.09.073-.045.143-.094.285-.193.549-.415c.177-.146.348-.302.516-.46.336-.317.656-.652.982-.983a17 17 0 0 1 1.014-.963q.267-.229.553-.435.287-.204.595-.376a6.55 6.55 0 0 1 2.681-.791 6.8 6.8 0 0 1 2.768.38 6.9 6.9 0 0 1 2.382 1.46l.035.033-.018.044a8 8 0 0 1-.325.679 7 7 0 0 1-.4.638 7 7 0 0 1-.469.589 7.049 7.049 0 0 1-3.12 2.016 7.1 7.1 0 0 1-2.967.287 6.8 6.8 0 0 1-2.809-.979l-.042-.025.037-.031c.419-.356.802-.754 1.191-1.145.39-.39.789-.778 1.24-1.1a5.2 5.2 0 0 1 1.479-.738 5.3 5.3 0 0 1 1.631-.244"/><path stroke="#fff" stroke-width=".409" d="M716.951 537.634a6 6 0 0 0-.823.069q-.409.067-.802.195a5.2 5.2 0 0 0-1.463.749c-.445.324-.837.714-1.223 1.107-.386.394-.77.775-1.189 1.138.846.512 1.802.807 2.784.914a7 7 0 0 0 2.922-.301 6.9 6.9 0 0 0 2.538-1.473c.728-.663 1.327-1.41 1.698-2.321a6.75 6.75 0 0 0-2.335-1.425 6.7 6.7 0 0 0-2.709-.368 6.5 6.5 0 0 0-1.351.247c-.44.132-.865.31-1.266.532q-.3.167-.58.368a8 8 0 0 0-.541.427c-.349.3-.677.626-1.002.956-.326.33-.649.665-.988.985q-.255.242-.524.466-.27.226-.562.423-.073.05-.148.097-.074.047-.15.092l-.154.087c-.051.029-.105.053-.157.081l-.079.039-.081.037q-.08.036-.162.07c-.11.043-.22.087-.333.12-.111.039-.227.065-.34.096l-.174.035-.087.018-.088.013a4.5 4.5 0 0 1-.705.049 4.7 4.7 0 0 1-2.651-.855 4.9 4.9 0 0 1-1.728-2.187l-.019-.05.043-.031a4.46 4.46 0 0 1 2.216-.809 4.9 4.9 0 0 1 2.327.373c.365.156.709.356 1.03.588.32.234.613.503.88.793a7.5 7.5 0 0 1 1.278 1.981q.243.54.41 1.107a8.721 8.721 0 0 1 .262 1.151q.089.584.14 1.17c.019.195.032.391.048.586.012.196.027.392.037.587a51 51 0 0 1 .047 4.704 46 46 0 0 0 .001-2.352 51 51 0 0 0-.1-2.349q-.018-.292-.043-.586c-.018-.195-.032-.39-.054-.585a18 18 0 0 0-.15-1.163 9 9 0 0 0-.681-2.233 7.4 7.4 0 0 0-1.272-1.948 6 6 0 0 0-.868-.773 5.3 5.3 0 0 0-1.011-.57 4.8 4.8 0 0 0-2.27-.35c-.768.074-1.498.283-2.122.737.338.85.933 1.566 1.681 2.091q.282.195.589.349a4.5 4.5 0 0 0 1.981.474q.344.003.682-.048l.084-.013.084-.017.168-.035c.11-.03.221-.055.329-.093.109-.033.215-.076.321-.116q.08-.034.157-.069l.078-.036.076-.038c.051-.027.103-.05.152-.079l.149-.085q.074-.044.147-.09.073-.045.143-.094.285-.193.549-.415c.177-.146.348-.302.516-.46.336-.317.656-.652.982-.983a17 17 0 0 1 1.014-.963q.267-.229.553-.435.287-.204.595-.376a6.55 6.55 0 0 1 2.681-.791 6.8 6.8 0 0 1 2.768.38 6.9 6.9 0 0 1 2.382 1.46l.035.033-.018.044a8 8 0 0 1-.325.679 7 7 0 0 1-.4.638 7 7 0 0 1-.469.589 7.049 7.049 0 0 1-3.12 2.016 7.1 7.1 0 0 1-2.967.287 6.8 6.8 0 0 1-2.809-.979l-.042-.025.037-.031c.419-.356.802-.754 1.191-1.145.39-.39.789-.778 1.24-1.1a5.2 5.2 0 0 1 1.479-.738 5.3 5.3 0 0 1 1.631-.244Z" mask="url(#A)"/></g></g><g filter="url(#B)"><circle cx="338" cy="362" r="55" fill="#fff" fill-opacity=".64" shape-rendering="crispEdges"/></g><g filter="url(#C)"><circle cx="338" cy="362" r="46" fill="#fff"/></g><g clip-path="url(#D)"><path fill="#DEDEE6" d="M333.862 357.864c0 6.284-5.094 11.379-11.379 11.379s-11.379-5.095-11.379-11.379c0-6.285 5.094-11.38 11.379-11.38s11.379 5.095 11.379 11.38"/><path fill="#F3F3FB" d="M331.794 357.861c0 5.142-4.169 9.31-9.311 9.31a9.31 9.31 0 0 1-9.31-9.31 9.31 9.31 0 0 1 9.31-9.31c5.142 0 9.311 4.168 9.311 9.31"/><path fill="#DEDEE6" d="M368 343.379c0 6.285-5.095 11.38-11.379 11.38-6.285 0-11.38-5.095-11.38-11.38 0-6.284 5.095-11.379 11.38-11.379 6.284 0 11.379 5.095 11.379 11.379"/><path fill="#F3F3FB" d="M365.931 343.381a9.31 9.31 0 0 1-9.31 9.31 9.31 9.31 0 0 1-9.31-9.31c0-5.142 4.168-9.311 9.31-9.311s9.31 4.169 9.31 9.311"/><path fill="#DEDEE6" d="M354.552 380.621c0 6.285-5.095 11.38-11.38 11.38-6.284 0-11.379-5.095-11.379-11.38 0-6.284 5.095-11.379 11.379-11.379 6.285 0 11.38 5.095 11.38 11.379"/><path fill="#F3F3FB" d="M352.483 380.619a9.31 9.31 0 0 1-9.31 9.31c-5.142 0-9.311-4.168-9.311-9.31s4.169-9.31 9.311-9.31a9.31 9.31 0 0 1 9.31 9.31"/><path fill="#DEDEE6" d="M363.863 371.311a4.12 4.12 0 0 1-3.466-1.883 4.137 4.137 0 0 1 3.466-6.393 4.136 4.136 0 0 1 4.137 4.138 4.136 4.136 0 0 1-4.137 4.138"/><path fill="#FF4755" d="M363.842 352.184a11.4 11.4 0 0 1-7.221 2.576c-1.365 0-2.669-.238-3.869-.672v-.011a11.3 11.3 0 0 1-3.352-1.893 6.22 6.22 0 0 1 6.187-5.7h2.069c3.248 0 5.927 2.514 6.186 5.7"/><path fill="#FF4755" d="M360.758 342.345a4.138 4.138 0 1 1-8.276 0 4.138 4.138 0 0 1 8.276 0"/><path fill="url(#E)" d="M343.172 391.999c-2.752 0-5.276-.973-7.241-2.597a6.22 6.22 0 0 1 6.186-5.679h2.069c3.248 0 5.927 2.514 6.186 5.699l.011.011a11.36 11.36 0 0 1-7.211 2.566"/><path fill="url(#F)" d="M347.29 379.587a4.138 4.138 0 1 1-8.277 0 4.138 4.138 0 0 1 8.277 0"/><path fill="#DEDEE6" d="M336.965 332a4.137 4.137 0 0 1 4.138 4.138c0 .507-.093.983-.259 1.427a4.13 4.13 0 0 1-3.879 2.711 4.137 4.137 0 0 1-4.138-4.138 4.137 4.137 0 0 1 4.138-4.138"/><path fill="#5DBCD9" d="M322.483 369.241c-2.007 0-3.89-.518-5.524-1.428a10.7 10.7 0 0 1-1.718-1.169c.269-3.176 2.949-5.679 6.186-5.679h2.069a6.22 6.22 0 0 1 6.187 5.7l.01.01a11.36 11.36 0 0 1-7.21 2.566"/><path fill="#5DBCD9" d="M326.6 356.829a4.138 4.138 0 1 1-8.277 0 4.138 4.138 0 0 1 8.277 0"/><path fill="#DEDEE6" d="M321.448 389.932a4.136 4.136 0 0 1-4.137-4.138 4.136 4.136 0 1 1 8.275 0 4.137 4.137 0 0 1-4.138 4.138M312.138 372.344c.724 0 1.417.186 2.007.527a4.13 4.13 0 0 1 2.131 3.611 4.137 4.137 0 0 1-4.138 4.138 4.137 4.137 0 0 1-4.138-4.138 4.137 4.137 0 0 1 4.138-4.138M312.138 332a4.137 4.137 0 0 1 4.138 4.138 4.1 4.1 0 0 1-2.359 3.724 4 4 0 0 1-1.779.414 4.137 4.137 0 0 1-4.138-4.138 4.137 4.137 0 0 1 4.138-4.138"/><path fill="#45639C" d="m312.983 340.307 1.869-.889 3.672 7.717-1.868.889zM313.239 372.37l2.814-5.058 1.808 1.006-2.814 5.058zM340.487 338.536l.717-1.942 5.1 1.883-.717 1.942zM346.071 369.565l5.705-15.831 1.945.701-5.704 15.831zM352.144 373.556l7.688-4.994 1.127 1.737-7.688 4.993zM329.371 366.981l1.532-1.391 5.379 5.918-1.531 1.392zM325.231 383.824l6.631-1.574.477 2.012-6.63 1.574zM332.559 352.46l13.181-5.585.807 1.905-13.181 5.584z"/></g><g filter="url(#G)"><circle cx="338" cy="547" r="55" fill="#fff" fill-opacity=".64" shape-rendering="crispEdges"/></g><g filter="url(#H)"><circle cx="338" cy="547" r="46" fill="#fff"/></g><g clip-path="url(#I)"><path fill="url(#J)" d="M325 568a8 8 0 1 1-16 0c0-5.333 8-12 8-12s8 6.667 8 12"/><path fill="#B9BFCC" d="M340.01 521h4v8h-4z"/><path fill="#CCD0DA" d="M363 536.998v8h-8.622a12.999 12.999 0 0 1-24.74 0H322a1 1 0 0 0-1 1v7h-8v-11a5 5 0 0 1 5-5h11.638a13 13 0 0 1 12.37-9.002 12.996 12.996 0 0 1 12.37 9.002z"/><path fill="#295474" d="M322 552h-10a1 1 0 0 0-1 1v2a1 1 0 0 0 1 1h10a1 1 0 0 0 1-1v-2a1 1 0 0 0-1-1M348.008 518h-12a1 1 0 0 0-1 1v2a1 1 0 0 0 1 1h12a1 1 0 0 0 1-1v-2a1 1 0 0 0-1-1M365 535h-2a2 2 0 0 0-2 2v8a2 2 0 0 0 2 2h2a2 2 0 0 0 2-2v-8a2 2 0 0 0-2-2"/><g filter="url(#K)"><circle cx="342" cy="541" r="10" fill="url(#L)"/><mask id="M" width="18" height="14" x="333.064" y="535.629" fill="#000" maskUnits="userSpaceOnUse"><path fill="#fff" d="M333.064 535.629h18v14h-18z"/><path d="M346.125 538.196q-.345.003-.686.057-.34.056-.668.163a4.3 4.3 0 0 0-1.22.623c-.37.271-.697.596-1.019.923-.321.329-.641.646-.99.949a5.65 5.65 0 0 0 2.319.761 5.84 5.84 0 0 0 2.436-.25 5.8 5.8 0 0 0 2.115-1.228c.606-.553 1.106-1.175 1.415-1.934a5.6 5.6 0 0 0-1.946-1.188 5.6 5.6 0 0 0-2.258-.306 5.3 5.3 0 0 0-2.181.648 5 5 0 0 0-.483.307q-.233.168-.451.356c-.291.25-.564.522-.835.797s-.54.554-.823.821a9 9 0 0 1-.437.388q-.224.188-.468.353-.06.041-.123.08-.062.04-.126.077l-.128.072c-.042.025-.087.045-.131.068l-.066.033q-.034.016-.067.03-.067.031-.135.059c-.092.035-.183.072-.277.1-.093.032-.189.054-.284.08l-.145.029-.072.015-.073.011a4 4 0 0 1-.588.041 3.93 3.93 0 0 1-2.21-.713 4.07 4.07 0 0 1-1.439-1.822l-.017-.042.037-.026a3.7 3.7 0 0 1 1.846-.674 4.1 4.1 0 0 1 1.94.311c.303.13.591.297.858.49.267.194.511.419.733.661a6.3 6.3 0 0 1 1.065 1.651 7.4 7.4 0 0 1 .561 1.881q.073.486.116.975.022.244.04.489c.01.163.023.326.031.489a43 43 0 0 1 .039 3.919q.013-.49.012-.979a53 53 0 0 0-.011-.98 43 43 0 0 0-.083-1.957q-.017-.245-.036-.489c-.015-.163-.027-.325-.045-.488a16 16 0 0 0-.125-.969 7.7 7.7 0 0 0-.568-1.861 6.2 6.2 0 0 0-1.06-1.623 5 5 0 0 0-.724-.644 4.3 4.3 0 0 0-.842-.475 3.95 3.95 0 0 0-1.891-.291c-.64.06-1.249.235-1.769.613a3.9 3.9 0 0 0 1.401 1.743q.236.163.491.291.256.126.528.214c.363.116.743.178 1.123.181q.285.002.568-.041l.07-.01.07-.014.14-.029c.091-.025.184-.046.274-.078.091-.027.179-.063.268-.097q.066-.028.13-.057.033-.014.065-.03l.064-.032q.064-.032.127-.066l.124-.07.122-.076q.061-.037.119-.078.238-.16.458-.346.221-.184.43-.383c.28-.264.546-.544.819-.819.272-.276.548-.549.845-.803a7 7 0 0 1 .46-.362 5.2 5.2 0 0 1 1.577-.765 5.5 5.5 0 0 1 1.153-.208 5.7 5.7 0 0 1 2.307.317 5.75 5.75 0 0 1 1.985 1.217l.029.027-.015.037a6 6 0 0 1-.271.566 6 6 0 0 1-.333.532 6 6 0 0 1-.391.49q-.21.234-.442.445a5.916 5.916 0 0 1-4.63 1.475 5.7 5.7 0 0 1-2.342-.816l-.034-.021.03-.026c.349-.297.668-.628.993-.954s.657-.648 1.033-.917a4.3 4.3 0 0 1 1.233-.615 4.5 4.5 0 0 1 1.359-.203"/></mask><path fill="#fff" d="M346.125 538.196q-.345.003-.686.057-.34.056-.668.163a4.3 4.3 0 0 0-1.22.623c-.37.271-.697.596-1.019.923-.321.329-.641.646-.99.949a5.65 5.65 0 0 0 2.319.761 5.84 5.84 0 0 0 2.436-.25 5.8 5.8 0 0 0 2.115-1.228c.606-.553 1.106-1.175 1.415-1.934a5.6 5.6 0 0 0-1.946-1.188 5.6 5.6 0 0 0-2.258-.306 5.3 5.3 0 0 0-2.181.648 5 5 0 0 0-.483.307q-.233.168-.451.356c-.291.25-.564.522-.835.797s-.54.554-.823.821a9 9 0 0 1-.437.388q-.224.188-.468.353-.06.041-.123.08-.062.04-.126.077l-.128.072c-.042.025-.087.045-.131.068l-.066.033q-.034.016-.067.03-.067.031-.135.059c-.092.035-.183.072-.277.1-.093.032-.189.054-.284.08l-.145.029-.072.015-.073.011a4 4 0 0 1-.588.041 3.93 3.93 0 0 1-2.21-.713 4.07 4.07 0 0 1-1.439-1.822l-.017-.042.037-.026a3.7 3.7 0 0 1 1.846-.674 4.1 4.1 0 0 1 1.94.311c.303.13.591.297.858.49.267.194.511.419.733.661a6.3 6.3 0 0 1 1.065 1.651 7.4 7.4 0 0 1 .561 1.881q.073.486.116.975.022.244.04.489c.01.163.023.326.031.489a43 43 0 0 1 .039 3.919q.013-.49.012-.979a53 53 0 0 0-.011-.98 43 43 0 0 0-.083-1.957q-.017-.245-.036-.489c-.015-.163-.027-.325-.045-.488a16 16 0 0 0-.125-.969 7.7 7.7 0 0 0-.568-1.861 6.2 6.2 0 0 0-1.06-1.623 5 5 0 0 0-.724-.644 4.3 4.3 0 0 0-.842-.475 3.95 3.95 0 0 0-1.891-.291c-.64.06-1.249.235-1.769.613a3.9 3.9 0 0 0 1.401 1.743q.236.163.491.291.256.126.528.214c.363.116.743.178 1.123.181q.285.002.568-.041l.07-.01.07-.014.14-.029c.091-.025.184-.046.274-.078.091-.027.179-.063.268-.097q.066-.028.13-.057.033-.014.065-.03l.064-.032q.064-.032.127-.066l.124-.07.122-.076q.061-.037.119-.078.238-.16.458-.346.221-.184.43-.383c.28-.264.546-.544.819-.819.272-.276.548-.549.845-.803a7 7 0 0 1 .46-.362 5.2 5.2 0 0 1 1.577-.765 5.5 5.5 0 0 1 1.153-.208 5.7 5.7 0 0 1 2.307.317 5.75 5.75 0 0 1 1.985 1.217l.029.027-.015.037a6 6 0 0 1-.271.566 6 6 0 0 1-.333.532 6 6 0 0 1-.391.49q-.21.234-.442.445a5.916 5.916 0 0 1-4.63 1.475 5.7 5.7 0 0 1-2.342-.816l-.034-.021.03-.026c.349-.297.668-.628.993-.954s.657-.648 1.033-.917a4.3 4.3 0 0 1 1.233-.615 4.5 4.5 0 0 1 1.359-.203"/><path stroke="#fff" stroke-width=".341" d="M346.125 538.196q-.345.003-.686.057-.34.056-.668.163a4.3 4.3 0 0 0-1.22.623c-.37.271-.697.596-1.019.923-.321.329-.641.646-.99.949a5.65 5.65 0 0 0 2.319.761 5.84 5.84 0 0 0 2.436-.25 5.8 5.8 0 0 0 2.115-1.228c.606-.553 1.106-1.175 1.415-1.934a5.6 5.6 0 0 0-1.946-1.188 5.6 5.6 0 0 0-2.258-.306 5.3 5.3 0 0 0-2.181.648 5 5 0 0 0-.483.307q-.233.168-.451.356c-.291.25-.564.522-.835.797s-.54.554-.823.821a9 9 0 0 1-.437.388q-.224.188-.468.353-.06.041-.123.08-.062.04-.126.077l-.128.072c-.042.025-.087.045-.131.068l-.066.033q-.034.016-.067.03-.067.031-.135.059c-.092.035-.183.072-.277.1-.093.032-.189.054-.284.08l-.145.029-.072.015-.073.011a4 4 0 0 1-.588.041 3.93 3.93 0 0 1-2.21-.713 4.07 4.07 0 0 1-1.439-1.822l-.017-.042.037-.026a3.7 3.7 0 0 1 1.846-.674 4.1 4.1 0 0 1 1.94.311c.303.13.591.297.858.49.267.194.511.419.733.661a6.3 6.3 0 0 1 1.065 1.651 7.4 7.4 0 0 1 .561 1.881q.073.486.116.975.022.244.04.489c.01.163.023.326.031.489a43 43 0 0 1 .039 3.919q.013-.49.012-.979a53 53 0 0 0-.011-.98 43 43 0 0 0-.083-1.957q-.017-.245-.036-.489c-.015-.163-.027-.325-.045-.488a16 16 0 0 0-.125-.969 7.7 7.7 0 0 0-.568-1.861 6.2 6.2 0 0 0-1.06-1.623 5 5 0 0 0-.724-.644 4.3 4.3 0 0 0-.842-.475 3.95 3.95 0 0 0-1.891-.291c-.64.06-1.249.235-1.769.613a3.9 3.9 0 0 0 1.401 1.743q.236.163.491.291.256.126.528.214c.363.116.743.178 1.123.181q.285.002.568-.041l.07-.01.07-.014.14-.029c.091-.025.184-.046.274-.078.091-.027.179-.063.268-.097q.066-.028.13-.057.033-.014.065-.03l.064-.032q.064-.032.127-.066l.124-.07.122-.076q.061-.037.119-.078.238-.16.458-.346.221-.184.43-.383c.28-.264.546-.544.819-.819.272-.276.548-.549.845-.803a7 7 0 0 1 .46-.362 5.2 5.2 0 0 1 1.577-.765 5.5 5.5 0 0 1 1.153-.208 5.7 5.7 0 0 1 2.307.317 5.75 5.75 0 0 1 1.985 1.217l.029.027-.015.037a6 6 0 0 1-.271.566 6 6 0 0 1-.333.532 6 6 0 0 1-.391.49q-.21.234-.442.445a5.916 5.916 0 0 1-4.63 1.475 5.7 5.7 0 0 1-2.342-.816l-.034-.021.03-.026c.349-.297.668-.628.993-.954s.657-.648 1.033-.917a4.3 4.3 0 0 1 1.233-.615 4.5 4.5 0 0 1 1.359-.203Z" mask="url(#M)"/><mask id="N" width="14" height="11" x="310" y="563" fill="#000" maskUnits="userSpaceOnUse"><path fill="#fff" d="M310 563h14v11h-14z"/><path d="M320.068 565.178a3.6 3.6 0 0 0-.516.043q-.255.043-.502.123c-.328.107-.64.264-.917.468a6.5 6.5 0 0 0-.766.694c-.242.248-.482.486-.745.713.53.321 1.129.506 1.744.573a4.38 4.38 0 0 0 3.422-1.111c.455-.416.831-.884 1.064-1.455a4.2 4.2 0 0 0-1.464-.893 4.2 4.2 0 0 0-1.697-.23 4 4 0 0 0-1.64.488q-.188.105-.363.23-.176.127-.339.268c-.219.188-.425.392-.628.599s-.406.417-.619.618a7 7 0 0 1-.329.291 4 4 0 0 1-.444.326l-.094.058-.097.054q-.048.027-.098.051l-.05.025-.05.022-.102.045c-.069.026-.138.054-.208.075-.07.024-.143.04-.214.06l-.109.022-.054.011-.055.008a3 3 0 0 1-.442.031 3 3 0 0 1-1.281-.309 3.063 3.063 0 0 1-1.463-1.597l-.012-.031.027-.02a2.8 2.8 0 0 1 1.388-.507 3.06 3.06 0 0 1 1.459.234q.343.148.645.369c.201.146.384.314.552.496.333.367.598.791.8 1.242q.153.338.257.693.053.178.095.358.04.18.07.363.055.366.087.733.016.183.03.368.013.183.023.368a31 31 0 0 1 .03 2.947 30 30 0 0 0 0-1.474q-.014-.737-.062-1.472-.012-.183-.027-.367-.015-.183-.034-.366a12 12 0 0 0-.094-.73 5.6 5.6 0 0 0-.427-1.399 4.6 4.6 0 0 0-.797-1.22 3.7 3.7 0 0 0-.544-.485 3.3 3.3 0 0 0-.633-.356 3 3 0 0 0-1.422-.219c-.481.045-.939.176-1.33.461a2.94 2.94 0 0 0 1.422 1.529q.192.096.398.161a2.84 2.84 0 0 0 1.271.106l.053-.008.052-.011.105-.022c.069-.019.139-.034.206-.058.069-.021.135-.048.202-.073q.049-.02.098-.043l.049-.022.048-.025q.048-.023.095-.049l.094-.053.091-.057q.046-.028.09-.059.178-.121.344-.26.166-.138.323-.288c.211-.198.411-.409.616-.616.204-.207.412-.412.635-.603q.167-.144.346-.272.18-.13.373-.236a4.1 4.1 0 0 1 1.68-.496 4.3 4.3 0 0 1 1.734.238 4.3 4.3 0 0 1 1.493.915l.022.021-.012.027q-.09.218-.203.426-.115.206-.251.4a4.5 4.5 0 0 1-.626.703 4.44 4.44 0 0 1-3.481 1.109 4.3 4.3 0 0 1-1.761-.614l-.026-.016.023-.019c.263-.223.503-.472.747-.717s.494-.488.776-.69a3.2 3.2 0 0 1 1.433-.578q.257-.038.516-.037"/></mask><path fill="#fff" d="M320.068 565.178a3.6 3.6 0 0 0-.516.043q-.255.043-.502.123c-.328.107-.64.264-.917.468a6.5 6.5 0 0 0-.766.694c-.242.248-.482.486-.745.713.53.321 1.129.506 1.744.573a4.38 4.38 0 0 0 3.422-1.111c.455-.416.831-.884 1.064-1.455a4.2 4.2 0 0 0-1.464-.893 4.2 4.2 0 0 0-1.697-.23 4 4 0 0 0-1.64.488q-.188.105-.363.23-.176.127-.339.268c-.219.188-.425.392-.628.599s-.406.417-.619.618a7 7 0 0 1-.329.291 4 4 0 0 1-.444.326l-.094.058-.097.054q-.048.027-.098.051l-.05.025-.05.022-.102.045c-.069.026-.138.054-.208.075-.07.024-.143.04-.214.06l-.109.022-.054.011-.055.008a3 3 0 0 1-.442.031 3 3 0 0 1-1.281-.309 3.063 3.063 0 0 1-1.463-1.597l-.012-.031.027-.02a2.8 2.8 0 0 1 1.388-.507 3.06 3.06 0 0 1 1.459.234q.343.148.645.369c.201.146.384.314.552.496.333.367.598.791.8 1.242q.153.338.257.693.053.178.095.358.04.18.07.363.055.366.087.733.016.183.03.368.013.183.023.368a31 31 0 0 1 .03 2.947 30 30 0 0 0 0-1.474q-.014-.737-.062-1.472-.012-.183-.027-.367-.015-.183-.034-.366a12 12 0 0 0-.094-.73 5.6 5.6 0 0 0-.427-1.399 4.6 4.6 0 0 0-.797-1.22 3.7 3.7 0 0 0-.544-.485 3.3 3.3 0 0 0-.633-.356 3 3 0 0 0-1.422-.219c-.481.045-.939.176-1.33.461a2.94 2.94 0 0 0 1.422 1.529q.192.096.398.161a2.84 2.84 0 0 0 1.271.106l.053-.008.052-.011.105-.022c.069-.019.139-.034.206-.058.069-.021.135-.048.202-.073q.049-.02.098-.043l.049-.022.048-.025q.048-.023.095-.049l.094-.053.091-.057q.046-.028.09-.059.178-.121.344-.26.166-.138.323-.288c.211-.198.411-.409.616-.616.204-.207.412-.412.635-.603q.167-.144.346-.272.18-.13.373-.236a4.1 4.1 0 0 1 1.68-.496 4.3 4.3 0 0 1 1.734.238 4.3 4.3 0 0 1 1.493.915l.022.021-.012.027q-.09.218-.203.426-.115.206-.251.4a4.5 4.5 0 0 1-.626.703 4.44 4.44 0 0 1-3.481 1.109 4.3 4.3 0 0 1-1.761-.614l-.026-.016.023-.019c.263-.223.503-.472.747-.717s.494-.488.776-.69a3.2 3.2 0 0 1 1.433-.578q.257-.038.516-.037"/><path stroke="#fff" stroke-width=".256" d="M320.068 565.178a3.6 3.6 0 0 0-.516.043q-.255.043-.502.123c-.328.107-.64.264-.917.468a6.5 6.5 0 0 0-.766.694c-.242.248-.482.486-.745.713.53.321 1.129.506 1.744.573a4.38 4.38 0 0 0 3.422-1.111c.455-.416.831-.884 1.064-1.455a4.2 4.2 0 0 0-1.464-.893 4.2 4.2 0 0 0-1.697-.23 4 4 0 0 0-1.64.488q-.188.105-.363.23-.176.127-.339.268c-.219.188-.425.392-.628.599s-.406.417-.619.618a7 7 0 0 1-.329.291 4 4 0 0 1-.444.326l-.094.058-.097.054q-.048.027-.098.051l-.05.025-.05.022-.102.045c-.069.026-.138.054-.208.075-.07.024-.143.04-.214.06l-.109.022-.054.011-.055.008a3 3 0 0 1-.442.031 3 3 0 0 1-1.281-.309 3.063 3.063 0 0 1-1.463-1.597l-.012-.031.027-.02a2.8 2.8 0 0 1 1.388-.507 3.06 3.06 0 0 1 1.459.234q.343.148.645.369c.201.146.384.314.552.496.333.367.598.791.8 1.242q.153.338.257.693.053.178.095.358.04.18.07.363.055.366.087.733.016.183.03.368.013.183.023.368a31 31 0 0 1 .03 2.947 30 30 0 0 0 0-1.474q-.014-.737-.062-1.472-.012-.183-.027-.367-.015-.183-.034-.366a12 12 0 0 0-.094-.73 5.6 5.6 0 0 0-.427-1.399 4.6 4.6 0 0 0-.797-1.22 3.7 3.7 0 0 0-.544-.485 3.3 3.3 0 0 0-.633-.356 3 3 0 0 0-1.422-.219c-.481.045-.939.176-1.33.461a2.94 2.94 0 0 0 1.422 1.529q.192.096.398.161a2.84 2.84 0 0 0 1.271.106l.053-.008.052-.011.105-.022c.069-.019.139-.034.206-.058.069-.021.135-.048.202-.073q.049-.02.098-.043l.049-.022.048-.025q.048-.023.095-.049l.094-.053.091-.057q.046-.028.09-.059.178-.121.344-.26.166-.138.323-.288c.211-.198.411-.409.616-.616.204-.207.412-.412.635-.603q.167-.144.346-.272.18-.13.373-.236a4.1 4.1 0 0 1 1.68-.496 4.3 4.3 0 0 1 1.734.238 4.3 4.3 0 0 1 1.493.915l.022.021-.012.027q-.09.218-.203.426-.115.206-.251.4a4.5 4.5 0 0 1-.626.703 4.44 4.44 0 0 1-3.481 1.109 4.3 4.3 0 0 1-1.761-.614l-.026-.016.023-.019c.263-.223.503-.472.747-.717s.494-.488.776-.69a3.2 3.2 0 0 1 1.433-.578q.257-.038.516-.037Z" mask="url(#N)"/></g></g><g clip-path="url(#O)"><path fill="#78E33C" d="M513.86 704.6a2.28 2.28 0 0 1-2.282-2.302v-27.922a2.244 2.244 0 0 1 4.465 0v27.922a2.28 2.28 0 0 1-2.183 2.302M567.245 703.309a2.2 2.2 0 0 1-2.203-2.203v-37.548a2.201 2.201 0 0 1 3.76-1.557 2.2 2.2 0 0 1 .646 1.557v37.548c0 .584-.232 1.144-.646 1.557a2.2 2.2 0 0 1-1.557.646M543.49 701.264a2.2 2.2 0 0 1-2.203-2.203v-52.868a2.223 2.223 0 0 1 4.426 0v52.868a2.23 2.23 0 0 1-.658 1.559 2.23 2.23 0 0 1-1.565.644"/><path fill="url(#P)" d="M530.134 663.895c0 3.233-.959 6.393-2.756 9.081a16.337 16.337 0 0 1-25.147 2.447 16.338 16.338 0 0 1 2.54-25.137 16.33 16.33 0 0 1 9.09-2.723 16.2 16.2 0 0 1 6.244 1.239 16.23 16.23 0 0 1 8.813 8.845 16.25 16.25 0 0 1 1.216 6.248"/><path fill="url(#Q)" d="M583.578 653.517a16.32 16.32 0 0 1-10.093 15.041 16.316 16.316 0 0 1-22.22-11.901 16.315 16.315 0 0 1 22.238-18.253 16.31 16.31 0 0 1 10.075 15.113"/><mask id="R" width="27" height="20" x="554" y="646" fill="#000" maskUnits="userSpaceOnUse"><path fill="#fff" d="M554 646h27v20h-27z"/><path d="M573.999 649.332a7.405 7.405 0 0 0-2.134.328 7 7 0 0 0-1.92.928c-.584.403-1.1.886-1.606 1.374-.506.49-1.011.961-1.561 1.412 1.111.635 2.365 1.001 3.654 1.133a9.7 9.7 0 0 0 3.837-.372 9.3 9.3 0 0 0 3.332-1.827c.955-.824 1.742-1.75 2.229-2.88a9 9 0 0 0-3.066-1.768 9.3 9.3 0 0 0-3.556-.456 8.714 8.714 0 0 0-3.436.965 8 8 0 0 0-.761.457q-.366.25-.71.53c-.458.372-.889.777-1.316 1.187-.427.409-.851.824-1.296 1.222a14 14 0 0 1-.688.577 9 9 0 0 1-.738.525q-.096.062-.194.12-.099.058-.197.114l-.202.108c-.067.037-.138.067-.207.1l-.103.05q-.053.023-.106.045-.106.045-.213.087c-.144.053-.288.107-.437.149-.146.048-.298.08-.447.119l-.228.044-.114.021-.115.017a6.478 6.478 0 0 1-3.61-.551 7 7 0 0 1-.797-.449c-1.011-.673-1.813-1.625-2.267-2.713l-.026-.062.057-.039c.849-.581 1.871-.916 2.908-1.003a6.74 6.74 0 0 1 4.408 1.192c.42.29.804.623 1.155.984a9.3 9.3 0 0 1 1.677 2.457q.319.67.539 1.374c.076.234.138.47.198.708.055.238.107.478.146.719q.116.723.183 1.451c.026.242.043.485.064.728.016.243.036.485.048.728q.087 1.458.101 2.917.02 1.46-.039 2.918.02-.73.019-1.459a71 71 0 0 0-.018-1.458 59 59 0 0 0-.131-2.914c-.015-.242-.037-.485-.056-.727-.024-.242-.043-.484-.071-.726a22 22 0 0 0-.197-1.443 10.8 10.8 0 0 0-.895-2.77 9.1 9.1 0 0 0-1.669-2.416 7.6 7.6 0 0 0-1.14-.96 6.565 6.565 0 0 0-4.306-1.14c-1.008.09-1.967.35-2.786.913.443 1.055 1.224 1.943 2.207 2.594q.37.243.773.434.403.19.832.319c.572.172 1.17.265 1.769.269q.45.003.894-.061l.111-.015.11-.021.22-.043c.145-.038.291-.069.432-.116.144-.041.282-.094.422-.144q.103-.042.206-.086.052-.02.102-.044l.101-.048c.066-.033.134-.062.199-.098l.196-.105q.096-.054.192-.112.095-.055.188-.117a9 9 0 0 0 .721-.514q.347-.274.677-.571c.441-.393.861-.809 1.29-1.219.428-.41.864-.817 1.331-1.195q.349-.283.725-.539c.249-.17.513-.324.782-.467a8.9 8.9 0 0 1 3.518-.982 9.5 9.5 0 0 1 3.634.472 9.2 9.2 0 0 1 3.127 1.812l.046.04-.024.055a9 9 0 0 1-.426.843 9 9 0 0 1-.525.791 9 9 0 0 1-.616.73 10 10 0 0 1-.696.662 9.4 9.4 0 0 1-3.4 1.84 9.8 9.8 0 0 1-3.894.356 9.3 9.3 0 0 1-3.689-1.215l-.053-.031.048-.038c.549-.442 1.052-.935 1.563-1.421.512-.484 1.035-.964 1.627-1.365.59-.403 1.25-.71 1.942-.915a7.5 7.5 0 0 1 2.142-.303"/></mask><path fill="#fff" d="M573.999 649.332a7.405 7.405 0 0 0-2.134.328 7 7 0 0 0-1.92.928c-.584.403-1.1.886-1.606 1.374-.506.49-1.011.961-1.561 1.412 1.111.635 2.365 1.001 3.654 1.133a9.7 9.7 0 0 0 3.837-.372 9.3 9.3 0 0 0 3.332-1.827c.955-.824 1.742-1.75 2.229-2.88a9 9 0 0 0-3.066-1.768 9.3 9.3 0 0 0-3.556-.456 8.714 8.714 0 0 0-3.436.965 8 8 0 0 0-.761.457q-.366.25-.71.53c-.458.372-.889.777-1.316 1.187-.427.409-.851.824-1.296 1.222a14 14 0 0 1-.688.577 9 9 0 0 1-.738.525q-.096.062-.194.12-.099.058-.197.114l-.202.108c-.067.037-.138.067-.207.1l-.103.05q-.053.023-.106.045-.106.045-.213.087c-.144.053-.288.107-.437.149-.146.048-.298.08-.447.119l-.228.044-.114.021-.115.017a6.478 6.478 0 0 1-3.61-.551 7 7 0 0 1-.797-.449c-1.011-.673-1.813-1.625-2.267-2.713l-.026-.062.057-.039c.849-.581 1.871-.916 2.908-1.003a6.74 6.74 0 0 1 4.408 1.192c.42.29.804.623 1.155.984a9.3 9.3 0 0 1 1.677 2.457q.319.67.539 1.374c.076.234.138.47.198.708.055.238.107.478.146.719q.116.723.183 1.451c.026.242.043.485.064.728.016.243.036.485.048.728q.087 1.458.101 2.917.02 1.46-.039 2.918.02-.73.019-1.459a71 71 0 0 0-.018-1.458 59 59 0 0 0-.131-2.914c-.015-.242-.037-.485-.056-.727-.024-.242-.043-.484-.071-.726a22 22 0 0 0-.197-1.443 10.8 10.8 0 0 0-.895-2.77 9.1 9.1 0 0 0-1.669-2.416 7.6 7.6 0 0 0-1.14-.96 6.565 6.565 0 0 0-4.306-1.14c-1.008.09-1.967.35-2.786.913.443 1.055 1.224 1.943 2.207 2.594q.37.243.773.434.403.19.832.319c.572.172 1.17.265 1.769.269q.45.003.894-.061l.111-.015.11-.021.22-.043c.145-.038.291-.069.432-.116.144-.041.282-.094.422-.144q.103-.042.206-.086.052-.02.102-.044l.101-.048c.066-.033.134-.062.199-.098l.196-.105q.096-.054.192-.112.095-.055.188-.117a9 9 0 0 0 .721-.514q.347-.274.677-.571c.441-.393.861-.809 1.29-1.219.428-.41.864-.817 1.331-1.195q.349-.283.725-.539c.249-.17.513-.324.782-.467a8.9 8.9 0 0 1 3.518-.982 9.5 9.5 0 0 1 3.634.472 9.2 9.2 0 0 1 3.127 1.812l.046.04-.024.055a9 9 0 0 1-.426.843 9 9 0 0 1-.525.791 9 9 0 0 1-.616.73 10 10 0 0 1-.696.662 9.4 9.4 0 0 1-3.4 1.84 9.8 9.8 0 0 1-3.894.356 9.3 9.3 0 0 1-3.689-1.215l-.053-.031.048-.038c.549-.442 1.052-.935 1.563-1.421.512-.484 1.035-.964 1.627-1.365.59-.403 1.25-.71 1.942-.915a7.5 7.5 0 0 1 2.142-.303"/><path stroke="#fff" stroke-width=".48" d="M573.999 649.332a7.405 7.405 0 0 0-2.134.328 7 7 0 0 0-1.92.928c-.584.403-1.1.886-1.606 1.374-.506.49-1.011.961-1.561 1.412 1.111.635 2.365 1.001 3.654 1.133a9.7 9.7 0 0 0 3.837-.372 9.3 9.3 0 0 0 3.332-1.827c.955-.824 1.742-1.75 2.229-2.88a9 9 0 0 0-3.066-1.768 9.3 9.3 0 0 0-3.556-.456 8.714 8.714 0 0 0-3.436.965 8 8 0 0 0-.761.457q-.366.25-.71.53c-.458.372-.889.777-1.316 1.187-.427.409-.851.824-1.296 1.222a14 14 0 0 1-.688.577 9 9 0 0 1-.738.525q-.096.062-.194.12-.099.058-.197.114l-.202.108c-.067.037-.138.067-.207.1l-.103.05q-.053.023-.106.045-.106.045-.213.087c-.144.053-.288.107-.437.149-.146.048-.298.08-.447.119l-.228.044-.114.021-.115.017a6.478 6.478 0 0 1-3.61-.551 7 7 0 0 1-.797-.449c-1.011-.673-1.813-1.625-2.267-2.713l-.026-.062.057-.039c.849-.581 1.871-.916 2.908-1.003a6.74 6.74 0 0 1 4.408 1.192c.42.29.804.623 1.155.984a9.3 9.3 0 0 1 1.677 2.457q.319.67.539 1.374c.076.234.138.47.198.708.055.238.107.478.146.719q.116.723.183 1.451c.026.242.043.485.064.728.016.243.036.485.048.728q.087 1.458.101 2.917.02 1.46-.039 2.918.02-.73.019-1.459a71 71 0 0 0-.018-1.458 59 59 0 0 0-.131-2.914c-.015-.242-.037-.485-.056-.727-.024-.242-.043-.484-.071-.726a22 22 0 0 0-.197-1.443 10.8 10.8 0 0 0-.895-2.77 9.1 9.1 0 0 0-1.669-2.416 7.6 7.6 0 0 0-1.14-.96 6.565 6.565 0 0 0-4.306-1.14c-1.008.09-1.967.35-2.786.913.443 1.055 1.224 1.943 2.207 2.594q.37.243.773.434.403.19.832.319c.572.172 1.17.265 1.769.269q.45.003.894-.061l.111-.015.11-.021.22-.043c.145-.038.291-.069.432-.116.144-.041.282-.094.422-.144q.103-.042.206-.086.052-.02.102-.044l.101-.048c.066-.033.134-.062.199-.098l.196-.105q.096-.054.192-.112.095-.055.188-.117a9 9 0 0 0 .721-.514q.347-.274.677-.571c.441-.393.861-.809 1.29-1.219.428-.41.864-.817 1.331-1.195q.349-.283.725-.539c.249-.17.513-.324.782-.467a8.9 8.9 0 0 1 3.518-.982 9.5 9.5 0 0 1 3.634.472 9.2 9.2 0 0 1 3.127 1.812l.046.04-.024.055a9 9 0 0 1-.426.843 9 9 0 0 1-.525.791 9 9 0 0 1-.616.73 10 10 0 0 1-.696.662 9.4 9.4 0 0 1-3.4 1.84 9.8 9.8 0 0 1-3.894.356 9.3 9.3 0 0 1-3.689-1.215l-.053-.031.048-.038c.549-.442 1.052-.935 1.563-1.421.512-.484 1.035-.964 1.627-1.365.59-.403 1.25-.71 1.942-.915a7.5 7.5 0 0 1 2.142-.303Z" mask="url(#R)"/><mask id="S" width="27" height="20" x="500" y="656" fill="#000" maskUnits="userSpaceOnUse"><path fill="#fff" d="M500 656h27v20h-27z"/><path d="M519.999 659.332a7.405 7.405 0 0 0-2.134.328 7 7 0 0 0-1.92.928c-.584.403-1.1.886-1.606 1.374-.506.49-1.011.961-1.561 1.412 1.111.635 2.365 1.001 3.654 1.133a9.7 9.7 0 0 0 3.837-.372 9.3 9.3 0 0 0 3.332-1.827c.955-.824 1.742-1.75 2.229-2.88a9 9 0 0 0-3.066-1.768 9.3 9.3 0 0 0-3.556-.456 8.714 8.714 0 0 0-3.436.965 8 8 0 0 0-.761.457q-.366.25-.71.53c-.458.372-.889.777-1.316 1.187-.427.409-.851.824-1.296 1.222a14 14 0 0 1-.688.577 9 9 0 0 1-.738.525q-.096.062-.194.12-.099.058-.197.114l-.202.108c-.067.037-.138.067-.207.1l-.103.05q-.053.023-.106.045-.106.045-.213.087c-.144.053-.288.107-.437.149-.146.048-.298.08-.447.119l-.228.044-.114.021-.115.017a6.478 6.478 0 0 1-3.61-.551 7 7 0 0 1-.797-.449c-1.011-.673-1.813-1.625-2.267-2.713l-.026-.062.057-.039c.849-.581 1.871-.916 2.908-1.003a6.74 6.74 0 0 1 4.408 1.192c.42.29.804.623 1.155.984a9.3 9.3 0 0 1 1.677 2.457q.319.67.539 1.374c.076.234.138.47.198.708.055.238.107.478.146.719q.116.723.183 1.451c.026.242.043.485.064.728.016.243.036.485.048.728q.087 1.458.101 2.917.02 1.46-.039 2.918.02-.73.019-1.459a71 71 0 0 0-.018-1.458 59 59 0 0 0-.131-2.914c-.015-.242-.037-.485-.056-.727-.024-.242-.043-.484-.071-.726a22 22 0 0 0-.197-1.443 10.8 10.8 0 0 0-.895-2.77 9.1 9.1 0 0 0-1.669-2.416 7.6 7.6 0 0 0-1.14-.96 6.565 6.565 0 0 0-4.306-1.14c-1.008.09-1.967.35-2.786.913.443 1.055 1.224 1.943 2.207 2.594q.37.243.773.434.403.19.832.319c.572.172 1.17.265 1.769.269q.45.003.894-.061l.111-.015.11-.021.22-.043c.145-.038.291-.069.432-.116.144-.041.282-.094.422-.144q.103-.042.206-.086.052-.02.102-.044l.101-.048c.066-.033.134-.062.199-.098l.196-.105q.096-.054.192-.112.096-.055.188-.117a9 9 0 0 0 .721-.514q.347-.274.677-.571c.441-.393.861-.809 1.29-1.219.428-.41.864-.817 1.331-1.195q.349-.283.725-.539c.249-.17.513-.324.782-.467a8.9 8.9 0 0 1 3.518-.982 9.5 9.5 0 0 1 3.634.472 9.2 9.2 0 0 1 3.127 1.812l.046.04-.024.055a9 9 0 0 1-.426.843 9 9 0 0 1-.525.791 9 9 0 0 1-.616.73 10 10 0 0 1-.696.662 9.4 9.4 0 0 1-3.4 1.84 9.8 9.8 0 0 1-3.894.356 9.3 9.3 0 0 1-3.689-1.215l-.053-.031.048-.038c.549-.442 1.052-.935 1.563-1.421.512-.484 1.035-.964 1.627-1.365.59-.403 1.25-.71 1.942-.915a7.5 7.5 0 0 1 2.142-.303"/></mask><path fill="#fff" d="M519.999 659.332a7.405 7.405 0 0 0-2.134.328 7 7 0 0 0-1.92.928c-.584.403-1.1.886-1.606 1.374-.506.49-1.011.961-1.561 1.412 1.111.635 2.365 1.001 3.654 1.133a9.7 9.7 0 0 0 3.837-.372 9.3 9.3 0 0 0 3.332-1.827c.955-.824 1.742-1.75 2.229-2.88a9 9 0 0 0-3.066-1.768 9.3 9.3 0 0 0-3.556-.456 8.714 8.714 0 0 0-3.436.965 8 8 0 0 0-.761.457q-.366.25-.71.53c-.458.372-.889.777-1.316 1.187-.427.409-.851.824-1.296 1.222a14 14 0 0 1-.688.577 9 9 0 0 1-.738.525q-.096.062-.194.12-.099.058-.197.114l-.202.108c-.067.037-.138.067-.207.1l-.103.05q-.053.023-.106.045-.106.045-.213.087c-.144.053-.288.107-.437.149-.146.048-.298.08-.447.119l-.228.044-.114.021-.115.017a6.478 6.478 0 0 1-3.61-.551 7 7 0 0 1-.797-.449c-1.011-.673-1.813-1.625-2.267-2.713l-.026-.062.057-.039c.849-.581 1.871-.916 2.908-1.003a6.74 6.74 0 0 1 4.408 1.192c.42.29.804.623 1.155.984a9.3 9.3 0 0 1 1.677 2.457q.319.67.539 1.374c.076.234.138.47.198.708.055.238.107.478.146.719q.116.723.183 1.451c.026.242.043.485.064.728.016.243.036.485.048.728q.087 1.458.101 2.917.02 1.46-.039 2.918.02-.73.019-1.459a71 71 0 0 0-.018-1.458 59 59 0 0 0-.131-2.914c-.015-.242-.037-.485-.056-.727-.024-.242-.043-.484-.071-.726a22 22 0 0 0-.197-1.443 10.8 10.8 0 0 0-.895-2.77 9.1 9.1 0 0 0-1.669-2.416 7.6 7.6 0 0 0-1.14-.96 6.565 6.565 0 0 0-4.306-1.14c-1.008.09-1.967.35-2.786.913.443 1.055 1.224 1.943 2.207 2.594q.37.243.773.434.403.19.832.319c.572.172 1.17.265 1.769.269q.45.003.894-.061l.111-.015.11-.021.22-.043c.145-.038.291-.069.432-.116.144-.041.282-.094.422-.144q.103-.042.206-.086.052-.02.102-.044l.101-.048c.066-.033.134-.062.199-.098l.196-.105q.096-.054.192-.112.096-.055.188-.117a9 9 0 0 0 .721-.514q.347-.274.677-.571c.441-.393.861-.809 1.29-1.219.428-.41.864-.817 1.331-1.195q.349-.283.725-.539c.249-.17.513-.324.782-.467a8.9 8.9 0 0 1 3.518-.982 9.5 9.5 0 0 1 3.634.472 9.2 9.2 0 0 1 3.127 1.812l.046.04-.024.055a9 9 0 0 1-.426.843 9 9 0 0 1-.525.791 9 9 0 0 1-.616.73 10 10 0 0 1-.696.662 9.4 9.4 0 0 1-3.4 1.84 9.8 9.8 0 0 1-3.894.356 9.3 9.3 0 0 1-3.689-1.215l-.053-.031.048-.038c.549-.442 1.052-.935 1.563-1.421.512-.484 1.035-.964 1.627-1.365.59-.403 1.25-.71 1.942-.915a7.5 7.5 0 0 1 2.142-.303"/><path stroke="#fff" stroke-width=".48" d="M519.999 659.332a7.405 7.405 0 0 0-2.134.328 7 7 0 0 0-1.92.928c-.584.403-1.1.886-1.606 1.374-.506.49-1.011.961-1.561 1.412 1.111.635 2.365 1.001 3.654 1.133a9.7 9.7 0 0 0 3.837-.372 9.3 9.3 0 0 0 3.332-1.827c.955-.824 1.742-1.75 2.229-2.88a9 9 0 0 0-3.066-1.768 9.3 9.3 0 0 0-3.556-.456 8.714 8.714 0 0 0-3.436.965 8 8 0 0 0-.761.457q-.366.25-.71.53c-.458.372-.889.777-1.316 1.187-.427.409-.851.824-1.296 1.222a14 14 0 0 1-.688.577 9 9 0 0 1-.738.525q-.096.062-.194.12-.099.058-.197.114l-.202.108c-.067.037-.138.067-.207.1l-.103.05q-.053.023-.106.045-.106.045-.213.087c-.144.053-.288.107-.437.149-.146.048-.298.08-.447.119l-.228.044-.114.021-.115.017a6.478 6.478 0 0 1-3.61-.551 7 7 0 0 1-.797-.449c-1.011-.673-1.813-1.625-2.267-2.713l-.026-.062.057-.039c.849-.581 1.871-.916 2.908-1.003a6.74 6.74 0 0 1 4.408 1.192c.42.29.804.623 1.155.984a9.3 9.3 0 0 1 1.677 2.457q.319.67.539 1.374c.076.234.138.47.198.708.055.238.107.478.146.719q.116.723.183 1.451c.026.242.043.485.064.728.016.243.036.485.048.728q.087 1.458.101 2.917.02 1.46-.039 2.918.02-.73.019-1.459a71 71 0 0 0-.018-1.458 59 59 0 0 0-.131-2.914c-.015-.242-.037-.485-.056-.727-.024-.242-.043-.484-.071-.726a22 22 0 0 0-.197-1.443 10.8 10.8 0 0 0-.895-2.77 9.1 9.1 0 0 0-1.669-2.416 7.6 7.6 0 0 0-1.14-.96 6.565 6.565 0 0 0-4.306-1.14c-1.008.09-1.967.35-2.786.913.443 1.055 1.224 1.943 2.207 2.594q.37.243.773.434.403.19.832.319c.572.172 1.17.265 1.769.269q.45.003.894-.061l.111-.015.11-.021.22-.043c.145-.038.291-.069.432-.116.144-.041.282-.094.422-.144q.103-.042.206-.086.052-.02.102-.044l.101-.048c.066-.033.134-.062.199-.098l.196-.105q.096-.054.192-.112.096-.055.188-.117a9 9 0 0 0 .721-.514q.347-.274.677-.571c.441-.393.861-.809 1.29-1.219.428-.41.864-.817 1.331-1.195q.349-.283.725-.539c.249-.17.513-.324.782-.467a8.9 8.9 0 0 1 3.518-.982 9.5 9.5 0 0 1 3.634.472 9.2 9.2 0 0 1 3.127 1.812l.046.04-.024.055a9 9 0 0 1-.426.843 9 9 0 0 1-.525.791 9 9 0 0 1-.616.73 10 10 0 0 1-.696.662 9.4 9.4 0 0 1-3.4 1.84 9.8 9.8 0 0 1-3.894.356 9.3 9.3 0 0 1-3.689-1.215l-.053-.031.048-.038c.549-.442 1.052-.935 1.563-1.421.512-.484 1.035-.964 1.627-1.365.59-.403 1.25-.71 1.942-.915a7.5 7.5 0 0 1 2.142-.303Z" mask="url(#S)"/><path fill="#43AF3E" d="M496 705.792h95c-26.275-11.848-68.745-11.848-95 0"/><path fill="url(#T)" d="M543.49 651.215c11.07 0 20.044-8.956 20.044-20.004s-8.974-20.004-20.044-20.004-20.044 8.956-20.044 20.004 8.974 20.004 20.044 20.004"/><mask id="U" width="31" height="24" x="528" y="623" fill="#000" maskUnits="userSpaceOnUse"><path fill="#fff" d="M528 623h31v24h-31z"/><path d="M551.039 626.85a8.3 8.3 0 0 0-2.475.401 7.9 7.9 0 0 0-2.228 1.135c-.677.492-1.275 1.083-1.863 1.679a31 31 0 0 1-1.81 1.726c1.288.776 2.743 1.223 4.239 1.385 1.494.166 3.022.005 4.45-.455a10.6 10.6 0 0 0 3.865-2.234c1.108-1.006 2.02-2.138 2.586-3.519a10.3 10.3 0 0 0-3.557-2.162 10.3 10.3 0 0 0-4.125-.557 10 10 0 0 0-2.057.375 10 10 0 0 0-1.928.805c-.304.171-.6.354-.883.558q-.425.306-.824.648c-.531.455-1.031.949-1.526 1.45s-.987 1.009-1.504 1.494q-.387.366-.798.706a10 10 0 0 1-1.081.788q-.113.07-.229.14l-.234.131c-.078.045-.16.082-.239.123l-.121.06q-.061.029-.122.055-.123.055-.247.108c-.168.064-.335.13-.507.181-.17.059-.346.098-.519.145l-.264.054-.132.026-.134.02a7 7 0 0 1-1.074.074 7.14 7.14 0 0 1-4.038-1.296 7.4 7.4 0 0 1-2.63-3.315l-.03-.076.066-.048c.985-.71 2.171-1.119 3.374-1.225a7.44 7.44 0 0 1 3.544.565c.555.237 1.08.54 1.569.892.487.353.933.761 1.34 1.202.81.887 1.454 1.914 1.945 3.003q.37.82.625 1.679c.088.286.161.575.23.865.064.292.124.585.17.879q.135.885.212 1.774c.03.296.049.593.073.889.019.297.042.594.057.891q.1 1.781.117 3.565.022 1.784-.045 3.566.022-.892.021-1.783a96 96 0 0 0-.02-1.782 78 78 0 0 0-.152-3.562c-.018-.296-.044-.592-.066-.888-.027-.296-.049-.592-.082-.887a28 28 0 0 0-.228-1.765 13.8 13.8 0 0 0-1.038-3.385 11.2 11.2 0 0 0-1.937-2.953 9 9 0 0 0-1.322-1.173 8 8 0 0 0-1.539-.863 7.26 7.26 0 0 0-3.456-.531c-1.17.111-2.282.428-3.232 1.117.514 1.289 1.421 2.374 2.56 3.17q.43.297.896.53.468.232.967.39a7 7 0 0 0 2.051.329q.522.004 1.038-.074l.128-.019.128-.026.255-.053c.167-.045.337-.083.501-.141.166-.049.327-.115.49-.176q.12-.051.238-.105.06-.025.119-.053l.116-.059c.077-.04.157-.076.232-.12l.227-.128q.112-.068.222-.137.112-.068.219-.143c.29-.193.567-.406.836-.629.27-.222.53-.457.785-.697.512-.481.999-.989 1.497-1.49a25 25 0 0 1 1.544-1.461q.405-.346.841-.659c.289-.208.595-.396.907-.57.626-.344 1.29-.618 1.975-.821a10 10 0 0 1 2.106-.379 10.45 10.45 0 0 1 4.216.577c1.344.48 2.586 1.24 3.627 2.213l.053.05-.028.066a11 11 0 0 1-.494 1.031q-.279.5-.609.967a11 11 0 0 1-.715.893q-.383.425-.807.808a10.8 10.8 0 0 1-3.944 2.249 10.9 10.9 0 0 1-4.517.435 10.4 10.4 0 0 1-4.279-1.484l-.062-.038.055-.047c.638-.541 1.221-1.143 1.814-1.737.594-.591 1.201-1.179 1.888-1.668a7.9 7.9 0 0 1 2.252-1.118 8.2 8.2 0 0 1 2.485-.371"/></mask><path fill="#fff" d="M551.039 626.85a8.3 8.3 0 0 0-2.475.401 7.9 7.9 0 0 0-2.228 1.135c-.677.492-1.275 1.083-1.863 1.679a31 31 0 0 1-1.81 1.726c1.288.776 2.743 1.223 4.239 1.385 1.494.166 3.022.005 4.45-.455a10.6 10.6 0 0 0 3.865-2.234c1.108-1.006 2.02-2.138 2.586-3.519a10.3 10.3 0 0 0-3.557-2.162 10.3 10.3 0 0 0-4.125-.557 10 10 0 0 0-2.057.375 10 10 0 0 0-1.928.805c-.304.171-.6.354-.883.558q-.425.306-.824.648c-.531.455-1.031.949-1.526 1.45s-.987 1.009-1.504 1.494q-.387.366-.798.706a10 10 0 0 1-1.081.788q-.113.07-.229.14l-.234.131c-.078.045-.16.082-.239.123l-.121.06q-.061.029-.122.055-.123.055-.247.108c-.168.064-.335.13-.507.181-.17.059-.346.098-.519.145l-.264.054-.132.026-.134.02a7 7 0 0 1-1.074.074 7.14 7.14 0 0 1-4.038-1.296 7.4 7.4 0 0 1-2.63-3.315l-.03-.076.066-.048c.985-.71 2.171-1.119 3.374-1.225a7.44 7.44 0 0 1 3.544.565c.555.237 1.08.54 1.569.892.487.353.933.761 1.34 1.202.81.887 1.454 1.914 1.945 3.003q.37.82.625 1.679c.088.286.161.575.23.865.064.292.124.585.17.879q.135.885.212 1.774c.03.296.049.593.073.889.019.297.042.594.057.891q.1 1.781.117 3.565.022 1.784-.045 3.566.022-.892.021-1.783a96 96 0 0 0-.02-1.782 78 78 0 0 0-.152-3.562c-.018-.296-.044-.592-.066-.888-.027-.296-.049-.592-.082-.887a28 28 0 0 0-.228-1.765 13.8 13.8 0 0 0-1.038-3.385 11.2 11.2 0 0 0-1.937-2.953 9 9 0 0 0-1.322-1.173 8 8 0 0 0-1.539-.863 7.26 7.26 0 0 0-3.456-.531c-1.17.111-2.282.428-3.232 1.117.514 1.289 1.421 2.374 2.56 3.17q.43.297.896.53.468.232.967.39a7 7 0 0 0 2.051.329q.522.004 1.038-.074l.128-.019.128-.026.255-.053c.167-.045.337-.083.501-.141.166-.049.327-.115.49-.176q.12-.051.238-.105.06-.025.119-.053l.116-.059c.077-.04.157-.076.232-.12l.227-.128q.112-.068.222-.137.112-.068.219-.143c.29-.193.567-.406.836-.629.27-.222.53-.457.785-.697.512-.481.999-.989 1.497-1.49a25 25 0 0 1 1.544-1.461q.405-.346.841-.659c.289-.208.595-.396.907-.57.626-.344 1.29-.618 1.975-.821a10 10 0 0 1 2.106-.379 10.45 10.45 0 0 1 4.216.577c1.344.48 2.586 1.24 3.627 2.213l.053.05-.028.066a11 11 0 0 1-.494 1.031q-.279.5-.609.967a11 11 0 0 1-.715.893q-.383.425-.807.808a10.8 10.8 0 0 1-3.944 2.249 10.9 10.9 0 0 1-4.517.435 10.4 10.4 0 0 1-4.279-1.484l-.062-.038.055-.047c.638-.541 1.221-1.143 1.814-1.737.594-.591 1.201-1.179 1.888-1.668a7.9 7.9 0 0 1 2.252-1.118 8.2 8.2 0 0 1 2.485-.371"/><path stroke="#fff" stroke-width=".48" d="M551.039 626.85a8.3 8.3 0 0 0-2.475.401 7.9 7.9 0 0 0-2.228 1.135c-.677.492-1.275 1.083-1.863 1.679a31 31 0 0 1-1.81 1.726c1.288.776 2.743 1.223 4.239 1.385 1.494.166 3.022.005 4.45-.455a10.6 10.6 0 0 0 3.865-2.234c1.108-1.006 2.02-2.138 2.586-3.519a10.3 10.3 0 0 0-3.557-2.162 10.3 10.3 0 0 0-4.125-.557 10 10 0 0 0-2.057.375 10 10 0 0 0-1.928.805c-.304.171-.6.354-.883.558q-.425.306-.824.648c-.531.455-1.031.949-1.526 1.45s-.987 1.009-1.504 1.494q-.387.366-.798.706a10 10 0 0 1-1.081.788q-.113.07-.229.14l-.234.131c-.078.045-.16.082-.239.123l-.121.06q-.061.029-.122.055-.123.055-.247.108c-.168.064-.335.13-.507.181-.17.059-.346.098-.519.145l-.264.054-.132.026-.134.02a7 7 0 0 1-1.074.074 7.14 7.14 0 0 1-4.038-1.296 7.4 7.4 0 0 1-2.63-3.315l-.03-.076.066-.048c.985-.71 2.171-1.119 3.374-1.225a7.44 7.44 0 0 1 3.544.565c.555.237 1.08.54 1.569.892.487.353.933.761 1.34 1.202.81.887 1.454 1.914 1.945 3.003q.37.82.625 1.679c.088.286.161.575.23.865.064.292.124.585.17.879q.135.885.212 1.774c.03.296.049.593.073.889.019.297.042.594.057.891q.1 1.781.117 3.565.022 1.784-.045 3.566.022-.892.021-1.783a96 96 0 0 0-.02-1.782 78 78 0 0 0-.152-3.562c-.018-.296-.044-.592-.066-.888-.027-.296-.049-.592-.082-.887a28 28 0 0 0-.228-1.765 13.8 13.8 0 0 0-1.038-3.385 11.2 11.2 0 0 0-1.937-2.953 9 9 0 0 0-1.322-1.173 8 8 0 0 0-1.539-.863 7.26 7.26 0 0 0-3.456-.531c-1.17.111-2.282.428-3.232 1.117.514 1.289 1.421 2.374 2.56 3.17q.43.297.896.53.468.232.967.39a7 7 0 0 0 2.051.329q.522.004 1.038-.074l.128-.019.128-.026.255-.053c.167-.045.337-.083.501-.141.166-.049.327-.115.49-.176q.12-.051.238-.105.06-.025.119-.053l.116-.059c.077-.04.157-.076.232-.12l.227-.128q.112-.068.222-.137.112-.068.219-.143c.29-.193.567-.406.836-.629.27-.222.53-.457.785-.697.512-.481.999-.989 1.497-1.49a25 25 0 0 1 1.544-1.461q.405-.346.841-.659c.289-.208.595-.396.907-.57.626-.344 1.29-.618 1.975-.821a10 10 0 0 1 2.106-.379 10.45 10.45 0 0 1 4.216.577c1.344.48 2.586 1.24 3.627 2.213l.053.05-.028.066a11 11 0 0 1-.494 1.031q-.279.5-.609.967a11 11 0 0 1-.715.893q-.383.425-.807.808a10.8 10.8 0 0 1-3.944 2.249 10.9 10.9 0 0 1-4.517.435 10.4 10.4 0 0 1-4.279-1.484l-.062-.038.055-.047c.638-.541 1.221-1.143 1.814-1.737.594-.591 1.201-1.179 1.888-1.668a7.9 7.9 0 0 1 2.252-1.118 8.2 8.2 0 0 1 2.485-.371Z" mask="url(#U)"/><path fill="#78E33C" d="M543.489 681.6c11.034 7.243 16.909-5.954 16.909-5.954-16.274-4.763-16.909 5.954-16.909 5.954M567.245 689.259c8.176 7.164 12.899-6.887 12.899-6.887-13.832-3.235-12.899 6.887-12.899 6.887"/><path fill="#78E33C" d="M567.244 689.259c-10.776 4.445-11.907-9.923-11.907-9.923 15.102-.02 11.907 9.923 11.907 9.923M543.49 681.599c0-15.142-19.667-11.907-19.667-11.907 6.768 19.925 19.667 11.907 19.667 11.907M513.861 693.012c10.796 5.457 14.547-7.66 14.547-7.66-15.004-3.989-14.547 7.66-14.547 7.66"/><path fill="#78E33C" d="M513.86 693.012c0-11.57-14.01-6.549-14.01-6.549 6.747 13.455 14.01 6.549 14.01 6.549"/></g><g fill="#fff" clip-path="url(#V)"><path d="m542.659 584.634-12.338-13.153a1.19 1.19 0 0 1 0-1.629l.014-.014a1.07 1.07 0 0 1 .775-.338 1.05 1.05 0 0 1 .775.338l11.617 12.386 11.613-12.386a1.06 1.06 0 0 1 1.55 0l.014.014a1.19 1.19 0 0 1 0 1.629l-12.338 13.153a1.16 1.16 0 0 1-.841.366 1.15 1.15 0 0 1-.841-.366M542.659 565.134l-12.338-13.153a1.19 1.19 0 0 1 0-1.629l.014-.014a1.07 1.07 0 0 1 .775-.338 1.05 1.05 0 0 1 .775.338l11.617 12.386 11.613-12.386a1.06 1.06 0 0 1 1.55 0l.014.014a1.19 1.19 0 0 1 0 1.629l-12.338 13.153a1.16 1.16 0 0 1-.841.366 1.15 1.15 0 0 1-.841-.366"/></g><defs><filter id="a" width="686" height="686" x="193" y="100" color-interpolation-filters="sRGB" filterUnits="userSpaceOnUse"><feFlood flood-opacity="0" result="BackgroundImageFix"/><feGaussianBlur in="BackgroundImageFix" stdDeviation="6"/><feComposite in2="SourceAlpha" operator="in" result="effect1_backgroundBlur_300_150"/><feBlend in="SourceGraphic" in2="effect1_backgroundBlur_300_150" result="shape"/></filter><filter id="b" width="1072" height="1072" x="0" y="-93" color-interpolation-filters="sRGB" filterUnits="userSpaceOnUse"><feFlood flood-opacity="0" result="BackgroundImageFix"/><feBlend in="SourceGraphic" in2="BackgroundImageFix" result="shape"/><feGaussianBlur result="effect1_foregroundBlur_300_150" stdDeviation="200"/></filter><filter id="d" width="310.095" height="310.095" x="387.952" y="297.333" color-interpolation-filters="sRGB" filterUnits="userSpaceOnUse"><feFlood flood-opacity="0" result="BackgroundImageFix"/><feColorMatrix in="SourceAlpha" result="hardAlpha" values="0 0 0 0 0 0 0 0 0 0 0 0 0 0 0 0 0 0 127 0"/><feOffset dy="8.381"/><feGaussianBlur stdDeviation="33.524"/><feComposite in2="hardAlpha" operator="out"/><feColorMatrix values="0 0 0 0 0.104167 0 0 0 0 0.066116 0 0 0 0 0.030816 0 0 0 0.12 0"/><feBlend in2="BackgroundImageFix" result="effect1_dropShadow_300_150"/><feBlend in="SourceGraphic" in2="effect1_dropShadow_300_150" result="shape"/></filter><filter id="g" width="166" height="166" x="460" y="168" color-interpolation-filters="sRGB" filterUnits="userSpaceOnUse"><feFlood flood-opacity="0" result="BackgroundImageFix"/><feColorMatrix in="SourceAlpha" result="hardAlpha" values="0 0 0 0 0 0 0 0 0 0 0 0 0 0 0 0 0 0 127 0"/><feOffset dy="4"/><feGaussianBlur stdDeviation="14"/><feComposite in2="hardAlpha" operator="out"/><feColorMatrix values="0 0 0 0 0.104167 0 0 0 0 0.066116 0 0 0 0 0.030816 0 0 0 0.06 0"/><feBlend in2="BackgroundImageFix" result="effect1_dropShadow_300_150"/><feBlend in="SourceGraphic" in2="effect1_dropShadow_300_150" result="shape"/></filter><filter id="h" width="148" height="148" x="469" y="177" color-interpolation-filters="sRGB" filterUnits="userSpaceOnUse"><feFlood flood-opacity="0" result="BackgroundImageFix"/><feColorMatrix in="SourceAlpha" result="hardAlpha" values="0 0 0 0 0 0 0 0 0 0 0 0 0 0 0 0 0 0 127 0"/><feOffset dy="4"/><feGaussianBlur stdDeviation="14"/><feComposite in2="hardAlpha" operator="out"/><feColorMatrix values="0 0 0 0 0.104167 0 0 0 0 0.066116 0 0 0 0 0.030816 0 0 0 0.06 0"/><feBlend in2="BackgroundImageFix" result="effect1_dropShadow_300_150"/><feBlend in="SourceGraphic" in2="effect1_dropShadow_300_150" result="shape"/></filter><filter id="i" width="166" height="166" x="646" y="283" color-interpolation-filters="sRGB" filterUnits="userSpaceOnUse"><feFlood flood-opacity="0" result="BackgroundImageFix"/><feColorMatrix in="SourceAlpha" result="hardAlpha" values="0 0 0 0 0 0 0 0 0 0 0 0 0 0 0 0 0 0 127 0"/><feOffset dy="4"/><feGaussianBlur stdDeviation="14"/><feComposite in2="hardAlpha" operator="out"/><feColorMatrix values="0 0 0 0 0.104167 0 0 0 0 0.066116 0 0 0 0 0.030816 0 0 0 0.06 0"/><feBlend in2="BackgroundImageFix" result="effect1_dropShadow_300_150"/><feBlend in="SourceGraphic" in2="effect1_dropShadow_300_150" result="shape"/></filter><filter id="j" width="148" height="148" x="655" y="292" color-interpolation-filters="sRGB" filterUnits="userSpaceOnUse"><feFlood flood-opacity="0" result="BackgroundImageFix"/><feColorMatrix in="SourceAlpha" result="hardAlpha" values="0 0 0 0 0 0 0 0 0 0 0 0 0 0 0 0 0 0 127 0"/><feOffset dy="4"/><feGaussianBlur stdDeviation="14"/><feComposite in2="hardAlpha" operator="out"/><feColorMatrix values="0 0 0 0 0.104167 0 0 0 0 0.066116 0 0 0 0 0.030816 0 0 0 0.06 0"/><feBlend in2="BackgroundImageFix" result="effect1_dropShadow_300_150"/><feBlend in="SourceGraphic" in2="effect1_dropShadow_300_150" result="shape"/></filter><filter id="l" width="17.619" height="17.619" x="708.19" y="356.667" color-interpolation-filters="sRGB" filterUnits="userSpaceOnUse"><feFlood flood-opacity="0" result="BackgroundImageFix"/><feColorMatrix in="SourceAlpha" result="hardAlpha" values="0 0 0 0 0 0 0 0 0 0 0 0 0 0 0 0 0 0 127 0"/><feOffset dy=".476"/><feGaussianBlur stdDeviation="1.905"/><feComposite in2="hardAlpha" operator="out"/><feColorMatrix values="0 0 0 0 0.104167 0 0 0 0 0.066116 0 0 0 0 0.030816 0 0 0 0.12 0"/><feBlend in2="BackgroundImageFix" result="effect1_dropShadow_300_150"/><feBlend in="SourceGraphic" in2="effect1_dropShadow_300_150" result="shape"/></filter><filter id="o" width="17.619" height="17.619" x="733.19" y="356.667" color-interpolation-filters="sRGB" filterUnits="userSpaceOnUse"><feFlood flood-opacity="0" result="BackgroundImageFix"/><feColorMatrix in="SourceAlpha" result="hardAlpha" values="0 0 0 0 0 0 0 0 0 0 0 0 0 0 0 0 0 0 127 0"/><feOffset dy=".476"/><feGaussianBlur stdDeviation="1.905"/><feComposite in2="hardAlpha" operator="out"/><feColorMatrix values="0 0 0 0 0.104167 0 0 0 0 0.066116 0 0 0 0 0.030816 0 0 0 0.12 0"/><feBlend in2="BackgroundImageFix" result="effect1_dropShadow_300_150"/><feBlend in="SourceGraphic" in2="effect1_dropShadow_300_150" result="shape"/></filter><filter id="r" width="21.143" height="21.143" x="718.429" y="343" color-interpolation-filters="sRGB" filterUnits="userSpaceOnUse"><feFlood flood-opacity="0" result="BackgroundImageFix"/><feColorMatrix in="SourceAlpha" result="hardAlpha" values="0 0 0 0 0 0 0 0 0 0 0 0 0 0 0 0 0 0 127 0"/><feOffset dy=".571"/><feGaussianBlur stdDeviation="2.286"/><feComposite in2="hardAlpha" operator="out"/><feColorMatrix values="0 0 0 0 0.104167 0 0 0 0 0.066116 0 0 0 0 0.030816 0 0 0 0.12 0"/><feBlend in2="BackgroundImageFix" result="effect1_dropShadow_300_150"/><feBlend in="SourceGraphic" in2="effect1_dropShadow_300_150" result="shape"/></filter><filter id="u" width="166" height="166" x="646" y="465" color-interpolation-filters="sRGB" filterUnits="userSpaceOnUse"><feFlood flood-opacity="0" result="BackgroundImageFix"/><feColorMatrix in="SourceAlpha" result="hardAlpha" values="0 0 0 0 0 0 0 0 0 0 0 0 0 0 0 0 0 0 127 0"/><feOffset dy="4"/><feGaussianBlur stdDeviation="14"/><feComposite in2="hardAlpha" operator="out"/><feColorMatrix values="0 0 0 0 0.104167 0 0 0 0 0.066116 0 0 0 0 0.030816 0 0 0 0.06 0"/><feBlend in2="BackgroundImageFix" result="effect1_dropShadow_300_150"/><feBlend in="SourceGraphic" in2="effect1_dropShadow_300_150" result="shape"/></filter><filter id="v" width="148" height="148" x="655" y="474" color-interpolation-filters="sRGB" filterUnits="userSpaceOnUse"><feFlood flood-opacity="0" result="BackgroundImageFix"/><feColorMatrix in="SourceAlpha" result="hardAlpha" values="0 0 0 0 0 0 0 0 0 0 0 0 0 0 0 0 0 0 127 0"/><feOffset dy="4"/><feGaussianBlur stdDeviation="14"/><feComposite in2="hardAlpha" operator="out"/><feColorMatrix values="0 0 0 0 0.104167 0 0 0 0 0.066116 0 0 0 0 0.030816 0 0 0 0.06 0"/><feBlend in2="BackgroundImageFix" result="effect1_dropShadow_300_150"/><feBlend in="SourceGraphic" in2="effect1_dropShadow_300_150" result="shape"/></filter><filter id="y" width="42.286" height="42.286" x="690.857" y="521" color-interpolation-filters="sRGB" filterUnits="userSpaceOnUse"><feFlood flood-opacity="0" result="BackgroundImageFix"/><feColorMatrix in="SourceAlpha" result="hardAlpha" values="0 0 0 0 0 0 0 0 0 0 0 0 0 0 0 0 0 0 127 0"/><feOffset dy="1.143"/><feGaussianBlur stdDeviation="4.571"/><feComposite in2="hardAlpha" operator="out"/><feColorMatrix values="0 0 0 0 0.104167 0 0 0 0 0.066116 0 0 0 0 0.030816 0 0 0 0.12 0"/><feBlend in2="BackgroundImageFix" result="effect1_dropShadow_300_150"/><feBlend in="SourceGraphic" in2="effect1_dropShadow_300_150" result="shape"/></filter><filter id="B" width="166" height="166" x="255" y="283" color-interpolation-filters="sRGB" filterUnits="userSpaceOnUse"><feFlood flood-opacity="0" result="BackgroundImageFix"/><feColorMatrix in="SourceAlpha" result="hardAlpha" values="0 0 0 0 0 0 0 0 0 0 0 0 0 0 0 0 0 0 127 0"/><feOffset dy="4"/><feGaussianBlur stdDeviation="14"/><feComposite in2="hardAlpha" operator="out"/><feColorMatrix values="0 0 0 0 0.104167 0 0 0 0 0.066116 0 0 0 0 0.030816 0 0 0 0.06 0"/><feBlend in2="BackgroundImageFix" result="effect1_dropShadow_300_150"/><feBlend in="SourceGraphic" in2="effect1_dropShadow_300_150" result="shape"/></filter><filter id="C" width="148" height="148" x="264" y="292" color-interpolation-filters="sRGB" filterUnits="userSpaceOnUse"><feFlood flood-opacity="0" result="BackgroundImageFix"/><feColorMatrix in="SourceAlpha" result="hardAlpha" values="0 0 0 0 0 0 0 0 0 0 0 0 0 0 0 0 0 0 127 0"/><feOffset dy="4"/><feGaussianBlur stdDeviation="14"/><feComposite in2="hardAlpha" operator="out"/><feColorMatrix values="0 0 0 0 0.104167 0 0 0 0 0.066116 0 0 0 0 0.030816 0 0 0 0.06 0"/><feBlend in2="BackgroundImageFix" result="effect1_dropShadow_300_150"/><feBlend in="SourceGraphic" in2="effect1_dropShadow_300_150" result="shape"/></filter><filter id="G" width="166" height="166" x="255" y="468" color-interpolation-filters="sRGB" filterUnits="userSpaceOnUse"><feFlood flood-opacity="0" result="BackgroundImageFix"/><feColorMatrix in="SourceAlpha" result="hardAlpha" values="0 0 0 0 0 0 0 0 0 0 0 0 0 0 0 0 0 0 127 0"/><feOffset dy="4"/><feGaussianBlur stdDeviation="14"/><feComposite in2="hardAlpha" operator="out"/><feColorMatrix values="0 0 0 0 0.104167 0 0 0 0 0.066116 0 0 0 0 0.030816 0 0 0 0.06 0"/><feBlend in2="BackgroundImageFix" result="effect1_dropShadow_300_150"/><feBlend in="SourceGraphic" in2="effect1_dropShadow_300_150" result="shape"/></filter><filter id="H" width="148" height="148" x="264" y="477" color-interpolation-filters="sRGB" filterUnits="userSpaceOnUse"><feFlood flood-opacity="0" result="BackgroundImageFix"/><feColorMatrix in="SourceAlpha" result="hardAlpha" values="0 0 0 0 0 0 0 0 0 0 0 0 0 0 0 0 0 0 127 0"/><feOffset dy="4"/><feGaussianBlur stdDeviation="14"/><feComposite in2="hardAlpha" operator="out"/><feColorMatrix values="0 0 0 0 0.104167 0 0 0 0 0.066116 0 0 0 0 0.030816 0 0 0 0.06 0"/><feBlend in2="BackgroundImageFix" result="effect1_dropShadow_300_150"/><feBlend in="SourceGraphic" in2="effect1_dropShadow_300_150" result="shape"/></filter><filter id="K" width="56.393" height="57.336" x="303.226" y="524.333" color-interpolation-filters="sRGB" filterUnits="userSpaceOnUse"><feFlood flood-opacity="0" result="BackgroundImageFix"/><feColorMatrix in="SourceAlpha" result="hardAlpha" values="0 0 0 0 0 0 0 0 0 0 0 0 0 0 0 0 0 0 127 0"/><feOffset dy=".952"/><feGaussianBlur stdDeviation="3.81"/><feComposite in2="hardAlpha" operator="out"/><feColorMatrix values="0 0 0 0 0.104167 0 0 0 0 0.066116 0 0 0 0 0.030816 0 0 0 0.12 0"/><feBlend in2="BackgroundImageFix" result="effect1_dropShadow_300_150"/><feBlend in="SourceGraphic" in2="effect1_dropShadow_300_150" result="shape"/></filter><linearGradient id="c" x1="400" x2="681.182" y1="358" y2="377.88" gradientUnits="userSpaceOnUse"><stop stop-color="#30C917"/><stop offset="1" stop-color="#279A13"/></linearGradient><linearGradient id="e" x1="455" x2="636.941" y1="389" y2="401.863" gradientUnits="userSpaceOnUse"><stop stop-color="#30C917"/><stop offset="1" stop-color="#279A13"/></linearGradient><linearGradient id="m" x1="712" x2="722.338" y1="361.875" y2="362.606" gradientUnits="userSpaceOnUse"><stop stop-color="#30C917"/><stop offset="1" stop-color="#279A13"/></linearGradient><linearGradient id="p" x1="737" x2="747.338" y1="361.875" y2="362.606" gradientUnits="userSpaceOnUse"><stop stop-color="#30C917"/><stop offset="1" stop-color="#279A13"/></linearGradient><linearGradient id="s" x1="723" x2="735.405" y1="349.25" y2="350.127" gradientUnits="userSpaceOnUse"><stop stop-color="#30C917"/><stop offset="1" stop-color="#279A13"/></linearGradient><linearGradient id="x" x1="713.297" x2="749.427" y1="526.115" y2="530.434" gradientUnits="userSpaceOnUse"><stop stop-color="#30C917"/><stop offset="1" stop-color="#279A13"/></linearGradient><linearGradient id="z" x1="700" x2="724.81" y1="533.5" y2="535.254" gradientUnits="userSpaceOnUse"><stop stop-color="#30C917"/><stop offset="1" stop-color="#279A13"/></linearGradient><linearGradient id="E" x1="335.931" x2="350.72" y1="385.274" y2="387.1" gradientUnits="userSpaceOnUse"><stop stop-color="#30C917"/><stop offset="1" stop-color="#279A13"/></linearGradient><linearGradient id="F" x1="339.014" x2="347.569" y1="377.001" y2="377.606" gradientUnits="userSpaceOnUse"><stop stop-color="#30C917"/><stop offset="1" stop-color="#279A13"/></linearGradient><linearGradient id="J" x1="309" x2="325.57" y1="559.75" y2="560.687" gradientUnits="userSpaceOnUse"><stop stop-color="#30C917"/><stop offset="1" stop-color="#279A13"/></linearGradient><linearGradient id="L" x1="332" x2="352.675" y1="534.75" y2="536.212" gradientUnits="userSpaceOnUse"><stop stop-color="#30C917"/><stop offset="1" stop-color="#279A13"/></linearGradient><linearGradient id="P" x1="497.469" x2="531.237" y1="653.687" y2="656.075" gradientUnits="userSpaceOnUse"><stop stop-color="#30C917"/><stop offset="1" stop-color="#279A13"/></linearGradient><linearGradient id="Q" x1="550.952" x2="584.679" y1="643.281" y2="645.666" gradientUnits="userSpaceOnUse"><stop stop-color="#30C917"/><stop offset="1" stop-color="#279A13"/></linearGradient><linearGradient id="T" x1="523.446" x2="564.886" y1="618.709" y2="621.644" gradientUnits="userSpaceOnUse"><stop stop-color="#30C917"/><stop offset="1" stop-color="#279A13"/></linearGradient><clipPath id="k"><path fill="#fff" d="M699 332h60v60h-60z"/></clipPath><clipPath id="w"><path fill="#fff" d="M699 514h60v60h-60z"/></clipPath><clipPath id="D"><path fill="#fff" d="M308 332h60v60h-60z"/></clipPath><clipPath id="I"><path fill="#fff" d="M308 517h60v60h-60z"/></clipPath><clipPath id="O"><path fill="#fff" d="M496 611h95v95h-95z"/></clipPath><clipPath id="V"><path fill="#fff" d="M530 550h27v35h-27z"/></clipPath></defs></svg>