<svg xmlns="http://www.w3.org/2000/svg" width="153" height="160" fill="none"><path fill="#fff" fill-opacity=".3" d="M148.146 77.895c-5.576-4.6-13.813-4.39-19.152.475l-18.057 16.453a13.79 13.79 0 0 0-11.178-5.665H80.61c-2.408 0-4.739-.41-6.929-1.224-5.41-2.008-16.1-4.715-26.86-.27-2.053.846-4.098 2.116-6.082 3.77L22.034 107.06c-2.925-1.708-6.737-1.332-9.238 1.169l-8.557 8.557a7.63 7.63 0 0 0 0 10.798l28.568 28.57c2.976 2.978 7.819 2.977 10.798 0l8.557-8.56c2.976-2.974 2.976-7.818 0-10.798l-.273-.272 2.064-2.063c3.888-3.886 9.116-5.945 14.384-5.576 12.649.82 25.46-.189 38.081-3.01a23.8 23.8 0 0 0 11.652-6.415l30.604-30.607c3.088-3.088 2.848-8.18-.528-10.958M48.7 144.132l-8.557 8.56a2.743 2.743 0 0 1-3.874 0l-28.568-28.57a2.74 2.74 0 0 1 0-3.874l8.557-8.557a2.743 2.743 0 0 1 3.873 0L48.7 140.259a2.74 2.74 0 0 1 .001 3.873m96.512-58.741-30.604 30.607a18.93 18.93 0 0 1-9.256 5.099c-12.17 2.714-24.524 3.699-36.696 2.901-6.65-.44-13.281 2.111-18.165 7.001l-2.064 2.063-22.616-22.777 18.066-15.091c1.601-1.335 3.22-2.346 4.813-3.006 9.213-3.804 18.545-1.42 23.287.337a24.7 24.7 0 0 0 8.633 1.53h19.15a8.914 8.914 0 0 1 8.934 8.981c-.009 1.487-1.25 2.697-2.766 2.697H62.887a2.448 2.448 0 1 0 0 4.897h43.041c4.196 0 7.635-3.393 7.663-7.558a13.7 13.7 0 0 0-.454-3.627l19.157-17.454c3.55-3.24 9.03-3.374 12.739-.318a2.51 2.51 0 0 1 .179 3.718"/><path stroke="#fff" stroke-opacity=".3" stroke-width="1.5" d="M52.945 136.529c3.013 3.288 2.93 8.414-.253 11.596l-8.557 8.559c-3.271 3.27-8.589 3.272-11.858 0zm0 0 1.538-1.538c3.745-3.743 8.765-5.71 13.802-5.358h.004c12.72.825 25.603-.19 38.293-3.026a24.55 24.55 0 0 0 12.018-6.617l-.53-.53.53.53 30.605-30.607c3.4-3.4 3.136-9.006-.582-12.067-5.864-4.838-14.519-4.617-20.134.5l-17.457 15.906a14.53 14.53 0 0 0-11.273-5.314H80.61c-2.322 0-4.564-.396-6.668-1.177l-.26.703.26-.703c-5.478-2.033-16.388-4.812-27.407-.26-2.134.88-4.244 2.192-6.276 3.888l-18.316 15.3c-3.137-1.575-7.058-1.08-9.677 1.539v.001l-8.557 8.557a8.38 8.38 0 0 0 0 11.858v.001l28.568 28.569zm-13.333 15.633 8.558-8.56a1.993 1.993 0 0 0-.002-2.813l-.008-.009-.049-.048-.212-.212-.846-.847-3.104-3.104-9.599-9.598-14.749-14.749a1.99 1.99 0 0 0-2.813 0l-8.556 8.556-.001.001a1.987 1.987 0 0 0 0 2.813L36.8 152.161zm0 0a1.994 1.994 0 0 1-2.812 0zm8.817-20.163 1.531-1.53c5.03-5.037 11.871-7.674 18.746-7.22 12.097.794 24.38-.185 36.483-2.884a18.18 18.18 0 0 0 8.888-4.898l30.605-30.607a1.76 1.76 0 0 0-.126-2.608c-3.421-2.82-8.483-2.695-11.757.293l-18.826 17.153c.253 1.099.377 2.231.368 3.379v.001l-.75-.006c-.028 4.165-3.467 7.558-7.663 7.558H62.887a2.448 2.448 0 1 1 0-4.897h43.041zm0 0-21.51-21.662L44.358 95.77c1.554-1.296 3.109-2.263 4.62-2.89 8.95-3.694 18.057-1.386 22.738.348zm-.259 8.788c.001-.366.129-.606.295-.762l.234.234zm.53 3.345-8.557 8.56z"/><path fill="#fff" fill-opacity=".3" d="M86.254 79.596c18.729 0 33.969-15.235 33.974-33.964a2.45 2.45 0 0 0-2.449-2.448H88.712V14.119a2.457 2.457 0 0 0-2.458-2.451c-18.721 0-33.953 15.233-33.953 33.955 0 18.733 15.232 33.973 33.953 33.973m-2.439-62.93v28.966a2.447 2.447 0 0 0 2.449 2.448h28.964c-1.253 14.887-13.77 26.62-28.974 26.62-16.022 0-29.057-13.043-29.057-29.077 0-15.202 11.733-27.714 26.618-28.958"/><path stroke="#fff" stroke-opacity=".3" stroke-width="1.5" d="M120.978 45.632a3.2 3.2 0 0 0-3.199-3.198H89.462V14.119c0-1.77-1.443-3.201-3.208-3.201-19.136 0-34.703 15.569-34.703 34.705 0 19.147 15.567 34.723 34.703 34.723 19.143 0 34.719-15.57 34.724-34.714Zm-37.913-28.14v28.14a3.197 3.197 0 0 0 3.199 3.198H114.4c-1.599 14.114-13.613 25.12-28.146 25.12-15.608 0-28.307-12.707-28.307-28.327 0-14.531 11.006-26.54 25.118-28.13Z"/><path fill="#fff" fill-opacity=".3" d="M96.238 38.105h31.513a2.455 2.455 0 0 0 2.448-2.458c0-18.716-15.235-33.947-33.962-33.952a2.45 2.45 0 0 0-2.448 2.449v31.513a2.447 2.447 0 0 0 2.448 2.448m2.448-31.41c14.08 1.183 25.34 12.44 26.516 26.513H98.686z"/><path stroke="#fff" stroke-opacity=".3" stroke-width="1.5" d="M96.238.945a3.2 3.2 0 0 0-3.199 3.199v31.513a3.197 3.197 0 0 0 3.198 3.198h31.514a3.205 3.205 0 0 0 3.198-3.208c0-19.13-15.571-34.697-34.711-34.702Zm3.198 31.513V7.522c13.065 1.479 23.467 11.879 24.939 24.936z"/></svg>