<svg xmlns="http://www.w3.org/2000/svg" width="138" height="30" fill="none"><path fill="#062010" d="M38.95 14.83h6.636v2.087h-6.635zm.21 7.17h-2.471V8.722h9.715v2.068H39.16zM54.505 22v-2.048l-.133-.436V15.93q0-1.044-.628-1.612-.627-.59-1.9-.589a5.6 5.6 0 0 0-1.693.266 4.2 4.2 0 0 0-1.388.74l-.931-1.726q.817-.627 1.939-.93a8.6 8.6 0 0 1 2.357-.323q2.205 0 3.404 1.063 1.216 1.043 1.216 3.244V22zm-3.194.134q-1.14 0-1.996-.38-.855-.398-1.331-1.081a2.83 2.83 0 0 1-.456-1.575q0-.854.399-1.536.418-.683 1.35-1.082.93-.398 2.471-.398h2.947v1.574h-2.776q-1.216 0-1.635.399-.418.38-.418.948 0 .645.513 1.025.514.38 1.426.38.875 0 1.56-.4a2.25 2.25 0 0 0 1.007-1.175l.399 1.423q-.342.892-1.236 1.384-.874.494-2.224.494M59.798 22V11.87h2.263v2.789l-.267-.816a3.22 3.22 0 0 1 1.426-1.555q.99-.532 2.453-.532v2.258a1.2 1.2 0 0 0-.285-.038 2 2 0 0 0-.267-.019q-1.35 0-2.148.797-.798.777-.798 2.333v4.914zM80.503 11.756q1.217 0 2.148.475.95.474 1.483 1.46.532.967.532 2.505V22H82.29v-5.502q0-1.347-.59-2.01-.588-.665-1.691-.665-.78 0-1.388.342a2.4 2.4 0 0 0-.932 1.005q-.323.665-.323 1.689V22h-2.377v-5.5q0-1.349-.589-2.012-.59-.664-1.692-.664-.78 0-1.388.342a2.4 2.4 0 0 0-.931 1.005q-.324.665-.324 1.689V22H67.69V11.87h2.262v2.694l-.399-.797a3.46 3.46 0 0 1 1.483-1.498q.989-.513 2.243-.513 1.426 0 2.472.702 1.065.702 1.407 2.125l-.932-.322q.495-1.139 1.635-1.822t2.643-.683M94.148 22.19q-1.559 0-2.87-.493a7.1 7.1 0 0 1-2.263-1.422 6.5 6.5 0 0 1-1.502-2.182q-.532-1.253-.532-2.732t.532-2.732a6.3 6.3 0 0 1 1.502-2.163 6.8 6.8 0 0 1 2.3-1.423q1.312-.512 2.871-.512 1.692 0 3.042.55 1.37.55 2.3 1.613l-1.558 1.518q-.78-.778-1.692-1.139a5 5 0 0 0-1.978-.379q-1.045 0-1.939.341a4.5 4.5 0 0 0-1.54.968 4.45 4.45 0 0 0-1.007 1.48 5 5 0 0 0-.343 1.878q0 1.005.343 1.86.36.853 1.007 1.498.646.626 1.521.967.875.342 1.94.342.988 0 1.9-.304.933-.322 1.769-1.062l1.407 1.84a7.4 7.4 0 0 1-2.434 1.271 9.5 9.5 0 0 1-2.776.418m2.871-2.01v-4.97h2.339v5.292zM102.389 22V11.87h2.263v2.789l-.266-.816a3.2 3.2 0 0 1 1.425-1.555q.989-.532 2.453-.532v2.258a1.2 1.2 0 0 0-.285-.038 2 2 0 0 0-.266-.019q-1.35 0-2.149.797-.798.777-.798 2.333v4.914zM114.75 22.134q-1.559 0-2.776-.664a5.1 5.1 0 0 1-1.92-1.86q-.703-1.176-.703-2.674 0-1.518.703-2.675a4.97 4.97 0 0 1 1.92-1.84q1.217-.665 2.776-.665 1.578 0 2.795.664a4.84 4.84 0 0 1 1.92 1.822q.703 1.157.703 2.694 0 1.498-.703 2.674a4.93 4.93 0 0 1-1.92 1.86q-1.217.663-2.795.664m0-2.03q.875 0 1.559-.38t1.065-1.1q.399-.72.399-1.688 0-.986-.399-1.689a2.63 2.63 0 0 0-1.065-1.1 3.1 3.1 0 0 0-1.54-.38q-.875 0-1.559.38-.666.38-1.065 1.1-.399.701-.399 1.689 0 .967.399 1.688.399.72 1.065 1.1.684.38 1.54.38M124.406 22l-3.727-10.13h2.244l3.194 8.936h-1.065l3.346-8.936h1.997l3.251 8.936H132.6l3.289-8.936h2.11L134.254 22h-2.281l-2.966-7.91h.703L126.687 22z"/><ellipse cx="15.032" cy="15" fill="url(#a)" rx="15.032" ry="15"/><mask id="b" width="26" height="20" x="2.106" y="7.445" fill="#000" maskUnits="userSpaceOnUse"><path fill="#fff" d="M2.106 7.445h26v20h-26z"/><path d="M21.236 10.795q-.52.005-1.031.087a7 7 0 0 0-1.005.244 6.5 6.5 0 0 0-1.833.935c-.557.406-1.049.893-1.532 1.384-.482.493-.964.969-1.489 1.423 1.06.64 2.257 1.009 3.487 1.142a8.8 8.8 0 0 0 3.661-.375 8.7 8.7 0 0 0 3.18-1.841c.91-.83 1.662-1.763 2.127-2.902a8.5 8.5 0 0 0-2.926-1.782 8.4 8.4 0 0 0-3.394-.46c-.573.04-1.14.149-1.692.31a7.63 7.63 0 0 0-2.312 1.124 10 10 0 0 0-.678.534c-.437.375-.848.782-1.255 1.195-.408.413-.812.832-1.238 1.232q-.318.301-.656.582a8 8 0 0 1-.89.65q-.093.058-.188.115l-.192.108c-.064.037-.132.067-.197.101l-.1.05q-.05.023-.1.045-.101.046-.203.089c-.138.053-.275.108-.417.15-.14.048-.284.08-.427.12l-.217.043-.11.022-.109.017a5.6 5.6 0 0 1-.884.06 5.9 5.9 0 0 1-3.321-1.068 6.1 6.1 0 0 1-2.164-2.733l-.025-.063.055-.039a5.6 5.6 0 0 1 2.775-1.01 6.1 6.1 0 0 1 2.916.466c.457.195.889.445 1.29.735.401.291.768.627 1.103.99a9.4 9.4 0 0 1 1.6 2.477q.303.675.514 1.384c.072.235.132.474.19.713q.08.36.139.725.11.729.174 1.462c.025.244.04.489.06.733.016.245.035.49.047.734q.082 1.47.097 2.94.017 1.47-.038 2.94.019-.735.018-1.47t-.017-1.47q-.029-1.47-.125-2.936c-.014-.244-.036-.488-.054-.733-.022-.243-.04-.487-.067-.73q-.071-.733-.188-1.455a11.3 11.3 0 0 0-.854-2.791 9.2 9.2 0 0 0-1.593-2.435 7.4 7.4 0 0 0-1.088-.967 6.6 6.6 0 0 0-1.266-.711 5.96 5.96 0 0 0-2.843-.438c-.962.092-1.877.353-2.659.92.423 1.063 1.169 1.958 2.106 2.614q.353.245.738.437a5.7 5.7 0 0 0 2.482.593q.43.003.854-.061l.105-.016.106-.021.21-.043c.137-.038.277-.07.412-.117.136-.04.269-.095.402-.145q.099-.042.197-.087.049-.02.097-.044l.096-.048c.063-.033.129-.063.19-.1l.187-.105q.092-.055.183-.113.092-.055.18-.117.357-.242.688-.519c.222-.182.436-.377.646-.575.42-.396.821-.815 1.23-1.228s.826-.824 1.27-1.204q.335-.286.693-.543c.238-.172.49-.327.746-.47a8.3 8.3 0 0 1 1.625-.678 8.2 8.2 0 0 1 1.733-.312 8.6 8.6 0 0 1 3.468.475 8.6 8.6 0 0 1 2.983 1.826l.044.04-.023.055a9 9 0 0 1-.407.85q-.23.411-.5.797a9 9 0 0 1-.588.736q-.315.35-.665.667a8.9 8.9 0 0 1-3.244 1.854 8.9 8.9 0 0 1-3.716.358A8.6 8.6 0 0 1 14.3 14.9l-.051-.032.046-.039c.524-.445 1.004-.942 1.492-1.431.489-.487.988-.972 1.553-1.375a6.5 6.5 0 0 1 1.853-.923 6.8 6.8 0 0 1 2.043-.305"/></mask><path fill="#fff" d="M21.236 10.795q-.52.005-1.031.087a7 7 0 0 0-1.005.244 6.5 6.5 0 0 0-1.833.935c-.557.406-1.049.893-1.532 1.384-.482.493-.964.969-1.489 1.423 1.06.64 2.257 1.009 3.487 1.142a8.8 8.8 0 0 0 3.661-.375 8.7 8.7 0 0 0 3.18-1.841c.91-.83 1.662-1.763 2.127-2.902a8.5 8.5 0 0 0-2.926-1.782 8.4 8.4 0 0 0-3.394-.46c-.573.04-1.14.149-1.692.31a7.63 7.63 0 0 0-2.312 1.124 10 10 0 0 0-.678.534c-.437.375-.848.782-1.255 1.195-.408.413-.812.832-1.238 1.232q-.318.301-.656.582a8 8 0 0 1-.89.65q-.093.058-.188.115l-.192.108c-.064.037-.132.067-.197.101l-.1.05q-.05.023-.1.045-.101.046-.203.089c-.138.053-.275.108-.417.15-.14.048-.284.08-.427.12l-.217.043-.11.022-.109.017a5.6 5.6 0 0 1-.884.06 5.9 5.9 0 0 1-3.321-1.068 6.1 6.1 0 0 1-2.164-2.733l-.025-.063.055-.039a5.6 5.6 0 0 1 2.775-1.01 6.1 6.1 0 0 1 2.916.466c.457.195.889.445 1.29.735.401.291.768.627 1.103.99a9.4 9.4 0 0 1 1.6 2.477q.303.675.514 1.384c.072.235.132.474.19.713q.08.36.139.725.11.729.174 1.462c.025.244.04.489.06.733.016.245.035.49.047.734q.082 1.47.097 2.94.017 1.47-.038 2.94.019-.735.018-1.47t-.017-1.47q-.029-1.47-.125-2.936c-.014-.244-.036-.488-.054-.733-.022-.243-.04-.487-.067-.73q-.071-.733-.188-1.455a11.3 11.3 0 0 0-.854-2.791 9.2 9.2 0 0 0-1.593-2.435 7.4 7.4 0 0 0-1.088-.967 6.6 6.6 0 0 0-1.266-.711 5.96 5.96 0 0 0-2.843-.438c-.962.092-1.877.353-2.659.92.423 1.063 1.169 1.958 2.106 2.614q.353.245.738.437a5.7 5.7 0 0 0 2.482.593q.43.003.854-.061l.105-.016.106-.021.21-.043c.137-.038.277-.07.412-.117.136-.04.269-.095.402-.145q.099-.042.197-.087.049-.02.097-.044l.096-.048c.063-.033.129-.063.19-.1l.187-.105q.092-.055.183-.113.092-.055.18-.117.357-.242.688-.519c.222-.182.436-.377.646-.575.42-.396.821-.815 1.23-1.228s.826-.824 1.27-1.204q.335-.286.693-.543c.238-.172.49-.327.746-.47a8.3 8.3 0 0 1 1.625-.678 8.2 8.2 0 0 1 1.733-.312 8.6 8.6 0 0 1 3.468.475 8.6 8.6 0 0 1 2.983 1.826l.044.04-.023.055a9 9 0 0 1-.407.85q-.23.411-.5.797a9 9 0 0 1-.588.736q-.315.35-.665.667a8.9 8.9 0 0 1-3.244 1.854 8.9 8.9 0 0 1-3.716.358A8.6 8.6 0 0 1 14.3 14.9l-.051-.032.046-.039c.524-.445 1.004-.942 1.492-1.431.489-.487.988-.972 1.553-1.375a6.5 6.5 0 0 1 1.853-.923 6.8 6.8 0 0 1 2.043-.305"/><path stroke="#fff" stroke-width=".789" d="M21.236 10.795q-.52.005-1.031.087a7 7 0 0 0-1.005.244 6.5 6.5 0 0 0-1.833.935c-.557.406-1.049.893-1.532 1.384-.482.493-.964.969-1.489 1.423 1.06.64 2.257 1.009 3.487 1.142a8.8 8.8 0 0 0 3.661-.375 8.7 8.7 0 0 0 3.18-1.841c.91-.83 1.662-1.763 2.127-2.902a8.5 8.5 0 0 0-2.926-1.782 8.4 8.4 0 0 0-3.394-.46c-.573.04-1.14.149-1.692.31a7.63 7.63 0 0 0-2.312 1.124 10 10 0 0 0-.678.534c-.437.375-.848.782-1.255 1.195-.408.413-.812.832-1.238 1.232q-.318.301-.656.582a8 8 0 0 1-.89.65q-.093.058-.188.115l-.192.108c-.064.037-.132.067-.197.101l-.1.05q-.05.023-.1.045-.101.046-.203.089c-.138.053-.275.108-.417.15-.14.048-.284.08-.427.12l-.217.043-.11.022-.109.017a5.6 5.6 0 0 1-.884.06 5.9 5.9 0 0 1-3.321-1.068 6.1 6.1 0 0 1-2.164-2.733l-.025-.063.055-.039a5.6 5.6 0 0 1 2.775-1.01 6.1 6.1 0 0 1 2.916.466c.457.195.889.445 1.29.735.401.291.768.627 1.103.99a9.4 9.4 0 0 1 1.6 2.477q.303.675.514 1.384c.072.235.132.474.19.713q.08.36.139.725.11.729.174 1.462c.025.244.04.489.06.733.016.245.035.49.047.734q.082 1.47.097 2.94.017 1.47-.038 2.94.019-.735.018-1.47t-.017-1.47q-.029-1.47-.125-2.936c-.014-.244-.036-.488-.054-.733-.022-.243-.04-.487-.067-.73q-.071-.733-.188-1.455a11.3 11.3 0 0 0-.854-2.791 9.2 9.2 0 0 0-1.593-2.435 7.4 7.4 0 0 0-1.088-.967 6.6 6.6 0 0 0-1.266-.711 5.96 5.96 0 0 0-2.843-.438c-.962.092-1.877.353-2.659.92.423 1.063 1.169 1.958 2.106 2.614q.353.245.738.437a5.7 5.7 0 0 0 2.482.593q.43.003.854-.061l.105-.016.106-.021.21-.043c.137-.038.277-.07.412-.117.136-.04.269-.095.402-.145q.099-.042.197-.087.049-.02.097-.044l.096-.048c.063-.033.129-.063.19-.1l.187-.105q.092-.055.183-.113.092-.055.18-.117.357-.242.688-.519c.222-.182.436-.377.646-.575.42-.396.821-.815 1.23-1.228s.826-.824 1.27-1.204q.335-.286.693-.543c.238-.172.49-.327.746-.47a8.3 8.3 0 0 1 1.625-.678 8.2 8.2 0 0 1 1.733-.312 8.6 8.6 0 0 1 3.468.475 8.6 8.6 0 0 1 2.983 1.826l.044.04-.023.055a9 9 0 0 1-.407.85q-.23.411-.5.797a9 9 0 0 1-.588.736q-.315.35-.665.667a8.9 8.9 0 0 1-3.244 1.854 8.9 8.9 0 0 1-3.716.358A8.6 8.6 0 0 1 14.3 14.9l-.051-.032.046-.039c.524-.445 1.004-.942 1.492-1.431.489-.487.988-.972 1.553-1.375a6.5 6.5 0 0 1 1.853-.923 6.8 6.8 0 0 1 2.043-.305Z" mask="url(#b)"/><defs><linearGradient id="a" x1="0" x2="31.078" y1="5.625" y2="7.827" gradientUnits="userSpaceOnUse"><stop stop-color="#30C917"/><stop offset="1" stop-color="#279A13"/></linearGradient></defs></svg>