<svg xmlns="http://www.w3.org/2000/svg" width="152" height="33" fill="none"><path fill="#062010" d="M42.904 16.311h7.308v2.296h-7.308zm.23 7.888h-2.722V9.591h10.7v2.275h-7.978zM60.036 24.2v-2.254l-.147-.48V17.52q0-1.148-.69-1.773-.692-.648-2.095-.647-.943 0-1.864.292-.9.292-1.528.814l-1.026-1.9q.9-.688 2.136-1.022a9.5 9.5 0 0 1 2.596-.355q2.43 0 3.749 1.17 1.34 1.146 1.34 3.568v6.531zm-3.518.146q-1.256 0-2.199-.418-.942-.438-1.466-1.19a3.1 3.1 0 0 1-.502-1.732q0-.938.44-1.69.46-.75 1.486-1.19 1.026-.438 2.722-.437h3.246v1.732h-3.057q-1.341 0-1.8.438a1.35 1.35 0 0 0-.462 1.043q0 .71.566 1.127.565.417 1.57.418.964 0 1.718-.439a2.48 2.48 0 0 0 1.11-1.294l.44 1.566q-.378.98-1.362 1.523-.963.543-2.45.543M65.866 24.2V13.055h2.492v3.067l-.293-.897a3.54 3.54 0 0 1 1.57-1.711q1.09-.585 2.702-.585v2.484a1.3 1.3 0 0 0-.314-.042 2 2 0 0 0-.293-.02q-1.487 0-2.367.876-.88.855-.88 2.566V24.2zM88.671 12.93q1.341 0 2.367.522 1.047.522 1.633 1.607.585 1.065.586 2.755v6.385H90.64v-6.051q0-1.482-.65-2.213-.648-.73-1.863-.73-.858 0-1.529.376-.65.375-1.026 1.106-.356.73-.356 1.857V24.2H82.6v-6.051q0-1.482-.65-2.213-.649-.73-1.863-.73-.859 0-1.529.376-.65.375-1.026 1.106-.356.73-.356 1.857V24.2h-2.618V13.056h2.492v2.963l-.44-.876a3.8 3.8 0 0 1 1.634-1.65q1.09-.563 2.47-.563 1.572 0 2.723.773 1.172.771 1.55 2.337l-1.026-.355q.544-1.252 1.8-2.003t2.911-.752M103.701 24.408q-1.718 0-3.162-.543a7.8 7.8 0 0 1-2.492-1.565 7.2 7.2 0 0 1-1.654-2.4q-.587-1.377-.587-3.004t.587-3.006a7 7 0 0 1 1.654-2.379 7.5 7.5 0 0 1 2.534-1.565q1.444-.563 3.162-.563 1.863 0 3.35.605a6.6 6.6 0 0 1 2.534 1.774l-1.717 1.67q-.858-.857-1.864-1.253-.984-.417-2.177-.417a5.9 5.9 0 0 0-2.136.375 4.9 4.9 0 0 0-1.696 1.065 4.9 4.9 0 0 0-1.11 1.627 5.5 5.5 0 0 0-.377 2.066q0 1.107.377 2.046a5.1 5.1 0 0 0 1.11 1.648q.712.69 1.675 1.065t2.136.375q1.089 0 2.094-.334 1.026-.355 1.947-1.168l1.55 2.024a8.2 8.2 0 0 1-2.681 1.398q-1.507.46-3.057.46m3.162-2.212v-5.468h2.576v5.823zM112.778 24.2V13.055h2.492v3.067l-.293-.897a3.54 3.54 0 0 1 1.57-1.711q1.09-.585 2.702-.585v2.484a1.3 1.3 0 0 0-.314-.042 2 2 0 0 0-.294-.02q-1.487 0-2.366.876-.879.855-.879 2.566V24.2zM126.393 24.346q-1.717 0-3.058-.73a5.63 5.63 0 0 1-2.115-2.046q-.774-1.294-.774-2.942 0-1.67.774-2.943a5.5 5.5 0 0 1 2.115-2.024q1.34-.73 3.058-.73 1.738 0 3.078.73a5.34 5.34 0 0 1 2.115 2.003q.775 1.274.775 2.964 0 1.649-.775 2.942a5.44 5.44 0 0 1-2.115 2.045q-1.34.73-3.078.73m0-2.233q.963 0 1.717-.418a2.9 2.9 0 0 0 1.173-1.21q.44-.793.439-1.857 0-1.086-.439-1.858a2.9 2.9 0 0 0-1.173-1.21 3.44 3.44 0 0 0-1.696-.418q-.964 0-1.717.418-.733.418-1.173 1.21-.44.772-.44 1.858 0 1.064.44 1.857t1.173 1.21a3.44 3.44 0 0 0 1.696.418M137.028 24.2l-4.104-11.144h2.471l3.518 9.829h-1.173l3.686-9.83h2.198l3.581 9.83h-1.152l3.623-9.83h2.325L147.875 24.2h-2.513l-3.266-8.702h.775l-3.33 8.702z"/><ellipse cx="16.557" cy="16.5" fill="url(#a)" rx="16.557" ry="16.5"/><mask id="b" width="28" height="21" x="2.42" y="8.289" fill="#000" maskUnits="userSpaceOnUse"><path fill="#fff" d="M2.42 8.289h28v21h-28z"/><path d="M23.389 11.874q-.571.005-1.136.095a7.4 7.4 0 0 0-1.107.269 7.1 7.1 0 0 0-2.018 1.028c-.614.447-1.156.982-1.688 1.523a27 27 0 0 1-1.64 1.565c1.167.704 2.485 1.11 3.84 1.256a9.7 9.7 0 0 0 4.033-.413 9.6 9.6 0 0 0 3.502-2.025c1.004-.913 1.83-1.939 2.343-3.192a9.3 9.3 0 0 0-3.222-1.96 9.3 9.3 0 0 0-3.739-.505 9 9 0 0 0-1.864.34 8.4 8.4 0 0 0-2.547 1.236q-.385.277-.746.588c-.481.413-.934.86-1.383 1.315s-.894.914-1.363 1.354q-.35.332-.723.64a9 9 0 0 1-.775.582q-.1.07-.204.133-.103.066-.207.127l-.213.12c-.07.04-.144.073-.216.11l-.11.055q-.055.026-.11.05-.112.05-.224.097c-.152.058-.303.12-.46.165-.153.053-.312.09-.47.132l-.239.048-.12.024-.12.018q-.486.072-.974.068A6.5 6.5 0 0 1 5.83 15.54a6.73 6.73 0 0 1-2.383-3.007l-.027-.068.06-.043c.893-.644 1.966-1.016 3.057-1.112a6.75 6.75 0 0 1 3.211.513 7.4 7.4 0 0 1 1.422.808c.441.321.845.69 1.214 1.09a10.3 10.3 0 0 1 1.762 2.724q.335.743.566 1.523c.08.259.146.521.209.784.058.265.113.53.154.798q.121.801.192 1.608c.027.268.045.538.066.806.017.27.038.539.052.808q.09 1.616.106 3.233a65 65 0 0 1-.041 3.234q.02-.808.02-1.617a89 89 0 0 0-.02-1.616 71 71 0 0 0-.137-3.23c-.016-.269-.04-.537-.06-.806-.024-.268-.044-.537-.073-.804a25 25 0 0 0-.208-1.6 12.4 12.4 0 0 0-.94-3.07 10.2 10.2 0 0 0-1.755-2.678 8 8 0 0 0-1.198-1.064 7.2 7.2 0 0 0-1.394-.783 6.6 6.6 0 0 0-3.132-.48c-1.06.1-2.068.387-2.928 1.012.466 1.169 1.287 2.153 2.32 2.875q.388.27.812.48a6.3 6.3 0 0 0 2.734.652c.314.003.63-.02.94-.067l.116-.017.116-.024.231-.047c.152-.042.306-.076.454-.128.151-.045.297-.104.444-.16q.109-.047.216-.095.054-.023.108-.049l.105-.053q.106-.052.21-.109l.206-.116q.101-.061.201-.124.101-.061.198-.13c.263-.175.514-.368.758-.57q.365-.303.711-.633c.464-.435.905-.896 1.356-1.35.45-.455.909-.906 1.4-1.325q.366-.315.761-.598c.263-.189.54-.36.822-.517a9 9 0 0 1 1.79-.745 9 9 0 0 1 1.908-.343 9.5 9.5 0 0 1 3.82.523 9.5 9.5 0 0 1 3.286 2.007l.049.046-.025.06q-.2.477-.449.934a10 10 0 0 1-.551.877q-.304.422-.648.81-.347.385-.732.733a9.8 9.8 0 0 1-3.573 2.04 9.8 9.8 0 0 1-4.093.394 9.4 9.4 0 0 1-3.877-1.346l-.056-.035.05-.042c.578-.49 1.106-1.037 1.644-1.575.538-.536 1.088-1.07 1.71-1.513a7.1 7.1 0 0 1 2.041-1.014 7.5 7.5 0 0 1 2.251-.336"/></mask><path fill="#fff" d="M23.389 11.874q-.571.005-1.136.095a7.4 7.4 0 0 0-1.107.269 7.1 7.1 0 0 0-2.018 1.028c-.614.447-1.156.982-1.688 1.523a27 27 0 0 1-1.64 1.565c1.167.704 2.485 1.11 3.84 1.256a9.7 9.7 0 0 0 4.033-.413 9.6 9.6 0 0 0 3.502-2.025c1.004-.913 1.83-1.939 2.343-3.192a9.3 9.3 0 0 0-3.222-1.96 9.3 9.3 0 0 0-3.739-.505 9 9 0 0 0-1.864.34 8.4 8.4 0 0 0-2.547 1.236q-.385.277-.746.588c-.481.413-.934.86-1.383 1.315s-.894.914-1.363 1.354q-.35.332-.723.64a9 9 0 0 1-.775.582q-.1.07-.204.133-.103.066-.207.127l-.213.12c-.07.04-.144.073-.216.11l-.11.055q-.055.026-.11.05-.112.05-.224.097c-.152.058-.303.12-.46.165-.153.053-.312.09-.47.132l-.239.048-.12.024-.12.018q-.486.072-.974.068A6.5 6.5 0 0 1 5.83 15.54a6.73 6.73 0 0 1-2.383-3.007l-.027-.068.06-.043c.893-.644 1.966-1.016 3.057-1.112a6.75 6.75 0 0 1 3.211.513 7.4 7.4 0 0 1 1.422.808c.441.321.845.69 1.214 1.09a10.3 10.3 0 0 1 1.762 2.724q.335.743.566 1.523c.08.259.146.521.209.784.058.265.113.53.154.798q.121.801.192 1.608c.027.268.045.538.066.806.017.27.038.539.052.808q.09 1.616.106 3.233a65 65 0 0 1-.041 3.234q.02-.808.02-1.617a89 89 0 0 0-.02-1.616 71 71 0 0 0-.137-3.23c-.016-.269-.04-.537-.06-.806-.024-.268-.044-.537-.073-.804a25 25 0 0 0-.208-1.6 12.4 12.4 0 0 0-.94-3.07 10.2 10.2 0 0 0-1.755-2.678 8 8 0 0 0-1.198-1.064 7.2 7.2 0 0 0-1.394-.783 6.6 6.6 0 0 0-3.132-.48c-1.06.1-2.068.387-2.928 1.012.466 1.169 1.287 2.153 2.32 2.875q.388.27.812.48a6.3 6.3 0 0 0 2.734.652c.314.003.63-.02.94-.067l.116-.017.116-.024.231-.047c.152-.042.306-.076.454-.128.151-.045.297-.104.444-.16q.109-.047.216-.095.054-.023.108-.049l.105-.053q.106-.052.21-.109l.206-.116q.101-.061.201-.124.101-.061.198-.13c.263-.175.514-.368.758-.57q.365-.303.711-.633c.464-.435.905-.896 1.356-1.35.45-.455.909-.906 1.4-1.325q.366-.315.761-.598c.263-.189.54-.36.822-.517a9 9 0 0 1 1.79-.745 9 9 0 0 1 1.908-.343 9.5 9.5 0 0 1 3.82.523 9.5 9.5 0 0 1 3.286 2.007l.049.046-.025.06q-.2.477-.449.934a10 10 0 0 1-.551.877q-.304.422-.648.81-.347.385-.732.733a9.8 9.8 0 0 1-3.573 2.04 9.8 9.8 0 0 1-4.093.394 9.4 9.4 0 0 1-3.877-1.346l-.056-.035.05-.042c.578-.49 1.106-1.037 1.644-1.575.538-.536 1.088-1.07 1.71-1.513a7.1 7.1 0 0 1 2.041-1.014 7.5 7.5 0 0 1 2.251-.336"/><path stroke="#fff" stroke-width=".631" d="M23.389 11.874q-.571.005-1.136.095a7.4 7.4 0 0 0-1.107.269 7.1 7.1 0 0 0-2.018 1.028c-.614.447-1.156.982-1.688 1.523a27 27 0 0 1-1.64 1.565c1.167.704 2.485 1.11 3.84 1.256a9.7 9.7 0 0 0 4.033-.413 9.6 9.6 0 0 0 3.502-2.025c1.004-.913 1.83-1.939 2.343-3.192a9.3 9.3 0 0 0-3.222-1.96 9.3 9.3 0 0 0-3.739-.505 9 9 0 0 0-1.864.34 8.4 8.4 0 0 0-2.547 1.236q-.385.277-.746.588c-.481.413-.934.86-1.383 1.315s-.894.914-1.363 1.354q-.35.332-.723.64a9 9 0 0 1-.775.582q-.1.07-.204.133-.103.066-.207.127l-.213.12c-.07.04-.144.073-.216.11l-.11.055q-.055.026-.11.05-.112.05-.224.097c-.152.058-.303.12-.46.165-.153.053-.312.09-.47.132l-.239.048-.12.024-.12.018q-.486.072-.974.068A6.5 6.5 0 0 1 5.83 15.54a6.73 6.73 0 0 1-2.383-3.007l-.027-.068.06-.043c.893-.644 1.966-1.016 3.057-1.112a6.75 6.75 0 0 1 3.211.513 7.4 7.4 0 0 1 1.422.808c.441.321.845.69 1.214 1.09a10.3 10.3 0 0 1 1.762 2.724q.335.743.566 1.523c.08.259.146.521.209.784.058.265.113.53.154.798q.121.801.192 1.608c.027.268.045.538.066.806.017.27.038.539.052.808q.09 1.616.106 3.233a65 65 0 0 1-.041 3.234q.02-.808.02-1.617a89 89 0 0 0-.02-1.616 71 71 0 0 0-.137-3.23c-.016-.269-.04-.537-.06-.806-.024-.268-.044-.537-.073-.804a25 25 0 0 0-.208-1.6 12.4 12.4 0 0 0-.94-3.07 10.2 10.2 0 0 0-1.755-2.678 8 8 0 0 0-1.198-1.064 7.2 7.2 0 0 0-1.394-.783 6.6 6.6 0 0 0-3.132-.48c-1.06.1-2.068.387-2.928 1.012.466 1.169 1.287 2.153 2.32 2.875q.388.27.812.48a6.3 6.3 0 0 0 2.734.652c.314.003.63-.02.94-.067l.116-.017.116-.024.231-.047c.152-.042.306-.076.454-.128.151-.045.297-.104.444-.16q.109-.047.216-.095.054-.023.108-.049l.105-.053q.106-.052.21-.109l.206-.116q.101-.061.201-.124.101-.061.198-.13c.263-.175.514-.368.758-.57q.365-.303.711-.633c.464-.435.905-.896 1.356-1.35.45-.455.909-.906 1.4-1.325q.366-.315.761-.598c.263-.189.54-.36.822-.517a9 9 0 0 1 1.79-.745 9 9 0 0 1 1.908-.343 9.5 9.5 0 0 1 3.82.523 9.5 9.5 0 0 1 3.286 2.007l.049.046-.025.06q-.2.477-.449.934a10 10 0 0 1-.551.877q-.304.422-.648.81-.347.385-.732.733a9.8 9.8 0 0 1-3.573 2.04 9.8 9.8 0 0 1-4.093.394 9.4 9.4 0 0 1-3.877-1.346l-.056-.035.05-.042c.578-.49 1.106-1.037 1.644-1.575.538-.536 1.088-1.07 1.71-1.513a7.1 7.1 0 0 1 2.041-1.014 7.5 7.5 0 0 1 2.251-.336Z" mask="url(#b)"/><defs><linearGradient id="a" x1="0" x2="34.231" y1="6.188" y2="8.616" gradientUnits="userSpaceOnUse"><stop stop-color="#30C917"/><stop offset="1" stop-color="#279A13"/></linearGradient></defs></svg>