<svg width="138" height="30" viewBox="0 0 138 30" fill="none" xmlns="http://www.w3.org/2000/svg">
<path d="M38.9509 14.8297H45.586V16.9166H38.9509V14.8297ZM39.16 22.0009H36.6885V8.72096H46.4036V10.7888H39.16V22.0009Z" fill="#062010"/>
<path d="M54.5048 22.0009V19.952L54.3718 19.5156V15.9301C54.3718 15.2344 54.1626 14.6969 53.7444 14.3175C53.3261 13.9254 52.6924 13.7294 51.8432 13.7294C51.2728 13.7294 50.7088 13.8179 50.1511 13.995C49.6061 14.1721 49.1435 14.4187 48.7633 14.7349L47.8317 13.0085C48.3767 12.5911 49.0231 12.2812 49.7709 12.0789C50.5314 11.8639 51.3172 11.7564 52.1284 11.7564C53.5986 11.7564 54.733 12.1105 55.5315 12.8188C56.3427 13.5144 56.7482 14.5957 56.7482 16.0629V22.0009H54.5048ZM51.3108 22.1337C50.5504 22.1337 49.885 22.0072 49.3146 21.7543C48.7442 21.4887 48.3006 21.1282 47.9838 20.6729C47.6796 20.2049 47.5275 19.6801 47.5275 19.0983C47.5275 18.5291 47.6606 18.0169 47.9267 17.5616C48.2056 17.1063 48.6555 16.7458 49.2766 16.4802C49.8976 16.2146 50.7215 16.0818 51.7481 16.0818H54.695V17.6564H51.9192C51.1081 17.6564 50.563 17.7892 50.2842 18.0548C50.0054 18.3078 49.8659 18.624 49.8659 19.0034C49.8659 19.4334 50.0371 19.7749 50.3793 20.0279C50.7215 20.2808 51.1968 20.4073 51.8052 20.4073C52.3882 20.4073 52.9078 20.2745 53.3641 20.0089C53.8331 19.7433 54.169 19.3512 54.3718 18.8327L54.771 20.2555C54.5429 20.85 54.1309 21.3116 53.5352 21.6404C52.9522 21.9693 52.2107 22.1337 51.3108 22.1337Z" fill="#062010"/>
<path d="M59.7982 22.0009V11.8702H62.0606V14.659L61.7944 13.8432C62.0986 13.1602 62.5739 12.6417 63.2203 12.2876C63.8794 11.9334 64.6969 11.7564 65.6728 11.7564V14.014C65.5714 13.9887 65.4764 13.976 65.3877 13.976C65.2989 13.9634 65.2102 13.957 65.1215 13.957C64.2216 13.957 63.5055 14.2226 62.9732 14.7538C62.4408 15.2724 62.1747 16.0502 62.1747 17.0873V22.0009H59.7982Z" fill="#062010"/>
<path d="M80.5029 11.7564C81.314 11.7564 82.0302 11.9145 82.6512 12.2307C83.2849 12.5468 83.7792 13.0338 84.1341 13.6914C84.489 14.3365 84.6665 15.1712 84.6665 16.1957V22.0009H82.29V16.4992C82.29 15.6012 82.0935 14.9309 81.7006 14.4882C81.3077 14.0456 80.7437 13.8242 80.0086 13.8242C79.4889 13.8242 79.0263 13.9381 78.6207 14.1657C78.2278 14.3934 77.9172 14.7285 77.6891 15.1712C77.4736 15.6139 77.3659 16.1767 77.3659 16.8597V22.0009H74.9894V16.4992C74.9894 15.6012 74.793 14.9309 74.4 14.4882C74.0071 14.0456 73.4431 13.8242 72.708 13.8242C72.1883 13.8242 71.7257 13.9381 71.3201 14.1657C70.9272 14.3934 70.6167 14.7285 70.3885 15.1712C70.1731 15.6139 70.0653 16.1767 70.0653 16.8597V22.0009H67.6888V11.8702H69.9513V14.5641L69.552 13.7673C69.8942 13.1097 70.3885 12.6101 71.0349 12.2686C71.694 11.9271 72.4418 11.7564 73.2783 11.7564C74.2289 11.7564 75.0528 11.9904 75.7499 12.4583C76.4597 12.9263 76.9286 13.6345 77.1568 14.5831L76.2252 14.2606C76.5547 13.5017 77.0997 12.8947 77.8602 12.4393C78.6207 11.984 79.5016 11.7564 80.5029 11.7564Z" fill="#062010"/>
<path d="M94.1483 22.1906C93.109 22.1906 92.1521 22.0262 91.2776 21.6973C90.4157 21.3559 89.6615 20.8816 89.0151 20.2745C88.3687 19.6548 87.8681 18.9275 87.5132 18.0928C87.1583 17.2581 86.9809 16.3474 86.9809 15.3609C86.9809 14.3744 87.1583 13.4638 87.5132 12.6291C87.8681 11.7943 88.3687 11.0734 89.0151 10.4663C89.6742 9.84659 90.441 9.37231 91.3156 9.04348C92.1901 8.70199 93.1471 8.53125 94.1864 8.53125C95.3144 8.53125 96.3284 8.71464 97.2283 9.08142C98.1408 9.4482 98.9077 9.98572 99.5287 10.694L97.9697 12.2117C97.4501 11.6931 96.8861 11.3137 96.2777 11.0734C95.682 10.8205 95.0229 10.694 94.3004 10.694C93.6033 10.694 92.9569 10.8078 92.3612 11.0355C91.7655 11.2631 91.2522 11.5856 90.8213 12.003C90.3903 12.4204 90.0545 12.9136 89.8136 13.4828C89.5855 14.0519 89.4714 14.678 89.4714 15.3609C89.4714 16.0312 89.5855 16.651 89.8136 17.2201C90.0545 17.7892 90.3903 18.2888 90.8213 18.7188C91.2522 19.1362 91.7592 19.4587 92.3422 19.6864C92.9252 19.914 93.5717 20.0279 94.2814 20.0279C94.9405 20.0279 95.5742 19.9267 96.1826 19.7243C96.8037 19.5093 97.393 19.1552 97.9507 18.6619L99.3576 20.5021C98.6605 21.0586 97.8493 21.4823 96.9241 21.7732C96.0115 22.0515 95.0863 22.1906 94.1483 22.1906ZM97.0191 20.1796V15.2092H99.3576V20.5021L97.0191 20.1796Z" fill="#062010"/>
<path d="M102.389 22.0009V11.8702H104.652V14.659L104.386 13.8432C104.69 13.1602 105.165 12.6417 105.811 12.2876C106.47 11.9334 107.288 11.7564 108.264 11.7564V14.014C108.163 13.9887 108.067 13.976 107.979 13.976C107.89 13.9634 107.801 13.957 107.713 13.957C106.813 13.957 106.097 14.2226 105.564 14.7538C105.032 15.2724 104.766 16.0502 104.766 17.0873V22.0009H102.389Z" fill="#062010"/>
<path d="M114.75 22.1337C113.711 22.1337 112.785 21.9123 111.974 21.4697C111.163 21.0144 110.523 20.3946 110.054 19.6105C109.585 18.8263 109.351 17.9347 109.351 16.9355C109.351 15.9237 109.585 15.0321 110.054 14.2606C110.523 13.4764 111.163 12.863 111.974 12.4204C112.785 11.9777 113.711 11.7564 114.75 11.7564C115.802 11.7564 116.734 11.9777 117.545 12.4204C118.369 12.863 119.009 13.4701 119.465 14.2416C119.934 15.0131 120.168 15.9111 120.168 16.9355C120.168 17.9347 119.934 18.8263 119.465 19.6105C119.009 20.3946 118.369 21.0144 117.545 21.4697C116.734 21.9123 115.802 22.1337 114.75 22.1337ZM114.75 20.1037C115.333 20.1037 115.853 19.9773 116.309 19.7243C116.765 19.4714 117.12 19.1046 117.374 18.624C117.64 18.1434 117.773 17.5806 117.773 16.9355C117.773 16.2779 117.64 15.7151 117.374 15.2471C117.12 14.7665 116.765 14.3997 116.309 14.1468C115.853 13.8938 115.339 13.7673 114.769 13.7673C114.186 13.7673 113.666 13.8938 113.21 14.1468C112.766 14.3997 112.411 14.7665 112.145 15.2471C111.879 15.7151 111.746 16.2779 111.746 16.9355C111.746 17.5806 111.879 18.1434 112.145 18.624C112.411 19.1046 112.766 19.4714 113.21 19.7243C113.666 19.9773 114.18 20.1037 114.75 20.1037Z" fill="#062010"/>
<path d="M124.406 22.0009L120.679 11.8702H122.923L126.117 20.8057H125.052L128.398 11.8702H130.395L133.646 20.8057H132.6L135.889 11.8702H137.999L134.254 22.0009H131.973L129.007 14.0898H129.71L126.687 22.0009H124.406Z" fill="#062010"/>
<ellipse cx="15.0321" cy="15" rx="15.0321" ry="15" fill="url(#paint0_linear_300_1155)"/>
<mask id="path-3-outside-1_300_1155" maskUnits="userSpaceOnUse" x="2.10645" y="7.44531" width="26" height="20" fill="black">
<rect fill="white" x="2.10645" y="7.44531" width="26" height="20"/>
<path d="M21.2363 10.7953C20.8905 10.7986 20.5458 10.8273 20.2048 10.8819C19.8638 10.9366 19.528 11.0199 19.2002 11.1259C18.5451 11.3401 17.9211 11.6523 17.3674 12.0611C16.8104 12.467 16.3185 12.9539 15.835 13.4455C15.3526 13.9385 14.871 14.4137 14.3461 14.8681C15.4059 15.508 16.6029 15.8768 17.8329 16.01C19.062 16.147 20.3194 16.0147 21.4942 15.6347C22.6696 15.2552 23.7624 14.6237 24.6736 13.7935C25.5848 12.9638 26.3356 12.0309 26.8007 10.8918C25.9597 10.1073 24.9584 9.49562 23.8751 9.10995C22.7917 8.72288 21.6268 8.57219 20.4812 8.65083C19.9077 8.69086 19.3403 8.79869 18.7889 8.95974C18.2385 9.12455 17.7056 9.34634 17.2028 9.6237C16.9533 9.7645 16.7095 9.91519 16.4765 10.0838C16.244 10.2524 16.0171 10.4289 15.7992 10.6178C15.362 10.9931 14.9507 11.4004 14.5437 11.8134C14.1362 12.2259 13.7315 12.6445 13.3061 13.0448C13.0934 13.2449 12.876 13.4408 12.6496 13.6268C12.4237 13.8137 12.1907 13.9927 11.9454 14.1556C11.8846 14.1971 11.8238 14.2385 11.7606 14.2762C11.6978 14.3148 11.636 14.3548 11.5724 14.3915L11.3795 14.4998C11.3158 14.537 11.2484 14.5672 11.1828 14.6011L11.0838 14.651C11.0507 14.667 11.0163 14.6811 10.9828 14.6962C10.9149 14.7254 10.8484 14.757 10.78 14.7847C10.6418 14.8375 10.5046 14.8926 10.3631 14.9345C10.2235 14.983 10.0787 15.0155 9.93625 15.0541L9.71883 15.0984L9.60988 15.12L9.49999 15.1365C9.20757 15.1803 8.91185 15.2005 8.61614 15.1977C8.02517 15.1921 7.43609 15.0951 6.8739 14.9147C6.5928 14.8243 6.31878 14.7127 6.05466 14.5813C5.79102 14.4485 5.5368 14.2974 5.29485 14.1292C4.32988 13.4512 3.56488 12.4924 3.13097 11.3957L3.10645 11.3331L3.16068 11.294C3.97143 10.7087 4.94631 10.371 5.93628 10.2834C6.92767 10.1958 7.93839 10.3616 8.85195 10.7496C9.3085 10.9446 9.74052 11.1946 10.1424 11.4847C10.5433 11.7762 10.9097 12.1124 11.2446 12.4759C11.911 13.2072 12.4411 14.0539 12.8449 14.9519C13.0481 15.4007 13.2184 15.864 13.3589 16.3359C13.4311 16.5713 13.491 16.8101 13.5481 17.0493C13.6009 17.2894 13.6504 17.531 13.6877 17.774C13.7617 18.26 13.8193 18.7473 13.8622 19.2361C13.8867 19.4801 13.9027 19.7249 13.9225 19.9693C13.9381 20.2142 13.957 20.4586 13.9692 20.7035C14.0244 21.6824 14.0555 22.6624 14.0655 23.6428C14.0768 24.6227 14.0659 25.6031 14.0282 26.5826C14.0409 26.0929 14.0461 25.6027 14.0461 25.1129C14.0442 24.6232 14.04 24.133 14.0291 23.6433C14.0093 22.6638 13.9688 21.6848 13.9042 20.7072C13.8895 20.4628 13.8683 20.2189 13.8504 19.9745C13.8277 19.7306 13.8098 19.4867 13.7829 19.2432C13.7353 18.7563 13.6731 18.2703 13.5948 17.7886C13.5136 17.3073 13.4004 16.8317 13.258 16.3651C13.116 15.8984 12.9448 15.4407 12.7411 14.9976C12.3369 14.1114 11.8077 13.2783 11.1479 12.563C10.8163 12.2075 10.4551 11.8793 10.0603 11.5963C9.66506 11.3142 9.24153 11.0727 8.79441 10.8848C7.89972 10.5113 6.9154 10.3564 5.9509 10.4473C4.98876 10.5387 4.07378 10.8002 3.29227 11.3677C3.71533 12.4305 4.46099 13.3254 5.39814 13.9814C5.63349 14.1443 5.88016 14.2903 6.13578 14.4184C6.39188 14.5451 6.65789 14.6529 6.9305 14.74C7.47571 14.9138 8.04639 15.0065 8.61802 15.0108C8.90383 15.0131 9.18965 14.9929 9.47169 14.95L9.57734 14.934L9.68251 14.9128L9.89239 14.8695C10.0301 14.8318 10.1697 14.8007 10.3046 14.7532C10.4414 14.7122 10.5739 14.6585 10.7074 14.6077C10.7734 14.5808 10.838 14.5502 10.9036 14.5215C10.9361 14.5069 10.9691 14.4933 11.0012 14.4772L11.097 14.4287C11.1602 14.3958 11.2257 14.3661 11.2875 14.3299L11.4743 14.2244C11.5361 14.1881 11.596 14.149 11.6573 14.1114C11.7186 14.0746 11.778 14.0341 11.837 13.9936C12.0756 13.8345 12.3034 13.6588 12.5246 13.4752C12.7468 13.2925 12.9609 13.0985 13.1708 12.9002C13.5915 12.5042 13.9924 12.0851 14.4017 11.6721C14.8106 11.2587 15.2266 10.8485 15.6719 10.468C15.8935 10.2768 16.1256 10.0965 16.3638 9.92461C16.6019 9.75273 16.8533 9.5978 17.1099 9.45418C17.6254 9.17117 18.1715 8.94514 18.7352 8.7775C19.2997 8.61363 19.8808 8.50485 20.4675 8.46482C21.64 8.38666 22.829 8.54299 23.9355 8.94043C25.0414 9.33646 26.0625 9.96322 26.919 10.7656L26.9629 10.8066L26.9403 10.8612C26.8186 11.1508 26.6837 11.4348 26.5332 11.7107C26.3795 11.9848 26.2139 12.2518 26.0324 12.5084C25.8484 12.7632 25.6536 13.0099 25.4447 13.244C25.2339 13.4766 25.0136 13.7007 24.7802 13.9108C23.8468 14.7513 22.7318 15.3861 21.5362 15.7647C20.3406 16.1433 19.0653 16.2695 17.8202 16.1235C16.575 15.9808 15.3639 15.5584 14.3003 14.8996L14.2489 14.8681L14.2947 14.8295C14.8191 14.384 15.2988 13.8872 15.7869 13.3979C16.2756 12.9106 16.7746 12.426 17.3396 12.0225C17.9018 11.6165 18.5319 11.3067 19.1926 11.1004C19.5233 10.9983 19.8614 10.9191 20.2034 10.8688C20.5448 10.8188 20.891 10.7944 21.2363 10.7953Z"/>
</mask>
<path d="M21.2363 10.7953C20.8905 10.7986 20.5458 10.8273 20.2048 10.8819C19.8638 10.9366 19.528 11.0199 19.2002 11.1259C18.5451 11.3401 17.9211 11.6523 17.3674 12.0611C16.8104 12.467 16.3185 12.9539 15.835 13.4455C15.3526 13.9385 14.871 14.4137 14.3461 14.8681C15.4059 15.508 16.6029 15.8768 17.8329 16.01C19.062 16.147 20.3194 16.0147 21.4942 15.6347C22.6696 15.2552 23.7624 14.6237 24.6736 13.7935C25.5848 12.9638 26.3356 12.0309 26.8007 10.8918C25.9597 10.1073 24.9584 9.49562 23.8751 9.10995C22.7917 8.72288 21.6268 8.57219 20.4812 8.65083C19.9077 8.69086 19.3403 8.79869 18.7889 8.95974C18.2385 9.12455 17.7056 9.34634 17.2028 9.6237C16.9533 9.7645 16.7095 9.91519 16.4765 10.0838C16.244 10.2524 16.0171 10.4289 15.7992 10.6178C15.362 10.9931 14.9507 11.4004 14.5437 11.8134C14.1362 12.2259 13.7315 12.6445 13.3061 13.0448C13.0934 13.2449 12.876 13.4408 12.6496 13.6268C12.4237 13.8137 12.1907 13.9927 11.9454 14.1556C11.8846 14.1971 11.8238 14.2385 11.7606 14.2762C11.6978 14.3148 11.636 14.3548 11.5724 14.3915L11.3795 14.4998C11.3158 14.537 11.2484 14.5672 11.1828 14.6011L11.0838 14.651C11.0507 14.667 11.0163 14.6811 10.9828 14.6962C10.9149 14.7254 10.8484 14.757 10.78 14.7847C10.6418 14.8375 10.5046 14.8926 10.3631 14.9345C10.2235 14.983 10.0787 15.0155 9.93625 15.0541L9.71883 15.0984L9.60988 15.12L9.49999 15.1365C9.20757 15.1803 8.91185 15.2005 8.61614 15.1977C8.02517 15.1921 7.43609 15.0951 6.8739 14.9147C6.5928 14.8243 6.31878 14.7127 6.05466 14.5813C5.79102 14.4485 5.5368 14.2974 5.29485 14.1292C4.32988 13.4512 3.56488 12.4924 3.13097 11.3957L3.10645 11.3331L3.16068 11.294C3.97143 10.7087 4.94631 10.371 5.93628 10.2834C6.92767 10.1958 7.93839 10.3616 8.85195 10.7496C9.3085 10.9446 9.74052 11.1946 10.1424 11.4847C10.5433 11.7762 10.9097 12.1124 11.2446 12.4759C11.911 13.2072 12.4411 14.0539 12.8449 14.9519C13.0481 15.4007 13.2184 15.864 13.3589 16.3359C13.4311 16.5713 13.491 16.8101 13.5481 17.0493C13.6009 17.2894 13.6504 17.531 13.6877 17.774C13.7617 18.26 13.8193 18.7473 13.8622 19.2361C13.8867 19.4801 13.9027 19.7249 13.9225 19.9693C13.9381 20.2142 13.957 20.4586 13.9692 20.7035C14.0244 21.6824 14.0555 22.6624 14.0655 23.6428C14.0768 24.6227 14.0659 25.6031 14.0282 26.5826C14.0409 26.0929 14.0461 25.6027 14.0461 25.1129C14.0442 24.6232 14.04 24.133 14.0291 23.6433C14.0093 22.6638 13.9688 21.6848 13.9042 20.7072C13.8895 20.4628 13.8683 20.2189 13.8504 19.9745C13.8277 19.7306 13.8098 19.4867 13.7829 19.2432C13.7353 18.7563 13.6731 18.2703 13.5948 17.7886C13.5136 17.3073 13.4004 16.8317 13.258 16.3651C13.116 15.8984 12.9448 15.4407 12.7411 14.9976C12.3369 14.1114 11.8077 13.2783 11.1479 12.563C10.8163 12.2075 10.4551 11.8793 10.0603 11.5963C9.66506 11.3142 9.24153 11.0727 8.79441 10.8848C7.89972 10.5113 6.9154 10.3564 5.9509 10.4473C4.98876 10.5387 4.07378 10.8002 3.29227 11.3677C3.71533 12.4305 4.46099 13.3254 5.39814 13.9814C5.63349 14.1443 5.88016 14.2903 6.13578 14.4184C6.39188 14.5451 6.65789 14.6529 6.9305 14.74C7.47571 14.9138 8.04639 15.0065 8.61802 15.0108C8.90383 15.0131 9.18965 14.9929 9.47169 14.95L9.57734 14.934L9.68251 14.9128L9.89239 14.8695C10.0301 14.8318 10.1697 14.8007 10.3046 14.7532C10.4414 14.7122 10.5739 14.6585 10.7074 14.6077C10.7734 14.5808 10.838 14.5502 10.9036 14.5215C10.9361 14.5069 10.9691 14.4933 11.0012 14.4772L11.097 14.4287C11.1602 14.3958 11.2257 14.3661 11.2875 14.3299L11.4743 14.2244C11.5361 14.1881 11.596 14.149 11.6573 14.1114C11.7186 14.0746 11.778 14.0341 11.837 13.9936C12.0756 13.8345 12.3034 13.6588 12.5246 13.4752C12.7468 13.2925 12.9609 13.0985 13.1708 12.9002C13.5915 12.5042 13.9924 12.0851 14.4017 11.6721C14.8106 11.2587 15.2266 10.8485 15.6719 10.468C15.8935 10.2768 16.1256 10.0965 16.3638 9.92461C16.6019 9.75273 16.8533 9.5978 17.1099 9.45418C17.6254 9.17117 18.1715 8.94514 18.7352 8.7775C19.2997 8.61363 19.8808 8.50485 20.4675 8.46482C21.64 8.38666 22.829 8.54299 23.9355 8.94043C25.0414 9.33646 26.0625 9.96322 26.919 10.7656L26.9629 10.8066L26.9403 10.8612C26.8186 11.1508 26.6837 11.4348 26.5332 11.7107C26.3795 11.9848 26.2139 12.2518 26.0324 12.5084C25.8484 12.7632 25.6536 13.0099 25.4447 13.244C25.2339 13.4766 25.0136 13.7007 24.7802 13.9108C23.8468 14.7513 22.7318 15.3861 21.5362 15.7647C20.3406 16.1433 19.0653 16.2695 17.8202 16.1235C16.575 15.9808 15.3639 15.5584 14.3003 14.8996L14.2489 14.8681L14.2947 14.8295C14.8191 14.384 15.2988 13.8872 15.7869 13.3979C16.2756 12.9106 16.7746 12.426 17.3396 12.0225C17.9018 11.6165 18.5319 11.3067 19.1926 11.1004C19.5233 10.9983 19.8614 10.9191 20.2034 10.8688C20.5448 10.8188 20.891 10.7944 21.2363 10.7953Z" fill="white"/>
<path d="M21.2363 10.7953C20.8905 10.7986 20.5458 10.8273 20.2048 10.8819C19.8638 10.9366 19.528 11.0199 19.2002 11.1259C18.5451 11.3401 17.9211 11.6523 17.3674 12.0611C16.8104 12.467 16.3185 12.9539 15.835 13.4455C15.3526 13.9385 14.871 14.4137 14.3461 14.8681C15.4059 15.508 16.6029 15.8768 17.8329 16.01C19.062 16.147 20.3194 16.0147 21.4942 15.6347C22.6696 15.2552 23.7624 14.6237 24.6736 13.7935C25.5848 12.9638 26.3356 12.0309 26.8007 10.8918C25.9597 10.1073 24.9584 9.49562 23.8751 9.10995C22.7917 8.72288 21.6268 8.57219 20.4812 8.65083C19.9077 8.69086 19.3403 8.79869 18.7889 8.95974C18.2385 9.12455 17.7056 9.34634 17.2028 9.6237C16.9533 9.7645 16.7095 9.91519 16.4765 10.0838C16.244 10.2524 16.0171 10.4289 15.7992 10.6178C15.362 10.9931 14.9507 11.4004 14.5437 11.8134C14.1362 12.2259 13.7315 12.6445 13.3061 13.0448C13.0934 13.2449 12.876 13.4408 12.6496 13.6268C12.4237 13.8137 12.1907 13.9927 11.9454 14.1556C11.8846 14.1971 11.8238 14.2385 11.7606 14.2762C11.6978 14.3148 11.636 14.3548 11.5724 14.3915L11.3795 14.4998C11.3158 14.537 11.2484 14.5672 11.1828 14.6011L11.0838 14.651C11.0507 14.667 11.0163 14.6811 10.9828 14.6962C10.9149 14.7254 10.8484 14.757 10.78 14.7847C10.6418 14.8375 10.5046 14.8926 10.3631 14.9345C10.2235 14.983 10.0787 15.0155 9.93625 15.0541L9.71883 15.0984L9.60988 15.12L9.49999 15.1365C9.20757 15.1803 8.91185 15.2005 8.61614 15.1977C8.02517 15.1921 7.43609 15.0951 6.8739 14.9147C6.5928 14.8243 6.31878 14.7127 6.05466 14.5813C5.79102 14.4485 5.5368 14.2974 5.29485 14.1292C4.32988 13.4512 3.56488 12.4924 3.13097 11.3957L3.10645 11.3331L3.16068 11.294C3.97143 10.7087 4.94631 10.371 5.93628 10.2834C6.92767 10.1958 7.93839 10.3616 8.85195 10.7496C9.3085 10.9446 9.74052 11.1946 10.1424 11.4847C10.5433 11.7762 10.9097 12.1124 11.2446 12.4759C11.911 13.2072 12.4411 14.0539 12.8449 14.9519C13.0481 15.4007 13.2184 15.864 13.3589 16.3359C13.4311 16.5713 13.491 16.8101 13.5481 17.0493C13.6009 17.2894 13.6504 17.531 13.6877 17.774C13.7617 18.26 13.8193 18.7473 13.8622 19.2361C13.8867 19.4801 13.9027 19.7249 13.9225 19.9693C13.9381 20.2142 13.957 20.4586 13.9692 20.7035C14.0244 21.6824 14.0555 22.6624 14.0655 23.6428C14.0768 24.6227 14.0659 25.6031 14.0282 26.5826C14.0409 26.0929 14.0461 25.6027 14.0461 25.1129C14.0442 24.6232 14.04 24.133 14.0291 23.6433C14.0093 22.6638 13.9688 21.6848 13.9042 20.7072C13.8895 20.4628 13.8683 20.2189 13.8504 19.9745C13.8277 19.7306 13.8098 19.4867 13.7829 19.2432C13.7353 18.7563 13.6731 18.2703 13.5948 17.7886C13.5136 17.3073 13.4004 16.8317 13.258 16.3651C13.116 15.8984 12.9448 15.4407 12.7411 14.9976C12.3369 14.1114 11.8077 13.2783 11.1479 12.563C10.8163 12.2075 10.4551 11.8793 10.0603 11.5963C9.66506 11.3142 9.24153 11.0727 8.79441 10.8848C7.89972 10.5113 6.9154 10.3564 5.9509 10.4473C4.98876 10.5387 4.07378 10.8002 3.29227 11.3677C3.71533 12.4305 4.46099 13.3254 5.39814 13.9814C5.63349 14.1443 5.88016 14.2903 6.13578 14.4184C6.39188 14.5451 6.65789 14.6529 6.9305 14.74C7.47571 14.9138 8.04639 15.0065 8.61802 15.0108C8.90383 15.0131 9.18965 14.9929 9.47169 14.95L9.57734 14.934L9.68251 14.9128L9.89239 14.8695C10.0301 14.8318 10.1697 14.8007 10.3046 14.7532C10.4414 14.7122 10.5739 14.6585 10.7074 14.6077C10.7734 14.5808 10.838 14.5502 10.9036 14.5215C10.9361 14.5069 10.9691 14.4933 11.0012 14.4772L11.097 14.4287C11.1602 14.3958 11.2257 14.3661 11.2875 14.3299L11.4743 14.2244C11.5361 14.1881 11.596 14.149 11.6573 14.1114C11.7186 14.0746 11.778 14.0341 11.837 13.9936C12.0756 13.8345 12.3034 13.6588 12.5246 13.4752C12.7468 13.2925 12.9609 13.0985 13.1708 12.9002C13.5915 12.5042 13.9924 12.0851 14.4017 11.6721C14.8106 11.2587 15.2266 10.8485 15.6719 10.468C15.8935 10.2768 16.1256 10.0965 16.3638 9.92461C16.6019 9.75273 16.8533 9.5978 17.1099 9.45418C17.6254 9.17117 18.1715 8.94514 18.7352 8.7775C19.2997 8.61363 19.8808 8.50485 20.4675 8.46482C21.64 8.38666 22.829 8.54299 23.9355 8.94043C25.0414 9.33646 26.0625 9.96322 26.919 10.7656L26.9629 10.8066L26.9403 10.8612C26.8186 11.1508 26.6837 11.4348 26.5332 11.7107C26.3795 11.9848 26.2139 12.2518 26.0324 12.5084C25.8484 12.7632 25.6536 13.0099 25.4447 13.244C25.2339 13.4766 25.0136 13.7007 24.7802 13.9108C23.8468 14.7513 22.7318 15.3861 21.5362 15.7647C20.3406 16.1433 19.0653 16.2695 17.8202 16.1235C16.575 15.9808 15.3639 15.5584 14.3003 14.8996L14.2489 14.8681L14.2947 14.8295C14.8191 14.384 15.2988 13.8872 15.7869 13.3979C16.2756 12.9106 16.7746 12.426 17.3396 12.0225C17.9018 11.6165 18.5319 11.3067 19.1926 11.1004C19.5233 10.9983 19.8614 10.9191 20.2034 10.8688C20.5448 10.8188 20.891 10.7944 21.2363 10.7953Z" stroke="white" stroke-width="0.789149" mask="url(#path-3-outside-1_300_1155)"/>
<defs>
<linearGradient id="paint0_linear_300_1155" x1="1.73964e-07" y1="5.625" x2="31.0784" y2="7.82694" gradientUnits="userSpaceOnUse">
<stop stop-color="#30C917"/>
<stop offset="1" stop-color="#279A13"/>
</linearGradient>
</defs>
</svg>
