<svg xmlns="http://www.w3.org/2000/svg" width="122" height="122" fill="none"><g filter="url(#a)"><circle cx="61" cy="58" r="40" fill="#fff" fill-opacity=".64" shape-rendering="crispEdges"/></g><g filter="url(#b)"><circle cx="61" cy="58.001" r="33.455" fill="#fff"/></g><g clip-path="url(#c)"><path fill="#FFC250" d="m45.196 51.252.352-6.021 4.923 2.804 2.287-4.74 4.324 3.036L61 38.281l3.47 8.356 5.114-3.354 1.763 5.131 6.178-1.424-.962 5.391 6.255 4.29-5.59 3.071.412 6.172-6.721-1.04.96 13.009-6.762-11.969-3.795 3.316-3.746-3.404-6.019 4.74-3.448-6.893-7.171.573 3.029-6.651-4.785-4.85z"/><path fill="#EBB044" d="m82.818 56.674-6.254-4.29.96-5.392-3.662.845-.81 4.547 6.254 4.29-5.59 3.07.376 5.623 3.549.55-.412-6.173zM67.356 64.36l.484 6.375 4.04 7.15-.96-13.01z"/><path fill="#fff" d="M59.492 53.156h-.01a.66.66 0 0 0-.649.668l.05 3.414-2.64-3.773a.659.659 0 0 0-1.198.38l.025 5.453a.66.66 0 0 0 .658.656h.003a.66.66 0 0 0 .656-.662l-.015-3.346 2.514 3.596c.197.28.521.397.827.3.313-.1.514-.395.513-.758l-.076-5.279a.66.66 0 0 0-.658-.649M53.31 53.188h-.002a.66.66 0 0 0-.656.661l.026 5.463a.66.66 0 0 0 .658.656h.003a.66.66 0 0 0 .655-.662l-.025-5.463a.66.66 0 0 0-.658-.656M51.04 56.174a1.9 1.9 0 0 0 .315-1.06 1.92 1.92 0 0 0-1.92-1.907h-.008l-1.592.007a.66.66 0 0 0-.655.662l.011 2.52v.001l.014 2.942a.66.66 0 0 0 .659.655h.005s1.464-.013 1.867-.015a2.12 2.12 0 0 0 1.505-.63 2.125 2.125 0 0 0-.2-3.175m-1.607-1.65h.003c.33 0 .6.267.602.596a.6.6 0 0 1-.6.601l-.933.006-.005-1.199zm.874 3.897a.81.81 0 0 1-.577.241l-1.211.01-.008-1.634h1.215c.449 0 .814.362.816.809a.8.8 0 0 1-.235.574M66.674 55.85h-.003l-1.64.007a.659.659 0 0 0 .003 1.317h.003l.91-.004a2.1 2.1 0 0 1-.392.86c-.3.37-.715.56-1.237.562h-.01a2.08 2.08 0 0 1-2.08-2.063 2.06 2.06 0 0 1 .601-1.469 2.07 2.07 0 0 1 1.47-.614h.01c.413 0 .813.12 1.156.349a.658.658 0 0 0 .73-1.096 3.4 3.4 0 0 0-1.902-.57 3.38 3.38 0 0 0-2.398 1.003 3.36 3.36 0 0 0-.985 2.403 3.4 3.4 0 0 0 3.398 3.374h.016c.91-.004 1.712-.378 2.256-1.053.489-.607.756-1.442.752-2.35a.66.66 0 0 0-.658-.657M71.422 53.094h-.016a3.38 3.38 0 0 0-2.398 1.003 3.36 3.36 0 0 0-.984 2.402 3.4 3.4 0 0 0 3.397 3.375h.016a3.38 3.38 0 0 0 2.398-1.003c.64-.644.989-1.497.985-2.403a3.4 3.4 0 0 0-3.398-3.374m1.479 4.848a2.07 2.07 0 0 1-1.47.615h-.01a2.08 2.08 0 0 1-2.08-2.064 2.06 2.06 0 0 1 .602-1.468 2.07 2.07 0 0 1 1.469-.614h.01a2.08 2.08 0 0 1 2.08 2.063 2.06 2.06 0 0 1-.601 1.468"/><path fill="#BEDDF3" d="M46.863 39.442c.847 0 .849-1.317 0-1.317-.848 0-.85 1.317 0 1.317"/><path fill="#E28086" d="M55.704 41.399c.847 0 .848-1.317 0-1.317s-.85 1.317 0 1.317M41.597 48.75c.847 0 .849-1.316 0-1.316-.847 0-.849 1.317 0 1.317"/><path fill="#FFC250" d="M69.738 40.016c.847 0 .849-1.317 0-1.317-.848 0-.85 1.317 0 1.317"/><path fill="#BEDDF3" d="M81.064 51.473c.847 0 .849-1.317 0-1.317-.848 0-.849 1.317 0 1.317"/><path fill="#E28086" d="M64.47 71.755c.847 0 .849-1.317 0-1.317-.847 0-.849 1.316 0 1.316"/><path fill="#FFC250" d="M56.964 74.915c.848 0 .85-1.317 0-1.317-.847 0-.849 1.317 0 1.317"/><path fill="#BEDDF3" d="M45.64 68.86c.846 0 .848-1.317 0-1.317s-.85 1.317 0 1.317"/></g><defs><filter id="a" width="120.727" height="120.727" x=".636" y=".545" color-interpolation-filters="sRGB" filterUnits="userSpaceOnUse"><feFlood flood-opacity="0" result="BackgroundImageFix"/><feColorMatrix in="SourceAlpha" result="hardAlpha" values="0 0 0 0 0 0 0 0 0 0 0 0 0 0 0 0 0 0 127 0"/><feOffset dy="2.909"/><feGaussianBlur stdDeviation="10.182"/><feComposite in2="hardAlpha" operator="out"/><feColorMatrix values="0 0 0 0 0.104167 0 0 0 0 0.066116 0 0 0 0 0.030816 0 0 0 0.06 0"/><feBlend in2="BackgroundImageFix" result="effect1_dropShadow_300_1418"/><feBlend in="SourceGraphic" in2="effect1_dropShadow_300_1418" result="shape"/></filter><filter id="b" width="107.636" height="107.637" x="7.182" y="7.092" color-interpolation-filters="sRGB" filterUnits="userSpaceOnUse"><feFlood flood-opacity="0" result="BackgroundImageFix"/><feColorMatrix in="SourceAlpha" result="hardAlpha" values="0 0 0 0 0 0 0 0 0 0 0 0 0 0 0 0 0 0 127 0"/><feOffset dy="2.909"/><feGaussianBlur stdDeviation="10.182"/><feComposite in2="hardAlpha" operator="out"/><feColorMatrix values="0 0 0 0 0.104167 0 0 0 0 0.066116 0 0 0 0 0.030816 0 0 0 0.06 0"/><feBlend in2="BackgroundImageFix" result="effect1_dropShadow_300_1418"/><feBlend in="SourceGraphic" in2="effect1_dropShadow_300_1418" result="shape"/></filter><clipPath id="c"><path fill="#fff" d="M39.182 36.184h43.636V79.82H39.182z"/></clipPath></defs></svg>