<svg width="122" height="122" viewBox="0 0 122 122" fill="none" xmlns="http://www.w3.org/2000/svg">
<g filter="url(#filter0_d_300_1397)">
<circle cx="61" cy="58" r="40" fill="white" fill-opacity="0.64" shape-rendering="crispEdges"/>
</g>
<g filter="url(#filter1_d_300_1397)">
<circle cx="61.0004" cy="58.0014" r="33.4545" fill="white"/>
</g>
<g clip-path="url(#clip0_300_1397)">
<path d="M51.5455 73.2741C51.5455 74.8172 50.9326 76.2971 49.8414 77.3882C48.7503 78.4793 47.2704 79.0923 45.7274 79.0923C44.1843 79.0923 42.7044 78.4793 41.6133 77.3882C40.5222 76.2971 39.9092 74.8172 39.9092 73.2741C39.9092 69.3956 45.7274 64.5469 45.7274 64.5469C45.7274 64.5469 51.5455 69.3956 51.5455 73.2741Z" fill="url(#paint0_linear_300_1397)"/>
<path d="M62.4619 39.0938H65.371V44.9119H62.4619V39.0938Z" fill="#B9BFCC"/>
<path d="M79.182 50.7267V56.5449H72.9115C72.2967 58.4471 71.0947 60.1055 69.4783 61.2818C67.8619 62.4582 65.9142 63.0919 63.9151 63.0919C61.916 63.0919 59.9683 62.4582 58.3519 61.2818C56.7355 60.1055 55.5335 58.4471 54.9187 56.5449H49.3638C49.1709 56.5449 48.9859 56.6215 48.8496 56.7579C48.7132 56.8943 48.6365 57.0792 48.6365 57.2721V62.363H42.8184V54.363C42.8184 53.3986 43.2015 52.4737 43.8834 51.7917C44.5654 51.1098 45.4903 50.7267 46.4547 50.7267H54.9187C55.5335 48.8244 56.7355 47.166 58.3519 45.9897C59.9683 44.8134 61.916 44.1797 63.9151 44.1797C65.9142 44.1797 67.8619 44.8134 69.4783 45.9897C71.0947 47.166 72.2967 48.8244 72.9115 50.7267H79.182Z" fill="#CCD0DA"/>
<path d="M49.3643 61.6367H42.0915C41.6899 61.6367 41.3643 61.9623 41.3643 62.364V63.8185C41.3643 64.2202 41.6899 64.5458 42.0915 64.5458H49.3643C49.7659 64.5458 50.0915 64.2202 50.0915 63.8185V62.364C50.0915 61.9623 49.7659 61.6367 49.3643 61.6367Z" fill="#295474"/>
<path d="M68.2788 36.9102H59.5515C59.1498 36.9102 58.8242 37.2358 58.8242 37.6374V39.092C58.8242 39.4936 59.1498 39.8192 59.5515 39.8192H68.2788C68.6804 39.8192 69.006 39.4936 69.006 39.092V37.6374C69.006 37.2358 68.6804 36.9102 68.2788 36.9102Z" fill="#295474"/>
<path d="M80.6366 49.2734H79.1821C78.3788 49.2734 77.7275 49.9247 77.7275 50.728V56.5462C77.7275 57.3495 78.3788 58.0007 79.1821 58.0007H80.6366C81.44 58.0007 82.0912 57.3495 82.0912 56.5462V50.728C82.0912 49.9247 81.44 49.2734 80.6366 49.2734Z" fill="#295474"/>
<g filter="url(#filter2_d_300_1397)">
<circle cx="63.9094" cy="53.6399" r="7.27273" fill="url(#paint1_linear_300_1397)"/>
<mask id="path-10-outside-1_300_1397" maskUnits="userSpaceOnUse" x="57.1387" y="49.4609" width="13" height="10" fill="black">
<rect fill="white" x="57.1387" y="49.4609" width="13" height="10"/>
<path d="M66.9101 51.6003C66.7429 51.6019 66.5761 51.6158 66.4111 51.6423C66.2461 51.6688 66.0836 51.7092 65.925 51.7606C65.6081 51.8645 65.3062 52.0159 65.0383 52.214C64.7688 52.4108 64.5308 52.6469 64.2969 52.8853C64.0635 53.1243 63.8305 53.3547 63.5766 53.575C64.0893 53.8853 64.6684 54.0641 65.2635 54.1287C65.8582 54.1951 66.4665 54.131 67.0349 53.9467C67.6036 53.7627 68.1323 53.4565 68.5731 53.054C69.014 52.6517 69.3773 52.1994 69.6023 51.6471C69.1954 51.2668 68.711 50.9702 68.1868 50.7832C67.6627 50.5955 67.0991 50.5225 66.5448 50.5606C66.2673 50.58 65.9928 50.6323 65.7261 50.7104C65.4598 50.7903 65.2019 50.8978 64.9587 51.0323C64.838 51.1005 64.72 51.1736 64.6073 51.2553C64.4948 51.3371 64.385 51.4227 64.2796 51.5142C64.0681 51.6962 63.8691 51.8937 63.6722 52.0939C63.475 52.2939 63.2792 52.4969 63.0734 52.691C62.9705 52.788 62.8653 52.883 62.7558 52.9732C62.6465 53.0638 62.5338 53.1506 62.4151 53.2296C62.3857 53.2497 62.3562 53.2698 62.3256 53.288C62.2953 53.3067 62.2654 53.3261 62.2346 53.344L62.1413 53.3965C62.1105 53.4145 62.0778 53.4291 62.0461 53.4456L61.9982 53.4698C61.9822 53.4775 61.9656 53.4844 61.9494 53.4917C61.9165 53.5058 61.8843 53.5211 61.8512 53.5346C61.7844 53.5602 61.718 53.5869 61.6495 53.6072C61.582 53.6307 61.5119 53.6465 61.443 53.6652L61.3378 53.6867L61.2851 53.6972L61.232 53.7052C61.0905 53.7264 60.9474 53.7362 60.8043 53.7348C60.5184 53.7321 60.2334 53.6851 59.9614 53.5976C59.8254 53.5538 59.6928 53.4997 59.5651 53.436C59.4375 53.3716 59.3145 53.2983 59.1975 53.2168C58.7306 52.888 58.3605 52.4232 58.1505 51.8914L58.1387 51.8611L58.1649 51.8421C58.5572 51.5583 59.0288 51.3946 59.5078 51.3521C59.9874 51.3097 60.4764 51.39 60.9184 51.5782C61.1393 51.6727 61.3483 51.7939 61.5427 51.9346C61.7367 52.0759 61.914 52.2389 62.076 52.4152C62.3984 52.7697 62.6549 53.1803 62.8502 53.6157C62.9486 53.8332 63.031 54.0579 63.099 54.2867C63.1339 54.4008 63.1629 54.5166 63.1905 54.6326C63.216 54.749 63.24 54.8661 63.258 54.9839C63.2938 55.2196 63.3217 55.4559 63.3424 55.6929C63.3543 55.8111 63.3621 55.9298 63.3716 56.0483C63.3792 56.1671 63.3883 56.2856 63.3942 56.4043C63.4209 56.8789 63.436 57.3541 63.4408 57.8294C63.4463 58.3045 63.441 58.7799 63.4228 59.2548C63.4289 59.0173 63.4314 58.7797 63.4314 58.5422C63.4305 58.3048 63.4285 58.0671 63.4232 57.8296C63.4136 57.3547 63.394 56.8801 63.3627 56.4061C63.3557 56.2876 63.3454 56.1693 63.3367 56.0508C63.3258 55.9326 63.3171 55.8143 63.3041 55.6963C63.2811 55.4602 63.2509 55.2246 63.2131 54.991C63.1738 54.7577 63.119 54.5271 63.0501 54.3008C62.9815 54.0746 62.8986 53.8526 62.8 53.6378C62.6045 53.2081 62.3485 52.8042 62.0292 52.4574C61.8688 52.285 61.694 52.1259 61.503 51.9887C61.3118 51.8519 61.1069 51.7348 60.8906 51.6437C60.4577 51.4627 59.9815 51.3875 59.5149 51.4316C59.0494 51.4759 58.6067 51.6027 58.2286 51.8778C58.4333 52.3931 58.794 52.8271 59.2474 53.1451C59.3613 53.2241 59.4806 53.2949 59.6043 53.357C59.7282 53.4184 59.8569 53.4707 59.9888 53.5129C60.2526 53.5972 60.5287 53.6421 60.8052 53.6442C60.9435 53.6453 61.0818 53.6355 61.2183 53.6147L61.2694 53.607L61.3203 53.5967L61.4218 53.5757C61.4884 53.5574 61.556 53.5424 61.6212 53.5193C61.6874 53.4994 61.7515 53.4734 61.8161 53.4488C61.8481 53.4357 61.8793 53.4209 61.911 53.407C61.9268 53.3999 61.9428 53.3933 61.9583 53.3855L62.0046 53.362C62.0352 53.346 62.0669 53.3316 62.0968 53.314L62.1871 53.2629C62.217 53.2453 62.246 53.2264 62.2757 53.2081C62.3053 53.1903 62.3341 53.1707 62.3626 53.151C62.4781 53.0739 62.5883 52.9887 62.6953 52.8997C62.8028 52.8111 62.9064 52.717 63.0079 52.6209C63.2115 52.4289 63.4054 52.2257 63.6035 52.0254C63.8013 51.825 64.0026 51.6261 64.218 51.4416C64.3252 51.3489 64.4375 51.2615 64.5527 51.1782C64.668 51.0948 64.7896 51.0197 64.9137 50.9501C65.1631 50.8129 65.4274 50.7033 65.7001 50.622C65.9732 50.5425 66.2543 50.4898 66.5382 50.4704C67.1054 50.4325 67.6807 50.5083 68.216 50.701C68.7511 50.893 69.2451 51.1969 69.6595 51.5859L69.6807 51.6058L69.6698 51.6323C69.6109 51.7727 69.5457 51.9104 69.4729 52.0442C69.3985 52.177 69.3184 52.3065 69.2305 52.4309C69.1415 52.5544 69.0473 52.6741 68.9462 52.7876C68.8442 52.9003 68.7377 53.009 68.6247 53.1108C68.1731 53.5184 67.6337 53.8262 67.0552 54.0097C66.4768 54.1933 65.8598 54.2545 65.2574 54.1837C64.655 54.1145 64.069 53.9097 63.5544 53.5903L63.5296 53.575L63.5517 53.5563C63.8054 53.3403 64.0375 53.0994 64.2737 52.8622C64.5101 52.6259 64.7515 52.391 65.0249 52.1953C65.2969 51.9985 65.6017 51.8483 65.9214 51.7483C66.0814 51.6987 66.245 51.6604 66.4104 51.6359C66.5756 51.6117 66.7431 51.5999 66.9101 51.6003Z"/>
</mask>
<path d="M66.9101 51.6003C66.7429 51.6019 66.5761 51.6158 66.4111 51.6423C66.2461 51.6688 66.0836 51.7092 65.925 51.7606C65.6081 51.8645 65.3062 52.0159 65.0383 52.214C64.7688 52.4108 64.5308 52.6469 64.2969 52.8853C64.0635 53.1243 63.8305 53.3547 63.5766 53.575C64.0893 53.8853 64.6684 54.0641 65.2635 54.1287C65.8582 54.1951 66.4665 54.131 67.0349 53.9467C67.6036 53.7627 68.1323 53.4565 68.5731 53.054C69.014 52.6517 69.3773 52.1994 69.6023 51.6471C69.1954 51.2668 68.711 50.9702 68.1868 50.7832C67.6627 50.5955 67.0991 50.5225 66.5448 50.5606C66.2673 50.58 65.9928 50.6323 65.7261 50.7104C65.4598 50.7903 65.2019 50.8978 64.9587 51.0323C64.838 51.1005 64.72 51.1736 64.6073 51.2553C64.4948 51.3371 64.385 51.4227 64.2796 51.5142C64.0681 51.6962 63.8691 51.8937 63.6722 52.0939C63.475 52.2939 63.2792 52.4969 63.0734 52.691C62.9705 52.788 62.8653 52.883 62.7558 52.9732C62.6465 53.0638 62.5338 53.1506 62.4151 53.2296C62.3857 53.2497 62.3562 53.2698 62.3256 53.288C62.2953 53.3067 62.2654 53.3261 62.2346 53.344L62.1413 53.3965C62.1105 53.4145 62.0778 53.4291 62.0461 53.4456L61.9982 53.4698C61.9822 53.4775 61.9656 53.4844 61.9494 53.4917C61.9165 53.5058 61.8843 53.5211 61.8512 53.5346C61.7844 53.5602 61.718 53.5869 61.6495 53.6072C61.582 53.6307 61.5119 53.6465 61.443 53.6652L61.3378 53.6867L61.2851 53.6972L61.232 53.7052C61.0905 53.7264 60.9474 53.7362 60.8043 53.7348C60.5184 53.7321 60.2334 53.6851 59.9614 53.5976C59.8254 53.5538 59.6928 53.4997 59.5651 53.436C59.4375 53.3716 59.3145 53.2983 59.1975 53.2168C58.7306 52.888 58.3605 52.4232 58.1505 51.8914L58.1387 51.8611L58.1649 51.8421C58.5572 51.5583 59.0288 51.3946 59.5078 51.3521C59.9874 51.3097 60.4764 51.39 60.9184 51.5782C61.1393 51.6727 61.3483 51.7939 61.5427 51.9346C61.7367 52.0759 61.914 52.2389 62.076 52.4152C62.3984 52.7697 62.6549 53.1803 62.8502 53.6157C62.9486 53.8332 63.031 54.0579 63.099 54.2867C63.1339 54.4008 63.1629 54.5166 63.1905 54.6326C63.216 54.749 63.24 54.8661 63.258 54.9839C63.2938 55.2196 63.3217 55.4559 63.3424 55.6929C63.3543 55.8111 63.3621 55.9298 63.3716 56.0483C63.3792 56.1671 63.3883 56.2856 63.3942 56.4043C63.4209 56.8789 63.436 57.3541 63.4408 57.8294C63.4463 58.3045 63.441 58.7799 63.4228 59.2548C63.4289 59.0173 63.4314 58.7797 63.4314 58.5422C63.4305 58.3048 63.4285 58.0671 63.4232 57.8296C63.4136 57.3547 63.394 56.8801 63.3627 56.4061C63.3557 56.2876 63.3454 56.1693 63.3367 56.0508C63.3258 55.9326 63.3171 55.8143 63.3041 55.6963C63.2811 55.4602 63.2509 55.2246 63.2131 54.991C63.1738 54.7577 63.119 54.5271 63.0501 54.3008C62.9815 54.0746 62.8986 53.8526 62.8 53.6378C62.6045 53.2081 62.3485 52.8042 62.0292 52.4574C61.8688 52.285 61.694 52.1259 61.503 51.9887C61.3118 51.8519 61.1069 51.7348 60.8906 51.6437C60.4577 51.4627 59.9815 51.3875 59.5149 51.4316C59.0494 51.4759 58.6067 51.6027 58.2286 51.8778C58.4333 52.3931 58.794 52.8271 59.2474 53.1451C59.3613 53.2241 59.4806 53.2949 59.6043 53.357C59.7282 53.4184 59.8569 53.4707 59.9888 53.5129C60.2526 53.5972 60.5287 53.6421 60.8052 53.6442C60.9435 53.6453 61.0818 53.6355 61.2183 53.6147L61.2694 53.607L61.3203 53.5967L61.4218 53.5757C61.4884 53.5574 61.556 53.5424 61.6212 53.5193C61.6874 53.4994 61.7515 53.4734 61.8161 53.4488C61.8481 53.4357 61.8793 53.4209 61.911 53.407C61.9268 53.3999 61.9428 53.3933 61.9583 53.3855L62.0046 53.362C62.0352 53.346 62.0669 53.3316 62.0968 53.314L62.1871 53.2629C62.217 53.2453 62.246 53.2264 62.2757 53.2081C62.3053 53.1903 62.3341 53.1707 62.3626 53.151C62.4781 53.0739 62.5883 52.9887 62.6953 52.8997C62.8028 52.8111 62.9064 52.717 63.0079 52.6209C63.2115 52.4289 63.4054 52.2257 63.6035 52.0254C63.8013 51.825 64.0026 51.6261 64.218 51.4416C64.3252 51.3489 64.4375 51.2615 64.5527 51.1782C64.668 51.0948 64.7896 51.0197 64.9137 50.9501C65.1631 50.8129 65.4274 50.7033 65.7001 50.622C65.9732 50.5425 66.2543 50.4898 66.5382 50.4704C67.1054 50.4325 67.6807 50.5083 68.216 50.701C68.7511 50.893 69.2451 51.1969 69.6595 51.5859L69.6807 51.6058L69.6698 51.6323C69.6109 51.7727 69.5457 51.9104 69.4729 52.0442C69.3985 52.177 69.3184 52.3065 69.2305 52.4309C69.1415 52.5544 69.0473 52.6741 68.9462 52.7876C68.8442 52.9003 68.7377 53.009 68.6247 53.1108C68.1731 53.5184 67.6337 53.8262 67.0552 54.0097C66.4768 54.1933 65.8598 54.2545 65.2574 54.1837C64.655 54.1145 64.069 53.9097 63.5544 53.5903L63.5296 53.575L63.5517 53.5563C63.8054 53.3403 64.0375 53.0994 64.2737 52.8622C64.5101 52.6259 64.7515 52.391 65.0249 52.1953C65.2969 51.9985 65.6017 51.8483 65.9214 51.7483C66.0814 51.6987 66.245 51.6604 66.4104 51.6359C66.5756 51.6117 66.7431 51.5999 66.9101 51.6003Z" fill="white"/>
<path d="M66.9101 51.6003C66.7429 51.6019 66.5761 51.6158 66.4111 51.6423C66.2461 51.6688 66.0836 51.7092 65.925 51.7606C65.6081 51.8645 65.3062 52.0159 65.0383 52.214C64.7688 52.4108 64.5308 52.6469 64.2969 52.8853C64.0635 53.1243 63.8305 53.3547 63.5766 53.575C64.0893 53.8853 64.6684 54.0641 65.2635 54.1287C65.8582 54.1951 66.4665 54.131 67.0349 53.9467C67.6036 53.7627 68.1323 53.4565 68.5731 53.054C69.014 52.6517 69.3773 52.1994 69.6023 51.6471C69.1954 51.2668 68.711 50.9702 68.1868 50.7832C67.6627 50.5955 67.0991 50.5225 66.5448 50.5606C66.2673 50.58 65.9928 50.6323 65.7261 50.7104C65.4598 50.7903 65.2019 50.8978 64.9587 51.0323C64.838 51.1005 64.72 51.1736 64.6073 51.2553C64.4948 51.3371 64.385 51.4227 64.2796 51.5142C64.0681 51.6962 63.8691 51.8937 63.6722 52.0939C63.475 52.2939 63.2792 52.4969 63.0734 52.691C62.9705 52.788 62.8653 52.883 62.7558 52.9732C62.6465 53.0638 62.5338 53.1506 62.4151 53.2296C62.3857 53.2497 62.3562 53.2698 62.3256 53.288C62.2953 53.3067 62.2654 53.3261 62.2346 53.344L62.1413 53.3965C62.1105 53.4145 62.0778 53.4291 62.0461 53.4456L61.9982 53.4698C61.9822 53.4775 61.9656 53.4844 61.9494 53.4917C61.9165 53.5058 61.8843 53.5211 61.8512 53.5346C61.7844 53.5602 61.718 53.5869 61.6495 53.6072C61.582 53.6307 61.5119 53.6465 61.443 53.6652L61.3378 53.6867L61.2851 53.6972L61.232 53.7052C61.0905 53.7264 60.9474 53.7362 60.8043 53.7348C60.5184 53.7321 60.2334 53.6851 59.9614 53.5976C59.8254 53.5538 59.6928 53.4997 59.5651 53.436C59.4375 53.3716 59.3145 53.2983 59.1975 53.2168C58.7306 52.888 58.3605 52.4232 58.1505 51.8914L58.1387 51.8611L58.1649 51.8421C58.5572 51.5583 59.0288 51.3946 59.5078 51.3521C59.9874 51.3097 60.4764 51.39 60.9184 51.5782C61.1393 51.6727 61.3483 51.7939 61.5427 51.9346C61.7367 52.0759 61.914 52.2389 62.076 52.4152C62.3984 52.7697 62.6549 53.1803 62.8502 53.6157C62.9486 53.8332 63.031 54.0579 63.099 54.2867C63.1339 54.4008 63.1629 54.5166 63.1905 54.6326C63.216 54.749 63.24 54.8661 63.258 54.9839C63.2938 55.2196 63.3217 55.4559 63.3424 55.6929C63.3543 55.8111 63.3621 55.9298 63.3716 56.0483C63.3792 56.1671 63.3883 56.2856 63.3942 56.4043C63.4209 56.8789 63.436 57.3541 63.4408 57.8294C63.4463 58.3045 63.441 58.7799 63.4228 59.2548C63.4289 59.0173 63.4314 58.7797 63.4314 58.5422C63.4305 58.3048 63.4285 58.0671 63.4232 57.8296C63.4136 57.3547 63.394 56.8801 63.3627 56.4061C63.3557 56.2876 63.3454 56.1693 63.3367 56.0508C63.3258 55.9326 63.3171 55.8143 63.3041 55.6963C63.2811 55.4602 63.2509 55.2246 63.2131 54.991C63.1738 54.7577 63.119 54.5271 63.0501 54.3008C62.9815 54.0746 62.8986 53.8526 62.8 53.6378C62.6045 53.2081 62.3485 52.8042 62.0292 52.4574C61.8688 52.285 61.694 52.1259 61.503 51.9887C61.3118 51.8519 61.1069 51.7348 60.8906 51.6437C60.4577 51.4627 59.9815 51.3875 59.5149 51.4316C59.0494 51.4759 58.6067 51.6027 58.2286 51.8778C58.4333 52.3931 58.794 52.8271 59.2474 53.1451C59.3613 53.2241 59.4806 53.2949 59.6043 53.357C59.7282 53.4184 59.8569 53.4707 59.9888 53.5129C60.2526 53.5972 60.5287 53.6421 60.8052 53.6442C60.9435 53.6453 61.0818 53.6355 61.2183 53.6147L61.2694 53.607L61.3203 53.5967L61.4218 53.5757C61.4884 53.5574 61.556 53.5424 61.6212 53.5193C61.6874 53.4994 61.7515 53.4734 61.8161 53.4488C61.8481 53.4357 61.8793 53.4209 61.911 53.407C61.9268 53.3999 61.9428 53.3933 61.9583 53.3855L62.0046 53.362C62.0352 53.346 62.0669 53.3316 62.0968 53.314L62.1871 53.2629C62.217 53.2453 62.246 53.2264 62.2757 53.2081C62.3053 53.1903 62.3341 53.1707 62.3626 53.151C62.4781 53.0739 62.5883 52.9887 62.6953 52.8997C62.8028 52.8111 62.9064 52.717 63.0079 52.6209C63.2115 52.4289 63.4054 52.2257 63.6035 52.0254C63.8013 51.825 64.0026 51.6261 64.218 51.4416C64.3252 51.3489 64.4375 51.2615 64.5527 51.1782C64.668 51.0948 64.7896 51.0197 64.9137 50.9501C65.1631 50.8129 65.4274 50.7033 65.7001 50.622C65.9732 50.5425 66.2543 50.4898 66.5382 50.4704C67.1054 50.4325 67.6807 50.5083 68.216 50.701C68.7511 50.893 69.2451 51.1969 69.6595 51.5859L69.6807 51.6058L69.6698 51.6323C69.6109 51.7727 69.5457 51.9104 69.4729 52.0442C69.3985 52.177 69.3184 52.3065 69.2305 52.4309C69.1415 52.5544 69.0473 52.6741 68.9462 52.7876C68.8442 52.9003 68.7377 53.009 68.6247 53.1108C68.1731 53.5184 67.6337 53.8262 67.0552 54.0097C66.4768 54.1933 65.8598 54.2545 65.2574 54.1837C64.655 54.1145 64.069 53.9097 63.5544 53.5903L63.5296 53.575L63.5517 53.5563C63.8054 53.3403 64.0375 53.0994 64.2737 52.8622C64.5101 52.6259 64.7515 52.391 65.0249 52.1953C65.2969 51.9985 65.6017 51.8483 65.9214 51.7483C66.0814 51.6987 66.245 51.6604 66.4104 51.6359C66.5756 51.6117 66.7431 51.5999 66.9101 51.6003Z" stroke="white" stroke-width="0.247934" mask="url(#path-10-outside-1_300_1397)"/>
<mask id="path-11-outside-2_300_1397" maskUnits="userSpaceOnUse" x="40.3643" y="69.3672" width="10" height="8" fill="black">
<rect fill="white" x="40.3643" y="69.3672" width="10" height="8"/>
<path d="M47.9594 71.2239C47.8337 71.2251 47.7083 71.2356 47.5842 71.2555C47.4602 71.2754 47.338 71.3058 47.2188 71.3444C46.9805 71.4225 46.7535 71.5363 46.552 71.6853C46.3494 71.8333 46.1705 72.0108 45.9946 72.19C45.8191 72.3698 45.6439 72.543 45.453 72.7086C45.8385 72.9419 46.2739 73.0763 46.7214 73.1249C47.1685 73.1749 47.6259 73.1266 48.0533 72.9881C48.4808 72.8497 48.8784 72.6195 49.2099 72.3169C49.5413 72.0144 49.8145 71.6743 49.9836 71.2591C49.6777 70.9731 49.3135 70.7501 48.9194 70.6095C48.5253 70.4684 48.1015 70.4134 47.6848 70.4421C47.4761 70.4567 47.2697 70.496 47.0692 70.5547C46.8689 70.6148 46.6751 70.6957 46.4922 70.7968C46.4014 70.8481 46.3127 70.903 46.2279 70.9645C46.1434 71.026 46.0608 71.0903 45.9816 71.1592C45.8225 71.296 45.6729 71.4445 45.5249 71.595C45.3766 71.7454 45.2294 71.898 45.0747 72.0439C44.9973 72.1169 44.9182 72.1883 44.8358 72.2561C44.7536 72.3243 44.6689 72.3895 44.5797 72.4489C44.5575 72.464 44.5354 72.4791 44.5124 72.4928C44.4896 72.5069 44.4671 72.5215 44.444 72.5349L44.3738 72.5744C44.3506 72.588 44.3261 72.5989 44.3022 72.6113L44.2662 72.6295C44.2542 72.6353 44.2417 72.6405 44.2295 72.646C44.2048 72.6566 44.1806 72.6681 44.1557 72.6783C44.1054 72.6975 44.0555 72.7176 44.004 72.7328C43.9533 72.7505 43.9006 72.7624 43.8488 72.7764L43.7697 72.7926L43.73 72.8005L43.6901 72.8065C43.5837 72.8225 43.4761 72.8298 43.3685 72.8288C43.1536 72.8267 42.9393 72.7914 42.7348 72.7256C42.6325 72.6927 42.5328 72.652 42.4367 72.6041C42.3408 72.5557 42.2484 72.5006 42.1603 72.4393C41.8093 72.1921 41.531 71.8426 41.3732 71.4428L41.3643 71.4199L41.384 71.4057C41.6789 71.1923 42.0336 71.0692 42.3937 71.0373C42.7543 71.0054 43.122 71.0658 43.4543 71.2072C43.6204 71.2783 43.7776 71.3695 43.9238 71.4752C44.0696 71.5815 44.2029 71.704 44.3247 71.8366C44.5671 72.1032 44.76 72.4118 44.9069 72.7392C44.9808 72.9028 45.0427 73.0717 45.0939 73.2437C45.1201 73.3296 45.1419 73.4166 45.1627 73.5038C45.1819 73.5913 45.1999 73.6794 45.2135 73.768C45.2404 73.9452 45.2613 74.1228 45.2769 74.301C45.2859 74.3899 45.2917 74.4792 45.2989 74.5683C45.3046 74.6576 45.3114 74.7467 45.3159 74.8359C45.336 75.1928 45.3473 75.5501 45.3509 75.9075C45.355 76.2647 45.3511 76.6221 45.3373 76.9792C45.342 76.8007 45.3438 76.622 45.3438 76.4434C45.3432 76.2649 45.3416 76.0862 45.3377 75.9077C45.3305 75.5506 45.3157 75.1937 45.2922 74.8373C45.2869 74.7482 45.2792 74.6593 45.2726 74.5702C45.2644 74.4813 45.2579 74.3924 45.2481 74.3036C45.2308 74.1261 45.2081 73.9489 45.1797 73.7733C45.1501 73.5979 45.109 73.4245 45.0571 73.2544C45.0055 73.0842 44.9432 72.9174 44.8691 72.7558C44.7221 72.4328 44.5296 72.1291 44.2895 71.8683C44.1689 71.7387 44.0375 71.6191 43.8939 71.5159C43.7501 71.4131 43.5961 71.325 43.4334 71.2565C43.1079 71.1204 42.7499 71.0639 42.399 71.097C42.049 71.1303 41.7161 71.2257 41.4319 71.4325C41.5858 71.82 41.857 72.1463 42.1979 72.3854C42.2835 72.4448 42.3733 72.498 42.4663 72.5447C42.5594 72.5909 42.6562 72.6302 42.7554 72.6619C42.9537 72.7253 43.1613 72.7591 43.3692 72.7607C43.4732 72.7615 43.5772 72.7541 43.6798 72.7385L43.7182 72.7327L43.7565 72.7249L43.8328 72.7092C43.8829 72.6954 43.9337 72.6841 43.9828 72.6667C44.0325 72.6518 44.0807 72.6322 44.1293 72.6137C44.1533 72.6039 44.1768 72.5928 44.2007 72.5823C44.2125 72.577 44.2245 72.572 44.2362 72.5662L44.271 72.5485C44.294 72.5365 44.3179 72.5256 44.3403 72.5124L44.4083 72.474C44.4307 72.4607 44.4525 72.4465 44.4748 72.4328C44.4971 72.4194 44.5188 72.4046 44.5402 72.3898C44.627 72.3318 44.7099 72.2678 44.7904 72.2008C44.8712 72.1342 44.9491 72.0635 45.0254 71.9912C45.1785 71.8469 45.3243 71.6941 45.4732 71.5435C45.622 71.3928 45.7733 71.2433 45.9352 71.1046C46.0159 71.0349 46.1003 70.9691 46.1869 70.9065C46.2736 70.8438 46.365 70.7873 46.4584 70.735C46.6459 70.6318 46.8446 70.5494 47.0496 70.4883C47.255 70.4285 47.4663 70.3889 47.6798 70.3743C48.1063 70.3458 48.5388 70.4028 48.9413 70.5477C49.3437 70.6921 49.7151 70.9205 50.0267 71.2131L50.0427 71.228L50.0344 71.2479C49.9902 71.3535 49.9411 71.457 49.8864 71.5576C49.8304 71.6575 49.7702 71.7549 49.7041 71.8484C49.6372 71.9413 49.5664 72.0312 49.4904 72.1166C49.4137 72.2014 49.3336 72.2831 49.2486 72.3596C48.9091 72.6661 48.5035 72.8975 48.0686 73.0355C47.6336 73.1735 47.1697 73.2195 46.7168 73.1663C46.2638 73.1143 45.8232 72.9603 45.4363 72.7201L45.4176 72.7086L45.4343 72.6946C45.6251 72.5322 45.7995 72.3511 45.9771 72.1727C46.1549 71.995 46.3364 71.8184 46.5419 71.6712C46.7464 71.5233 46.9757 71.4103 47.216 71.3351C47.3363 71.2979 47.4593 71.269 47.5837 71.2507C47.7079 71.2325 47.8339 71.2235 47.9594 71.2239Z"/>
</mask>
<path d="M47.9594 71.2239C47.8337 71.2251 47.7083 71.2356 47.5842 71.2555C47.4602 71.2754 47.338 71.3058 47.2188 71.3444C46.9805 71.4225 46.7535 71.5363 46.552 71.6853C46.3494 71.8333 46.1705 72.0108 45.9946 72.19C45.8191 72.3698 45.6439 72.543 45.453 72.7086C45.8385 72.9419 46.2739 73.0763 46.7214 73.1249C47.1685 73.1749 47.6259 73.1266 48.0533 72.9881C48.4808 72.8497 48.8784 72.6195 49.2099 72.3169C49.5413 72.0144 49.8145 71.6743 49.9836 71.2591C49.6777 70.9731 49.3135 70.7501 48.9194 70.6095C48.5253 70.4684 48.1015 70.4134 47.6848 70.4421C47.4761 70.4567 47.2697 70.496 47.0692 70.5547C46.8689 70.6148 46.6751 70.6957 46.4922 70.7968C46.4014 70.8481 46.3127 70.903 46.2279 70.9645C46.1434 71.026 46.0608 71.0903 45.9816 71.1592C45.8225 71.296 45.6729 71.4445 45.5249 71.595C45.3766 71.7454 45.2294 71.898 45.0747 72.0439C44.9973 72.1169 44.9182 72.1883 44.8358 72.2561C44.7536 72.3243 44.6689 72.3895 44.5797 72.4489C44.5575 72.464 44.5354 72.4791 44.5124 72.4928C44.4896 72.5069 44.4671 72.5215 44.444 72.5349L44.3738 72.5744C44.3506 72.588 44.3261 72.5989 44.3022 72.6113L44.2662 72.6295C44.2542 72.6353 44.2417 72.6405 44.2295 72.646C44.2048 72.6566 44.1806 72.6681 44.1557 72.6783C44.1054 72.6975 44.0555 72.7176 44.004 72.7328C43.9533 72.7505 43.9006 72.7624 43.8488 72.7764L43.7697 72.7926L43.73 72.8005L43.6901 72.8065C43.5837 72.8225 43.4761 72.8298 43.3685 72.8288C43.1536 72.8267 42.9393 72.7914 42.7348 72.7256C42.6325 72.6927 42.5328 72.652 42.4367 72.6041C42.3408 72.5557 42.2484 72.5006 42.1603 72.4393C41.8093 72.1921 41.531 71.8426 41.3732 71.4428L41.3643 71.4199L41.384 71.4057C41.6789 71.1923 42.0336 71.0692 42.3937 71.0373C42.7543 71.0054 43.122 71.0658 43.4543 71.2072C43.6204 71.2783 43.7776 71.3695 43.9238 71.4752C44.0696 71.5815 44.2029 71.704 44.3247 71.8366C44.5671 72.1032 44.76 72.4118 44.9069 72.7392C44.9808 72.9028 45.0427 73.0717 45.0939 73.2437C45.1201 73.3296 45.1419 73.4166 45.1627 73.5038C45.1819 73.5913 45.1999 73.6794 45.2135 73.768C45.2404 73.9452 45.2613 74.1228 45.2769 74.301C45.2859 74.3899 45.2917 74.4792 45.2989 74.5683C45.3046 74.6576 45.3114 74.7467 45.3159 74.8359C45.336 75.1928 45.3473 75.5501 45.3509 75.9075C45.355 76.2647 45.3511 76.6221 45.3373 76.9792C45.342 76.8007 45.3438 76.622 45.3438 76.4434C45.3432 76.2649 45.3416 76.0862 45.3377 75.9077C45.3305 75.5506 45.3157 75.1937 45.2922 74.8373C45.2869 74.7482 45.2792 74.6593 45.2726 74.5702C45.2644 74.4813 45.2579 74.3924 45.2481 74.3036C45.2308 74.1261 45.2081 73.9489 45.1797 73.7733C45.1501 73.5979 45.109 73.4245 45.0571 73.2544C45.0055 73.0842 44.9432 72.9174 44.8691 72.7558C44.7221 72.4328 44.5296 72.1291 44.2895 71.8683C44.1689 71.7387 44.0375 71.6191 43.8939 71.5159C43.7501 71.4131 43.5961 71.325 43.4334 71.2565C43.1079 71.1204 42.7499 71.0639 42.399 71.097C42.049 71.1303 41.7161 71.2257 41.4319 71.4325C41.5858 71.82 41.857 72.1463 42.1979 72.3854C42.2835 72.4448 42.3733 72.498 42.4663 72.5447C42.5594 72.5909 42.6562 72.6302 42.7554 72.6619C42.9537 72.7253 43.1613 72.7591 43.3692 72.7607C43.4732 72.7615 43.5772 72.7541 43.6798 72.7385L43.7182 72.7327L43.7565 72.7249L43.8328 72.7092C43.8829 72.6954 43.9337 72.6841 43.9828 72.6667C44.0325 72.6518 44.0807 72.6322 44.1293 72.6137C44.1533 72.6039 44.1768 72.5928 44.2007 72.5823C44.2125 72.577 44.2245 72.572 44.2362 72.5662L44.271 72.5485C44.294 72.5365 44.3179 72.5256 44.3403 72.5124L44.4083 72.474C44.4307 72.4607 44.4525 72.4465 44.4748 72.4328C44.4971 72.4194 44.5188 72.4046 44.5402 72.3898C44.627 72.3318 44.7099 72.2678 44.7904 72.2008C44.8712 72.1342 44.9491 72.0635 45.0254 71.9912C45.1785 71.8469 45.3243 71.6941 45.4732 71.5435C45.622 71.3928 45.7733 71.2433 45.9352 71.1046C46.0159 71.0349 46.1003 70.9691 46.1869 70.9065C46.2736 70.8438 46.365 70.7873 46.4584 70.735C46.6459 70.6318 46.8446 70.5494 47.0496 70.4883C47.255 70.4285 47.4663 70.3889 47.6798 70.3743C48.1063 70.3458 48.5388 70.4028 48.9413 70.5477C49.3437 70.6921 49.7151 70.9205 50.0267 71.2131L50.0427 71.228L50.0344 71.2479C49.9902 71.3535 49.9411 71.457 49.8864 71.5576C49.8304 71.6575 49.7702 71.7549 49.7041 71.8484C49.6372 71.9413 49.5664 72.0312 49.4904 72.1166C49.4137 72.2014 49.3336 72.2831 49.2486 72.3596C48.9091 72.6661 48.5035 72.8975 48.0686 73.0355C47.6336 73.1735 47.1697 73.2195 46.7168 73.1663C46.2638 73.1143 45.8232 72.9603 45.4363 72.7201L45.4176 72.7086L45.4343 72.6946C45.6251 72.5322 45.7995 72.3511 45.9771 72.1727C46.1549 71.995 46.3364 71.8184 46.5419 71.6712C46.7464 71.5233 46.9757 71.4103 47.216 71.3351C47.3363 71.2979 47.4593 71.269 47.5837 71.2507C47.7079 71.2325 47.8339 71.2235 47.9594 71.2239Z" fill="white"/>
<path d="M47.9594 71.2239C47.8337 71.2251 47.7083 71.2356 47.5842 71.2555C47.4602 71.2754 47.338 71.3058 47.2188 71.3444C46.9805 71.4225 46.7535 71.5363 46.552 71.6853C46.3494 71.8333 46.1705 72.0108 45.9946 72.19C45.8191 72.3698 45.6439 72.543 45.453 72.7086C45.8385 72.9419 46.2739 73.0763 46.7214 73.1249C47.1685 73.1749 47.6259 73.1266 48.0533 72.9881C48.4808 72.8497 48.8784 72.6195 49.2099 72.3169C49.5413 72.0144 49.8145 71.6743 49.9836 71.2591C49.6777 70.9731 49.3135 70.7501 48.9194 70.6095C48.5253 70.4684 48.1015 70.4134 47.6848 70.4421C47.4761 70.4567 47.2697 70.496 47.0692 70.5547C46.8689 70.6148 46.6751 70.6957 46.4922 70.7968C46.4014 70.8481 46.3127 70.903 46.2279 70.9645C46.1434 71.026 46.0608 71.0903 45.9816 71.1592C45.8225 71.296 45.6729 71.4445 45.5249 71.595C45.3766 71.7454 45.2294 71.898 45.0747 72.0439C44.9973 72.1169 44.9182 72.1883 44.8358 72.2561C44.7536 72.3243 44.6689 72.3895 44.5797 72.4489C44.5575 72.464 44.5354 72.4791 44.5124 72.4928C44.4896 72.5069 44.4671 72.5215 44.444 72.5349L44.3738 72.5744C44.3506 72.588 44.3261 72.5989 44.3022 72.6113L44.2662 72.6295C44.2542 72.6353 44.2417 72.6405 44.2295 72.646C44.2048 72.6566 44.1806 72.6681 44.1557 72.6783C44.1054 72.6975 44.0555 72.7176 44.004 72.7328C43.9533 72.7505 43.9006 72.7624 43.8488 72.7764L43.7697 72.7926L43.73 72.8005L43.6901 72.8065C43.5837 72.8225 43.4761 72.8298 43.3685 72.8288C43.1536 72.8267 42.9393 72.7914 42.7348 72.7256C42.6325 72.6927 42.5328 72.652 42.4367 72.6041C42.3408 72.5557 42.2484 72.5006 42.1603 72.4393C41.8093 72.1921 41.531 71.8426 41.3732 71.4428L41.3643 71.4199L41.384 71.4057C41.6789 71.1923 42.0336 71.0692 42.3937 71.0373C42.7543 71.0054 43.122 71.0658 43.4543 71.2072C43.6204 71.2783 43.7776 71.3695 43.9238 71.4752C44.0696 71.5815 44.2029 71.704 44.3247 71.8366C44.5671 72.1032 44.76 72.4118 44.9069 72.7392C44.9808 72.9028 45.0427 73.0717 45.0939 73.2437C45.1201 73.3296 45.1419 73.4166 45.1627 73.5038C45.1819 73.5913 45.1999 73.6794 45.2135 73.768C45.2404 73.9452 45.2613 74.1228 45.2769 74.301C45.2859 74.3899 45.2917 74.4792 45.2989 74.5683C45.3046 74.6576 45.3114 74.7467 45.3159 74.8359C45.336 75.1928 45.3473 75.5501 45.3509 75.9075C45.355 76.2647 45.3511 76.6221 45.3373 76.9792C45.342 76.8007 45.3438 76.622 45.3438 76.4434C45.3432 76.2649 45.3416 76.0862 45.3377 75.9077C45.3305 75.5506 45.3157 75.1937 45.2922 74.8373C45.2869 74.7482 45.2792 74.6593 45.2726 74.5702C45.2644 74.4813 45.2579 74.3924 45.2481 74.3036C45.2308 74.1261 45.2081 73.9489 45.1797 73.7733C45.1501 73.5979 45.109 73.4245 45.0571 73.2544C45.0055 73.0842 44.9432 72.9174 44.8691 72.7558C44.7221 72.4328 44.5296 72.1291 44.2895 71.8683C44.1689 71.7387 44.0375 71.6191 43.8939 71.5159C43.7501 71.4131 43.5961 71.325 43.4334 71.2565C43.1079 71.1204 42.7499 71.0639 42.399 71.097C42.049 71.1303 41.7161 71.2257 41.4319 71.4325C41.5858 71.82 41.857 72.1463 42.1979 72.3854C42.2835 72.4448 42.3733 72.498 42.4663 72.5447C42.5594 72.5909 42.6562 72.6302 42.7554 72.6619C42.9537 72.7253 43.1613 72.7591 43.3692 72.7607C43.4732 72.7615 43.5772 72.7541 43.6798 72.7385L43.7182 72.7327L43.7565 72.7249L43.8328 72.7092C43.8829 72.6954 43.9337 72.6841 43.9828 72.6667C44.0325 72.6518 44.0807 72.6322 44.1293 72.6137C44.1533 72.6039 44.1768 72.5928 44.2007 72.5823C44.2125 72.577 44.2245 72.572 44.2362 72.5662L44.271 72.5485C44.294 72.5365 44.3179 72.5256 44.3403 72.5124L44.4083 72.474C44.4307 72.4607 44.4525 72.4465 44.4748 72.4328C44.4971 72.4194 44.5188 72.4046 44.5402 72.3898C44.627 72.3318 44.7099 72.2678 44.7904 72.2008C44.8712 72.1342 44.9491 72.0635 45.0254 71.9912C45.1785 71.8469 45.3243 71.6941 45.4732 71.5435C45.622 71.3928 45.7733 71.2433 45.9352 71.1046C46.0159 71.0349 46.1003 70.9691 46.1869 70.9065C46.2736 70.8438 46.365 70.7873 46.4584 70.735C46.6459 70.6318 46.8446 70.5494 47.0496 70.4883C47.255 70.4285 47.4663 70.3889 47.6798 70.3743C48.1063 70.3458 48.5388 70.4028 48.9413 70.5477C49.3437 70.6921 49.7151 70.9205 50.0267 71.2131L50.0427 71.228L50.0344 71.2479C49.9902 71.3535 49.9411 71.457 49.8864 71.5576C49.8304 71.6575 49.7702 71.7549 49.7041 71.8484C49.6372 71.9413 49.5664 72.0312 49.4904 72.1166C49.4137 72.2014 49.3336 72.2831 49.2486 72.3596C48.9091 72.6661 48.5035 72.8975 48.0686 73.0355C47.6336 73.1735 47.1697 73.2195 46.7168 73.1663C46.2638 73.1143 45.8232 72.9603 45.4363 72.7201L45.4176 72.7086L45.4343 72.6946C45.6251 72.5322 45.7995 72.3511 45.9771 72.1727C46.1549 71.995 46.3364 71.8184 46.5419 71.6712C46.7464 71.5233 46.9757 71.4103 47.216 71.3351C47.3363 71.2979 47.4593 71.269 47.5837 71.2507C47.7079 71.2325 47.8339 71.2235 47.9594 71.2239Z" stroke="white" stroke-width="0.18642" mask="url(#path-11-outside-2_300_1397)"/>
</g>
</g>
<defs>
<filter id="filter0_d_300_1397" x="0.636364" y="0.545455" width="120.727" height="120.727" filterUnits="userSpaceOnUse" color-interpolation-filters="sRGB">
<feFlood flood-opacity="0" result="BackgroundImageFix"/>
<feColorMatrix in="SourceAlpha" type="matrix" values="0 0 0 0 0 0 0 0 0 0 0 0 0 0 0 0 0 0 127 0" result="hardAlpha"/>
<feOffset dy="2.90909"/>
<feGaussianBlur stdDeviation="10.1818"/>
<feComposite in2="hardAlpha" operator="out"/>
<feColorMatrix type="matrix" values="0 0 0 0 0.104167 0 0 0 0 0.066116 0 0 0 0 0.030816 0 0 0 0.06 0"/>
<feBlend mode="normal" in2="BackgroundImageFix" result="effect1_dropShadow_300_1397"/>
<feBlend mode="normal" in="SourceGraphic" in2="effect1_dropShadow_300_1397" result="shape"/>
</filter>
<filter id="filter1_d_300_1397" x="7.18226" y="7.09233" width="107.636" height="107.637" filterUnits="userSpaceOnUse" color-interpolation-filters="sRGB">
<feFlood flood-opacity="0" result="BackgroundImageFix"/>
<feColorMatrix in="SourceAlpha" type="matrix" values="0 0 0 0 0 0 0 0 0 0 0 0 0 0 0 0 0 0 127 0" result="hardAlpha"/>
<feOffset dy="2.90909"/>
<feGaussianBlur stdDeviation="10.1818"/>
<feComposite in2="hardAlpha" operator="out"/>
<feColorMatrix type="matrix" values="0 0 0 0 0.104167 0 0 0 0 0.066116 0 0 0 0 0.030816 0 0 0 0.06 0"/>
<feBlend mode="normal" in2="BackgroundImageFix" result="effect1_dropShadow_300_1397"/>
<feBlend mode="normal" in="SourceGraphic" in2="effect1_dropShadow_300_1397" result="shape"/>
</filter>
<filter id="filter2_d_300_1397" x="35.7099" y="41.5187" width="41.0139" height="41.6994" filterUnits="userSpaceOnUse" color-interpolation-filters="sRGB">
<feFlood flood-opacity="0" result="BackgroundImageFix"/>
<feColorMatrix in="SourceAlpha" type="matrix" values="0 0 0 0 0 0 0 0 0 0 0 0 0 0 0 0 0 0 127 0" result="hardAlpha"/>
<feOffset dy="0.692641"/>
<feGaussianBlur stdDeviation="2.77056"/>
<feComposite in2="hardAlpha" operator="out"/>
<feColorMatrix type="matrix" values="0 0 0 0 0.104167 0 0 0 0 0.066116 0 0 0 0 0.030816 0 0 0 0.12 0"/>
<feBlend mode="normal" in2="BackgroundImageFix" result="effect1_dropShadow_300_1397"/>
<feBlend mode="normal" in="SourceGraphic" in2="effect1_dropShadow_300_1397" result="shape"/>
</filter>
<linearGradient id="paint0_linear_300_1397" x1="39.9092" y1="67.2741" x2="51.9599" y2="67.9557" gradientUnits="userSpaceOnUse">
<stop stop-color="#30C917"/>
<stop offset="1" stop-color="#279A13"/>
</linearGradient>
<linearGradient id="paint1_linear_300_1397" x1="56.6367" y1="49.0945" x2="71.6732" y2="50.1575" gradientUnits="userSpaceOnUse">
<stop stop-color="#30C917"/>
<stop offset="1" stop-color="#279A13"/>
</linearGradient>
<clipPath id="clip0_300_1397">
<rect width="43.6364" height="43.6364" fill="white" transform="translate(39.1816 36.1836)"/>
</clipPath>
</defs>
</svg>
