<svg width="122" height="122" viewBox="0 0 122 122" fill="none" xmlns="http://www.w3.org/2000/svg">
<g filter="url(#filter0_d_300_1363)">
<circle cx="61" cy="58" r="40" fill="white" fill-opacity="0.64" shape-rendering="crispEdges"/>
</g>
<g filter="url(#filter1_d_300_1363)">
<circle cx="61.0004" cy="58.0014" r="33.4545" fill="white"/>
</g>
<g clip-path="url(#clip0_300_1363)">
<path d="M57.9902 54.9946C57.9902 59.5653 54.285 63.2705 49.7143 63.2705C45.1437 63.2705 41.4385 59.5653 41.4385 54.9946C41.4385 50.4239 45.1437 46.7188 49.7143 46.7188C54.285 46.7188 57.9902 50.4239 57.9902 54.9946Z" fill="#DEDEE6"/>
<path d="M56.4867 54.9938C56.4867 58.7335 53.4552 61.765 49.7155 61.765C45.9758 61.765 42.9443 58.7335 42.9443 54.9938C42.9443 51.2541 45.9758 48.2227 49.7155 48.2227C53.4552 48.2227 56.4867 51.2541 56.4867 54.9938Z" fill="#F3F3FB"/>
<path d="M82.8183 44.4595C82.8183 49.0301 79.1131 52.7353 74.5425 52.7353C69.9718 52.7353 66.2666 49.0301 66.2666 44.4595C66.2666 39.8888 69.9718 36.1836 74.5425 36.1836C79.1131 36.1836 82.8183 39.8888 82.8183 44.4595Z" fill="#DEDEE6"/>
<path d="M81.3138 44.4587C81.3138 48.1984 78.2824 51.2298 74.5426 51.2298C70.8029 51.2298 67.7715 48.1984 67.7715 44.4587C67.7715 40.7189 70.8029 37.6875 74.5426 37.6875C78.2824 37.6875 81.3138 40.7189 81.3138 44.4587Z" fill="#F3F3FB"/>
<path d="M73.0371 71.5454C73.0371 76.1161 69.3319 79.8213 64.7612 79.8213C60.1905 79.8213 56.4854 76.1161 56.4854 71.5454C56.4854 66.9747 60.1905 63.2695 64.7612 63.2695C69.3319 63.2695 73.0371 66.9747 73.0371 71.5454Z" fill="#DEDEE6"/>
<path d="M71.5335 71.5446C71.5335 75.2843 68.5021 78.3158 64.7624 78.3158C61.0227 78.3158 57.9912 75.2843 57.9912 71.5446C57.9912 67.8049 61.0227 64.7734 64.7624 64.7734C68.5021 64.7734 71.5335 67.8049 71.5335 71.5446Z" fill="#F3F3FB"/>
<path d="M79.8092 64.7727C78.756 64.7727 77.8229 64.2309 77.2888 63.4036C76.9805 62.9293 76.7998 62.365 76.7998 61.7633C76.7998 60.1006 78.1465 58.7539 79.8092 58.7539C81.4719 58.7539 82.8186 60.1006 82.8186 61.7633C82.8186 63.426 81.4719 64.7727 79.8092 64.7727Z" fill="#DEDEE6"/>
<path d="M79.7938 50.864C78.3644 52.0304 76.5361 52.7376 74.5424 52.7376C73.5494 52.7376 72.6013 52.5645 71.7284 52.2486V52.2409C70.8332 51.925 70.0132 51.4511 69.291 50.864C69.4791 48.5471 71.4276 46.7188 73.7901 46.7188H75.2948C77.6572 46.7188 79.6057 48.5471 79.7938 50.864Z" fill="#FF4755"/>
<path d="M77.551 43.7086C77.551 45.3706 76.2036 46.718 74.5416 46.718C72.8797 46.718 71.5322 45.3706 71.5322 43.7086C71.5322 42.0467 72.8797 40.6992 74.5416 40.6992C76.2036 40.6992 77.551 42.0467 77.551 43.7086Z" fill="#FF4755"/>
<path d="M64.7616 79.8196C62.7602 79.8196 60.9245 79.1124 59.4951 77.9314C59.6906 75.6214 61.6394 73.8008 63.9942 73.8008H65.4989C67.8614 73.8008 69.8098 75.6291 69.9979 77.9461L70.0056 77.9538C68.5759 79.1198 66.7552 79.8196 64.7616 79.8196Z" fill="url(#paint0_linear_300_1363)"/>
<path d="M67.7561 70.7907C67.7561 72.4526 66.4086 73.8001 64.7467 73.8001C63.0848 73.8001 61.7373 72.4526 61.7373 70.7907C61.7373 69.1287 63.0848 67.7812 64.7467 67.7812C66.4086 67.7812 67.7561 69.1287 67.7561 70.7907Z" fill="url(#paint1_linear_300_1363)"/>
<path d="M60.2477 36.1836C61.9104 36.1836 63.2571 37.5303 63.2571 39.193C63.2571 39.5618 63.1895 39.9079 63.069 40.2312C62.6476 41.3825 61.5419 42.2024 60.2477 42.2024C58.585 42.2024 57.2383 40.8557 57.2383 39.193C57.2383 37.5303 58.585 36.1836 60.2477 36.1836Z" fill="#DEDEE6"/>
<path d="M49.7147 63.2688C48.2552 63.2688 46.886 62.8926 45.6973 62.2307C45.2531 61.9897 44.8395 61.7039 44.4482 61.3806C44.6437 59.0706 46.5925 57.25 48.9473 57.25H50.452C52.8145 57.25 54.7629 59.0783 54.951 61.3953L54.9587 61.403C53.529 62.569 51.7084 63.2688 49.7147 63.2688Z" fill="#5DBCD9"/>
<path d="M52.7092 54.2399C52.7092 55.9018 51.3618 57.2493 49.6998 57.2493C48.0379 57.2493 46.6904 55.9018 46.6904 54.2399C46.6904 52.5779 48.0379 51.2305 49.6998 51.2305C51.3618 51.2305 52.7092 52.5779 52.7092 54.2399Z" fill="#5DBCD9"/>
<path d="M48.9625 78.3157C47.2999 78.3157 45.9531 76.9689 45.9531 75.3063C45.9531 73.6436 47.2999 72.2969 48.9625 72.2969C50.3846 72.2969 51.5733 73.2825 51.8893 74.6065C51.9418 74.8324 51.9719 75.0657 51.9719 75.3063C51.9719 76.9689 50.6252 78.3157 48.9625 78.3157Z" fill="#DEDEE6"/>
<path d="M42.191 65.5234C42.7178 65.5234 43.2219 65.659 43.6506 65.907C44.5759 66.4187 45.2004 67.4043 45.2004 68.5328C45.2004 70.1955 43.8537 71.5422 42.191 71.5422C40.5284 71.5422 39.1816 70.1955 39.1816 68.5328C39.1816 66.8702 40.5284 65.5234 42.191 65.5234Z" fill="#DEDEE6"/>
<path d="M42.191 36.1836C43.8537 36.1836 45.2004 37.5303 45.2004 39.193C45.2004 40.3891 44.5006 41.4276 43.4853 41.9015C43.094 42.097 42.6499 42.2024 42.191 42.2024C40.5284 42.2024 39.1816 40.8557 39.1816 39.193C39.1816 37.5303 40.5284 36.1836 42.191 36.1836Z" fill="#DEDEE6"/>
<path d="M42.8066 42.2247L44.1655 41.5781L46.8362 47.1906L45.4773 47.8372L42.8066 42.2247Z" fill="#45639C"/>
<path d="M42.9932 65.5413L45.0397 61.8633L46.3545 62.5947L44.3079 66.2731L42.9932 65.5413Z" fill="#45639C"/>
<path d="M62.8096 40.9359L63.3309 39.5234L67.0397 40.893L66.5184 42.3054L62.8096 40.9359Z" fill="#45639C"/>
<path d="M66.8701 63.5013L71.0187 51.9883L72.4338 52.4978L68.2852 64.0112L66.8701 63.5013Z" fill="#45639C"/>
<path d="M71.2871 66.4051L76.8787 62.7734L77.6986 64.0361L72.1074 67.6678L71.2871 66.4051Z" fill="#45639C"/>
<path d="M54.7246 61.6214L55.8384 60.6094L59.7504 64.9137L58.637 65.9258L54.7246 61.6214Z" fill="#45639C"/>
<path d="M51.7139 73.8716L56.5362 72.7266L56.8833 74.1898L52.0614 75.3348L51.7139 73.8716Z" fill="#45639C"/>
<path d="M57.043 51.0615L66.6296 47L67.2166 48.3857L57.63 52.4468L57.043 51.0615Z" fill="#45639C"/>
</g>
<defs>
<filter id="filter0_d_300_1363" x="0.636364" y="0.545455" width="120.727" height="120.727" filterUnits="userSpaceOnUse" color-interpolation-filters="sRGB">
<feFlood flood-opacity="0" result="BackgroundImageFix"/>
<feColorMatrix in="SourceAlpha" type="matrix" values="0 0 0 0 0 0 0 0 0 0 0 0 0 0 0 0 0 0 127 0" result="hardAlpha"/>
<feOffset dy="2.90909"/>
<feGaussianBlur stdDeviation="10.1818"/>
<feComposite in2="hardAlpha" operator="out"/>
<feColorMatrix type="matrix" values="0 0 0 0 0.104167 0 0 0 0 0.066116 0 0 0 0 0.030816 0 0 0 0.06 0"/>
<feBlend mode="normal" in2="BackgroundImageFix" result="effect1_dropShadow_300_1363"/>
<feBlend mode="normal" in="SourceGraphic" in2="effect1_dropShadow_300_1363" result="shape"/>
</filter>
<filter id="filter1_d_300_1363" x="7.18226" y="7.09233" width="107.636" height="107.637" filterUnits="userSpaceOnUse" color-interpolation-filters="sRGB">
<feFlood flood-opacity="0" result="BackgroundImageFix"/>
<feColorMatrix in="SourceAlpha" type="matrix" values="0 0 0 0 0 0 0 0 0 0 0 0 0 0 0 0 0 0 127 0" result="hardAlpha"/>
<feOffset dy="2.90909"/>
<feGaussianBlur stdDeviation="10.1818"/>
<feComposite in2="hardAlpha" operator="out"/>
<feColorMatrix type="matrix" values="0 0 0 0 0.104167 0 0 0 0 0.066116 0 0 0 0 0.030816 0 0 0 0.06 0"/>
<feBlend mode="normal" in2="BackgroundImageFix" result="effect1_dropShadow_300_1363"/>
<feBlend mode="normal" in="SourceGraphic" in2="effect1_dropShadow_300_1363" result="shape"/>
</filter>
<linearGradient id="paint0_linear_300_1363" x1="59.4951" y1="74.9293" x2="70.2508" y2="76.2572" gradientUnits="userSpaceOnUse">
<stop stop-color="#30C917"/>
<stop offset="1" stop-color="#279A13"/>
</linearGradient>
<linearGradient id="paint1_linear_300_1363" x1="61.7373" y1="68.9098" x2="67.9593" y2="69.3497" gradientUnits="userSpaceOnUse">
<stop stop-color="#30C917"/>
<stop offset="1" stop-color="#279A13"/>
</linearGradient>
<clipPath id="clip0_300_1363">
<rect width="43.6364" height="43.6364" fill="white" transform="translate(39.1816 36.1836)"/>
</clipPath>
</defs>
</svg>
