<svg xmlns="http://www.w3.org/2000/svg" width="235" height="247" fill="none"><path fill="#fff" fill-opacity=".3" d="M227.339 119.97c-8.559-7.062-21.203-6.739-29.398.73l-27.718 25.255a21.17 21.17 0 0 0-17.159-8.695h-29.395c-3.696 0-7.274-.631-10.636-1.879-8.306-3.083-24.714-7.238-41.231-.415-3.151 1.299-6.291 3.248-9.336 5.788L33.752 164.74c-4.49-2.621-10.34-2.045-14.18 1.794L6.436 179.67c-4.58 4.575-4.583 11.995 0 16.575l43.854 43.856c4.569 4.571 12.002 4.569 16.575 0l13.136-13.14c4.567-4.565 4.567-12.001 0-16.575l-.419-.418 3.168-3.167c5.968-5.965 13.993-9.125 22.08-8.559 19.416 1.258 39.081-.29 58.456-4.621a36.5 36.5 0 0 0 17.885-9.847l46.979-46.983c4.74-4.74 4.372-12.555-.811-16.821M74.686 221.647l-13.135 13.139a4.21 4.21 0 0 1-5.946 0L11.75 190.93a4.2 4.2 0 0 1 0-5.945l13.135-13.136a4.21 4.21 0 0 1 5.946 0l43.853 43.852a4.21 4.21 0 0 1 .001 5.946m148.15-90.171-46.979 46.983a29.05 29.05 0 0 1-14.208 7.829c-18.681 4.166-37.646 5.678-56.329 4.452-10.208-.676-20.388 3.241-27.884 10.746l-3.168 3.168-34.717-34.963 27.732-23.167c2.457-2.048 4.942-3.6 7.388-4.613 14.142-5.84 28.467-2.18 35.747.517 4.202 1.56 8.66 2.349 13.251 2.349h29.395c7.72 0 13.777 6.274 13.716 13.786-.015 2.283-1.92 4.14-4.247 4.14h-66.07a3.757 3.757 0 0 0-3.758 3.758 3.76 3.76 0 0 0 3.759 3.759h66.07c6.441 0 11.719-5.209 11.763-11.602a21 21 0 0 0-.698-5.568l29.406-26.793c5.45-4.973 13.863-5.178 19.555-.488a3.854 3.854 0 0 1 .276 5.707"/><path stroke="#fff" stroke-opacity=".3" stroke-width="3" d="m170.402 143.762 26.528-24.171c8.747-7.97 22.227-8.315 31.363-.779 5.867 4.83 6.283 13.675.918 19.039l-46.979 46.983-1.061-1.06 1.061 1.06a38.03 38.03 0 0 1-18.619 10.251c-19.512 4.361-39.32 5.922-58.88 4.653h-.008c-7.624-.533-15.232 2.445-20.915 8.124l-2.129 2.128c4.524 5.19 4.319 13.095-.62 18.032l-13.135 13.139v.001c-5.159 5.154-13.542 5.157-18.696-.001m121.172-97.399L6.436 179.67c-4.58 4.575-4.583 11.995 0 16.575l43.854 43.856-1.06 1.06m121.172-97.399a22.66 22.66 0 0 0-17.338-8.002h-29.395c-3.523 0-6.925-.601-10.114-1.785-8.44-3.133-25.29-7.432-42.325-.396-3.313 1.367-6.582 3.402-9.725 6.023v.001l-27.941 23.34c-4.91-2.358-10.978-1.544-15.052 2.53L5.375 178.609zM49.229 241.161 5.376 197.306m43.853 43.855L5.376 197.306m0 0 1.06-1.061-1.06 1.06c-5.17-5.165-5.166-13.535 0-18.696zm55.113 36.42 13.137-13.14a2.71 2.71 0 0 0-.002-3.825l-.013-.013-.075-.074-.325-.325-1.3-1.3-4.764-4.765-14.735-14.734-22.64-22.64a2.71 2.71 0 0 0-3.825-.001zm0 0a2.71 2.71 0 0 1-3.824-.001l-.001-.001-43.851-43.853-.002-.001a2.7 2.7 0 0 1 0-3.825l.002-.001 13.133-13.133zm115.308-75.098c-.05 7.228-6.007 13.092-13.263 13.092h-66.07a5.26 5.26 0 0 1-5.259-5.259 5.257 5.257 0 0 1 5.259-5.258h66.069c1.53 0 2.738-1.218 2.747-2.65v-.002c.054-6.688-5.338-12.274-12.216-12.274h-29.395c-4.765 0-9.399-.82-13.773-2.443-7.157-2.651-21.035-6.16-34.652-.537-2.28.945-4.636 2.409-7 4.38l-26.477 22.117 32.505 32.735 2.102-2.103m99.423-41.798v.001l-1.5-.011zm0 0a22.7 22.7 0 0 0-.53-5.068m0 0 28.749-26.194v-.001c4.898-4.469 12.473-4.655 17.59-.438h.001a2.355 2.355 0 0 1 .168 3.489m-46.508 23.144-.657.599-1.011-1.109m1.668.51q-.1-.45-.218-.894l-1.45.384m48.176-22.634-46.979 46.983a27.56 27.56 0 0 1-13.473 7.425m60.452-54.408 1.061 1.06m-1.061-1.06 1.061 1.06m-61.513 53.348c-18.547 4.135-37.368 5.635-55.905 4.419m55.905-4.419.326 1.464-.327-1.464zm-55.905 4.419c-10.656-.705-21.254 3.384-29.044 11.183m29.044-11.183h.001l-.099 1.497zm-29.044 11.183 1.062 1.06zm146.462-68.95-46.979 46.983zm-49.237 21.574 29.406-26.793zm-99.973 63.708c.002-.733.257-1.212.59-1.525l.468.468z"/><path fill="#fff" fill-opacity=".3" d="M132.332 122.581c28.749 0 52.144-23.387 52.151-52.136a3.76 3.76 0 0 0-3.758-3.759h-44.62V22.071a3.77 3.77 0 0 0-3.773-3.762c-28.738 0-52.12 23.383-52.12 52.121 0 28.756 23.382 52.151 52.12 52.151m-3.743-96.601v44.465a3.755 3.755 0 0 0 3.758 3.758h44.461c-1.923 22.851-21.137 40.861-44.476 40.861-24.594 0-44.603-20.02-44.603-44.634 0-23.335 18.011-42.542 40.86-44.45"/><path stroke="#fff" stroke-opacity=".3" stroke-width="3" d="M185.983 70.445a5.26 5.26 0 0 0-5.258-5.259h-43.12V22.071c0-2.911-2.371-5.262-5.273-5.262-29.566 0-53.62 24.055-53.62 53.621 0 29.584 24.053 53.651 53.62 53.651 29.578 0 53.644-24.058 53.651-53.636Zm-58.894-42.804v42.804a5.256 5.256 0 0 0 5.258 5.258h42.799c-2.61 21.304-20.818 37.861-42.814 37.861-23.765 0-43.103-19.348-43.103-43.134 0-21.992 16.558-40.193 37.86-42.789Z"/><path fill="#fff" fill-opacity=".3" d="M147.658 58.89h48.374c2.077 0 3.758-1.695 3.758-3.772 0-28.73-23.387-52.11-52.132-52.118a3.76 3.76 0 0 0-3.759 3.758v48.374a3.757 3.757 0 0 0 3.759 3.759m3.758-48.216c21.614 1.817 38.898 19.097 40.704 40.7h-40.704z"/><path stroke="#fff" stroke-opacity=".3" stroke-width="3" d="M147.658 1.5a5.26 5.26 0 0 0-5.259 5.258v48.374a5.257 5.257 0 0 0 5.259 5.259h48.374c2.913 0 5.258-2.375 5.258-5.273 0-29.56-24.059-53.61-53.632-53.618Zm5.258 48.374V12.337c19.582 2.396 35.155 17.966 37.542 37.537z"/></svg>