<svg width="122" height="122" viewBox="0 0 122 122" fill="none" xmlns="http://www.w3.org/2000/svg">
<g filter="url(#filter0_d_300_1260)">
<circle cx="61" cy="58" r="40" fill="white" fill-opacity="0.64" shape-rendering="crispEdges"/>
</g>
<g filter="url(#filter1_d_300_1260)">
<circle cx="61.0004" cy="58.0014" r="33.4545" fill="white"/>
</g>
<g clip-path="url(#clip0_300_1260)">
<path d="M71.7107 73.1351L72.6432 73.2992C73.3713 73.4277 74.1217 73.2819 74.7489 72.8904L78.3448 70.6445C79.7843 69.7453 80.7748 68.2775 81.0694 66.6059L82.3362 59.4215C82.4217 58.9374 82.0985 58.476 81.6144 58.3908L67.4474 55.8925C66.9633 55.8073 66.5019 56.1303 66.4166 56.6143L65.1496 63.799C64.8549 65.4703 65.2834 67.1885 66.3287 68.5258L68.9398 71.866C69.3953 72.4486 70.0501 72.8421 70.7785 72.9706L71.7107 73.1351Z" fill="#C4D3D6"/>
<path d="M75.4917 51.6868L73.5015 51.3359L72.54 56.7902L76.5198 57.4919L77.4816 52.0377L75.4917 51.6868Z" fill="#C4D3D6"/>
<path d="M77.4024 40.8548L75.4122 40.5039L73.502 51.3381L75.4921 51.689L77.482 52.0399L79.3923 41.2057L77.4024 40.8548Z" fill="#F4AC03"/>
<path d="M82.4709 39.6962L82.6673 38.5826C82.7525 38.0985 82.4296 37.6371 81.9455 37.5519L74.2641 36.1972C73.7804 36.112 73.3189 36.4349 73.2334 36.919L73.037 38.0326L72.8409 39.1462C72.7553 39.6303 73.0786 40.0917 73.5626 40.177L81.2438 41.5316C81.7278 41.6168 82.1892 41.2939 82.2748 40.8098L82.4709 39.6962Z" fill="#5DBCD9"/>
<path d="M69.3652 61.4691C69.2061 61.1368 68.8079 60.996 68.4754 61.1548L64.3881 63.1084C63.2066 63.5561 62.2711 64.2869 61.6002 64.9554V53.3042C61.6002 52.9357 61.3016 52.6367 60.9331 52.6367C60.5645 52.6367 60.2656 52.9357 60.2656 53.3042V63.6207C59.5947 62.9522 58.6596 62.2215 57.478 61.7737L53.3908 59.8201C53.0582 59.6613 52.6597 59.8021 52.5009 60.1347C52.3421 60.467 52.4826 60.8655 52.8152 61.0243L56.8844 62.9692C56.9101 62.9828 56.9364 62.9955 56.9643 63.0058C58.7731 63.6746 59.9373 65.2137 60.2656 65.6928V70.7439C60.2656 71.1124 60.5645 71.411 60.9331 71.411C61.3016 71.411 61.6002 71.1124 61.6002 70.7439V67.0275C61.9288 66.5484 63.0931 65.0093 64.9015 64.3405C64.9294 64.3302 64.9561 64.3175 64.9817 64.3042L69.051 62.3593C69.3832 62.2002 69.524 61.8016 69.3652 61.4691Z" fill="#378900"/>
<path d="M75.3471 79.8211H81.7894C82.3893 79.8211 82.8248 79.2375 82.6393 78.6668C82.1533 77.1677 80.7453 76.0841 79.0841 76.0841C78.6336 76.0841 78.2018 76.1636 77.8017 76.3098C76.6355 74.4637 74.578 73.2366 72.2326 73.2366C71.8784 73.2366 71.5305 73.2656 71.1912 73.3195C70.8507 71.3519 69.1368 69.8555 67.072 69.8555C65.5546 69.8555 64.2259 70.6638 63.4928 71.8733C62.8586 71.1802 61.9464 70.7454 60.9327 70.7454C59.9186 70.7454 59.0067 71.1802 58.3722 71.8733C57.6391 70.6638 56.3104 69.8555 54.793 69.8555C52.7282 69.8555 51.0143 71.3519 50.6738 73.3195C50.3345 73.2656 49.9866 73.2366 49.6324 73.2366C47.287 73.2366 45.2299 74.4637 44.0633 76.3098C43.6635 76.1636 43.2314 76.0841 42.7809 76.0841C41.12 76.0841 39.7117 77.1677 39.2257 78.6668C39.0406 79.2375 39.476 79.8211 40.0756 79.8211H75.3471Z" fill="#915431"/>
<path d="M49.2767 76.0848C49.2767 76.3797 49.0376 76.6188 48.7427 76.6188C48.448 76.6188 48.209 76.3797 48.209 76.0848C48.209 75.7898 48.448 75.5508 48.7427 75.5508C49.0376 75.5508 49.2767 75.7898 49.2767 76.0848Z" fill="#915431"/>
<g filter="url(#filter2_d_300_1260)">
<circle cx="52.2721" cy="60.1832" r="3.63636" fill="url(#paint0_linear_300_1260)"/>
<mask id="path-11-outside-1_300_1260" maskUnits="userSpaceOnUse" x="48.3867" y="57.5938" width="7" height="6" fill="black">
<rect fill="white" x="48.3867" y="57.5938" width="7" height="6"/>
<path d="M53.7724 59.1634C53.6888 59.1642 53.6054 59.1712 53.5229 59.1844C53.4404 59.1977 53.3592 59.2179 53.2799 59.2436C53.1214 59.2955 52.9705 59.3712 52.8365 59.4703C52.7018 59.5687 52.5828 59.6867 52.4659 59.8059C52.3491 59.9254 52.2326 60.0406 52.1057 60.1508C52.362 60.3059 52.6516 60.3953 52.9491 60.4276C53.2465 60.4608 53.5506 60.4288 53.8349 60.3366C54.1192 60.2446 54.3835 60.0915 54.6039 59.8903C54.8244 59.6891 55.006 59.463 55.1185 59.1868C54.9151 58.9967 54.6729 58.8484 54.4108 58.7549C54.1487 58.661 53.8669 58.6245 53.5898 58.6436C53.451 58.6533 53.3138 58.6794 53.1804 58.7185C53.0473 58.7584 52.9183 58.8122 52.7967 58.8794C52.7364 58.9136 52.6774 58.9501 52.621 58.991C52.5648 59.0318 52.5099 59.0746 52.4572 59.1204C52.3514 59.2114 52.2519 59.3101 52.1535 59.4103C52.0549 59.5103 51.957 59.6117 51.8541 59.7088C51.8026 59.7573 51.75 59.8048 51.6953 59.8499C51.6406 59.8952 51.5843 59.9386 51.5249 59.9781C51.5102 59.9881 51.4955 59.9982 51.4802 60.0073C51.465 60.0167 51.4501 60.0264 51.4347 60.0353L51.388 60.0615C51.3726 60.0705 51.3563 60.0778 51.3404 60.0861L51.3165 60.0982C51.3085 60.102 51.3002 60.1055 51.2921 60.1091C51.2756 60.1162 51.2596 60.1238 51.243 60.1306C51.2096 60.1434 51.1764 60.1567 51.1421 60.1669C51.1084 60.1786 51.0734 60.1865 51.0389 60.1959L50.9863 60.2066L50.9599 60.2119L50.9334 60.2159C50.8626 60.2265 50.7911 60.2314 50.7195 60.2307C50.5766 60.2293 50.4341 60.2058 50.2981 60.1621C50.2301 60.1402 50.1638 60.1131 50.0999 60.0813C50.0361 60.0491 49.9746 60.0124 49.9161 59.9717C49.6827 59.8073 49.4976 59.5749 49.3927 59.309L49.3867 59.2938L49.3998 59.2843C49.596 59.1424 49.8318 59.0606 50.0713 59.0394C50.3111 59.0181 50.5556 59.0583 50.7766 59.1524C50.887 59.1996 50.9915 59.2602 51.0888 59.3306C51.1857 59.4012 51.2744 59.4827 51.3554 59.5709C51.5166 59.7482 51.6448 59.9534 51.7425 60.1711C51.7917 60.2799 51.8329 60.3922 51.8669 60.5066C51.8843 60.5637 51.8988 60.6216 51.9126 60.6796C51.9254 60.7378 51.9374 60.7963 51.9464 60.8552C51.9643 60.9731 51.9782 61.0912 51.9886 61.2097C51.9945 61.2688 51.9984 61.3282 52.0032 61.3874C52.007 61.4468 52.0115 61.5061 52.0145 61.5654C52.0279 61.8028 52.0354 62.0403 52.0378 62.278C52.0405 62.5155 52.0379 62.7532 52.0288 62.9907C52.0318 62.8719 52.0331 62.7531 52.0331 62.6344C52.0326 62.5157 52.0316 62.3968 52.029 62.2781C52.0242 62.0407 52.0144 61.8033 51.9988 61.5663C51.9952 61.5071 51.9901 61.448 51.9858 61.3887C51.9803 61.3296 51.9759 61.2704 51.9694 61.2114C51.9579 61.0934 51.9429 60.9756 51.9239 60.8588C51.9043 60.7421 51.8769 60.6268 51.8425 60.5137C51.8081 60.4006 51.7667 60.2896 51.7174 60.1822C51.6196 59.9673 51.4916 59.7654 51.332 59.592C51.2518 59.5058 51.1644 59.4262 51.0689 59.3576C50.9733 59.2892 50.8708 59.2307 50.7627 59.1851C50.5462 59.0946 50.3081 59.057 50.0748 59.0791C49.8421 59.1012 49.6207 59.1646 49.4317 59.3022C49.534 59.5599 49.7144 59.7768 49.9411 59.9358C49.998 59.9753 50.0577 60.0107 50.1195 60.0418C50.1815 60.0725 50.2458 60.0986 50.3118 60.1197C50.4437 60.1619 50.5817 60.1843 50.72 60.1854C50.7891 60.1859 50.8583 60.181 50.9265 60.1706L50.9521 60.1668L50.9775 60.1616L51.0283 60.1511C51.0616 60.142 51.0954 60.1345 51.128 60.1229C51.1611 60.113 51.1931 60.1 51.2254 60.0877C51.2414 60.0812 51.257 60.0737 51.2729 60.0668C51.2808 60.0632 51.2888 60.0599 51.2965 60.056L51.3197 60.0443C51.335 60.0363 51.3508 60.0291 51.3658 60.0203L51.411 59.9947C51.4259 59.9859 51.4404 59.9765 51.4552 59.9673C51.4701 59.9584 51.4844 59.9486 51.4987 59.9388C51.5564 59.9002 51.6115 59.8576 51.665 59.8131C51.7188 59.7688 51.7706 59.7218 51.8213 59.6737C51.9231 59.5777 52.0201 59.4761 52.1191 59.376C52.218 59.2758 52.3187 59.1763 52.4264 59.0841C52.48 59.0378 52.5361 58.994 52.5938 58.9524C52.6514 58.9107 52.7122 58.8731 52.7742 58.8383C52.8989 58.7697 53.0311 58.7149 53.1674 58.6743C53.304 58.6346 53.4445 58.6082 53.5865 58.5985C53.8701 58.5795 54.1577 58.6174 54.4254 58.7138C54.6929 58.8098 54.94 58.9617 55.1471 59.1563L55.1578 59.1662L55.1523 59.1794C55.1228 59.2496 55.0902 59.3185 55.0538 59.3854C55.0166 59.4518 54.9766 59.5165 54.9327 59.5787C54.8882 59.6405 54.841 59.7003 54.7905 59.7571C54.7395 59.8135 54.6862 59.8678 54.6297 59.9187C54.4039 60.1225 54.1342 60.2764 53.845 60.3681C53.5558 60.4599 53.2473 60.4905 52.9461 60.4551C52.6449 60.4205 52.3519 60.3181 52.0946 60.1584L52.0822 60.1508L52.0932 60.1414C52.2201 60.0334 52.3361 59.913 52.4542 59.7944C52.5724 59.6762 52.6931 59.5588 52.8298 59.4609C52.9658 59.3625 53.1182 59.2874 53.2781 59.2374C53.3581 59.2126 53.4399 59.1935 53.5226 59.1813C53.6052 59.1692 53.6889 59.1632 53.7724 59.1634Z"/>
</mask>
<path d="M53.7724 59.1634C53.6888 59.1642 53.6054 59.1712 53.5229 59.1844C53.4404 59.1977 53.3592 59.2179 53.2799 59.2436C53.1214 59.2955 52.9705 59.3712 52.8365 59.4703C52.7018 59.5687 52.5828 59.6867 52.4659 59.8059C52.3491 59.9254 52.2326 60.0406 52.1057 60.1508C52.362 60.3059 52.6516 60.3953 52.9491 60.4276C53.2465 60.4608 53.5506 60.4288 53.8349 60.3366C54.1192 60.2446 54.3835 60.0915 54.6039 59.8903C54.8244 59.6891 55.006 59.463 55.1185 59.1868C54.9151 58.9967 54.6729 58.8484 54.4108 58.7549C54.1487 58.661 53.8669 58.6245 53.5898 58.6436C53.451 58.6533 53.3138 58.6794 53.1804 58.7185C53.0473 58.7584 52.9183 58.8122 52.7967 58.8794C52.7364 58.9136 52.6774 58.9501 52.621 58.991C52.5648 59.0318 52.5099 59.0746 52.4572 59.1204C52.3514 59.2114 52.2519 59.3101 52.1535 59.4103C52.0549 59.5103 51.957 59.6117 51.8541 59.7088C51.8026 59.7573 51.75 59.8048 51.6953 59.8499C51.6406 59.8952 51.5843 59.9386 51.5249 59.9781C51.5102 59.9881 51.4955 59.9982 51.4802 60.0073C51.465 60.0167 51.4501 60.0264 51.4347 60.0353L51.388 60.0615C51.3726 60.0705 51.3563 60.0778 51.3404 60.0861L51.3165 60.0982C51.3085 60.102 51.3002 60.1055 51.2921 60.1091C51.2756 60.1162 51.2596 60.1238 51.243 60.1306C51.2096 60.1434 51.1764 60.1567 51.1421 60.1669C51.1084 60.1786 51.0734 60.1865 51.0389 60.1959L50.9863 60.2066L50.9599 60.2119L50.9334 60.2159C50.8626 60.2265 50.7911 60.2314 50.7195 60.2307C50.5766 60.2293 50.4341 60.2058 50.2981 60.1621C50.2301 60.1402 50.1638 60.1131 50.0999 60.0813C50.0361 60.0491 49.9746 60.0124 49.9161 59.9717C49.6827 59.8073 49.4976 59.5749 49.3927 59.309L49.3867 59.2938L49.3998 59.2843C49.596 59.1424 49.8318 59.0606 50.0713 59.0394C50.3111 59.0181 50.5556 59.0583 50.7766 59.1524C50.887 59.1996 50.9915 59.2602 51.0888 59.3306C51.1857 59.4012 51.2744 59.4827 51.3554 59.5709C51.5166 59.7482 51.6448 59.9534 51.7425 60.1711C51.7917 60.2799 51.8329 60.3922 51.8669 60.5066C51.8843 60.5637 51.8988 60.6216 51.9126 60.6796C51.9254 60.7378 51.9374 60.7963 51.9464 60.8552C51.9643 60.9731 51.9782 61.0912 51.9886 61.2097C51.9945 61.2688 51.9984 61.3282 52.0032 61.3874C52.007 61.4468 52.0115 61.5061 52.0145 61.5654C52.0279 61.8028 52.0354 62.0403 52.0378 62.278C52.0405 62.5155 52.0379 62.7532 52.0288 62.9907C52.0318 62.8719 52.0331 62.7531 52.0331 62.6344C52.0326 62.5157 52.0316 62.3968 52.029 62.2781C52.0242 62.0407 52.0144 61.8033 51.9988 61.5663C51.9952 61.5071 51.9901 61.448 51.9858 61.3887C51.9803 61.3296 51.9759 61.2704 51.9694 61.2114C51.9579 61.0934 51.9429 60.9756 51.9239 60.8588C51.9043 60.7421 51.8769 60.6268 51.8425 60.5137C51.8081 60.4006 51.7667 60.2896 51.7174 60.1822C51.6196 59.9673 51.4916 59.7654 51.332 59.592C51.2518 59.5058 51.1644 59.4262 51.0689 59.3576C50.9733 59.2892 50.8708 59.2307 50.7627 59.1851C50.5462 59.0946 50.3081 59.057 50.0748 59.0791C49.8421 59.1012 49.6207 59.1646 49.4317 59.3022C49.534 59.5599 49.7144 59.7768 49.9411 59.9358C49.998 59.9753 50.0577 60.0107 50.1195 60.0418C50.1815 60.0725 50.2458 60.0986 50.3118 60.1197C50.4437 60.1619 50.5817 60.1843 50.72 60.1854C50.7891 60.1859 50.8583 60.181 50.9265 60.1706L50.9521 60.1668L50.9775 60.1616L51.0283 60.1511C51.0616 60.142 51.0954 60.1345 51.128 60.1229C51.1611 60.113 51.1931 60.1 51.2254 60.0877C51.2414 60.0812 51.257 60.0737 51.2729 60.0668C51.2808 60.0632 51.2888 60.0599 51.2965 60.056L51.3197 60.0443C51.335 60.0363 51.3508 60.0291 51.3658 60.0203L51.411 59.9947C51.4259 59.9859 51.4404 59.9765 51.4552 59.9673C51.4701 59.9584 51.4844 59.9486 51.4987 59.9388C51.5564 59.9002 51.6115 59.8576 51.665 59.8131C51.7188 59.7688 51.7706 59.7218 51.8213 59.6737C51.9231 59.5777 52.0201 59.4761 52.1191 59.376C52.218 59.2758 52.3187 59.1763 52.4264 59.0841C52.48 59.0378 52.5361 58.994 52.5938 58.9524C52.6514 58.9107 52.7122 58.8731 52.7742 58.8383C52.8989 58.7697 53.0311 58.7149 53.1674 58.6743C53.304 58.6346 53.4445 58.6082 53.5865 58.5985C53.8701 58.5795 54.1577 58.6174 54.4254 58.7138C54.6929 58.8098 54.94 58.9617 55.1471 59.1563L55.1578 59.1662L55.1523 59.1794C55.1228 59.2496 55.0902 59.3185 55.0538 59.3854C55.0166 59.4518 54.9766 59.5165 54.9327 59.5787C54.8882 59.6405 54.841 59.7003 54.7905 59.7571C54.7395 59.8135 54.6862 59.8678 54.6297 59.9187C54.4039 60.1225 54.1342 60.2764 53.845 60.3681C53.5558 60.4599 53.2473 60.4905 52.9461 60.4551C52.6449 60.4205 52.3519 60.3181 52.0946 60.1584L52.0822 60.1508L52.0932 60.1414C52.2201 60.0334 52.3361 59.913 52.4542 59.7944C52.5724 59.6762 52.6931 59.5588 52.8298 59.4609C52.9658 59.3625 53.1182 59.2874 53.2781 59.2374C53.3581 59.2126 53.4399 59.1935 53.5226 59.1813C53.6052 59.1692 53.6889 59.1632 53.7724 59.1634Z" fill="white"/>
<path d="M53.7724 59.1634C53.6888 59.1642 53.6054 59.1712 53.5229 59.1844C53.4404 59.1977 53.3592 59.2179 53.2799 59.2436C53.1214 59.2955 52.9705 59.3712 52.8365 59.4703C52.7018 59.5687 52.5828 59.6867 52.4659 59.8059C52.3491 59.9254 52.2326 60.0406 52.1057 60.1508C52.362 60.3059 52.6516 60.3953 52.9491 60.4276C53.2465 60.4608 53.5506 60.4288 53.8349 60.3366C54.1192 60.2446 54.3835 60.0915 54.6039 59.8903C54.8244 59.6891 55.006 59.463 55.1185 59.1868C54.9151 58.9967 54.6729 58.8484 54.4108 58.7549C54.1487 58.661 53.8669 58.6245 53.5898 58.6436C53.451 58.6533 53.3138 58.6794 53.1804 58.7185C53.0473 58.7584 52.9183 58.8122 52.7967 58.8794C52.7364 58.9136 52.6774 58.9501 52.621 58.991C52.5648 59.0318 52.5099 59.0746 52.4572 59.1204C52.3514 59.2114 52.2519 59.3101 52.1535 59.4103C52.0549 59.5103 51.957 59.6117 51.8541 59.7088C51.8026 59.7573 51.75 59.8048 51.6953 59.8499C51.6406 59.8952 51.5843 59.9386 51.5249 59.9781C51.5102 59.9881 51.4955 59.9982 51.4802 60.0073C51.465 60.0167 51.4501 60.0264 51.4347 60.0353L51.388 60.0615C51.3726 60.0705 51.3563 60.0778 51.3404 60.0861L51.3165 60.0982C51.3085 60.102 51.3002 60.1055 51.2921 60.1091C51.2756 60.1162 51.2596 60.1238 51.243 60.1306C51.2096 60.1434 51.1764 60.1567 51.1421 60.1669C51.1084 60.1786 51.0734 60.1865 51.0389 60.1959L50.9863 60.2066L50.9599 60.2119L50.9334 60.2159C50.8626 60.2265 50.7911 60.2314 50.7195 60.2307C50.5766 60.2293 50.4341 60.2058 50.2981 60.1621C50.2301 60.1402 50.1638 60.1131 50.0999 60.0813C50.0361 60.0491 49.9746 60.0124 49.9161 59.9717C49.6827 59.8073 49.4976 59.5749 49.3927 59.309L49.3867 59.2938L49.3998 59.2843C49.596 59.1424 49.8318 59.0606 50.0713 59.0394C50.3111 59.0181 50.5556 59.0583 50.7766 59.1524C50.887 59.1996 50.9915 59.2602 51.0888 59.3306C51.1857 59.4012 51.2744 59.4827 51.3554 59.5709C51.5166 59.7482 51.6448 59.9534 51.7425 60.1711C51.7917 60.2799 51.8329 60.3922 51.8669 60.5066C51.8843 60.5637 51.8988 60.6216 51.9126 60.6796C51.9254 60.7378 51.9374 60.7963 51.9464 60.8552C51.9643 60.9731 51.9782 61.0912 51.9886 61.2097C51.9945 61.2688 51.9984 61.3282 52.0032 61.3874C52.007 61.4468 52.0115 61.5061 52.0145 61.5654C52.0279 61.8028 52.0354 62.0403 52.0378 62.278C52.0405 62.5155 52.0379 62.7532 52.0288 62.9907C52.0318 62.8719 52.0331 62.7531 52.0331 62.6344C52.0326 62.5157 52.0316 62.3968 52.029 62.2781C52.0242 62.0407 52.0144 61.8033 51.9988 61.5663C51.9952 61.5071 51.9901 61.448 51.9858 61.3887C51.9803 61.3296 51.9759 61.2704 51.9694 61.2114C51.9579 61.0934 51.9429 60.9756 51.9239 60.8588C51.9043 60.7421 51.8769 60.6268 51.8425 60.5137C51.8081 60.4006 51.7667 60.2896 51.7174 60.1822C51.6196 59.9673 51.4916 59.7654 51.332 59.592C51.2518 59.5058 51.1644 59.4262 51.0689 59.3576C50.9733 59.2892 50.8708 59.2307 50.7627 59.1851C50.5462 59.0946 50.3081 59.057 50.0748 59.0791C49.8421 59.1012 49.6207 59.1646 49.4317 59.3022C49.534 59.5599 49.7144 59.7768 49.9411 59.9358C49.998 59.9753 50.0577 60.0107 50.1195 60.0418C50.1815 60.0725 50.2458 60.0986 50.3118 60.1197C50.4437 60.1619 50.5817 60.1843 50.72 60.1854C50.7891 60.1859 50.8583 60.181 50.9265 60.1706L50.9521 60.1668L50.9775 60.1616L51.0283 60.1511C51.0616 60.142 51.0954 60.1345 51.128 60.1229C51.1611 60.113 51.1931 60.1 51.2254 60.0877C51.2414 60.0812 51.257 60.0737 51.2729 60.0668C51.2808 60.0632 51.2888 60.0599 51.2965 60.056L51.3197 60.0443C51.335 60.0363 51.3508 60.0291 51.3658 60.0203L51.411 59.9947C51.4259 59.9859 51.4404 59.9765 51.4552 59.9673C51.4701 59.9584 51.4844 59.9486 51.4987 59.9388C51.5564 59.9002 51.6115 59.8576 51.665 59.8131C51.7188 59.7688 51.7706 59.7218 51.8213 59.6737C51.9231 59.5777 52.0201 59.4761 52.1191 59.376C52.218 59.2758 52.3187 59.1763 52.4264 59.0841C52.48 59.0378 52.5361 58.994 52.5938 58.9524C52.6514 58.9107 52.7122 58.8731 52.7742 58.8383C52.8989 58.7697 53.0311 58.7149 53.1674 58.6743C53.304 58.6346 53.4445 58.6082 53.5865 58.5985C53.8701 58.5795 54.1577 58.6174 54.4254 58.7138C54.6929 58.8098 54.94 58.9617 55.1471 59.1563L55.1578 59.1662L55.1523 59.1794C55.1228 59.2496 55.0902 59.3185 55.0538 59.3854C55.0166 59.4518 54.9766 59.5165 54.9327 59.5787C54.8882 59.6405 54.841 59.7003 54.7905 59.7571C54.7395 59.8135 54.6862 59.8678 54.6297 59.9187C54.4039 60.1225 54.1342 60.2764 53.845 60.3681C53.5558 60.4599 53.2473 60.4905 52.9461 60.4551C52.6449 60.4205 52.3519 60.3181 52.0946 60.1584L52.0822 60.1508L52.0932 60.1414C52.2201 60.0334 52.3361 59.913 52.4542 59.7944C52.5724 59.6762 52.6931 59.5588 52.8298 59.4609C52.9658 59.3625 53.1182 59.2874 53.2781 59.2374C53.3581 59.2126 53.4399 59.1935 53.5226 59.1813C53.6052 59.1692 53.6889 59.1632 53.7724 59.1634Z" stroke="white" stroke-width="0.123967" mask="url(#path-11-outside-1_300_1260)"/>
</g>
<g filter="url(#filter3_d_300_1260)">
<circle cx="70.4547" cy="60.1832" r="3.63636" fill="url(#paint1_linear_300_1260)"/>
<mask id="path-13-outside-2_300_1260" maskUnits="userSpaceOnUse" x="66.5684" y="57.5938" width="7" height="6" fill="black">
<rect fill="white" x="66.5684" y="57.5938" width="7" height="6"/>
<path d="M71.9541 59.1634C71.8705 59.1642 71.7871 59.1712 71.7046 59.1844C71.6221 59.1977 71.5408 59.2179 71.4615 59.2436C71.3031 59.2955 71.1521 59.3712 71.0182 59.4703C70.8834 59.5687 70.7644 59.6867 70.6475 59.8059C70.5308 59.9254 70.4143 60.0406 70.2873 60.1508C70.5437 60.3059 70.8332 60.3953 71.1308 60.4276C71.4281 60.4608 71.7323 60.4288 72.0165 60.3366C72.3008 60.2446 72.5652 60.0915 72.7856 59.8903C73.006 59.6891 73.1877 59.463 73.3001 59.1868C73.0967 58.9967 72.8545 58.8484 72.5924 58.7549C72.3304 58.661 72.0486 58.6245 71.7714 58.6436C71.6327 58.6533 71.4954 58.6794 71.3621 58.7185C71.2289 58.7584 71.1 58.8122 70.9784 58.8794C70.918 58.9136 70.859 58.9501 70.8027 58.991C70.7464 59.0318 70.6915 59.0746 70.6388 59.1204C70.5331 59.2114 70.4336 59.3101 70.3351 59.4103C70.2365 59.5103 70.1386 59.6117 70.0357 59.7088C69.9843 59.7573 69.9317 59.8048 69.8769 59.8499C69.8223 59.8952 69.7659 59.9386 69.7066 59.9781C69.6919 59.9881 69.6771 59.9982 69.6618 60.0073C69.6467 60.0167 69.6317 60.0264 69.6163 60.0353L69.5697 60.0615C69.5543 60.0705 69.5379 60.0778 69.5221 60.0861L69.4981 60.0982C69.4901 60.102 69.4818 60.1055 69.4737 60.1091C69.4573 60.1162 69.4412 60.1238 69.4246 60.1306C69.3912 60.1434 69.358 60.1567 69.3238 60.1669C69.29 60.1786 69.255 60.1865 69.2205 60.1959L69.1679 60.2066L69.1416 60.2119L69.115 60.2159C69.0443 60.2265 68.9727 60.2314 68.9012 60.2307C68.7582 60.2293 68.6157 60.2058 68.4797 60.1621C68.4117 60.1402 68.3454 60.1131 68.2816 60.0813C68.2178 60.0491 68.1563 60.0124 68.0977 59.9717C67.8643 59.8073 67.6793 59.5749 67.5743 59.309L67.5684 59.2938L67.5815 59.2843C67.7776 59.1424 68.0134 59.0606 68.2529 59.0394C68.4927 59.0181 68.7372 59.0583 68.9582 59.1524C69.0687 59.1996 69.1732 59.2602 69.2704 59.3306C69.3674 59.4012 69.456 59.4827 69.537 59.5709C69.6982 59.7482 69.8265 59.9534 69.9241 60.1711C69.9733 60.2799 70.0145 60.3922 70.0485 60.5066C70.066 60.5637 70.0805 60.6216 70.0943 60.6796C70.107 60.7378 70.119 60.7963 70.128 60.8552C70.1459 60.9731 70.1599 61.0912 70.1702 61.2097C70.1762 61.2688 70.1801 61.3282 70.1848 61.3874C70.1886 61.4468 70.1932 61.5061 70.1961 61.5654C70.2095 61.8028 70.217 62.0403 70.2194 62.278C70.2222 62.5155 70.2195 62.7532 70.2104 62.9907C70.2135 62.8719 70.2147 62.7531 70.2147 62.6344C70.2143 62.5157 70.2133 62.3968 70.2106 62.2781C70.2058 62.0407 70.196 61.8033 70.1804 61.5663C70.1769 61.5071 70.1717 61.448 70.1674 61.3887C70.1619 61.3296 70.1576 61.2704 70.1511 61.2114C70.1396 61.0934 70.1245 60.9756 70.1056 60.8588C70.0859 60.7421 70.0585 60.6268 70.0241 60.5137C69.9897 60.4006 69.9483 60.2896 69.899 60.1822C69.8013 59.9673 69.6733 59.7654 69.5136 59.592C69.4334 59.5058 69.346 59.4262 69.2505 59.3576C69.1549 59.2892 69.0525 59.2307 68.9443 59.1851C68.7279 59.0946 68.4898 59.057 68.2565 59.0791C68.0237 59.1012 67.8024 59.1646 67.6133 59.3022C67.7157 59.5599 67.896 59.7768 68.1227 59.9358C68.1797 59.9753 68.2393 60.0107 68.3012 60.0418C68.3631 60.0725 68.4275 60.0986 68.4934 60.1197C68.6253 60.1619 68.7634 60.1843 68.9016 60.1854C68.9708 60.1859 69.0399 60.181 69.1082 60.1706L69.1337 60.1668L69.1592 60.1616L69.2099 60.1511C69.2432 60.142 69.277 60.1345 69.3096 60.1229C69.3427 60.113 69.3748 60.1 69.4071 60.0877C69.4231 60.0812 69.4387 60.0737 69.4545 60.0668C69.4624 60.0632 69.4704 60.0599 69.4782 60.056L69.5013 60.0443C69.5166 60.0363 69.5325 60.0291 69.5474 60.0203L69.5926 59.9947C69.6075 59.9859 69.622 59.9765 69.6369 59.9673C69.6517 59.9584 69.6661 59.9486 69.6803 59.9388C69.7381 59.9002 69.7932 59.8576 69.8467 59.8131C69.9004 59.7688 69.9522 59.7218 70.003 59.6737C70.1048 59.5777 70.2017 59.4761 70.3008 59.376C70.3997 59.2758 70.5003 59.1763 70.608 59.0841C70.6616 59.0378 70.7178 58.994 70.7754 58.9524C70.833 58.9107 70.8938 58.8731 70.9559 58.8383C71.0806 58.7697 71.2127 58.7149 71.349 58.6743C71.4856 58.6346 71.6262 58.6082 71.7681 58.5985C72.0517 58.5795 72.3394 58.6174 72.607 58.7138C72.8746 58.8098 73.1216 58.9617 73.3288 59.1563L73.3394 59.1662L73.3339 59.1794C73.3045 59.2496 73.2719 59.3185 73.2355 59.3854C73.1983 59.4518 73.1582 59.5165 73.1143 59.5787C73.0698 59.6405 73.0227 59.7003 72.9721 59.7571C72.9211 59.8135 72.8679 59.8678 72.8114 59.9187C72.5856 60.1225 72.3159 60.2764 72.0266 60.3681C71.7374 60.4599 71.4289 60.4905 71.1277 60.4551C70.8265 60.4205 70.5335 60.3181 70.2762 60.1584L70.2638 60.1508L70.2749 60.1414C70.4017 60.0334 70.5178 59.913 70.6359 59.7944C70.7541 59.6762 70.8748 59.5588 71.0114 59.4609C71.1474 59.3625 71.2999 59.2874 71.4597 59.2374C71.5397 59.2126 71.6215 59.1935 71.7042 59.1813C71.7868 59.1692 71.8706 59.1632 71.9541 59.1634Z"/>
</mask>
<path d="M71.9541 59.1634C71.8705 59.1642 71.7871 59.1712 71.7046 59.1844C71.6221 59.1977 71.5408 59.2179 71.4615 59.2436C71.3031 59.2955 71.1521 59.3712 71.0182 59.4703C70.8834 59.5687 70.7644 59.6867 70.6475 59.8059C70.5308 59.9254 70.4143 60.0406 70.2873 60.1508C70.5437 60.3059 70.8332 60.3953 71.1308 60.4276C71.4281 60.4608 71.7323 60.4288 72.0165 60.3366C72.3008 60.2446 72.5652 60.0915 72.7856 59.8903C73.006 59.6891 73.1877 59.463 73.3001 59.1868C73.0967 58.9967 72.8545 58.8484 72.5924 58.7549C72.3304 58.661 72.0486 58.6245 71.7714 58.6436C71.6327 58.6533 71.4954 58.6794 71.3621 58.7185C71.2289 58.7584 71.1 58.8122 70.9784 58.8794C70.918 58.9136 70.859 58.9501 70.8027 58.991C70.7464 59.0318 70.6915 59.0746 70.6388 59.1204C70.5331 59.2114 70.4336 59.3101 70.3351 59.4103C70.2365 59.5103 70.1386 59.6117 70.0357 59.7088C69.9843 59.7573 69.9317 59.8048 69.8769 59.8499C69.8223 59.8952 69.7659 59.9386 69.7066 59.9781C69.6919 59.9881 69.6771 59.9982 69.6618 60.0073C69.6467 60.0167 69.6317 60.0264 69.6163 60.0353L69.5697 60.0615C69.5543 60.0705 69.5379 60.0778 69.5221 60.0861L69.4981 60.0982C69.4901 60.102 69.4818 60.1055 69.4737 60.1091C69.4573 60.1162 69.4412 60.1238 69.4246 60.1306C69.3912 60.1434 69.358 60.1567 69.3238 60.1669C69.29 60.1786 69.255 60.1865 69.2205 60.1959L69.1679 60.2066L69.1416 60.2119L69.115 60.2159C69.0443 60.2265 68.9727 60.2314 68.9012 60.2307C68.7582 60.2293 68.6157 60.2058 68.4797 60.1621C68.4117 60.1402 68.3454 60.1131 68.2816 60.0813C68.2178 60.0491 68.1563 60.0124 68.0977 59.9717C67.8643 59.8073 67.6793 59.5749 67.5743 59.309L67.5684 59.2938L67.5815 59.2843C67.7776 59.1424 68.0134 59.0606 68.2529 59.0394C68.4927 59.0181 68.7372 59.0583 68.9582 59.1524C69.0687 59.1996 69.1732 59.2602 69.2704 59.3306C69.3674 59.4012 69.456 59.4827 69.537 59.5709C69.6982 59.7482 69.8265 59.9534 69.9241 60.1711C69.9733 60.2799 70.0145 60.3922 70.0485 60.5066C70.066 60.5637 70.0805 60.6216 70.0943 60.6796C70.107 60.7378 70.119 60.7963 70.128 60.8552C70.1459 60.9731 70.1599 61.0912 70.1702 61.2097C70.1762 61.2688 70.1801 61.3282 70.1848 61.3874C70.1886 61.4468 70.1932 61.5061 70.1961 61.5654C70.2095 61.8028 70.217 62.0403 70.2194 62.278C70.2222 62.5155 70.2195 62.7532 70.2104 62.9907C70.2135 62.8719 70.2147 62.7531 70.2147 62.6344C70.2143 62.5157 70.2133 62.3968 70.2106 62.2781C70.2058 62.0407 70.196 61.8033 70.1804 61.5663C70.1769 61.5071 70.1717 61.448 70.1674 61.3887C70.1619 61.3296 70.1576 61.2704 70.1511 61.2114C70.1396 61.0934 70.1245 60.9756 70.1056 60.8588C70.0859 60.7421 70.0585 60.6268 70.0241 60.5137C69.9897 60.4006 69.9483 60.2896 69.899 60.1822C69.8013 59.9673 69.6733 59.7654 69.5136 59.592C69.4334 59.5058 69.346 59.4262 69.2505 59.3576C69.1549 59.2892 69.0525 59.2307 68.9443 59.1851C68.7279 59.0946 68.4898 59.057 68.2565 59.0791C68.0237 59.1012 67.8024 59.1646 67.6133 59.3022C67.7157 59.5599 67.896 59.7768 68.1227 59.9358C68.1797 59.9753 68.2393 60.0107 68.3012 60.0418C68.3631 60.0725 68.4275 60.0986 68.4934 60.1197C68.6253 60.1619 68.7634 60.1843 68.9016 60.1854C68.9708 60.1859 69.0399 60.181 69.1082 60.1706L69.1337 60.1668L69.1592 60.1616L69.2099 60.1511C69.2432 60.142 69.277 60.1345 69.3096 60.1229C69.3427 60.113 69.3748 60.1 69.4071 60.0877C69.4231 60.0812 69.4387 60.0737 69.4545 60.0668C69.4624 60.0632 69.4704 60.0599 69.4782 60.056L69.5013 60.0443C69.5166 60.0363 69.5325 60.0291 69.5474 60.0203L69.5926 59.9947C69.6075 59.9859 69.622 59.9765 69.6369 59.9673C69.6517 59.9584 69.6661 59.9486 69.6803 59.9388C69.7381 59.9002 69.7932 59.8576 69.8467 59.8131C69.9004 59.7688 69.9522 59.7218 70.003 59.6737C70.1048 59.5777 70.2017 59.4761 70.3008 59.376C70.3997 59.2758 70.5003 59.1763 70.608 59.0841C70.6616 59.0378 70.7178 58.994 70.7754 58.9524C70.833 58.9107 70.8938 58.8731 70.9559 58.8383C71.0806 58.7697 71.2127 58.7149 71.349 58.6743C71.4856 58.6346 71.6262 58.6082 71.7681 58.5985C72.0517 58.5795 72.3394 58.6174 72.607 58.7138C72.8746 58.8098 73.1216 58.9617 73.3288 59.1563L73.3394 59.1662L73.3339 59.1794C73.3045 59.2496 73.2719 59.3185 73.2355 59.3854C73.1983 59.4518 73.1582 59.5165 73.1143 59.5787C73.0698 59.6405 73.0227 59.7003 72.9721 59.7571C72.9211 59.8135 72.8679 59.8678 72.8114 59.9187C72.5856 60.1225 72.3159 60.2764 72.0266 60.3681C71.7374 60.4599 71.4289 60.4905 71.1277 60.4551C70.8265 60.4205 70.5335 60.3181 70.2762 60.1584L70.2638 60.1508L70.2749 60.1414C70.4017 60.0334 70.5178 59.913 70.6359 59.7944C70.7541 59.6762 70.8748 59.5588 71.0114 59.4609C71.1474 59.3625 71.2999 59.2874 71.4597 59.2374C71.5397 59.2126 71.6215 59.1935 71.7042 59.1813C71.7868 59.1692 71.8706 59.1632 71.9541 59.1634Z" fill="white"/>
<path d="M71.9541 59.1634C71.8705 59.1642 71.7871 59.1712 71.7046 59.1844C71.6221 59.1977 71.5408 59.2179 71.4615 59.2436C71.3031 59.2955 71.1521 59.3712 71.0182 59.4703C70.8834 59.5687 70.7644 59.6867 70.6475 59.8059C70.5308 59.9254 70.4143 60.0406 70.2873 60.1508C70.5437 60.3059 70.8332 60.3953 71.1308 60.4276C71.4281 60.4608 71.7323 60.4288 72.0165 60.3366C72.3008 60.2446 72.5652 60.0915 72.7856 59.8903C73.006 59.6891 73.1877 59.463 73.3001 59.1868C73.0967 58.9967 72.8545 58.8484 72.5924 58.7549C72.3304 58.661 72.0486 58.6245 71.7714 58.6436C71.6327 58.6533 71.4954 58.6794 71.3621 58.7185C71.2289 58.7584 71.1 58.8122 70.9784 58.8794C70.918 58.9136 70.859 58.9501 70.8027 58.991C70.7464 59.0318 70.6915 59.0746 70.6388 59.1204C70.5331 59.2114 70.4336 59.3101 70.3351 59.4103C70.2365 59.5103 70.1386 59.6117 70.0357 59.7088C69.9843 59.7573 69.9317 59.8048 69.8769 59.8499C69.8223 59.8952 69.7659 59.9386 69.7066 59.9781C69.6919 59.9881 69.6771 59.9982 69.6618 60.0073C69.6467 60.0167 69.6317 60.0264 69.6163 60.0353L69.5697 60.0615C69.5543 60.0705 69.5379 60.0778 69.5221 60.0861L69.4981 60.0982C69.4901 60.102 69.4818 60.1055 69.4737 60.1091C69.4573 60.1162 69.4412 60.1238 69.4246 60.1306C69.3912 60.1434 69.358 60.1567 69.3238 60.1669C69.29 60.1786 69.255 60.1865 69.2205 60.1959L69.1679 60.2066L69.1416 60.2119L69.115 60.2159C69.0443 60.2265 68.9727 60.2314 68.9012 60.2307C68.7582 60.2293 68.6157 60.2058 68.4797 60.1621C68.4117 60.1402 68.3454 60.1131 68.2816 60.0813C68.2178 60.0491 68.1563 60.0124 68.0977 59.9717C67.8643 59.8073 67.6793 59.5749 67.5743 59.309L67.5684 59.2938L67.5815 59.2843C67.7776 59.1424 68.0134 59.0606 68.2529 59.0394C68.4927 59.0181 68.7372 59.0583 68.9582 59.1524C69.0687 59.1996 69.1732 59.2602 69.2704 59.3306C69.3674 59.4012 69.456 59.4827 69.537 59.5709C69.6982 59.7482 69.8265 59.9534 69.9241 60.1711C69.9733 60.2799 70.0145 60.3922 70.0485 60.5066C70.066 60.5637 70.0805 60.6216 70.0943 60.6796C70.107 60.7378 70.119 60.7963 70.128 60.8552C70.1459 60.9731 70.1599 61.0912 70.1702 61.2097C70.1762 61.2688 70.1801 61.3282 70.1848 61.3874C70.1886 61.4468 70.1932 61.5061 70.1961 61.5654C70.2095 61.8028 70.217 62.0403 70.2194 62.278C70.2222 62.5155 70.2195 62.7532 70.2104 62.9907C70.2135 62.8719 70.2147 62.7531 70.2147 62.6344C70.2143 62.5157 70.2133 62.3968 70.2106 62.2781C70.2058 62.0407 70.196 61.8033 70.1804 61.5663C70.1769 61.5071 70.1717 61.448 70.1674 61.3887C70.1619 61.3296 70.1576 61.2704 70.1511 61.2114C70.1396 61.0934 70.1245 60.9756 70.1056 60.8588C70.0859 60.7421 70.0585 60.6268 70.0241 60.5137C69.9897 60.4006 69.9483 60.2896 69.899 60.1822C69.8013 59.9673 69.6733 59.7654 69.5136 59.592C69.4334 59.5058 69.346 59.4262 69.2505 59.3576C69.1549 59.2892 69.0525 59.2307 68.9443 59.1851C68.7279 59.0946 68.4898 59.057 68.2565 59.0791C68.0237 59.1012 67.8024 59.1646 67.6133 59.3022C67.7157 59.5599 67.896 59.7768 68.1227 59.9358C68.1797 59.9753 68.2393 60.0107 68.3012 60.0418C68.3631 60.0725 68.4275 60.0986 68.4934 60.1197C68.6253 60.1619 68.7634 60.1843 68.9016 60.1854C68.9708 60.1859 69.0399 60.181 69.1082 60.1706L69.1337 60.1668L69.1592 60.1616L69.2099 60.1511C69.2432 60.142 69.277 60.1345 69.3096 60.1229C69.3427 60.113 69.3748 60.1 69.4071 60.0877C69.4231 60.0812 69.4387 60.0737 69.4545 60.0668C69.4624 60.0632 69.4704 60.0599 69.4782 60.056L69.5013 60.0443C69.5166 60.0363 69.5325 60.0291 69.5474 60.0203L69.5926 59.9947C69.6075 59.9859 69.622 59.9765 69.6369 59.9673C69.6517 59.9584 69.6661 59.9486 69.6803 59.9388C69.7381 59.9002 69.7932 59.8576 69.8467 59.8131C69.9004 59.7688 69.9522 59.7218 70.003 59.6737C70.1048 59.5777 70.2017 59.4761 70.3008 59.376C70.3997 59.2758 70.5003 59.1763 70.608 59.0841C70.6616 59.0378 70.7178 58.994 70.7754 58.9524C70.833 58.9107 70.8938 58.8731 70.9559 58.8383C71.0806 58.7697 71.2127 58.7149 71.349 58.6743C71.4856 58.6346 71.6262 58.6082 71.7681 58.5985C72.0517 58.5795 72.3394 58.6174 72.607 58.7138C72.8746 58.8098 73.1216 58.9617 73.3288 59.1563L73.3394 59.1662L73.3339 59.1794C73.3045 59.2496 73.2719 59.3185 73.2355 59.3854C73.1983 59.4518 73.1582 59.5165 73.1143 59.5787C73.0698 59.6405 73.0227 59.7003 72.9721 59.7571C72.9211 59.8135 72.8679 59.8678 72.8114 59.9187C72.5856 60.1225 72.3159 60.2764 72.0266 60.3681C71.7374 60.4599 71.4289 60.4905 71.1277 60.4551C70.8265 60.4205 70.5335 60.3181 70.2762 60.1584L70.2638 60.1508L70.2749 60.1414C70.4017 60.0334 70.5178 59.913 70.6359 59.7944C70.7541 59.6762 70.8748 59.5588 71.0114 59.4609C71.1474 59.3625 71.2999 59.2874 71.4597 59.2374C71.5397 59.2126 71.6215 59.1935 71.7042 59.1813C71.7868 59.1692 71.8706 59.1632 71.9541 59.1634Z" stroke="white" stroke-width="0.123967" mask="url(#path-13-outside-2_300_1260)"/>
</g>
<g filter="url(#filter4_d_300_1260)">
<circle cx="60.9994" cy="51.4574" r="4.36364" fill="url(#paint2_linear_300_1260)"/>
<mask id="path-15-outside-3_300_1260" maskUnits="userSpaceOnUse" x="56.5371" y="48.5508" width="9" height="7" fill="black">
<rect fill="white" x="56.5371" y="48.5508" width="9" height="7"/>
<path d="M62.8 50.2344C62.6996 50.2354 62.5995 50.2437 62.5006 50.2596C62.4016 50.2755 62.3041 50.2998 62.2089 50.3306C62.0188 50.3929 61.8376 50.4837 61.6769 50.6026C61.5152 50.7207 61.3724 50.8624 61.2321 51.0054C61.092 51.1488 60.9522 51.287 60.7998 51.4192C61.1075 51.6054 61.455 51.7127 61.812 51.7514C62.1688 51.7913 62.5338 51.7528 62.8749 51.6422C63.2161 51.5318 63.5333 51.3481 63.7978 51.1066C64.0623 50.8652 64.2803 50.5939 64.4153 50.2625C64.1711 50.0343 63.8805 49.8563 63.566 49.7441C63.2515 49.6315 62.9133 49.5877 62.5808 49.6106C62.4143 49.6222 62.2496 49.6536 62.0895 49.7004C61.9298 49.7484 61.7751 49.8129 61.6291 49.8936C61.5567 49.9345 61.4859 49.9784 61.4183 50.0274C61.3508 50.0765 61.2849 50.1278 61.2217 50.1828C61.0947 50.2919 60.9754 50.4104 60.8572 50.5306C60.7389 50.6506 60.6214 50.7724 60.498 50.8888C60.4362 50.947 60.3731 51.004 60.3074 51.0581C60.2418 51.1125 60.1742 51.1646 60.103 51.212C60.0853 51.224 60.0676 51.2361 60.0493 51.247C60.0311 51.2583 60.0131 51.2699 59.9947 51.2806L59.9387 51.3121C59.9202 51.3229 59.9006 51.3317 59.8816 51.3416L59.8528 51.3561C59.8432 51.3607 59.8332 51.3648 59.8235 51.3692C59.8038 51.3777 59.7845 51.3869 59.7647 51.395C59.7245 51.4103 59.6847 51.4263 59.6436 51.4385C59.6031 51.4527 59.5611 51.4621 59.5197 51.4733L59.4566 51.4862L59.425 51.4925L59.3931 51.4973C59.3082 51.51 59.2224 51.5159 59.1365 51.5151C58.965 51.5135 58.794 51.4853 58.6308 51.4328C58.5492 51.4065 58.4696 51.374 58.3929 51.3358C58.3164 51.2972 58.2426 51.2532 58.1724 51.2043C57.8923 51.007 57.6702 50.7281 57.5442 50.4091L57.5371 50.3909L57.5529 50.3795C57.7882 50.2092 58.0712 50.111 58.3586 50.0855C58.6464 50.06 58.9398 50.1082 59.205 50.2211C59.3375 50.2778 59.4629 50.3506 59.5796 50.435C59.6959 50.5198 59.8023 50.6176 59.8995 50.7233C60.093 50.9361 60.2469 51.1824 60.3641 51.4436C60.4231 51.5742 60.4725 51.709 60.5133 51.8462C60.5342 51.9147 60.5516 51.9842 60.5682 52.0538C60.5835 52.1236 60.5979 52.1939 60.6087 52.2646C60.6302 52.406 60.6469 52.5477 60.6594 52.6899C60.6665 52.7609 60.6711 52.8321 60.6769 52.9032C60.6814 52.9745 60.6869 53.0456 60.6904 53.1168C60.7065 53.4016 60.7155 53.6867 60.7184 53.9719C60.7217 54.2569 60.7185 54.5421 60.7076 54.8271C60.7113 54.6846 60.7128 54.542 60.7128 54.3995C60.7122 54.2571 60.711 54.1145 60.7078 53.972C60.7021 53.6871 60.6903 53.4023 60.6716 53.1179C60.6673 53.0468 60.6611 52.9758 60.6559 52.9047C60.6494 52.8338 60.6442 52.7628 60.6364 52.692C60.6225 52.5503 60.6045 52.409 60.5817 52.2688C60.5582 52.1288 60.5253 51.9905 60.484 51.8547C60.4428 51.719 60.3931 51.5858 60.3339 51.4569C60.2166 51.1991 60.063 50.9568 59.8714 50.7487C59.7752 50.6452 59.6703 50.5498 59.5557 50.4674C59.441 50.3854 59.3181 50.3151 59.1883 50.2604C58.9285 50.1518 58.6428 50.1067 58.3628 50.1332C58.0835 50.1598 57.8179 50.2359 57.5911 50.4009C57.7139 50.7101 57.9303 50.9705 58.2024 51.1613C58.2707 51.2087 58.3423 51.2511 58.4165 51.2884C58.4908 51.3253 58.5681 51.3566 58.6472 51.382C58.8055 51.4325 58.9711 51.4595 59.1371 51.4607C59.22 51.4614 59.303 51.4555 59.3849 51.4431L59.4155 51.4384L59.4461 51.4322L59.507 51.4196C59.547 51.4087 59.5875 51.3996 59.6266 51.3858C59.6664 51.3739 59.7048 51.3583 59.7436 51.3435C59.7627 51.3357 59.7815 51.3268 59.8005 51.3184C59.81 51.3142 59.8196 51.3102 59.8289 51.3055L59.8567 51.2914C59.875 51.2818 59.894 51.2732 59.912 51.2626L59.9662 51.232C59.9841 51.2214 60.0015 51.21 60.0193 51.1991C60.0371 51.1884 60.0544 51.1766 60.0715 51.1648C60.1408 51.1185 60.2069 51.0674 60.2711 51.014C60.3356 50.9609 60.3977 50.9044 60.4587 50.8468C60.5808 50.7315 60.6972 50.6096 60.816 50.4895C60.9347 50.3692 61.0555 50.2499 61.1847 50.1392C61.249 50.0836 61.3164 50.0311 61.3855 49.9811C61.4547 49.9311 61.5277 49.8861 61.6021 49.8443C61.7518 49.7619 61.9103 49.6962 62.0739 49.6474C62.2378 49.5997 62.4065 49.5681 62.5768 49.5565C62.9172 49.5337 63.2623 49.5792 63.5835 49.6948C63.9046 49.81 64.201 49.9924 64.4496 50.2258L64.4624 50.2377L64.4558 50.2536C64.4205 50.3378 64.3813 50.4204 64.3376 50.5007C64.293 50.5804 64.2449 50.6581 64.1922 50.7328C64.1388 50.8069 64.0823 50.8787 64.0216 50.9468C63.9604 51.0144 63.8965 51.0796 63.8287 51.1407C63.5578 51.3853 63.2341 51.5699 62.8871 51.6801C62.54 51.7902 62.1698 51.8269 61.8083 51.7844C61.4469 51.7429 61.0953 51.62 60.7866 51.4284L60.7716 51.4192L60.7849 51.408C60.9372 51.2784 61.0764 51.1339 61.2181 50.9915C61.3599 50.8498 61.5048 50.7088 61.6688 50.5914C61.832 50.4733 62.0149 50.3832 62.2067 50.3232C62.3027 50.2935 62.4009 50.2704 62.5001 50.2558C62.5993 50.2413 62.6998 50.2341 62.8 50.2344Z"/>
</mask>
<path d="M62.8 50.2344C62.6996 50.2354 62.5995 50.2437 62.5006 50.2596C62.4016 50.2755 62.3041 50.2998 62.2089 50.3306C62.0188 50.3929 61.8376 50.4837 61.6769 50.6026C61.5152 50.7207 61.3724 50.8624 61.2321 51.0054C61.092 51.1488 60.9522 51.287 60.7998 51.4192C61.1075 51.6054 61.455 51.7127 61.812 51.7514C62.1688 51.7913 62.5338 51.7528 62.8749 51.6422C63.2161 51.5318 63.5333 51.3481 63.7978 51.1066C64.0623 50.8652 64.2803 50.5939 64.4153 50.2625C64.1711 50.0343 63.8805 49.8563 63.566 49.7441C63.2515 49.6315 62.9133 49.5877 62.5808 49.6106C62.4143 49.6222 62.2496 49.6536 62.0895 49.7004C61.9298 49.7484 61.7751 49.8129 61.6291 49.8936C61.5567 49.9345 61.4859 49.9784 61.4183 50.0274C61.3508 50.0765 61.2849 50.1278 61.2217 50.1828C61.0947 50.2919 60.9754 50.4104 60.8572 50.5306C60.7389 50.6506 60.6214 50.7724 60.498 50.8888C60.4362 50.947 60.3731 51.004 60.3074 51.0581C60.2418 51.1125 60.1742 51.1646 60.103 51.212C60.0853 51.224 60.0676 51.2361 60.0493 51.247C60.0311 51.2583 60.0131 51.2699 59.9947 51.2806L59.9387 51.3121C59.9202 51.3229 59.9006 51.3317 59.8816 51.3416L59.8528 51.3561C59.8432 51.3607 59.8332 51.3648 59.8235 51.3692C59.8038 51.3777 59.7845 51.3869 59.7647 51.395C59.7245 51.4103 59.6847 51.4263 59.6436 51.4385C59.6031 51.4527 59.5611 51.4621 59.5197 51.4733L59.4566 51.4862L59.425 51.4925L59.3931 51.4973C59.3082 51.51 59.2224 51.5159 59.1365 51.5151C58.965 51.5135 58.794 51.4853 58.6308 51.4328C58.5492 51.4065 58.4696 51.374 58.3929 51.3358C58.3164 51.2972 58.2426 51.2532 58.1724 51.2043C57.8923 51.007 57.6702 50.7281 57.5442 50.4091L57.5371 50.3909L57.5529 50.3795C57.7882 50.2092 58.0712 50.111 58.3586 50.0855C58.6464 50.06 58.9398 50.1082 59.205 50.2211C59.3375 50.2778 59.4629 50.3506 59.5796 50.435C59.6959 50.5198 59.8023 50.6176 59.8995 50.7233C60.093 50.9361 60.2469 51.1824 60.3641 51.4436C60.4231 51.5742 60.4725 51.709 60.5133 51.8462C60.5342 51.9147 60.5516 51.9842 60.5682 52.0538C60.5835 52.1236 60.5979 52.1939 60.6087 52.2646C60.6302 52.406 60.6469 52.5477 60.6594 52.6899C60.6665 52.7609 60.6711 52.8321 60.6769 52.9032C60.6814 52.9745 60.6869 53.0456 60.6904 53.1168C60.7065 53.4016 60.7155 53.6867 60.7184 53.9719C60.7217 54.2569 60.7185 54.5421 60.7076 54.8271C60.7113 54.6846 60.7128 54.542 60.7128 54.3995C60.7122 54.2571 60.711 54.1145 60.7078 53.972C60.7021 53.6871 60.6903 53.4023 60.6716 53.1179C60.6673 53.0468 60.6611 52.9758 60.6559 52.9047C60.6494 52.8338 60.6442 52.7628 60.6364 52.692C60.6225 52.5503 60.6045 52.409 60.5817 52.2688C60.5582 52.1288 60.5253 51.9905 60.484 51.8547C60.4428 51.719 60.3931 51.5858 60.3339 51.4569C60.2166 51.1991 60.063 50.9568 59.8714 50.7487C59.7752 50.6452 59.6703 50.5498 59.5557 50.4674C59.441 50.3854 59.3181 50.3151 59.1883 50.2604C58.9285 50.1518 58.6428 50.1067 58.3628 50.1332C58.0835 50.1598 57.8179 50.2359 57.5911 50.4009C57.7139 50.7101 57.9303 50.9705 58.2024 51.1613C58.2707 51.2087 58.3423 51.2511 58.4165 51.2884C58.4908 51.3253 58.5681 51.3566 58.6472 51.382C58.8055 51.4325 58.9711 51.4595 59.1371 51.4607C59.22 51.4614 59.303 51.4555 59.3849 51.4431L59.4155 51.4384L59.4461 51.4322L59.507 51.4196C59.547 51.4087 59.5875 51.3996 59.6266 51.3858C59.6664 51.3739 59.7048 51.3583 59.7436 51.3435C59.7627 51.3357 59.7815 51.3268 59.8005 51.3184C59.81 51.3142 59.8196 51.3102 59.8289 51.3055L59.8567 51.2914C59.875 51.2818 59.894 51.2732 59.912 51.2626L59.9662 51.232C59.9841 51.2214 60.0015 51.21 60.0193 51.1991C60.0371 51.1884 60.0544 51.1766 60.0715 51.1648C60.1408 51.1185 60.2069 51.0674 60.2711 51.014C60.3356 50.9609 60.3977 50.9044 60.4587 50.8468C60.5808 50.7315 60.6972 50.6096 60.816 50.4895C60.9347 50.3692 61.0555 50.2499 61.1847 50.1392C61.249 50.0836 61.3164 50.0311 61.3855 49.9811C61.4547 49.9311 61.5277 49.8861 61.6021 49.8443C61.7518 49.7619 61.9103 49.6962 62.0739 49.6474C62.2378 49.5997 62.4065 49.5681 62.5768 49.5565C62.9172 49.5337 63.2623 49.5792 63.5835 49.6948C63.9046 49.81 64.201 49.9924 64.4496 50.2258L64.4624 50.2377L64.4558 50.2536C64.4205 50.3378 64.3813 50.4204 64.3376 50.5007C64.293 50.5804 64.2449 50.6581 64.1922 50.7328C64.1388 50.8069 64.0823 50.8787 64.0216 50.9468C63.9604 51.0144 63.8965 51.0796 63.8287 51.1407C63.5578 51.3853 63.2341 51.5699 62.8871 51.6801C62.54 51.7902 62.1698 51.8269 61.8083 51.7844C61.4469 51.7429 61.0953 51.62 60.7866 51.4284L60.7716 51.4192L60.7849 51.408C60.9372 51.2784 61.0764 51.1339 61.2181 50.9915C61.3599 50.8498 61.5048 50.7088 61.6688 50.5914C61.832 50.4733 62.0149 50.3832 62.2067 50.3232C62.3027 50.2935 62.4009 50.2704 62.5001 50.2558C62.5993 50.2413 62.6998 50.2341 62.8 50.2344Z" fill="white"/>
<path d="M62.8 50.2344C62.6996 50.2354 62.5995 50.2437 62.5006 50.2596C62.4016 50.2755 62.3041 50.2998 62.2089 50.3306C62.0188 50.3929 61.8376 50.4837 61.6769 50.6026C61.5152 50.7207 61.3724 50.8624 61.2321 51.0054C61.092 51.1488 60.9522 51.287 60.7998 51.4192C61.1075 51.6054 61.455 51.7127 61.812 51.7514C62.1688 51.7913 62.5338 51.7528 62.8749 51.6422C63.2161 51.5318 63.5333 51.3481 63.7978 51.1066C64.0623 50.8652 64.2803 50.5939 64.4153 50.2625C64.1711 50.0343 63.8805 49.8563 63.566 49.7441C63.2515 49.6315 62.9133 49.5877 62.5808 49.6106C62.4143 49.6222 62.2496 49.6536 62.0895 49.7004C61.9298 49.7484 61.7751 49.8129 61.6291 49.8936C61.5567 49.9345 61.4859 49.9784 61.4183 50.0274C61.3508 50.0765 61.2849 50.1278 61.2217 50.1828C61.0947 50.2919 60.9754 50.4104 60.8572 50.5306C60.7389 50.6506 60.6214 50.7724 60.498 50.8888C60.4362 50.947 60.3731 51.004 60.3074 51.0581C60.2418 51.1125 60.1742 51.1646 60.103 51.212C60.0853 51.224 60.0676 51.2361 60.0493 51.247C60.0311 51.2583 60.0131 51.2699 59.9947 51.2806L59.9387 51.3121C59.9202 51.3229 59.9006 51.3317 59.8816 51.3416L59.8528 51.3561C59.8432 51.3607 59.8332 51.3648 59.8235 51.3692C59.8038 51.3777 59.7845 51.3869 59.7647 51.395C59.7245 51.4103 59.6847 51.4263 59.6436 51.4385C59.6031 51.4527 59.5611 51.4621 59.5197 51.4733L59.4566 51.4862L59.425 51.4925L59.3931 51.4973C59.3082 51.51 59.2224 51.5159 59.1365 51.5151C58.965 51.5135 58.794 51.4853 58.6308 51.4328C58.5492 51.4065 58.4696 51.374 58.3929 51.3358C58.3164 51.2972 58.2426 51.2532 58.1724 51.2043C57.8923 51.007 57.6702 50.7281 57.5442 50.4091L57.5371 50.3909L57.5529 50.3795C57.7882 50.2092 58.0712 50.111 58.3586 50.0855C58.6464 50.06 58.9398 50.1082 59.205 50.2211C59.3375 50.2778 59.4629 50.3506 59.5796 50.435C59.6959 50.5198 59.8023 50.6176 59.8995 50.7233C60.093 50.9361 60.2469 51.1824 60.3641 51.4436C60.4231 51.5742 60.4725 51.709 60.5133 51.8462C60.5342 51.9147 60.5516 51.9842 60.5682 52.0538C60.5835 52.1236 60.5979 52.1939 60.6087 52.2646C60.6302 52.406 60.6469 52.5477 60.6594 52.6899C60.6665 52.7609 60.6711 52.8321 60.6769 52.9032C60.6814 52.9745 60.6869 53.0456 60.6904 53.1168C60.7065 53.4016 60.7155 53.6867 60.7184 53.9719C60.7217 54.2569 60.7185 54.5421 60.7076 54.8271C60.7113 54.6846 60.7128 54.542 60.7128 54.3995C60.7122 54.2571 60.711 54.1145 60.7078 53.972C60.7021 53.6871 60.6903 53.4023 60.6716 53.1179C60.6673 53.0468 60.6611 52.9758 60.6559 52.9047C60.6494 52.8338 60.6442 52.7628 60.6364 52.692C60.6225 52.5503 60.6045 52.409 60.5817 52.2688C60.5582 52.1288 60.5253 51.9905 60.484 51.8547C60.4428 51.719 60.3931 51.5858 60.3339 51.4569C60.2166 51.1991 60.063 50.9568 59.8714 50.7487C59.7752 50.6452 59.6703 50.5498 59.5557 50.4674C59.441 50.3854 59.3181 50.3151 59.1883 50.2604C58.9285 50.1518 58.6428 50.1067 58.3628 50.1332C58.0835 50.1598 57.8179 50.2359 57.5911 50.4009C57.7139 50.7101 57.9303 50.9705 58.2024 51.1613C58.2707 51.2087 58.3423 51.2511 58.4165 51.2884C58.4908 51.3253 58.5681 51.3566 58.6472 51.382C58.8055 51.4325 58.9711 51.4595 59.1371 51.4607C59.22 51.4614 59.303 51.4555 59.3849 51.4431L59.4155 51.4384L59.4461 51.4322L59.507 51.4196C59.547 51.4087 59.5875 51.3996 59.6266 51.3858C59.6664 51.3739 59.7048 51.3583 59.7436 51.3435C59.7627 51.3357 59.7815 51.3268 59.8005 51.3184C59.81 51.3142 59.8196 51.3102 59.8289 51.3055L59.8567 51.2914C59.875 51.2818 59.894 51.2732 59.912 51.2626L59.9662 51.232C59.9841 51.2214 60.0015 51.21 60.0193 51.1991C60.0371 51.1884 60.0544 51.1766 60.0715 51.1648C60.1408 51.1185 60.2069 51.0674 60.2711 51.014C60.3356 50.9609 60.3977 50.9044 60.4587 50.8468C60.5808 50.7315 60.6972 50.6096 60.816 50.4895C60.9347 50.3692 61.0555 50.2499 61.1847 50.1392C61.249 50.0836 61.3164 50.0311 61.3855 49.9811C61.4547 49.9311 61.5277 49.8861 61.6021 49.8443C61.7518 49.7619 61.9103 49.6962 62.0739 49.6474C62.2378 49.5997 62.4065 49.5681 62.5768 49.5565C62.9172 49.5337 63.2623 49.5792 63.5835 49.6948C63.9046 49.81 64.201 49.9924 64.4496 50.2258L64.4624 50.2377L64.4558 50.2536C64.4205 50.3378 64.3813 50.4204 64.3376 50.5007C64.293 50.5804 64.2449 50.6581 64.1922 50.7328C64.1388 50.8069 64.0823 50.8787 64.0216 50.9468C63.9604 51.0144 63.8965 51.0796 63.8287 51.1407C63.5578 51.3853 63.2341 51.5699 62.8871 51.6801C62.54 51.7902 62.1698 51.8269 61.8083 51.7844C61.4469 51.7429 61.0953 51.62 60.7866 51.4284L60.7716 51.4192L60.7849 51.408C60.9372 51.2784 61.0764 51.1339 61.2181 50.9915C61.3599 50.8498 61.5048 50.7088 61.6688 50.5914C61.832 50.4733 62.0149 50.3832 62.2067 50.3232C62.3027 50.2935 62.4009 50.2704 62.5001 50.2558C62.5993 50.2413 62.6998 50.2341 62.8 50.2344Z" stroke="white" stroke-width="0.14876" mask="url(#path-15-outside-3_300_1260)"/>
</g>
</g>
<defs>
<filter id="filter0_d_300_1260" x="0.636364" y="0.545455" width="120.727" height="120.727" filterUnits="userSpaceOnUse" color-interpolation-filters="sRGB">
<feFlood flood-opacity="0" result="BackgroundImageFix"/>
<feColorMatrix in="SourceAlpha" type="matrix" values="0 0 0 0 0 0 0 0 0 0 0 0 0 0 0 0 0 0 127 0" result="hardAlpha"/>
<feOffset dy="2.90909"/>
<feGaussianBlur stdDeviation="10.1818"/>
<feComposite in2="hardAlpha" operator="out"/>
<feColorMatrix type="matrix" values="0 0 0 0 0.104167 0 0 0 0 0.066116 0 0 0 0 0.030816 0 0 0 0.06 0"/>
<feBlend mode="normal" in2="BackgroundImageFix" result="effect1_dropShadow_300_1260"/>
<feBlend mode="normal" in="SourceGraphic" in2="effect1_dropShadow_300_1260" result="shape"/>
</filter>
<filter id="filter1_d_300_1260" x="7.18226" y="7.09233" width="107.636" height="107.637" filterUnits="userSpaceOnUse" color-interpolation-filters="sRGB">
<feFlood flood-opacity="0" result="BackgroundImageFix"/>
<feColorMatrix in="SourceAlpha" type="matrix" values="0 0 0 0 0 0 0 0 0 0 0 0 0 0 0 0 0 0 127 0" result="hardAlpha"/>
<feOffset dy="2.90909"/>
<feGaussianBlur stdDeviation="10.1818"/>
<feComposite in2="hardAlpha" operator="out"/>
<feColorMatrix type="matrix" values="0 0 0 0 0.104167 0 0 0 0 0.066116 0 0 0 0 0.030816 0 0 0 0.06 0"/>
<feBlend mode="normal" in2="BackgroundImageFix" result="effect1_dropShadow_300_1260"/>
<feBlend mode="normal" in="SourceGraphic" in2="effect1_dropShadow_300_1260" result="shape"/>
</filter>
<filter id="filter2_d_300_1260" x="45.8652" y="54.1226" width="12.8136" height="12.8146" filterUnits="userSpaceOnUse" color-interpolation-filters="sRGB">
<feFlood flood-opacity="0" result="BackgroundImageFix"/>
<feColorMatrix in="SourceAlpha" type="matrix" values="0 0 0 0 0 0 0 0 0 0 0 0 0 0 0 0 0 0 127 0" result="hardAlpha"/>
<feOffset dy="0.34632"/>
<feGaussianBlur stdDeviation="1.38528"/>
<feComposite in2="hardAlpha" operator="out"/>
<feColorMatrix type="matrix" values="0 0 0 0 0.104167 0 0 0 0 0.066116 0 0 0 0 0.030816 0 0 0 0.12 0"/>
<feBlend mode="normal" in2="BackgroundImageFix" result="effect1_dropShadow_300_1260"/>
<feBlend mode="normal" in="SourceGraphic" in2="effect1_dropShadow_300_1260" result="shape"/>
</filter>
<filter id="filter3_d_300_1260" x="64.0478" y="54.1226" width="12.8136" height="12.8146" filterUnits="userSpaceOnUse" color-interpolation-filters="sRGB">
<feFlood flood-opacity="0" result="BackgroundImageFix"/>
<feColorMatrix in="SourceAlpha" type="matrix" values="0 0 0 0 0 0 0 0 0 0 0 0 0 0 0 0 0 0 127 0" result="hardAlpha"/>
<feOffset dy="0.34632"/>
<feGaussianBlur stdDeviation="1.38528"/>
<feComposite in2="hardAlpha" operator="out"/>
<feColorMatrix type="matrix" values="0 0 0 0 0.104167 0 0 0 0 0.066116 0 0 0 0 0.030816 0 0 0 0.12 0"/>
<feBlend mode="normal" in2="BackgroundImageFix" result="effect1_dropShadow_300_1260"/>
<feBlend mode="normal" in="SourceGraphic" in2="effect1_dropShadow_300_1260" result="shape"/>
</filter>
<filter id="filter4_d_300_1260" x="53.3111" y="44.1847" width="15.3769" height="15.3759" filterUnits="userSpaceOnUse" color-interpolation-filters="sRGB">
<feFlood flood-opacity="0" result="BackgroundImageFix"/>
<feColorMatrix in="SourceAlpha" type="matrix" values="0 0 0 0 0 0 0 0 0 0 0 0 0 0 0 0 0 0 127 0" result="hardAlpha"/>
<feOffset dy="0.415584"/>
<feGaussianBlur stdDeviation="1.66234"/>
<feComposite in2="hardAlpha" operator="out"/>
<feColorMatrix type="matrix" values="0 0 0 0 0.104167 0 0 0 0 0.066116 0 0 0 0 0.030816 0 0 0 0.12 0"/>
<feBlend mode="normal" in2="BackgroundImageFix" result="effect1_dropShadow_300_1260"/>
<feBlend mode="normal" in="SourceGraphic" in2="effect1_dropShadow_300_1260" result="shape"/>
</filter>
<linearGradient id="paint0_linear_300_1260" x1="48.6357" y1="57.9105" x2="56.154" y2="58.4421" gradientUnits="userSpaceOnUse">
<stop stop-color="#30C917"/>
<stop offset="1" stop-color="#279A13"/>
</linearGradient>
<linearGradient id="paint1_linear_300_1260" x1="66.8184" y1="57.9105" x2="74.3366" y2="58.4421" gradientUnits="userSpaceOnUse">
<stop stop-color="#30C917"/>
<stop offset="1" stop-color="#279A13"/>
</linearGradient>
<linearGradient id="paint2_linear_300_1260" x1="56.6357" y1="48.7301" x2="65.6576" y2="49.368" gradientUnits="userSpaceOnUse">
<stop stop-color="#30C917"/>
<stop offset="1" stop-color="#279A13"/>
</linearGradient>
<clipPath id="clip0_300_1260">
<rect width="43.6364" height="43.6364" fill="white" transform="translate(39.1816 36.1836)"/>
</clipPath>
</defs>
</svg>
