<svg width="122" height="122" viewBox="0 0 122 122" fill="none" xmlns="http://www.w3.org/2000/svg">
<g filter="url(#filter0_d_300_1290)">
<circle cx="61" cy="58" r="40" fill="white" fill-opacity="0.64" shape-rendering="crispEdges"/>
</g>
<g filter="url(#filter1_d_300_1290)">
<circle cx="61.0004" cy="58.0014" r="33.4545" fill="white"/>
</g>
<g clip-path="url(#clip0_300_1290)">
<path d="M75.2305 48.9814L74.5774 42.4819C74.5547 42.2558 74.3353 42.1032 74.1152 42.1605L67.7832 43.8081C67.4767 43.8878 67.405 44.2899 67.665 44.4705L69.6075 45.7706C69.6075 45.7706 68.67 54.6768 49.5791 56.9058V57.3189C53.7846 57.3419 66.2921 57.5411 73.1871 48.2848L74.6501 49.3224C74.9099 49.5029 75.2621 49.296 75.2305 48.9814Z" fill="url(#paint0_linear_300_1290)"/>
<path d="M50.0914 75.0469H41.2277C40.8512 75.0469 40.5459 75.3521 40.5459 75.7287V78.456C40.5459 78.8325 40.8512 79.1378 41.2277 79.1378H50.0914C50.4679 79.1378 50.7732 78.8325 50.7732 78.456V75.7287C50.7732 75.3521 50.4679 75.0469 50.0914 75.0469Z" fill="#FAE15A"/>
<path d="M50.4319 76.4102H42.2501C42.0618 76.4102 41.9092 76.5628 41.9092 76.7511V78.7965C41.9092 78.9848 42.0618 79.1374 42.2501 79.1374H50.4319C50.6202 79.1374 50.7728 78.9848 50.7728 78.7965V76.7511C50.7728 76.5628 50.6202 76.4102 50.4319 76.4102Z" fill="#F5C115"/>
<path d="M43.2725 77.0938H44.2952V79.1392H43.2725V77.0938Z" fill="#EFA400"/>
<path d="M47.0225 77.0938H48.0452V79.1392H47.0225V77.0938Z" fill="#EFA400"/>
<path d="M50.0914 70.957H41.2277C40.8512 70.957 40.5459 71.2623 40.5459 71.6388V74.3661C40.5459 74.7427 40.8512 75.0479 41.2277 75.0479H50.0914C50.4679 75.0479 50.7732 74.7427 50.7732 74.3661V71.6388C50.7732 71.2623 50.4679 70.957 50.0914 70.957Z" fill="#FAE15A"/>
<path d="M50.4319 72.3203H42.2501C42.0618 72.3203 41.9092 72.4729 41.9092 72.6612V74.7067C41.9092 74.895 42.0618 75.0476 42.2501 75.0476H50.4319C50.6202 75.0476 50.7728 74.895 50.7728 74.7067V72.6612C50.7728 72.4729 50.6202 72.3203 50.4319 72.3203Z" fill="#F5C115"/>
<path d="M43.2725 73H44.2952V75.0455H43.2725V73Z" fill="#EFA400"/>
<path d="M47.0225 73H48.0452V75.0455H47.0225V73Z" fill="#EFA400"/>
<path d="M60.3179 75.0469H51.4543C51.0777 75.0469 50.7725 75.3521 50.7725 75.7287V78.456C50.7725 78.8325 51.0777 79.1378 51.4543 79.1378H60.3179C60.6945 79.1378 60.9997 78.8325 60.9997 78.456V75.7287C60.9997 75.3521 60.6945 75.0469 60.3179 75.0469Z" fill="#FAE15A"/>
<path d="M60.6594 76.4102H52.4776C52.2893 76.4102 52.1367 76.5628 52.1367 76.7511V78.7965C52.1367 78.9848 52.2893 79.1374 52.4776 79.1374H60.6594C60.8477 79.1374 61.0004 78.9848 61.0004 78.7965V76.7511C61.0004 76.5628 60.8477 76.4102 60.6594 76.4102Z" fill="#F5C115"/>
<path d="M53.5 77.0938H54.5227V79.1392H53.5V77.0938Z" fill="#EFA400"/>
<path d="M57.25 77.0938H58.2727V79.1392H57.25V77.0938Z" fill="#EFA400"/>
<path d="M60.3179 70.957H51.4543C51.0777 70.957 50.7725 71.2623 50.7725 71.6388V74.3661C50.7725 74.7427 51.0777 75.0479 51.4543 75.0479H60.3179C60.6945 75.0479 60.9997 74.7427 60.9997 74.3661V71.6388C60.9997 71.2623 60.6945 70.957 60.3179 70.957Z" fill="#FAE15A"/>
<path d="M60.6594 72.3203H52.4776C52.2893 72.3203 52.1367 72.4729 52.1367 72.6612V74.7067C52.1367 74.895 52.2893 75.0476 52.4776 75.0476H60.6594C60.8477 75.0476 61.0004 74.895 61.0004 74.7067V72.6612C61.0004 72.4729 60.8477 72.3203 60.6594 72.3203Z" fill="#F5C115"/>
<path d="M53.5 73H54.5227V75.0455H53.5V73Z" fill="#EFA400"/>
<path d="M57.25 73H58.2727V75.0455H57.25V73Z" fill="#EFA400"/>
<path d="M60.3179 66.8672H51.4543C51.0777 66.8672 50.7725 67.1724 50.7725 67.549V70.2763C50.7725 70.6528 51.0777 70.9581 51.4543 70.9581H60.3179C60.6945 70.9581 60.9997 70.6528 60.9997 70.2763V67.549C60.9997 67.1724 60.6945 66.8672 60.3179 66.8672Z" fill="#FAE15A"/>
<path d="M60.6594 68.2305H52.4776C52.2893 68.2305 52.1367 68.3831 52.1367 68.5714V70.6168C52.1367 70.8051 52.2893 70.9577 52.4776 70.9577H60.6594C60.8477 70.9577 61.0004 70.8051 61.0004 70.6168V68.5714C61.0004 68.3831 60.8477 68.2305 60.6594 68.2305Z" fill="#F5C115"/>
<path d="M53.5 68.9102H54.5227V70.9556H53.5V68.9102Z" fill="#EFA400"/>
<path d="M57.25 68.9102H58.2727V70.9556H57.25V68.9102Z" fill="#EFA400"/>
<path d="M70.5455 75.0469H61.6818C61.3053 75.0469 61 75.3521 61 75.7287V78.456C61 78.8325 61.3053 79.1378 61.6818 79.1378H70.5455C70.922 79.1378 71.2273 78.8325 71.2273 78.456V75.7287C71.2273 75.3521 70.922 75.0469 70.5455 75.0469Z" fill="#FAE15A"/>
<path d="M70.886 76.4102H62.7042C62.5159 76.4102 62.3633 76.5628 62.3633 76.7511V78.7965C62.3633 78.9848 62.5159 79.1374 62.7042 79.1374H70.886C71.0743 79.1374 71.2269 78.9848 71.2269 78.7965V76.7511C71.2269 76.5628 71.0743 76.4102 70.886 76.4102Z" fill="#F5C115"/>
<path d="M63.7275 77.0938H64.7503V79.1392H63.7275V77.0938Z" fill="#EFA400"/>
<path d="M67.4775 77.0938H68.5003V79.1392H67.4775V77.0938Z" fill="#EFA400"/>
<path d="M70.5455 70.957H61.6818C61.3053 70.957 61 71.2623 61 71.6388V74.3661C61 74.7427 61.3053 75.0479 61.6818 75.0479H70.5455C70.922 75.0479 71.2273 74.7427 71.2273 74.3661V71.6388C71.2273 71.2623 70.922 70.957 70.5455 70.957Z" fill="#FAE15A"/>
<path d="M70.886 72.3203H62.7042C62.5159 72.3203 62.3633 72.4729 62.3633 72.6612V74.7067C62.3633 74.895 62.5159 75.0476 62.7042 75.0476H70.886C71.0743 75.0476 71.2269 74.895 71.2269 74.7067V72.6612C71.2269 72.4729 71.0743 72.3203 70.886 72.3203Z" fill="#F5C115"/>
<path d="M63.7275 73H64.7503V75.0455H63.7275V73Z" fill="#EFA400"/>
<path d="M67.4775 73H68.5003V75.0455H67.4775V73Z" fill="#EFA400"/>
<path d="M70.5455 66.8672H61.6818C61.3053 66.8672 61 67.1724 61 67.549V70.2763C61 70.6528 61.3053 70.9581 61.6818 70.9581H70.5455C70.922 70.9581 71.2273 70.6528 71.2273 70.2763V67.549C71.2273 67.1724 70.922 66.8672 70.5455 66.8672Z" fill="#FAE15A"/>
<path d="M70.886 68.2305H62.7042C62.5159 68.2305 62.3633 68.3831 62.3633 68.5714V70.6168C62.3633 70.8051 62.5159 70.9577 62.7042 70.9577H70.886C71.0743 70.9577 71.2269 70.8051 71.2269 70.6168V68.5714C71.2269 68.3831 71.0743 68.2305 70.886 68.2305Z" fill="#F5C115"/>
<path d="M63.7275 68.9102H64.7503V70.9556H63.7275V68.9102Z" fill="#EFA400"/>
<path d="M67.4775 68.9102H68.5003V70.9556H67.4775V68.9102Z" fill="#EFA400"/>
<path d="M70.5455 62.7734H61.6818C61.3053 62.7734 61 63.0787 61 63.4553V66.1825C61 66.5591 61.3053 66.8643 61.6818 66.8643H70.5455C70.922 66.8643 71.2273 66.5591 71.2273 66.1825V63.4553C71.2273 63.0787 70.922 62.7734 70.5455 62.7734Z" fill="#FAE15A"/>
<path d="M70.886 64.1367H62.7042C62.5159 64.1367 62.3633 64.2893 62.3633 64.4776V66.5231C62.3633 66.7114 62.5159 66.864 62.7042 66.864H70.886C71.0743 66.864 71.2269 66.7114 71.2269 66.5231V64.4776C71.2269 64.2893 71.0743 64.1367 70.886 64.1367Z" fill="#F5C115"/>
<path d="M63.7275 64.8203H64.7503V66.8658H63.7275V64.8203Z" fill="#EFA400"/>
<path d="M67.4775 64.8203H68.5003V66.8658H67.4775V64.8203Z" fill="#EFA400"/>
<path d="M80.773 75.0469H71.9094C71.5328 75.0469 71.2275 75.3521 71.2275 75.7287V78.456C71.2275 78.8325 71.5328 79.1378 71.9094 79.1378H80.773C81.1496 79.1378 81.4548 78.8325 81.4548 78.456V75.7287C81.4548 75.3521 81.1496 75.0469 80.773 75.0469Z" fill="#FAE15A"/>
<path d="M81.1135 76.4102H72.9317C72.7435 76.4102 72.5908 76.5628 72.5908 76.7511V78.7965C72.5908 78.9848 72.7435 79.1374 72.9317 79.1374H81.1135C81.3018 79.1374 81.4545 78.9848 81.4545 78.7965V76.7511C81.4545 76.5628 81.3018 76.4102 81.1135 76.4102Z" fill="#F5C115"/>
<path d="M73.9541 77.0938H74.9768V79.1392H73.9541V77.0938Z" fill="#EFA400"/>
<path d="M77.7041 77.0938H78.7268V79.1392H77.7041V77.0938Z" fill="#EFA400"/>
<path d="M80.773 70.957H71.9094C71.5328 70.957 71.2275 71.2623 71.2275 71.6388V74.3661C71.2275 74.7427 71.5328 75.0479 71.9094 75.0479H80.773C81.1496 75.0479 81.4548 74.7427 81.4548 74.3661V71.6388C81.4548 71.2623 81.1496 70.957 80.773 70.957Z" fill="#FAE15A"/>
<path d="M81.1135 72.3203H72.9317C72.7435 72.3203 72.5908 72.4729 72.5908 72.6612V74.7067C72.5908 74.895 72.7435 75.0476 72.9317 75.0476H81.1135C81.3018 75.0476 81.4545 74.895 81.4545 74.7067V72.6612C81.4545 72.4729 81.3018 72.3203 81.1135 72.3203Z" fill="#F5C115"/>
<path d="M73.9541 73H74.9768V75.0455H73.9541V73Z" fill="#EFA400"/>
<path d="M77.7041 73H78.7268V75.0455H77.7041V73Z" fill="#EFA400"/>
<path d="M80.773 66.8672H71.9094C71.5328 66.8672 71.2275 67.1724 71.2275 67.549V70.2763C71.2275 70.6528 71.5328 70.9581 71.9094 70.9581H80.773C81.1496 70.9581 81.4548 70.6528 81.4548 70.2763V67.549C81.4548 67.1724 81.1496 66.8672 80.773 66.8672Z" fill="#FAE15A"/>
<path d="M81.1135 68.2305H72.9317C72.7435 68.2305 72.5908 68.3831 72.5908 68.5714V70.6168C72.5908 70.8051 72.7435 70.9577 72.9317 70.9577H81.1135C81.3018 70.9577 81.4545 70.8051 81.4545 70.6168V68.5714C81.4545 68.3831 81.3018 68.2305 81.1135 68.2305Z" fill="#F5C115"/>
<path d="M73.9541 68.9102H74.9768V70.9556H73.9541V68.9102Z" fill="#EFA400"/>
<path d="M77.7041 68.9102H78.7268V70.9556H77.7041V68.9102Z" fill="#EFA400"/>
<path d="M80.773 62.7734H71.9094C71.5328 62.7734 71.2275 63.0787 71.2275 63.4553V66.1825C71.2275 66.5591 71.5328 66.8643 71.9094 66.8643H80.773C81.1496 66.8643 81.4548 66.5591 81.4548 66.1825V63.4553C81.4548 63.0787 81.1496 62.7734 80.773 62.7734Z" fill="#FAE15A"/>
<path d="M81.1135 64.1367H72.9317C72.7435 64.1367 72.5908 64.2893 72.5908 64.4776V66.5231C72.5908 66.7114 72.7435 66.864 72.9317 66.864H81.1135C81.3018 66.864 81.4545 66.7114 81.4545 66.5231V64.4776C81.4545 64.2893 81.3018 64.1367 81.1135 64.1367Z" fill="#F5C115"/>
<path d="M73.9541 64.8203H74.9768V66.8658H73.9541V64.8203Z" fill="#EFA400"/>
<path d="M77.7041 64.8203H78.7268V66.8658H77.7041V64.8203Z" fill="#EFA400"/>
<path d="M80.773 58.6836H71.9094C71.5328 58.6836 71.2275 58.9889 71.2275 59.3654V62.0927C71.2275 62.4692 71.5328 62.7745 71.9094 62.7745H80.773C81.1496 62.7745 81.4548 62.4692 81.4548 62.0927V59.3654C81.4548 58.9889 81.1496 58.6836 80.773 58.6836Z" fill="#FAE15A"/>
<path d="M81.1135 60.0469H72.9317C72.7435 60.0469 72.5908 60.1995 72.5908 60.3878V62.4332C72.5908 62.6215 72.7435 62.7741 72.9317 62.7741H81.1135C81.3018 62.7741 81.4545 62.6215 81.4545 62.4332V60.3878C81.4545 60.1995 81.3018 60.0469 81.1135 60.0469Z" fill="#F5C115"/>
<path d="M73.9541 60.7305H74.9768V62.7759H73.9541V60.7305Z" fill="#EFA400"/>
<path d="M77.7041 60.7305H78.7268V62.7759H77.7041V60.7305Z" fill="#EFA400"/>
<path d="M80.773 54.5938H71.9094C71.5328 54.5938 71.2275 54.899 71.2275 55.2756V58.0028C71.2275 58.3794 71.5328 58.6847 71.9094 58.6847H80.773C81.1496 58.6847 81.4548 58.3794 81.4548 58.0028V55.2756C81.4548 54.899 81.1496 54.5938 80.773 54.5938Z" fill="#FAE15A"/>
<path d="M81.1135 55.957H72.9317C72.7435 55.957 72.5908 56.1097 72.5908 56.2979V58.3434C72.5908 58.5317 72.7435 58.6843 72.9317 58.6843H81.1135C81.3018 58.6843 81.4545 58.5317 81.4545 58.3434V56.2979C81.4545 56.1097 81.3018 55.957 81.1135 55.957Z" fill="#F5C115"/>
<path d="M73.9541 56.6367H74.9768V58.6822H73.9541V56.6367Z" fill="#EFA400"/>
<path d="M77.7041 56.6367H78.7268V58.6822H77.7041V56.6367Z" fill="#EFA400"/>
<g filter="url(#filter2_d_300_1290)">
<circle cx="48.6365" cy="55.821" r="8.72727" fill="url(#paint1_linear_300_1290)"/>
<mask id="path-65-outside-1_300_1290" maskUnits="userSpaceOnUse" x="40.7109" y="51.0039" width="16" height="12" fill="black">
<rect fill="white" x="40.7109" y="51.0039" width="16" height="12"/>
<path d="M52.2367 53.3712C52.036 53.3731 51.8358 53.3898 51.6378 53.4216C51.4398 53.4534 51.2449 53.5019 51.0546 53.5635C50.6742 53.6882 50.312 53.8698 49.9905 54.1076C49.6671 54.3438 49.3815 54.6271 49.1009 54.9131C48.8207 55.2 48.5412 55.4764 48.2364 55.7408C48.8517 56.1131 49.5466 56.3277 50.2608 56.4052C50.9744 56.4849 51.7044 56.4079 52.3865 56.1868C53.0688 55.966 53.7033 55.5986 54.2323 55.1156C54.7613 54.6328 55.1972 54.0901 55.4672 53.4273C54.979 52.9709 54.3977 52.615 53.7687 52.3906C53.1397 52.1654 52.4634 52.0777 51.7983 52.1235C51.4653 52.1468 51.1359 52.2095 50.8158 52.3032C50.4963 52.3991 50.1868 52.5281 49.8949 52.6895C49.7501 52.7714 49.6085 52.8591 49.4733 52.9572C49.3383 53.0553 49.2066 53.158 49.08 53.2679C48.8262 53.4862 48.5874 53.7232 48.3511 53.9635C48.1145 54.2035 47.8796 54.4471 47.6326 54.68C47.5091 54.7964 47.3829 54.9104 47.2515 55.0186C47.1203 55.1274 46.985 55.2315 46.8426 55.3263C46.8073 55.3504 46.772 55.3745 46.7353 55.3964C46.6989 55.4189 46.663 55.4422 46.6261 55.4635L46.5141 55.5265C46.4771 55.5482 46.4379 55.5657 46.3999 55.5854L46.3424 55.6145C46.3232 55.6238 46.3032 55.632 46.2838 55.6408C46.2443 55.6578 46.2057 55.6761 46.166 55.6923C46.0858 55.723 46.0061 55.755 45.924 55.7794C45.8429 55.8076 45.7589 55.8265 45.6762 55.849L45.5499 55.8748L45.4867 55.8874L45.4229 55.897C45.2531 55.9224 45.0814 55.9342 44.9097 55.9326C44.5666 55.9293 44.2246 55.8728 43.8982 55.7679C43.735 55.7153 43.5759 55.6504 43.4226 55.5739C43.2695 55.4967 43.1219 55.4087 42.9815 55.3109C42.4212 54.9164 41.9771 54.3586 41.7252 53.7205L41.7109 53.6841L41.7424 53.6613C42.2131 53.3208 42.7791 53.1243 43.3539 53.0734C43.9294 53.0224 44.5162 53.1188 45.0466 53.3446C45.3117 53.458 45.5625 53.6035 45.7958 53.7723C46.0286 53.9419 46.2413 54.1375 46.4357 54.349C46.8227 54.7745 47.1304 55.2671 47.3648 55.7896C47.4828 56.0507 47.5817 56.3203 47.6633 56.5948C47.7052 56.7318 47.74 56.8707 47.7731 57.0099C47.8038 57.1496 47.8325 57.2901 47.8541 57.4315C47.8971 57.7142 47.9305 57.9978 47.9555 58.2822C47.9697 58.4241 47.979 58.5666 47.9905 58.7088C47.9995 58.8512 48.0105 58.9934 48.0176 59.1359C48.0497 59.7055 48.0677 60.2757 48.0735 60.8461C48.08 61.4162 48.0738 61.9866 48.0518 62.5565C48.0592 62.2716 48.0622 61.9864 48.0622 61.7014C48.0612 61.4165 48.0587 61.1313 48.0524 60.8463C48.0409 60.2765 48.0173 59.7069 47.9798 59.1381C47.9713 58.9959 47.959 58.854 47.9486 58.7118C47.9355 58.5699 47.9251 58.428 47.9095 58.2863C47.8818 58.003 47.8457 57.7203 47.8002 57.44C47.7531 57.16 47.6874 56.8833 47.6047 56.6118C47.5223 56.3403 47.4229 56.0739 47.3046 55.8161C47.0699 55.3005 46.7627 54.8158 46.3796 54.3997C46.1871 54.1928 45.9774 54.0019 45.7482 53.8372C45.5187 53.6731 45.2728 53.5325 45.0132 53.4232C44.4938 53.206 43.9223 53.1158 43.3624 53.1687C42.8038 53.2219 42.2725 53.374 41.8188 53.7042C42.0644 54.3226 42.4974 54.8432 43.0414 55.2249C43.1781 55.3197 43.3213 55.4046 43.4697 55.4791C43.6184 55.5528 43.7728 55.6156 43.9311 55.6663C44.2476 55.7674 44.579 55.8213 44.9108 55.8238C45.0768 55.8252 45.2427 55.8134 45.4064 55.7885L45.4678 55.7791L45.5288 55.7668L45.6507 55.7416C45.7307 55.7197 45.8117 55.7016 45.89 55.6739C45.9694 55.6501 46.0464 55.6189 46.1239 55.5893C46.1622 55.5737 46.1997 55.5559 46.2378 55.5391C46.2567 55.5307 46.2758 55.5227 46.2945 55.5134L46.35 55.4852C46.3867 55.466 46.4248 55.4487 46.4607 55.4276L46.5691 55.3663C46.605 55.3452 46.6397 55.3224 46.6753 55.3005C46.7109 55.2791 46.7454 55.2556 46.7797 55.232C46.9182 55.1394 47.0505 55.0372 47.1789 54.9304C47.3079 54.8241 47.4322 54.7112 47.554 54.5958C47.7983 54.3654 48.031 54.1216 48.2687 53.8813C48.5061 53.6408 48.7476 53.4021 49.0061 53.1808C49.1348 53.0695 49.2695 52.9646 49.4078 52.8646C49.5461 52.7646 49.692 52.6744 49.841 52.5909C50.1403 52.4262 50.4574 52.2947 50.7846 52.1972C51.1124 52.1018 51.4497 52.0385 51.7903 52.0153C52.4711 51.9698 53.1614 52.0607 53.8038 52.292C54.4459 52.5224 55.0387 52.8871 55.536 53.3539L55.5614 53.3777L55.5483 53.4095C55.4776 53.578 55.3993 53.7432 55.312 53.9038C55.2227 54.0632 55.1266 54.2186 55.0212 54.3679C54.9144 54.5161 54.8013 54.6597 54.68 54.7958C54.5576 54.9312 54.4297 55.0616 54.2942 55.1838C53.7523 55.6728 53.105 56.0422 52.4108 56.2624C51.7167 56.4827 50.9763 56.5561 50.2534 56.4712C49.5305 56.3882 48.8273 56.1424 48.2098 55.7591L48.18 55.7408L48.2066 55.7183C48.511 55.4591 48.7895 55.1701 49.0729 54.8854C49.3566 54.6019 49.6463 54.32 49.9744 54.0852C50.3007 53.849 50.6666 53.6687 51.0502 53.5487C51.2422 53.4893 51.4385 53.4432 51.637 53.4139C51.8352 53.3849 52.0362 53.3706 52.2367 53.3712Z"/>
</mask>
<path d="M52.2367 53.3712C52.036 53.3731 51.8358 53.3898 51.6378 53.4216C51.4398 53.4534 51.2449 53.5019 51.0546 53.5635C50.6742 53.6882 50.312 53.8698 49.9905 54.1076C49.6671 54.3438 49.3815 54.6271 49.1009 54.9131C48.8207 55.2 48.5412 55.4764 48.2364 55.7408C48.8517 56.1131 49.5466 56.3277 50.2608 56.4052C50.9744 56.4849 51.7044 56.4079 52.3865 56.1868C53.0688 55.966 53.7033 55.5986 54.2323 55.1156C54.7613 54.6328 55.1972 54.0901 55.4672 53.4273C54.979 52.9709 54.3977 52.615 53.7687 52.3906C53.1397 52.1654 52.4634 52.0777 51.7983 52.1235C51.4653 52.1468 51.1359 52.2095 50.8158 52.3032C50.4963 52.3991 50.1868 52.5281 49.8949 52.6895C49.7501 52.7714 49.6085 52.8591 49.4733 52.9572C49.3383 53.0553 49.2066 53.158 49.08 53.2679C48.8262 53.4862 48.5874 53.7232 48.3511 53.9635C48.1145 54.2035 47.8796 54.4471 47.6326 54.68C47.5091 54.7964 47.3829 54.9104 47.2515 55.0186C47.1203 55.1274 46.985 55.2315 46.8426 55.3263C46.8073 55.3504 46.772 55.3745 46.7353 55.3964C46.6989 55.4189 46.663 55.4422 46.6261 55.4635L46.5141 55.5265C46.4771 55.5482 46.4379 55.5657 46.3999 55.5854L46.3424 55.6145C46.3232 55.6238 46.3032 55.632 46.2838 55.6408C46.2443 55.6578 46.2057 55.6761 46.166 55.6923C46.0858 55.723 46.0061 55.755 45.924 55.7794C45.8429 55.8076 45.7589 55.8265 45.6762 55.849L45.5499 55.8748L45.4867 55.8874L45.4229 55.897C45.2531 55.9224 45.0814 55.9342 44.9097 55.9326C44.5666 55.9293 44.2246 55.8728 43.8982 55.7679C43.735 55.7153 43.5759 55.6504 43.4226 55.5739C43.2695 55.4967 43.1219 55.4087 42.9815 55.3109C42.4212 54.9164 41.9771 54.3586 41.7252 53.7205L41.7109 53.6841L41.7424 53.6613C42.2131 53.3208 42.7791 53.1243 43.3539 53.0734C43.9294 53.0224 44.5162 53.1188 45.0466 53.3446C45.3117 53.458 45.5625 53.6035 45.7958 53.7723C46.0286 53.9419 46.2413 54.1375 46.4357 54.349C46.8227 54.7745 47.1304 55.2671 47.3648 55.7896C47.4828 56.0507 47.5817 56.3203 47.6633 56.5948C47.7052 56.7318 47.74 56.8707 47.7731 57.0099C47.8038 57.1496 47.8325 57.2901 47.8541 57.4315C47.8971 57.7142 47.9305 57.9978 47.9555 58.2822C47.9697 58.4241 47.979 58.5666 47.9905 58.7088C47.9995 58.8512 48.0105 58.9934 48.0176 59.1359C48.0497 59.7055 48.0677 60.2757 48.0735 60.8461C48.08 61.4162 48.0738 61.9866 48.0518 62.5565C48.0592 62.2716 48.0622 61.9864 48.0622 61.7014C48.0612 61.4165 48.0587 61.1313 48.0524 60.8463C48.0409 60.2765 48.0173 59.7069 47.9798 59.1381C47.9713 58.9959 47.959 58.854 47.9486 58.7118C47.9355 58.5699 47.9251 58.428 47.9095 58.2863C47.8818 58.003 47.8457 57.7203 47.8002 57.44C47.7531 57.16 47.6874 56.8833 47.6047 56.6118C47.5223 56.3403 47.4229 56.0739 47.3046 55.8161C47.0699 55.3005 46.7627 54.8158 46.3796 54.3997C46.1871 54.1928 45.9774 54.0019 45.7482 53.8372C45.5187 53.6731 45.2728 53.5325 45.0132 53.4232C44.4938 53.206 43.9223 53.1158 43.3624 53.1687C42.8038 53.2219 42.2725 53.374 41.8188 53.7042C42.0644 54.3226 42.4974 54.8432 43.0414 55.2249C43.1781 55.3197 43.3213 55.4046 43.4697 55.4791C43.6184 55.5528 43.7728 55.6156 43.9311 55.6663C44.2476 55.7674 44.579 55.8213 44.9108 55.8238C45.0768 55.8252 45.2427 55.8134 45.4064 55.7885L45.4678 55.7791L45.5288 55.7668L45.6507 55.7416C45.7307 55.7197 45.8117 55.7016 45.89 55.6739C45.9694 55.6501 46.0464 55.6189 46.1239 55.5893C46.1622 55.5737 46.1997 55.5559 46.2378 55.5391C46.2567 55.5307 46.2758 55.5227 46.2945 55.5134L46.35 55.4852C46.3867 55.466 46.4248 55.4487 46.4607 55.4276L46.5691 55.3663C46.605 55.3452 46.6397 55.3224 46.6753 55.3005C46.7109 55.2791 46.7454 55.2556 46.7797 55.232C46.9182 55.1394 47.0505 55.0372 47.1789 54.9304C47.3079 54.8241 47.4322 54.7112 47.554 54.5958C47.7983 54.3654 48.031 54.1216 48.2687 53.8813C48.5061 53.6408 48.7476 53.4021 49.0061 53.1808C49.1348 53.0695 49.2695 52.9646 49.4078 52.8646C49.5461 52.7646 49.692 52.6744 49.841 52.5909C50.1403 52.4262 50.4574 52.2947 50.7846 52.1972C51.1124 52.1018 51.4497 52.0385 51.7903 52.0153C52.4711 51.9698 53.1614 52.0607 53.8038 52.292C54.4459 52.5224 55.0387 52.8871 55.536 53.3539L55.5614 53.3777L55.5483 53.4095C55.4776 53.578 55.3993 53.7432 55.312 53.9038C55.2227 54.0632 55.1266 54.2186 55.0212 54.3679C54.9144 54.5161 54.8013 54.6597 54.68 54.7958C54.5576 54.9312 54.4297 55.0616 54.2942 55.1838C53.7523 55.6728 53.105 56.0422 52.4108 56.2624C51.7167 56.4827 50.9763 56.5561 50.2534 56.4712C49.5305 56.3882 48.8273 56.1424 48.2098 55.7591L48.18 55.7408L48.2066 55.7183C48.511 55.4591 48.7895 55.1701 49.0729 54.8854C49.3566 54.6019 49.6463 54.32 49.9744 54.0852C50.3007 53.849 50.6666 53.6687 51.0502 53.5487C51.2422 53.4893 51.4385 53.4432 51.637 53.4139C51.8352 53.3849 52.0362 53.3706 52.2367 53.3712Z" fill="white"/>
<path d="M52.2367 53.3712C52.036 53.3731 51.8358 53.3898 51.6378 53.4216C51.4398 53.4534 51.2449 53.5019 51.0546 53.5635C50.6742 53.6882 50.312 53.8698 49.9905 54.1076C49.6671 54.3438 49.3815 54.6271 49.1009 54.9131C48.8207 55.2 48.5412 55.4764 48.2364 55.7408C48.8517 56.1131 49.5466 56.3277 50.2608 56.4052C50.9744 56.4849 51.7044 56.4079 52.3865 56.1868C53.0688 55.966 53.7033 55.5986 54.2323 55.1156C54.7613 54.6328 55.1972 54.0901 55.4672 53.4273C54.979 52.9709 54.3977 52.615 53.7687 52.3906C53.1397 52.1654 52.4634 52.0777 51.7983 52.1235C51.4653 52.1468 51.1359 52.2095 50.8158 52.3032C50.4963 52.3991 50.1868 52.5281 49.8949 52.6895C49.7501 52.7714 49.6085 52.8591 49.4733 52.9572C49.3383 53.0553 49.2066 53.158 49.08 53.2679C48.8262 53.4862 48.5874 53.7232 48.3511 53.9635C48.1145 54.2035 47.8796 54.4471 47.6326 54.68C47.5091 54.7964 47.3829 54.9104 47.2515 55.0186C47.1203 55.1274 46.985 55.2315 46.8426 55.3263C46.8073 55.3504 46.772 55.3745 46.7353 55.3964C46.6989 55.4189 46.663 55.4422 46.6261 55.4635L46.5141 55.5265C46.4771 55.5482 46.4379 55.5657 46.3999 55.5854L46.3424 55.6145C46.3232 55.6238 46.3032 55.632 46.2838 55.6408C46.2443 55.6578 46.2057 55.6761 46.166 55.6923C46.0858 55.723 46.0061 55.755 45.924 55.7794C45.8429 55.8076 45.7589 55.8265 45.6762 55.849L45.5499 55.8748L45.4867 55.8874L45.4229 55.897C45.2531 55.9224 45.0814 55.9342 44.9097 55.9326C44.5666 55.9293 44.2246 55.8728 43.8982 55.7679C43.735 55.7153 43.5759 55.6504 43.4226 55.5739C43.2695 55.4967 43.1219 55.4087 42.9815 55.3109C42.4212 54.9164 41.9771 54.3586 41.7252 53.7205L41.7109 53.6841L41.7424 53.6613C42.2131 53.3208 42.7791 53.1243 43.3539 53.0734C43.9294 53.0224 44.5162 53.1188 45.0466 53.3446C45.3117 53.458 45.5625 53.6035 45.7958 53.7723C46.0286 53.9419 46.2413 54.1375 46.4357 54.349C46.8227 54.7745 47.1304 55.2671 47.3648 55.7896C47.4828 56.0507 47.5817 56.3203 47.6633 56.5948C47.7052 56.7318 47.74 56.8707 47.7731 57.0099C47.8038 57.1496 47.8325 57.2901 47.8541 57.4315C47.8971 57.7142 47.9305 57.9978 47.9555 58.2822C47.9697 58.4241 47.979 58.5666 47.9905 58.7088C47.9995 58.8512 48.0105 58.9934 48.0176 59.1359C48.0497 59.7055 48.0677 60.2757 48.0735 60.8461C48.08 61.4162 48.0738 61.9866 48.0518 62.5565C48.0592 62.2716 48.0622 61.9864 48.0622 61.7014C48.0612 61.4165 48.0587 61.1313 48.0524 60.8463C48.0409 60.2765 48.0173 59.7069 47.9798 59.1381C47.9713 58.9959 47.959 58.854 47.9486 58.7118C47.9355 58.5699 47.9251 58.428 47.9095 58.2863C47.8818 58.003 47.8457 57.7203 47.8002 57.44C47.7531 57.16 47.6874 56.8833 47.6047 56.6118C47.5223 56.3403 47.4229 56.0739 47.3046 55.8161C47.0699 55.3005 46.7627 54.8158 46.3796 54.3997C46.1871 54.1928 45.9774 54.0019 45.7482 53.8372C45.5187 53.6731 45.2728 53.5325 45.0132 53.4232C44.4938 53.206 43.9223 53.1158 43.3624 53.1687C42.8038 53.2219 42.2725 53.374 41.8188 53.7042C42.0644 54.3226 42.4974 54.8432 43.0414 55.2249C43.1781 55.3197 43.3213 55.4046 43.4697 55.4791C43.6184 55.5528 43.7728 55.6156 43.9311 55.6663C44.2476 55.7674 44.579 55.8213 44.9108 55.8238C45.0768 55.8252 45.2427 55.8134 45.4064 55.7885L45.4678 55.7791L45.5288 55.7668L45.6507 55.7416C45.7307 55.7197 45.8117 55.7016 45.89 55.6739C45.9694 55.6501 46.0464 55.6189 46.1239 55.5893C46.1622 55.5737 46.1997 55.5559 46.2378 55.5391C46.2567 55.5307 46.2758 55.5227 46.2945 55.5134L46.35 55.4852C46.3867 55.466 46.4248 55.4487 46.4607 55.4276L46.5691 55.3663C46.605 55.3452 46.6397 55.3224 46.6753 55.3005C46.7109 55.2791 46.7454 55.2556 46.7797 55.232C46.9182 55.1394 47.0505 55.0372 47.1789 54.9304C47.3079 54.8241 47.4322 54.7112 47.554 54.5958C47.7983 54.3654 48.031 54.1216 48.2687 53.8813C48.5061 53.6408 48.7476 53.4021 49.0061 53.1808C49.1348 53.0695 49.2695 52.9646 49.4078 52.8646C49.5461 52.7646 49.692 52.6744 49.841 52.5909C50.1403 52.4262 50.4574 52.2947 50.7846 52.1972C51.1124 52.1018 51.4497 52.0385 51.7903 52.0153C52.4711 51.9698 53.1614 52.0607 53.8038 52.292C54.4459 52.5224 55.0387 52.8871 55.536 53.3539L55.5614 53.3777L55.5483 53.4095C55.4776 53.578 55.3993 53.7432 55.312 53.9038C55.2227 54.0632 55.1266 54.2186 55.0212 54.3679C54.9144 54.5161 54.8013 54.6597 54.68 54.7958C54.5576 54.9312 54.4297 55.0616 54.2942 55.1838C53.7523 55.6728 53.105 56.0422 52.4108 56.2624C51.7167 56.4827 50.9763 56.5561 50.2534 56.4712C49.5305 56.3882 48.8273 56.1424 48.2098 55.7591L48.18 55.7408L48.2066 55.7183C48.511 55.4591 48.7895 55.1701 49.0729 54.8854C49.3566 54.6019 49.6463 54.32 49.9744 54.0852C50.3007 53.849 50.6666 53.6687 51.0502 53.5487C51.2422 53.4893 51.4385 53.4432 51.637 53.4139C51.8352 53.3849 52.0362 53.3706 52.2367 53.3712Z" stroke="white" stroke-width="0.297521" mask="url(#path-65-outside-1_300_1290)"/>
</g>
</g>
<defs>
<filter id="filter0_d_300_1290" x="0.636364" y="0.545455" width="120.727" height="120.727" filterUnits="userSpaceOnUse" color-interpolation-filters="sRGB">
<feFlood flood-opacity="0" result="BackgroundImageFix"/>
<feColorMatrix in="SourceAlpha" type="matrix" values="0 0 0 0 0 0 0 0 0 0 0 0 0 0 0 0 0 0 127 0" result="hardAlpha"/>
<feOffset dy="2.90909"/>
<feGaussianBlur stdDeviation="10.1818"/>
<feComposite in2="hardAlpha" operator="out"/>
<feColorMatrix type="matrix" values="0 0 0 0 0.104167 0 0 0 0 0.066116 0 0 0 0 0.030816 0 0 0 0.06 0"/>
<feBlend mode="normal" in2="BackgroundImageFix" result="effect1_dropShadow_300_1290"/>
<feBlend mode="normal" in="SourceGraphic" in2="effect1_dropShadow_300_1290" result="shape"/>
</filter>
<filter id="filter1_d_300_1290" x="7.18226" y="7.09233" width="107.636" height="107.637" filterUnits="userSpaceOnUse" color-interpolation-filters="sRGB">
<feFlood flood-opacity="0" result="BackgroundImageFix"/>
<feColorMatrix in="SourceAlpha" type="matrix" values="0 0 0 0 0 0 0 0 0 0 0 0 0 0 0 0 0 0 127 0" result="hardAlpha"/>
<feOffset dy="2.90909"/>
<feGaussianBlur stdDeviation="10.1818"/>
<feComposite in2="hardAlpha" operator="out"/>
<feColorMatrix type="matrix" values="0 0 0 0 0.104167 0 0 0 0 0.066116 0 0 0 0 0.030816 0 0 0 0.06 0"/>
<feBlend mode="normal" in2="BackgroundImageFix" result="effect1_dropShadow_300_1290"/>
<feBlend mode="normal" in="SourceGraphic" in2="effect1_dropShadow_300_1290" result="shape"/>
</filter>
<filter id="filter2_d_300_1290" x="33.2598" y="41.2756" width="30.7528" height="30.7518" filterUnits="userSpaceOnUse" color-interpolation-filters="sRGB">
<feFlood flood-opacity="0" result="BackgroundImageFix"/>
<feColorMatrix in="SourceAlpha" type="matrix" values="0 0 0 0 0 0 0 0 0 0 0 0 0 0 0 0 0 0 127 0" result="hardAlpha"/>
<feOffset dy="0.831169"/>
<feGaussianBlur stdDeviation="3.32467"/>
<feComposite in2="hardAlpha" operator="out"/>
<feColorMatrix type="matrix" values="0 0 0 0 0.104167 0 0 0 0 0.066116 0 0 0 0 0.030816 0 0 0 0.12 0"/>
<feBlend mode="normal" in2="BackgroundImageFix" result="effect1_dropShadow_300_1290"/>
<feBlend mode="normal" in="SourceGraphic" in2="effect1_dropShadow_300_1290" result="shape"/>
</filter>
<linearGradient id="paint0_linear_300_1290" x1="49.5791" y1="44.9937" x2="75.8557" y2="48.1343" gradientUnits="userSpaceOnUse">
<stop stop-color="#30C917"/>
<stop offset="1" stop-color="#279A13"/>
</linearGradient>
<linearGradient id="paint1_linear_300_1290" x1="39.9092" y1="50.3665" x2="57.953" y2="51.6422" gradientUnits="userSpaceOnUse">
<stop stop-color="#30C917"/>
<stop offset="1" stop-color="#279A13"/>
</linearGradient>
<clipPath id="clip0_300_1290">
<rect width="43.6364" height="43.6364" fill="white" transform="translate(39.1816 36.1836)"/>
</clipPath>
</defs>
</svg>
