<svg xmlns="http://www.w3.org/2000/svg" width="348" height="322" fill="none"><g filter="url(#a)"><rect width="312" height="286" x="18" y="18" fill="#fff" rx="16" shape-rendering="crispEdges"/><path fill="#7A7A7A" d="M39.008 273v-7h1v6.13h3.79v.87zm5.797 0v-5.3h.96v5.3zm.48-6.32a.66.66 0 0 1-.47-.18.6.6 0 0 1-.18-.44q0-.27.18-.45a.66.66 0 0 1 .47-.18q.28 0 .46.18.19.17.19.43 0 .27-.18.46a.64.64 0 0 1-.47.18m4.503 6.38q-.77 0-1.38-.34a2.5 2.5 0 0 1-.95-.95q-.35-.61-.35-1.42t.35-1.41a2.5 2.5 0 0 1 .95-.95q.61-.34 1.38-.34.69 0 1.23.3t.85.9q.32.6.32 1.5t-.33 1.5q-.32.6-.86.91-.54.3-1.21.3m.08-.84q.5 0 .9-.23.41-.23.64-.65.24-.43.24-.99 0-.57-.24-.98a1.6 1.6 0 0 0-.64-.65 1.8 1.8 0 0 0-.9-.23q-.51 0-.91.23a1.7 1.7 0 0 0-.64.65q-.24.41-.24.98 0 .56.24.99a1.71 1.71 0 0 0 1.55.88m1.77 2.72v-3.35l.1-1.23-.06-1.23v-1.43h.92v7.24zm5.007-1.88q-.681 0-1.2-.25a1.84 1.84 0 0 1-.8-.76q-.28-.52-.28-1.3v-3.05h.96v2.94q0 .78.37 1.17.38.39 1.06.39.5 0 .87-.2.369-.21.57-.6.2-.4.2-.96v-2.74h.96v5.3h-.91v-1.43l.15.38a1.86 1.86 0 0 1-.78.82q-.52.29-1.17.29m4.537-.06v-5.3h.96v5.3zm.48-6.32a.66.66 0 0 1-.47-.18.6.6 0 0 1-.18-.44q0-.27.18-.45a.66.66 0 0 1 .47-.18q.28 0 .46.18.19.17.19.43 0 .27-.18.46a.64.64 0 0 1-.47.18m4.503 6.38q-.77 0-1.38-.34a2.5 2.5 0 0 1-.95-.95q-.35-.61-.35-1.42t.35-1.41a2.5 2.5 0 0 1 .95-.95q.61-.34 1.38-.34.67 0 1.21.3t.86.9q.33.6.33 1.5t-.32 1.5q-.31.6-.85.91-.54.3-1.23.3m.08-.84q.5 0 .9-.23.41-.23.64-.65.24-.43.24-.99 0-.57-.24-.98a1.6 1.6 0 0 0-.64-.65 1.8 1.8 0 0 0-.9-.23q-.51 0-.91.23a1.7 1.7 0 0 0-.64.65q-.24.41-.24.98 0 .56.24.99a1.71 1.71 0 0 0 1.55.88m1.81.78v-1.43l.06-1.23-.1-1.23v-3.53h.96V273zm2.736 0v-5.3h.96v5.3zm.48-6.32a.66.66 0 0 1-.47-.18.6.6 0 0 1-.18-.44q0-.27.18-.45a.66.66 0 0 1 .47-.18q.28 0 .46.18.19.17.19.43 0 .27-.18.46a.64.64 0 0 1-.47.18m4.133 6.38q-.8 0-1.24-.43t-.44-1.23v-4.86h.96v4.82q0 .43.21.66.22.23.62.23.45 0 .75-.25l.3.69q-.22.19-.53.28-.3.09-.63.09m-2.58-4.57v-.79h3.38v.79zm5.033 6.51q-.38 0-.74-.13-.36-.12-.62-.36l.41-.72q.2.19.44.29t.51.1q.35 0 .58-.18t.43-.64l.33-.73.1-.12 2.08-4.81h.94l-2.57 5.83q-.23.56-.52.88a1.6 1.6 0 0 1-.62.45q-.339.14-.75.14m1.26-1.83-2.42-5.47h1l2.06 4.72zM37.91 285v-7h2.73q.92 0 1.57.29a2.2 2.2 0 0 1 1 .84q.35.55.35 1.31t-.35 1.31a2.3 2.3 0 0 1-1 .84q-.65.29-1.57.29h-2.18l.45-.47V285zm1-2.49-.45-.5h2.15q.96 0 1.45-.41.5-.41.5-1.16t-.5-1.16q-.49-.41-1.45-.41h-2.15l.45-.5zM44.79 285v-5.3h.92v1.44l-.09-.36q.22-.55.74-.84t1.28-.29v.93a1 1 0 0 0-.12-.01h-.1q-.77 0-1.22.46t-.45 1.33V285zm6.255.06a2.84 2.84 0 0 1-1.42-.35 2.6 2.6 0 0 1-.98-.96q-.36-.62-.36-1.4 0-.79.36-1.4t.98-.95q.62-.35 1.42-.35.789 0 1.41.35.63.34.98.95.36.6.36 1.4 0 .79-.36 1.4-.35.61-.98.96-.62.35-1.41.35m0-.84q.51 0 .91-.23.41-.23.64-.65a2.1 2.1 0 0 0 .23-.99q0-.57-.23-.98a1.6 1.6 0 0 0-.64-.65 1.8 1.8 0 0 0-.91-.23q-.51 0-.91.23a1.7 1.7 0 0 0-.64.65q-.24.41-.24.98 0 .56.24.99a1.71 1.71 0 0 0 1.55.88m5.321.78-2.32-5.3h1l2.06 4.8h-.48l2.1-4.8h.94l-2.32 5.3zm4.196 0v-5.3h.96v5.3zm.48-6.32a.66.66 0 0 1-.47-.18.6.6 0 0 1-.18-.44q0-.27.18-.45a.66.66 0 0 1 .47-.18q.28 0 .46.18.19.17.19.43 0 .27-.18.46a.64.64 0 0 1-.47.18m3.833 6.38q-.66 0-1.26-.18-.59-.18-.93-.44l.4-.76q.34.23.84.39t1.02.16q.67 0 .96-.19.3-.19.3-.53a.47.47 0 0 0-.18-.39 1.2 1.2 0 0 0-.48-.21 7 7 0 0 0-.65-.12q-.36-.06-.72-.14-.36-.09-.66-.24-.3-.16-.48-.43-.18-.28-.18-.74 0-.48.27-.84t.76-.55q.5-.2 1.18-.2.52 0 1.05.13.54.12.88.35l-.41.76q-.36-.24-.75-.33t-.78-.09q-.63 0-.94.21-.31.2-.31.52 0 .27.18.42.19.14.48.22.3.08.66.14.36.05.72.14.36.08.65.23.3.15.48.42.19.27.19.72 0 .48-.28.83t-.79.55q-.51.19-1.22.19m3.49-.06v-5.3h.96v5.3zm.48-6.32a.66.66 0 0 1-.47-.18.6.6 0 0 1-.18-.44q0-.27.18-.45a.66.66 0 0 1 .47-.18q.28 0 .46.18.19.17.19.43 0 .27-.18.46a.64.64 0 0 1-.47.18m4.583 6.38a2.84 2.84 0 0 1-1.42-.35 2.6 2.6 0 0 1-.98-.96q-.36-.62-.36-1.4 0-.79.36-1.4t.98-.95q.62-.35 1.42-.35.789 0 1.41.35.63.34.98.95.36.6.36 1.4 0 .79-.36 1.4-.35.61-.98.96-.621.35-1.41.35m0-.84q.51 0 .91-.23a1.6 1.6 0 0 0 .64-.65q.23-.43.23-.99 0-.57-.23-.98a1.6 1.6 0 0 0-.64-.65 1.8 1.8 0 0 0-.91-.23q-.51 0-.91.23t-.64.65q-.24.41-.24.98 0 .56.24.99a1.71 1.71 0 0 0 1.55.88m6.907-4.57q.651 0 1.14.25.501.25.78.76.28.51.28 1.29V285h-.96v-2.94q0-.77-.38-1.16-.369-.39-1.05-.39-.51 0-.89.2t-.59.59q-.2.39-.2.97V285h-.96v-5.3h.92v1.43l-.15-.38q.26-.52.8-.81t1.26-.29"/><path fill="#F2F2F2" d="M57.213 139.924A8 8 0 0 1 65.141 133h18.7c4.846 0 8.579 4.274 7.927 9.076l-13.981 103A8 8 0 0 1 69.859 252h-18.7c-4.846 0-8.579-4.274-7.927-9.076z"/><path fill="url(#b)" d="M42 132a8 8 0 0 1 8-8h19a8 8 0 0 1 8 8v118a2 2 0 0 1-2 2H44a2 2 0 0 1-2-2z"/><path fill="#F2F2F2" d="M128.528 70.319a8 8 0 0 1 7.97-7.319h18.789c4.687 0 8.37 4.011 7.971 8.681l-14.786 173a8 8 0 0 1-7.97 7.319h-18.789c-4.687 0-8.37-4.011-7.971-8.681z"/><path fill="url(#c)" d="M113 56a8 8 0 0 1 8-8h19a8 8 0 0 1 8 8v194a2 2 0 0 1-2 2h-31a2 2 0 0 1-2-2z"/><path fill="#F2F2F2" d="M198.806 182.337a8 8 0 0 1 7.825-6.337h18.49c5.088 0 8.883 4.687 7.825 9.663l-12.752 60a8 8 0 0 1-7.825 6.337h-18.49c-5.088 0-8.883-4.687-7.825-9.663z"/><path fill="url(#d)" d="M184 173a8 8 0 0 1 8-8h19a8 8 0 0 1 8 8v77a2 2 0 0 1-2 2h-31a2 2 0 0 1-2-2z"/><path fill="#F2F2F2" d="M270.346 117.096a8 8 0 0 1 7.949-7.096h18.743c4.777 0 8.489 4.158 7.949 8.904l-14.333 126a8 8 0 0 1-7.949 7.096h-18.743c-4.777 0-8.489-4.158-7.949-8.904z"/><path fill="url(#e)" d="M255 107a8 8 0 0 1 8-8h19a8 8 0 0 1 8 8v143a2 2 0 0 1-2 2h-31a2 2 0 0 1-2-2z"/><path fill="#fff" d="m49.031 242 3.17-7h.99l3.18 7h-1.05l-2.83-6.44h.4l-2.83 6.44zm1.35-1.75.27-.8h3.94l.29.8zm7.034 1.75v-7h2.73q.92 0 1.57.29t1 .84.35 1.31-.35 1.31q-.35.54-1 .84-.65.29-1.57.29h-2.18l.45-.47V242zm1-2.49-.45-.5h2.15q.96 0 1.45-.41.5-.41.5-1.16t-.5-1.16q-.49-.41-1.45-.41h-2.15l.45-.5zm7.81 2.49v-2.68l.23.62-3.01-4.94h1.07l2.53 4.17h-.58l2.54-4.17h.99l-3 4.94.22-.62V242zM120.031 242l3.17-7h.99l3.18 7h-1.05l-2.83-6.44h.4l-2.83 6.44zm1.35-1.75.27-.8h3.94l.29.8zm7.034 1.75v-7h2.73q.92 0 1.57.29t1 .84.35 1.31-.35 1.31q-.35.54-1 .84-.65.29-1.57.29h-2.18l.45-.47V242zm1-2.49-.45-.5h2.15q.96 0 1.45-.41.5-.41.5-1.16t-.5-1.16q-.49-.41-1.45-.41h-2.15l.45-.5zm7.809 2.49v-2.68l.23.62-3.01-4.94h1.07l2.53 4.17h-.58l2.54-4.17h.99l-3 4.94.22-.62V242zM191.031 242l3.17-7h.99l3.18 7h-1.05l-2.83-6.44h.4l-2.83 6.44zm1.35-1.75.27-.8h3.94l.29.8zm7.034 1.75v-7h2.73q.92 0 1.57.29t1 .84.35 1.31-.35 1.31q-.35.54-1 .84-.65.29-1.57.29h-2.18l.45-.47V242zm1-2.49-.45-.5h2.15q.96 0 1.45-.41.5-.41.5-1.16t-.5-1.16q-.49-.41-1.45-.41h-2.15l.45-.5zm7.809 2.49v-2.68l.23.62-3.01-4.94h1.07l2.53 4.17h-.58l2.54-4.17h.99l-3 4.94.22-.62V242zM262.031 242l3.17-7h.99l3.18 7h-1.05l-2.83-6.44h.4l-2.83 6.44zm1.35-1.75.27-.8h3.94l.29.8zm7.034 1.75v-7h2.73q.92 0 1.57.29t1 .84.35 1.31-.35 1.31q-.35.54-1 .84-.65.29-1.57.29h-2.18l.45-.47V242zm1-2.49-.45-.5h2.15q.96 0 1.45-.41.5-.41.5-1.16t-.5-1.16q-.49-.41-1.45-.41h-2.15l.45-.5zm7.809 2.49v-2.68l.23.62-3.01-4.94h1.07l2.53 4.17h-.58l2.54-4.17h.99l-3 4.94.22-.62V242z"/><path fill="#7A7A7A" d="M110.142 273v-7.122h1.018v6.237h3.856V273zm8.23.061q-.864 0-1.526-.356a2.6 2.6 0 0 1-1.017-.977q-.357-.62-.356-1.424 0-.804.346-1.424.355-.62.966-.967a2.75 2.75 0 0 1 1.394-.356q.783 0 1.384.346.6.345.936.977.346.62.346 1.454 0 .062-.011.143 0 .081-.01.152h-4.588v-.702h4.079l-.396.245a1.8 1.8 0 0 0-.214-.926 1.6 1.6 0 0 0-.621-.631 1.7 1.7 0 0 0-.905-.234q-.509 0-.906.234a1.57 1.57 0 0 0-.62.641 1.9 1.9 0 0 0-.224.936v.163q0 .538.244.966.255.417.702.651.448.234 1.028.234.478 0 .865-.162.397-.163.691-.489l.54.631a2.36 2.36 0 0 1-.916.651q-.54.224-1.211.224m6.708-5.504q.661 0 1.16.254.508.255.793.774.285.518.285 1.312V273h-.976v-2.991q0-.784-.387-1.18-.377-.397-1.068-.397-.519 0-.906.203a1.4 1.4 0 0 0-.6.601q-.204.396-.204.987V273h-.976v-5.392h.936v1.455l-.153-.387q.264-.529.814-.824t1.282-.295m6.274 5.504q-.783 0-1.404-.346a2.55 2.55 0 0 1-.967-.966q-.356-.621-.356-1.445t.356-1.435q.357-.62.967-.966a2.83 2.83 0 0 1 1.404-.346q.681 0 1.231.305.55.306.875.916.336.61.336 1.526 0 .915-.326 1.526-.315.61-.865.926a2.54 2.54 0 0 1-1.251.305m.081-.855q.509 0 .916-.234a1.65 1.65 0 0 0 .651-.661q.244-.437.244-1.007 0-.58-.244-.997a1.65 1.65 0 0 0-.651-.661 1.8 1.8 0 0 0-.916-.234q-.519 0-.926.234a1.74 1.74 0 0 0-.651.661q-.244.417-.244.997 0 .57.244 1.007.245.427.651.661t.926.234m1.842.794v-1.455l.061-1.251-.102-1.252v-3.591h.977V273zm2.784 0v-5.392h.976V273zm.488-6.43a.67.67 0 0 1-.478-.183.6.6 0 0 1-.183-.448q0-.274.183-.458a.67.67 0 0 1 .478-.183q.285 0 .468.183a.56.56 0 0 1 .193.438.66.66 0 0 1-.183.468.65.65 0 0 1-.478.183m5.232.987q.662 0 1.16.254.509.255.794.774.285.518.285 1.312V273h-.977v-2.991q0-.784-.387-1.18-.376-.397-1.068-.397a1.9 1.9 0 0 0-.905.203 1.43 1.43 0 0 0-.601.601q-.203.396-.203.987V273h-.977v-5.392h.936v1.455l-.152-.387q.264-.529.814-.824t1.281-.295m6.407 7.478q-.744 0-1.445-.214-.692-.203-1.129-.59l.468-.753q.376.326.925.509.55.193 1.15.193.957 0 1.404-.447.448-.448.448-1.364v-1.139l.101-1.069-.05-1.078v-1.475h.925v4.659q0 1.425-.712 2.096-.713.672-2.085.672m-.122-2.259q-.785 0-1.404-.325a2.6 2.6 0 0 1-.977-.926q-.356-.59-.356-1.364 0-.783.356-1.363.366-.59.977-.915a2.96 2.96 0 0 1 1.404-.326q.691 0 1.261.285.57.275.906.854.345.58.345 1.465 0 .876-.345 1.455a2.2 2.2 0 0 1-.906.875q-.57.285-1.261.285m.111-.854q.54 0 .957-.224t.651-.621a1.7 1.7 0 0 0 .244-.916q0-.518-.244-.915a1.57 1.57 0 0 0-.651-.611 2 2 0 0 0-.957-.223q-.539 0-.966.223a1.64 1.64 0 0 0-.661.611q-.234.397-.234.915 0 .52.234.916.244.397.661.621.428.224.966.224M187.759 273l3.225-7.122h1.007l3.236 7.122h-1.069l-2.879-6.552h.407L188.807 273zm1.373-1.78.275-.814h4.009l.295.814zm9.184 1.841q-.692 0-1.221-.254a1.87 1.87 0 0 1-.814-.774q-.285-.528-.285-1.322v-3.103h.977v2.991q0 .794.377 1.19.386.397 1.078.397.508 0 .885-.203.376-.214.58-.611.203-.407.203-.977v-2.787h.977V273h-.926v-1.455l.153.387a1.9 1.9 0 0 1-.794.834 2.4 2.4 0 0 1-1.19.295m6.468 0q-.814 0-1.261-.437-.448-.438-.448-1.252v-4.944h.977v4.903q0 .438.213.672.225.234.631.234.458 0 .763-.254l.305.702a1.4 1.4 0 0 1-.539.284 2.2 2.2 0 0 1-.641.092m-2.625-4.649v-.804h3.439v.804zm7.117 4.649q-.814 0-1.445-.356a2.65 2.65 0 0 1-.997-.977 2.8 2.8 0 0 1-.366-1.424q0-.804.366-1.424a2.6 2.6 0 0 1 .997-.967q.631-.356 1.445-.356.804 0 1.434.356.642.346.997.967.367.61.367 1.424 0 .804-.367 1.424-.355.621-.997.977-.63.356-1.434.356m0-.855q.518 0 .926-.234a1.65 1.65 0 0 0 .651-.661q.234-.437.234-1.007 0-.58-.234-.997a1.65 1.65 0 0 0-.651-.661 1.8 1.8 0 0 0-.926-.234q-.52 0-.926.234a1.74 1.74 0 0 0-.651.661q-.244.417-.244.997 0 .57.244 1.007.245.427.651.661t.926.234M180.233 285v-7.122h2.778q.936 0 1.597.295.661.296 1.018.855.356.56.356 1.333t-.356 1.332a2.3 2.3 0 0 1-1.018.845q-.661.295-1.597.295h-2.218l.458-.468V285zm4.762 0-1.811-2.584h1.088l1.832 2.584zm-3.744-2.533-.458-.499h2.187q.976 0 1.476-.417.508-.428.508-1.19 0-.763-.508-1.18-.5-.418-1.476-.418h-2.187l.458-.508zm8.633 2.594q-.865 0-1.526-.356a2.6 2.6 0 0 1-1.018-.977q-.356-.62-.356-1.424t.346-1.424q.357-.62.967-.967a2.75 2.75 0 0 1 1.394-.356q.783 0 1.383.346.6.345.936.977.346.62.346 1.454 0 .062-.01.143 0 .081-.01.152h-4.589v-.702h4.08l-.397.245a1.8 1.8 0 0 0-.213-.926 1.6 1.6 0 0 0-.621-.631 1.7 1.7 0 0 0-.905-.234q-.51 0-.906.234a1.57 1.57 0 0 0-.62.641 1.9 1.9 0 0 0-.224.936v.163q0 .538.244.966.254.417.702.651t1.027.234q.478 0 .865-.162.397-.163.692-.489l.539.631a2.35 2.35 0 0 1-.915.651q-.54.224-1.211.224m4.869-.061-2.005-5.392h.926l1.781 4.883h-.438l1.852-4.883h.824l1.811 4.883h-.428l1.822-4.883h.875L199.758 285h-.936l-1.699-4.456h.285L195.689 285zm11.189 0v-1.139l-.051-.214v-1.943q0-.621-.366-.957-.357-.346-1.079-.346-.477 0-.936.163a2.4 2.4 0 0 0-.773.417l-.407-.732q.417-.336.997-.509a4.1 4.1 0 0 1 1.231-.183q1.11 0 1.71.539.6.54.6 1.648V285zm-1.77.061q-.6 0-1.058-.203a1.64 1.64 0 0 1-.692-.56 1.45 1.45 0 0 1-.244-.824q0-.437.203-.794.214-.356.682-.569.478-.214 1.282-.214h1.709v.702h-1.669q-.732 0-.987.244a.8.8 0 0 0-.254.59.77.77 0 0 0 .316.641q.315.234.874.234.55 0 .957-.244.417-.244.6-.712l.193.671a1.54 1.54 0 0 1-.681.763q-.489.275-1.231.275m4.503-.061v-5.392h.936v1.465l-.091-.366q.224-.56.753-.855.528-.295 1.302-.295v.946a1 1 0 0 0-.122-.01h-.102q-.783 0-1.241.468t-.458 1.353V285zm6.282.061q-.783 0-1.404-.346a2.55 2.55 0 0 1-.967-.966q-.356-.621-.356-1.445t.356-1.435q.357-.62.967-.966a2.83 2.83 0 0 1 1.404-.346q.681 0 1.231.305.55.306.875.916.336.61.336 1.526 0 .915-.326 1.526-.315.61-.865.926a2.54 2.54 0 0 1-1.251.305m.081-.855q.51 0 .916-.234a1.65 1.65 0 0 0 .651-.661q.244-.437.244-1.007 0-.58-.244-.997a1.65 1.65 0 0 0-.651-.661 1.8 1.8 0 0 0-.916-.234 1.8 1.8 0 0 0-.925.234 1.74 1.74 0 0 0-.652.661q-.243.417-.244.997 0 .57.244 1.007.244.427.652.661.406.234.925.234m1.842.794v-1.455l.061-1.251-.102-1.252v-3.591h.977V285zm4.33.061q-.671 0-1.282-.183-.6-.183-.946-.448l.407-.773q.346.234.855.397a3.4 3.4 0 0 0 1.038.163q.681 0 .976-.194a.6.6 0 0 0 .305-.539.48.48 0 0 0-.183-.397 1.24 1.24 0 0 0-.488-.213 7 7 0 0 0-.661-.122 14 14 0 0 1-.733-.143 3.2 3.2 0 0 1-.671-.244 1.3 1.3 0 0 1-.489-.438q-.183-.284-.183-.752 0-.489.275-.855t.773-.56q.508-.203 1.201-.203.528 0 1.068.132.55.123.895.356l-.417.774a2.3 2.3 0 0 0-.763-.336 3.5 3.5 0 0 0-.794-.092q-.64 0-.956.214-.315.204-.315.529 0 .274.183.427.193.143.488.224.305.081.672.142.366.051.732.143.366.081.661.234.306.153.489.427.193.275.193.733 0 .488-.285.844t-.803.56q-.519.193-1.242.193M256.308 273.081a5 5 0 0 1-1.557-.244q-.742-.254-1.17-.651l.376-.793q.408.356 1.038.59t1.313.234q.62 0 1.007-.143t.57-.386a.96.96 0 0 0 .183-.57.77.77 0 0 0-.244-.59 1.7 1.7 0 0 0-.621-.356 6 6 0 0 0-.834-.245 15 15 0 0 1-.926-.234 4.4 4.4 0 0 1-.845-.356 1.75 1.75 0 0 1-.61-.569q-.234-.368-.234-.936 0-.55.285-1.008.295-.468.895-.742.61-.285 1.547-.285.62 0 1.231.163.61.162 1.058.468l-.336.814a3.2 3.2 0 0 0-.967-.438 3.7 3.7 0 0 0-.986-.142q-.601 0-.987.152-.387.153-.57.407a1 1 0 0 0-.173.57q0 .377.234.6.245.224.621.356a10 10 0 0 0 .844.244q.457.102.916.234.468.133.844.346.387.215.621.57.234.357.234.916 0 .539-.295 1.007-.295.458-.916.743-.61.274-1.546.274m5.952-.02q-.814 0-1.261-.437-.448-.438-.448-1.252v-4.944h.977v4.903q0 .438.213.672.225.234.631.234.458 0 .763-.254l.305.702a1.4 1.4 0 0 1-.539.284 2.2 2.2 0 0 1-.641.092m-2.625-4.649v-.804h3.439v.804zm8.333 4.588v-1.139l-.05-.214v-1.943q0-.621-.367-.957-.356-.346-1.078-.346-.478 0-.936.163a2.4 2.4 0 0 0-.773.417l-.407-.732q.417-.336.997-.509a4.1 4.1 0 0 1 1.231-.183q1.109 0 1.709.539.6.54.6 1.648V273zm-1.77.061q-.6 0-1.058-.203a1.65 1.65 0 0 1-.692-.56 1.46 1.46 0 0 1-.244-.824q0-.437.204-.794.213-.356.681-.569.478-.214 1.282-.214h1.709v.702h-1.668q-.732 0-.987.244a.79.79 0 0 0-.254.59q0 .397.315.641.315.234.875.234.55 0 .956-.244.418-.244.601-.712l.193.671a1.54 1.54 0 0 1-.682.763q-.488.275-1.231.275m5.297-1.363.021-1.252 3.103-2.838h1.18l-2.381 2.34-.529.447zm-.793 1.302v-7.549h.976V273zm4.12 0-2.116-2.625.631-.783 2.686 3.408zm2.149 0v-5.392h.977V273zm.488-6.43a.67.67 0 0 1-.478-.183.6.6 0 0 1-.183-.448q0-.274.183-.458a.67.67 0 0 1 .478-.183q.285 0 .468.183a.56.56 0 0 1 .194.438.66.66 0 0 1-.183.468.65.65 0 0 1-.479.183m5.233.987q.661 0 1.16.254.508.255.793.774.285.518.285 1.312V273h-.977v-2.991q0-.784-.386-1.18-.377-.397-1.068-.397-.519 0-.906.203a1.4 1.4 0 0 0-.6.601q-.204.396-.204.987V273h-.976v-5.392h.936v1.455l-.153-.387q.264-.529.814-.824t1.282-.295m6.406 7.478q-.743 0-1.445-.214-.691-.203-1.129-.59l.468-.753q.377.326.926.509a3.4 3.4 0 0 0 1.149.193q.957 0 1.404-.447.448-.448.448-1.364v-1.139l.102-1.069-.051-1.078v-1.475h.926v4.659q0 1.425-.712 2.096-.712.672-2.086.672m-.122-2.259q-.783 0-1.404-.325a2.6 2.6 0 0 1-.977-.926q-.356-.59-.356-1.364 0-.783.356-1.363.366-.59.977-.915a2.97 2.97 0 0 1 1.404-.326q.692 0 1.261.285.57.275.906.854.346.58.346 1.465 0 .876-.346 1.455a2.2 2.2 0 0 1-.906.875q-.569.285-1.261.285m.112-.854q.539 0 .956-.224t.651-.621a1.7 1.7 0 0 0 .244-.916q0-.518-.244-.915a1.57 1.57 0 0 0-.651-.611 2 2 0 0 0-.956-.223q-.54 0-.967.223a1.64 1.64 0 0 0-.661.611q-.234.397-.234.915 0 .52.234.916.244.397.661.621.427.224.967.224"/></g><defs><linearGradient id="b" x1="42" x2="78.349" y1="148" y2="148.703" gradientUnits="userSpaceOnUse"><stop stop-color="#30C917"/><stop offset="1" stop-color="#279A13"/></linearGradient><linearGradient id="c" x1="113" x2="149.357" y1="86.25" y2="86.691" gradientUnits="userSpaceOnUse"><stop stop-color="#30C917"/><stop offset="1" stop-color="#279A13"/></linearGradient><linearGradient id="d" x1="184" x2="220.333" y1="181.312" y2="182.346" gradientUnits="userSpaceOnUse"><stop stop-color="#30C917"/><stop offset="1" stop-color="#279A13"/></linearGradient><linearGradient id="e" x1="255" x2="291.353" y1="127.687" y2="128.275" gradientUnits="userSpaceOnUse"><stop stop-color="#30C917"/><stop offset="1" stop-color="#279A13"/></linearGradient><filter id="a" width="347.043" height="321.043" x=".478" y=".478" color-interpolation-filters="sRGB" filterUnits="userSpaceOnUse"><feFlood flood-opacity="0" result="BackgroundImageFix"/><feColorMatrix in="SourceAlpha" result="hardAlpha" values="0 0 0 0 0 0 0 0 0 0 0 0 0 0 0 0 0 0 127 0"/><feOffset/><feGaussianBlur stdDeviation="8.761"/><feComposite in2="hardAlpha" operator="out"/><feColorMatrix values="0 0 0 0 0.695833 0 0 0 0 0.695833 0 0 0 0 0.695833 0 0 0 0.2 0"/><feBlend in2="BackgroundImageFix" result="effect1_dropShadow_300_1229"/><feBlend in="SourceGraphic" in2="effect1_dropShadow_300_1229" result="shape"/></filter></defs></svg>