<svg xmlns="http://www.w3.org/2000/svg" width="28" height="28" fill="none"><rect width="28" height="28" fill="#419FD9" rx="14"/><rect width="28" height="28" fill="url(#a)" rx="14"/><path fill="#fff" d="M6.293 13.689q6.106-2.716 8.144-3.582c3.879-1.647 4.684-1.933 5.21-1.943.115-.002.373.027.54.166.142.117.181.275.2.386.018.111.041.364.023.562-.21 2.254-1.12 7.726-1.582 10.251-.196 1.069-.582 1.427-.955 1.462-.81.076-1.427-.547-2.212-1.073-1.23-.823-1.924-1.335-3.117-2.137-1.379-.928-.485-1.438.301-2.271.206-.219 3.779-3.537 3.848-3.838.009-.038.017-.178-.065-.252-.081-.074-.202-.049-.289-.029q-.185.043-5.89 3.976-.837.585-1.515.57c-.499-.01-1.458-.287-2.171-.524-.875-.29-1.57-.443-1.51-.936q.048-.386 1.04-.788"/><defs><linearGradient id="a" x1="14" x2="14" y1="0" y2="27.792" gradientUnits="userSpaceOnUse"><stop stop-color="#2AABEE"/><stop offset="1" stop-color="#229ED9"/></linearGradient></defs></svg>