<svg xmlns="http://www.w3.org/2000/svg" width="166" height="136" fill="none"><path fill="#fff" fill-opacity=".32" d="M39.386 58.145C18.014 58.145.627 75.52.627 96.877s17.387 38.732 38.76 38.732c21.371 0 38.759-17.375 38.759-38.732s-17.388-38.732-38.76-38.732m0 67.781c-16.028 0-29.07-13.032-29.07-29.05 0-16.017 13.042-29.048 29.07-29.048 16.029 0 29.07 13.031 29.07 29.049 0 16.017-13.041 29.049-29.07 29.049"/><path fill="#fff" fill-opacity=".32" d="M39.386 82.352c-8.014 0-14.534 6.516-14.534 14.524 0 8.009 6.52 14.525 14.534 14.525s14.535-6.516 14.535-14.525c0-8.008-6.52-14.524-14.535-14.524m0 19.366a4.85 4.85 0 0 1-4.845-4.842 4.85 4.85 0 0 1 4.845-4.841 4.85 4.85 0 0 1 4.845 4.841 4.85 4.85 0 0 1-4.845 4.842"/><path fill="#fff" fill-opacity=".32" d="M156.311 84.93V67.828c0-10.68-8.693-19.367-19.38-19.367h-9.69V24.255a4.85 4.85 0 0 1 4.845-4.842V9.73c-8.014 0-14.535 6.516-14.535 14.525v24.207H96.285L84.659 9.73h8.023V.047H15.162V9.73h9.69v30.901a58.2 58.2 0 0 0-22.464 11.43l6.17 7.466c8.646-7.135 19.595-11.065 30.829-11.065 26.715 0 48.449 21.72 48.449 48.416v14.525h20.432c2.314 13.721 14.285 24.207 28.663 24.207 16.029 0 29.069-13.032 29.069-29.049 0-8.584-3.745-16.309-9.689-21.632M34.542 38.984V9.73h40l11.627 38.732H71.487a57.83 57.83 0 0 0-32.1-9.683q-2.433.001-4.845.206m48.139 19.16h54.25c5.343 0 9.69 4.344 9.69 9.684v11.345a29 29 0 0 0-9.69-1.662H94.2a58.1 58.1 0 0 0-11.52-19.367m14.032 29.05h18.571a28.96 28.96 0 0 0-7.016 14.524H97.526v-4.841c0-3.298-.28-6.532-.813-9.683m40.218 38.732c-10.687 0-19.38-8.687-19.38-19.366s8.693-19.366 19.38-19.366 19.38 8.687 19.38 19.366-8.693 19.366-19.38 19.366"/><path fill="#fff" fill-opacity=".32" d="M141.775 106.56a4.843 4.843 0 0 1-4.845 4.842 4.843 4.843 0 1 1 0-9.683 4.843 4.843 0 0 1 4.845 4.841"/></svg>