<svg xmlns="http://www.w3.org/2000/svg" width="64" height="64" fill="none"><g filter="url(#a)"><circle cx="32" cy="32" r="32" fill="url(#b)"/></g><g fill="#fff" clip-path="url(#c)"><path d="M42.08 41.52c-.927 0-1.68.753-1.68 1.68s.753 1.68 1.68 1.68 1.68-.754 1.68-1.68c0-.927-.754-1.68-1.68-1.68m0 2.24a.56.56 0 1 1 0-1.12.56.56 0 0 1 0 1.12M24.16 41.52c-.927 0-1.68.753-1.68 1.68s.753 1.68 1.68 1.68 1.68-.754 1.68-1.68c0-.927-.754-1.68-1.68-1.68m0 2.24a.56.56 0 1 1 0-1.12.56.56 0 0 1 0 1.12"/><path d="m47.812 34.239-.747-.374-.761-4.566a2.79 2.79 0 0 0-2.762-2.34H37.6c-.912 0-1.715.444-2.226 1.12H33.68v-5.6h-3.36v-5.6h-7.84v5.6h-3.36v5.6h-3.36v5.6c-.618 0-1.12.502-1.12 1.12v1.12c0 .618.502 1.12 1.12 1.12v5.04c0 .926.753 1.68 1.68 1.68h2.844a3.92 3.92 0 0 0 3.876 3.36 3.92 3.92 0 0 0 3.875-3.36h10.17a3.92 3.92 0 0 0 3.875 3.36 3.92 3.92 0 0 0 3.875-3.36h1.725c.926 0 1.68-.754 1.68-1.68v-5.336a2.79 2.79 0 0 0-1.548-2.504m.428 5.254-1.12-.56v-.774h1.12zm-22.4-10.294h1.12v1.12h-1.12zm2.24 2.24v-2.24h1.12v4.48h-5.6v-4.48h1.12v2.24zm6.72 2.24h-4.48v-4.48h1.12v2.24h3.36zm0-3.92v.56h-2.24v-1.12h2.296q-.056.271-.056.56m-2.24-1.68h-5.6v-4.48h1.12v2.24h3.36v-2.24h1.12zm-3.36-4.48h1.12v1.12H29.2zm-3.36-5.6h1.12v1.12h-1.12zm-2.24 0h1.12v2.24h3.36v-2.24h1.12v4.48h-5.6zm-1.12 5.6h1.12v1.12h-1.12zm-2.24 0h1.12v2.24h3.36v-2.24h1.12v4.48h-5.6zm-1.12 5.6h1.12v1.12h-1.12zm-2.24 0H18v2.24h3.36v-2.24h1.12v4.48h-5.6zm-1.12 5.6H34.8v1.12H15.76zm1.12 4.48h2.082l-.28 1.12H16.88zm0 2.8v-.56h2.677l.84-3.36H16.88v-1.12H34.8v5.6h-6.765a3.92 3.92 0 0 0-3.875-3.36 3.92 3.92 0 0 0-3.876 3.36H17.44a.56.56 0 0 1-.56-.56m7.28 3.92a2.803 2.803 0 0 1-2.8-2.8c0-1.544 1.256-2.8 2.8-2.8s2.8 1.256 2.8 2.8-1.256 2.8-2.8 2.8m17.36-12.32h2.24v1.12h-1.12c-.618 0-1.12-.502-1.12-1.12m0-1.12c-.618 0-1.12.502-1.12 1.12 0 .41.118.789.311 1.12H38.16v-4.48h5.065l.42 2.24zm-3.36 3.36h5.6v3.744a3.9 3.9 0 0 0-1.68-.384 3.92 3.92 0 0 0-3.876 3.36h-.044zm3.92 10.08a2.803 2.803 0 0 1-2.8-2.8c0-1.544 1.256-2.8 2.8-2.8s2.8 1.256 2.8 2.8-1.256 2.8-2.8 2.8m5.6-3.36h-1.725a3.9 3.9 0 0 0-1.075-2.178V33.12l-.553-3.005a1.12 1.12 0 0 0-1.101-.915H38.16c-.618 0-1.12.502-1.12 1.12v12.32h-1.12v-12.88c0-.926.753-1.68 1.68-1.68h5.942c.825 0 1.521.59 1.657 1.404l.855 5.13 1.257.628c.572.287.929.862.929 1.502v.296H46v2.586l2.24 1.12v1.334c0 .309-.251.56-.56.56"/></g><defs><linearGradient id="b" x1="0" x2="66.16" y1="12" y2="16.677" gradientUnits="userSpaceOnUse"><stop stop-color="#30C917"/><stop offset="1" stop-color="#279A13"/></linearGradient><clipPath id="c"><path fill="#fff" d="M14.08 14.078h35.84v35.84H14.08z"/></clipPath><filter id="a" width="94" height="65" x="-14" y="0" color-interpolation-filters="sRGB" filterUnits="userSpaceOnUse"><feFlood flood-opacity="0" result="BackgroundImageFix"/><feBlend in="SourceGraphic" in2="BackgroundImageFix" result="shape"/><feColorMatrix in="SourceAlpha" result="hardAlpha" values="0 0 0 0 0 0 0 0 0 0 0 0 0 0 0 0 0 0 127 0"/><feOffset dx="-14"/><feGaussianBlur stdDeviation="8.5"/><feComposite in2="hardAlpha" k2="-1" k3="1" operator="arithmetic"/><feColorMatrix values="0 0 0 0 0.104167 0 0 0 0 0.066116 0 0 0 0 0.030816 0 0 0 0.12 0"/><feBlend in2="shape" result="effect1_innerShadow_300_1207"/><feColorMatrix in="SourceAlpha" result="hardAlpha" values="0 0 0 0 0 0 0 0 0 0 0 0 0 0 0 0 0 0 127 0"/><feMorphology in="SourceAlpha" radius="2" result="effect2_innerShadow_300_1207"/><feOffset dx="16" dy="1"/><feGaussianBlur stdDeviation="15.5"/><feComposite in2="hardAlpha" k2="-1" k3="1" operator="arithmetic"/><feColorMatrix values="0 0 0 0 1 0 0 0 0 1 0 0 0 0 1 0 0 0 0.4 0"/><feBlend in2="effect1_innerShadow_300_1207" result="effect2_innerShadow_300_1207"/></filter></defs></svg>