<svg xmlns="http://www.w3.org/2000/svg" width="28" height="28" fill="none"><rect width="28" height="28" x=".001" fill="#1DA1F2" rx="14"/><path fill="#fff" d="M20.862 10.973v.437c0 4.528-3.456 9.756-9.756 9.756a9.85 9.85 0 0 1-5.272-1.53c.262.021.547.043.81.043a6.94 6.94 0 0 0 4.265-1.466 3.395 3.395 0 0 1-3.194-2.384c.219.044.416.066.656.066.307 0 .613-.044.897-.132a3.405 3.405 0 0 1-2.756-3.347v-.043c.46.262.984.415 1.553.437a3.44 3.44 0 0 1-1.531-2.865c0-.635.175-1.225.46-1.729a9.76 9.76 0 0 0 7.065 3.588 3 3 0 0 1-.087-.788 3.426 3.426 0 0 1 3.434-3.434c.984 0 1.881.416 2.494 1.072a7 7 0 0 0 2.187-.831 3.54 3.54 0 0 1-1.51 1.903 6.6 6.6 0 0 0 1.97-.547 6.3 6.3 0 0 1-1.685 1.794"/></svg>