<svg xmlns="http://www.w3.org/2000/svg" width="28" height="28" fill="none"><rect width="28" height="28" fill="red" rx="14"/><path fill="#fff" fill-rule="evenodd" d="M20.847 8.25c.75.202 1.34.793 1.543 1.542.374 1.37.36 4.224.36 4.224s0 2.84-.36 4.209a2.19 2.19 0 0 1-1.543 1.542c-1.37.36-6.847.36-6.847.36s-5.463 0-6.847-.374a2.19 2.19 0 0 1-1.543-1.542C5.25 16.856 5.25 14 5.25 14s0-2.84.36-4.209a2.24 2.24 0 0 1 1.543-1.557c1.37-.36 6.847-.36 6.847-.36s5.478 0 6.847.375m-4.036 5.752-4.555 2.624v-5.248z" clip-rule="evenodd"/></svg>